<svg xmlns="http://www.w3.org/2000/svg" xmlns:xlink="http://www.w3.org/1999/xlink" viewBox="0 0 609.59 282.37"><defs><style>.cls-1,.cls-2{fill:#231f20;}.cls-1,.cls-10,.cls-11,.cls-12,.cls-13,.cls-14,.cls-15,.cls-16,.cls-17,.cls-18,.cls-19,.cls-20,.cls-21,.cls-22,.cls-23,.cls-24,.cls-25,.cls-26,.cls-27,.cls-28,.cls-29,.cls-30,.cls-31,.cls-35,.cls-36,.cls-37,.cls-38,.cls-5,.cls-6,.cls-7,.cls-8,.cls-9{fill-rule:evenodd;}.cls-3{fill:#cce7d3;}.cls-4{fill:url(#New_Gradient_1);}.cls-5{fill:url(#New_Gradient_2);}.cls-6{fill:url(#New_Gradient_3);}.cls-7{fill:url(#New_Gradient_21);}.cls-8{fill:#717375;}.cls-9{fill:url(#New_Gradient_5);}.cls-10{fill:#cfa56c;}.cls-11{fill:url(#New_Gradient_21-2);}.cls-12{fill:url(#New_Gradient_15);}.cls-13{fill:url(#New_Gradient_8);}.cls-14{fill:url(#New_Gradient_9);}.cls-15{fill:url(#New_Gradient_10);}.cls-16{fill:url(#New_Gradient_11);}.cls-17{fill:url(#New_Gradient_12);}.cls-18{fill:url(#New_Gradient_13);}.cls-19{fill:url(#New_Gradient_19);}.cls-20{fill:url(#New_Gradient_15-2);}.cls-21{fill:url(#New_Gradient_16);}.cls-22{fill:url(#New_Gradient_17);}.cls-23{fill:url(#New_Gradient_17-2);}.cls-24{fill:url(#New_Gradient_17-3);}.cls-25{fill:url(#New_Gradient_17-4);}.cls-26{fill:url(#New_Gradient_17-5);}.cls-27{fill:url(#New_Gradient_17-6);}.cls-28{fill:url(#New_Gradient_18);}.cls-29{fill:url(#New_Gradient_19-2);}.cls-30{fill:url(#New_Gradient_20);}.cls-31{fill:url(#New_Gradient_21-3);}.cls-32{fill:url(#New_Gradient_22);}.cls-33{fill:#f4e8bd;}.cls-34{fill:#d5d7d8;}.cls-35{fill:url(#New_Gradient_23);}.cls-36{fill:url(#New_Gradient_23-2);}.cls-37{fill:#ffefcf;}.cls-38{fill:#fabeaf;}</style><linearGradient id="New_Gradient_1" x1="104.81" y1="226.92" x2="120.96" y2="287.21" gradientUnits="userSpaceOnUse"><stop offset="0" stop-color="#e2e3e4"/><stop offset="1" stop-color="#231f20"/></linearGradient><linearGradient id="New_Gradient_2" x1="51.71" y1="224.7" x2="28.71" y2="287.89" gradientUnits="userSpaceOnUse"><stop offset="0" stop-color="#babcbe"/><stop offset="1" stop-color="#f8f8f8"/></linearGradient><linearGradient id="New_Gradient_3" x1="38.27" y1="205.13" x2="2" y2="189.74" gradientUnits="userSpaceOnUse"><stop offset="0" stop-color="#7a532d"/><stop offset="0.79" stop-color="#cfa56c"/><stop offset="1" stop-color="#cfa56c"/></linearGradient><linearGradient id="New_Gradient_21" x1="110.22" y1="162.48" x2="139.91" y2="125.81" gradientUnits="userSpaceOnUse"><stop offset="0" stop-color="#7a532d"/><stop offset="1" stop-color="#cfa56c"/></linearGradient><radialGradient id="New_Gradient_5" cx="90.61" cy="179.17" r="50.76" gradientUnits="userSpaceOnUse"><stop offset="0" stop-color="#cfa56c"/><stop offset="0.19" stop-color="#cfa56c"/><stop offset="1" stop-color="#7a532d"/></radialGradient><linearGradient id="New_Gradient_21-2" x1="109.31" y1="106.23" x2="98.87" y2="93.34" xlink:href="#New_Gradient_21"/><radialGradient id="New_Gradient_15" cx="63.19" cy="114.47" r="44.07" gradientUnits="userSpaceOnUse"><stop offset="0" stop-color="#cfa56c"/><stop offset="1" stop-color="#7a532d"/></radialGradient><radialGradient id="New_Gradient_8" cx="90.7" cy="146.8" r="10.76" gradientUnits="userSpaceOnUse"><stop offset="0" stop-color="#231f20"/><stop offset="0.76" stop-color="#babcbe"/><stop offset="1" stop-color="#babcbe"/></radialGradient><radialGradient id="New_Gradient_9" cx="100.82" cy="134.98" r="15.64" gradientUnits="userSpaceOnUse"><stop offset="0" stop-color="#231f20"/><stop offset="1" stop-color="#babcbe"/></radialGradient><linearGradient id="New_Gradient_10" x1="94.22" y1="138.72" x2="83.37" y2="140.83" gradientUnits="userSpaceOnUse"><stop offset="0" stop-color="#f4b536"/><stop offset="1" stop-color="#fff"/></linearGradient><radialGradient id="New_Gradient_11" cx="92.17" cy="115.61" r="15.19" gradientUnits="userSpaceOnUse"><stop offset="0" stop-color="#616264"/><stop offset="0.9" stop-color="#d5d7d8"/><stop offset="1" stop-color="#d5d7d8"/></radialGradient><radialGradient id="New_Gradient_12" cx="69.14" cy="137.64" r="18.35" gradientUnits="userSpaceOnUse"><stop offset="0" stop-color="#231f20"/><stop offset="0.14" stop-color="#231f20"/><stop offset="1" stop-color="#babcbe"/></radialGradient><radialGradient id="New_Gradient_13" cx="78.97" cy="117.43" r="22.24" gradientUnits="userSpaceOnUse"><stop offset="0" stop-color="#616264"/><stop offset="0.84" stop-color="#d5d7d8"/><stop offset="1" stop-color="#d5d7d8"/></radialGradient><radialGradient id="New_Gradient_19" cx="71.16" cy="117.96" r="13.42" gradientUnits="userSpaceOnUse"><stop offset="0" stop-color="#231f20"/><stop offset="0.45" stop-color="#231f20"/><stop offset="1" stop-color="#babcbe"/></radialGradient><radialGradient id="New_Gradient_15-2" cx="36.83" cy="170.05" r="73.25" xlink:href="#New_Gradient_15"/><linearGradient id="New_Gradient_16" x1="80.58" y1="66.97" x2="59.98" y2="104.14" gradientUnits="userSpaceOnUse"><stop offset="0" stop-color="#4d4d4f"/><stop offset="0.78" stop-color="#8c8e90"/><stop offset="1" stop-color="#8c8e90"/></linearGradient><linearGradient id="New_Gradient_17" x1="74.09" y1="239.56" x2="74.09" y2="227.48" gradientUnits="userSpaceOnUse"><stop offset="0" stop-color="#f4b536"/><stop offset="1" stop-color="#ffefcf"/></linearGradient><linearGradient id="New_Gradient_17-2" x1="66.73" y1="241.87" x2="66.73" y2="228.6" xlink:href="#New_Gradient_17"/><linearGradient id="New_Gradient_17-3" x1="57.38" y1="244" x2="57.38" y2="228.98" xlink:href="#New_Gradient_17"/><linearGradient id="New_Gradient_17-4" x1="91.84" y1="234.75" x2="91.84" y2="223.51" xlink:href="#New_Gradient_17"/><linearGradient id="New_Gradient_17-5" x1="99.39" y1="232.86" x2="99.39" y2="221.38" xlink:href="#New_Gradient_17"/><linearGradient id="New_Gradient_17-6" x1="106.24" y1="231.26" x2="106.24" y2="220.49" xlink:href="#New_Gradient_17"/><linearGradient id="New_Gradient_18" x1="98.27" y1="99.22" x2="50.73" y2="95.9" gradientUnits="userSpaceOnUse"><stop offset="0" stop-color="#231f20"/><stop offset="0.64" stop-color="#8c8e90"/><stop offset="0.75" stop-color="#8c8e90"/><stop offset="1" stop-color="#231f20"/></linearGradient><radialGradient id="New_Gradient_19-2" cx="90.68" cy="113.47" r="10.71" xlink:href="#New_Gradient_19"/><linearGradient id="New_Gradient_20" x1="90.81" y1="124.2" x2="94.4" y2="135.26" gradientUnits="userSpaceOnUse"><stop offset="0" stop-color="#ffefcf"/><stop offset="1" stop-color="#f4b536"/></linearGradient><linearGradient id="New_Gradient_21-3" x1="46.19" y1="112.41" x2="58.22" y2="97.01" xlink:href="#New_Gradient_21"/><linearGradient id="New_Gradient_22" x1="175.4" y1="167.42" x2="175.4" y2="167.43" gradientUnits="userSpaceOnUse"><stop offset="0" stop-color="#faab5a"/><stop offset="1" stop-color="#231f20"/></linearGradient><linearGradient id="New_Gradient_23" x1="25.17" y1="119.94" x2="30.92" y2="119.94" gradientUnits="userSpaceOnUse"><stop offset="0" stop-color="#ffd540"/><stop offset="0.49" stop-color="#231f20"/><stop offset="1" stop-color="#ffd540"/></linearGradient><linearGradient id="New_Gradient_23-2" x1="26.42" y1="103.99" x2="29.8" y2="103.99" xlink:href="#New_Gradient_23"/></defs><title>fundations-logo--dark</title><g id="Layer_2" data-name="Layer 2"><g id="Layer_1-2" data-name="Layer 1"><path class="cls-1" d="M191.3,258.8c-.32-3.26-.67-6.78-1.07-10.57-.16-1.52-.36-3.13-.61-4.82a2.18,2.18,0,0,0-.4-1.16,1.8,1.8,0,0,0-1.08-.22h-.67l.14-.84c1.46.05,2.76.07,3.9.07s2.33,0,3.59-.07V242h-.66a2.42,2.42,0,0,0-1.19.19.9.9,0,0,0-.25.75c0,.56.21,2.93.63,7.13l.46,4.69c1.56-3.28,2.82-5.92,3.81-7.92l2.82-6h.81c.09.22.3.93.63,2.15l1.08,4,2.22,8.09q2.69-7,3.34-8.75c.33-.88.64-1.83.91-2.84a4,4,0,0,0,.18-.9.5.5,0,0,0-.29-.47,2.53,2.53,0,0,0-1.13-.16h-.82l.14-.84c1.68.05,2.76.07,3.23.07.7,0,1.51,0,2.43-.07l-.15.84H213a1.2,1.2,0,0,0-1.05.38q-.25.39-2.32,5.58l-2.8,6.95c-.66,1.67-1.16,3-1.48,3.86h-2.15c-.2-.85-.47-1.86-.8-3q-.63-2.39-2.71-9.76-2.79,5.61-6.25,12.79Z"/><path class="cls-1" d="M216.91,242.75a2.09,2.09,0,0,1,.5-1.5,1.64,1.64,0,0,1,1.28-.55,1.3,1.3,0,0,1,1,.38,1.33,1.33,0,0,1,.38,1,2.07,2.07,0,0,1-.49,1.43,1.62,1.62,0,0,1-1.27.57,1.34,1.34,0,0,1-1-.39A1.26,1.26,0,0,1,216.91,242.75Zm-4,7.56-.3-.68a45,45,0,0,1,3.84-2.63,4.06,4.06,0,0,1,1.58-.52.72.72,0,0,1,.57.25,1.05,1.05,0,0,1,.22.72,16.85,16.85,0,0,1-.81,3.66l-.41,1.35a19.87,19.87,0,0,0-1,4c0,.29.12.43.36.43a8.23,8.23,0,0,0,2.14-1.2l.34.66L216.9,258a8.2,8.2,0,0,1-1.57.83,2,2,0,0,1-.68.14.9.9,0,0,1-.73-.32,1.67,1.67,0,0,1-.26-1,9.82,9.82,0,0,1,.4-2.4l.84-3a14.25,14.25,0,0,0,.65-2.92c0-.21-.1-.32-.29-.32a1.63,1.63,0,0,0-.6.2A12.05,12.05,0,0,0,212.92,250.31Z"/><path class="cls-1" d="M227.81,255.63l.38.68-2.25,1.52a13.52,13.52,0,0,1-1.84,1,2.59,2.59,0,0,1-.83.18.77.77,0,0,1-.64-.35,1.89,1.89,0,0,1-.25-1.09,13.07,13.07,0,0,1,.44-2.91l1.62-6.73c.26-1,.53-2.34.83-3.88.15-1,.22-1.5.22-1.67a.36.36,0,0,0-.22-.36,2.85,2.85,0,0,0-1.18-.17h-.73l.11-.74a23.88,23.88,0,0,0,5.19-1.16l.31.28-.9,3.63-1.79,7.62a31.41,31.41,0,0,0-.89,4.76.84.84,0,0,0,.09.45.31.31,0,0,0,.25.14,1.33,1.33,0,0,0,.55-.22A8.47,8.47,0,0,0,227.81,255.63Z"/><path class="cls-1" d="M229.4,258.3a17.9,17.9,0,0,0,.57-3.36h.78l0,1.22a4.16,4.16,0,0,0,1.43,1.07,4.23,4.23,0,0,0,1.81.42,2.58,2.58,0,0,0,1.75-.53,1.76,1.76,0,0,0,.59-1.39,1.59,1.59,0,0,0-.4-1.11,2.47,2.47,0,0,0-1.36-.63l-1.08-.23a4.43,4.43,0,0,1-2.07-.83,2.63,2.63,0,0,1-.84-2,2.92,2.92,0,0,1,1-2.36,7.39,7.39,0,0,1,4.74-2.06,6.16,6.16,0,0,1,1.47.18,6.64,6.64,0,0,1,1.49.56,25.88,25.88,0,0,0-.51,3h-.75l-.14-1.24a4.88,4.88,0,0,0-1.44-.91,4,4,0,0,0-1.41-.25,2.14,2.14,0,0,0-1.48.5,1.68,1.68,0,0,0-.56,1.29,1.52,1.52,0,0,0,.54,1.22,4.4,4.4,0,0,0,2,.71l.7.11a3.31,3.31,0,0,1,2,1,2.6,2.6,0,0,1,.65,1.83,3,3,0,0,1-.78,2,8.66,8.66,0,0,1-2.16,1.71,6.1,6.1,0,0,1-3.14.82,7.24,7.24,0,0,1-1.47-.13A15,15,0,0,1,229.4,258.3Z"/><path class="cls-1" d="M241.59,255.17a11.29,11.29,0,0,1,1.12-4.86,6.64,6.64,0,0,1,2.62-2.61,7.24,7.24,0,0,1,3.85-1.22,5.58,5.58,0,0,1,2.38.45,3.06,3.06,0,0,1,1.4,1.3,4.62,4.62,0,0,1,.45,2.2,10,10,0,0,1-.63,3.44,7.34,7.34,0,0,1-1.46,2.57,10.19,10.19,0,0,1-3,1.95,6.53,6.53,0,0,1-2.79.62,4.13,4.13,0,0,1-3-1A3.91,3.91,0,0,1,241.59,255.17Zm3-.27a3.43,3.43,0,0,0,.58,2.23,2.18,2.18,0,0,0,1.75.67,2.13,2.13,0,0,0,1.45-.56,6.43,6.43,0,0,0,1.46-2.78,13.94,13.94,0,0,0,.62-4.09,3.1,3.1,0,0,0-.61-2.12,2,2,0,0,0-1.62-.7,2.37,2.37,0,0,0-1.61.63,5.28,5.28,0,0,0-1.26,2.39A15,15,0,0,0,244.57,254.9Z"/><path class="cls-1" d="M255.79,259l-.32-.33c.18-.45.33-.86.44-1.24.4-1.36.69-2.32.84-2.87a30.79,30.79,0,0,0,.71-3.15,15.62,15.62,0,0,0,.28-2.11c0-.25-.09-.37-.29-.37a1.48,1.48,0,0,0-.53.2,7.73,7.73,0,0,0-1.36.86l-.33-.67,1.9-1.43a13.06,13.06,0,0,1,2.06-1.24,2.32,2.32,0,0,1,.85-.18.73.73,0,0,1,.54.18.79.79,0,0,1,.18.58,4.8,4.8,0,0,1-.1.89c-.18,1-.39,1.83-.6,2.63l-.52,1.89a23.79,23.79,0,0,1,1.33-2,17.83,17.83,0,0,1,2.23-2.28,9.94,9.94,0,0,1,2.26-1.52,3.31,3.31,0,0,1,1.31-.33,1,1,0,0,1,.8.3,1.25,1.25,0,0,1,.28.86,17.57,17.57,0,0,1-.77,3.54l-.63,2.3a11.33,11.33,0,0,0-.52,2.89c0,.32.1.48.29.48a1.47,1.47,0,0,0,.63-.24,6.68,6.68,0,0,0,1.24-.88l.31.74a33.38,33.38,0,0,1-3,2,4,4,0,0,1-1.71.55.81.81,0,0,1-.69-.3,1.82,1.82,0,0,1-.23-1.06,10.14,10.14,0,0,1,.51-2.54l.4-1.39q.51-1.86.63-2.46a11.93,11.93,0,0,0,.34-1.87.45.45,0,0,0-.14-.35.48.48,0,0,0-.35-.13c-.42,0-1,.36-1.7,1.08a12.52,12.52,0,0,0-2.46,3.61,18.74,18.74,0,0,0-1.38,4.92A12.36,12.36,0,0,0,255.79,259Z"/><path class="cls-1" d="M276.24,258.8l.14-.85H277a1.15,1.15,0,0,0,1.14-.54q.17-.29,1-5.18l.79-4.81c.17-1,.31-2,.41-3s.15-1.52.15-1.74a.6.6,0,0,0-.23-.53,1.76,1.76,0,0,0-.92-.16h-1.21l.14-.84c2.27.05,3.83.07,4.7.07,1.08,0,2.28,0,3.6-.07l-.15.84h-.7a2.73,2.73,0,0,0-1.38.21,1.76,1.76,0,0,0-.43,1c-.08.39-.33,1.82-.74,4.28-.72,4.37-1.26,7.67-1.64,9.9,1.3.05,2.31.07,3,.07a11.48,11.48,0,0,0,3.86-.39c.25-.12.52-.66.82-1.64l.44-1.28h.9a46.27,46.27,0,0,0-.88,4.62c-2.07,0-3.77,0-5.09-.05l-3.66-.08C278.82,258.67,277.26,258.72,276.24,258.8Z"/><path class="cls-1" d="M305,255.65l.27.82q-3.14,2.53-4.39,2.54a.71.71,0,0,1-.61-.27,1.41,1.41,0,0,1-.29-.9,27.09,27.09,0,0,1,.88-4.24l.22-.89c-1,1.61-1.72,2.65-2.11,3.12a13.1,13.1,0,0,1-1.85,1.91,6.72,6.72,0,0,1-1.74,1.05,2.22,2.22,0,0,1-.87.22,1.25,1.25,0,0,1-1.07-.52,2.87,2.87,0,0,1-.39-1.71,13.39,13.39,0,0,1,.55-3.47,14.06,14.06,0,0,1,1.16-3.12,5.4,5.4,0,0,1,1.37-1.41,16.73,16.73,0,0,1,2.83-1.94,4.39,4.39,0,0,1,1.78-.36,6.32,6.32,0,0,1,1.37.15,6.81,6.81,0,0,1,1.33.47l1.16-.62.42.25a5.48,5.48,0,0,0-.26.77l-.48,1.69-1.41,6a6.09,6.09,0,0,0-.19,1.22c0,.29.1.44.3.44A4.56,4.56,0,0,0,305,255.65Zm-3.28-7.26a6.22,6.22,0,0,0-1.09-.42,4,4,0,0,0-1-.13,2,2,0,0,0-1.47.58,7.8,7.8,0,0,0-1.32,2.94,17.62,17.62,0,0,0-1,4.66,1.15,1.15,0,0,0,.15.66.41.41,0,0,0,.35.22,1.08,1.08,0,0,0,.51-.21,9.67,9.67,0,0,0,2-2,16,16,0,0,0,1.84-3,10.19,10.19,0,0,0,.91-2.72Z"/><path class="cls-1" d="M307.44,259l-.32-.33c.18-.45.32-.86.44-1.24l.84-2.87a30.79,30.79,0,0,0,.71-3.15,15.62,15.62,0,0,0,.28-2.11c0-.25-.09-.37-.29-.37a1.44,1.44,0,0,0-.54.2,8,8,0,0,0-1.35.86l-.33-.67,1.9-1.43a12.62,12.62,0,0,1,2.06-1.24,2.28,2.28,0,0,1,.85-.18.73.73,0,0,1,.54.18.79.79,0,0,1,.18.58,4.8,4.8,0,0,1-.1.89c-.19,1-.39,1.83-.61,2.63l-.51,1.89a23.79,23.79,0,0,1,1.33-2,17.76,17.76,0,0,1,2.22-2.28,10,10,0,0,1,2.27-1.52,3.27,3.27,0,0,1,1.3-.33,1,1,0,0,1,.81.3,1.25,1.25,0,0,1,.27.86,17.28,17.28,0,0,1-.76,3.54l-.64,2.3a11.69,11.69,0,0,0-.51,2.89c0,.32.09.48.29.48a1.4,1.4,0,0,0,.62-.24,6.8,6.8,0,0,0,1.25-.88l.31.74a31.62,31.62,0,0,1-3,2,4,4,0,0,1-1.7.55.81.81,0,0,1-.69-.3,1.82,1.82,0,0,1-.23-1.06,10.49,10.49,0,0,1,.5-2.54l.4-1.39c.34-1.24.56-2.06.63-2.46a10.78,10.78,0,0,0,.34-1.87.45.45,0,0,0-.13-.35.53.53,0,0,0-.36-.13c-.41,0-1,.36-1.69,1.08a12.52,12.52,0,0,0-2.46,3.61,18.74,18.74,0,0,0-1.38,4.92A12.26,12.26,0,0,0,307.44,259Z"/><path class="cls-1" d="M324.2,258.34a1.69,1.69,0,0,1-.66-1.23.84.84,0,0,1,.39-.76l1-.57a10.36,10.36,0,0,0,1.05-.71l-.54,0a4.32,4.32,0,0,1-1.93-.47,2.46,2.46,0,0,1-1.09-1A3.31,3.31,0,0,1,322,252a5,5,0,0,1,.57-2.36,4.29,4.29,0,0,1,1.32-1.61,12.81,12.81,0,0,1,2.65-1.2,4.89,4.89,0,0,1,1.61-.3,4.47,4.47,0,0,1,1.78.31,3,3,0,0,0,.79.25,5.68,5.68,0,0,0,.93.06l2.48-.09.12.2-.3,1.32a10.74,10.74,0,0,0-1.89-.14l-.33,0a3.69,3.69,0,0,1,.26,1.39,5.14,5.14,0,0,1-.45,2.06,4.44,4.44,0,0,1-1.11,1.6,8.33,8.33,0,0,1-2.25,1.17,5.51,5.51,0,0,0-1.48.75.88.88,0,0,0-.36.59.69.69,0,0,0,.19.45,6,6,0,0,0,1,.84l1.67,1.2a5.69,5.69,0,0,1,1.51,1.44,2.76,2.76,0,0,1,.41,1.47,3.52,3.52,0,0,1-1.57,2.93,8.28,8.28,0,0,1-5,1.43,7,7,0,0,1-4-.93,2.74,2.74,0,0,1-1.31-2.28,3,3,0,0,1,.63-1.74,4.91,4.91,0,0,1,1.83-1.47A24.94,24.94,0,0,1,324.2,258.34Zm.39-6.47a2.6,2.6,0,0,0,.51,1.77,1.83,1.83,0,0,0,1.45.56,2.16,2.16,0,0,0,1.33-.45,3.6,3.6,0,0,0,1-1.56,6.65,6.65,0,0,0,.43-2.37,2.46,2.46,0,0,0-.52-1.71,1.86,1.86,0,0,0-1.44-.56,2.23,2.23,0,0,0-2,1.35A6.11,6.11,0,0,0,324.59,251.87Zm.16,6.94-1.26.58a6.16,6.16,0,0,0-1.18.79,2.65,2.65,0,0,0-.67.9,2.5,2.5,0,0,0-.23,1.08,2.25,2.25,0,0,0,1,1.85,4.14,4.14,0,0,0,2.62.75,4,4,0,0,0,2.54-.72,2.14,2.14,0,0,0,.91-1.73,1.66,1.66,0,0,0-.39-1,11.91,11.91,0,0,0-2.15-1.69Z"/><path class="cls-1" d="M334.49,249.78l-.3-.71a26.71,26.71,0,0,1,3-1.91,4.52,4.52,0,0,1,1.93-.68.86.86,0,0,1,.64.22,1.13,1.13,0,0,1,.21.77,10.34,10.34,0,0,1-.45,2.29l-.74,2.74c-.28,1-.51,2-.69,2.95a4.62,4.62,0,0,0-.13.9.61.61,0,0,0,.12.41.39.39,0,0,0,.32.14,1.42,1.42,0,0,0,.68-.26,8.54,8.54,0,0,0,1.67-1.67,14.27,14.27,0,0,0,1.74-2.79,15,15,0,0,0,1.09-3A16.75,16.75,0,0,0,344,247a10.32,10.32,0,0,0,2.73-.51l.21.25q-.63,1.94-1.47,5a25.74,25.74,0,0,0-1,4.65c0,.3.13.45.38.45a1.26,1.26,0,0,0,.48-.19,8.81,8.81,0,0,0,1.39-1l.25.72L344.66,258a7.92,7.92,0,0,1-1.43.79,2.39,2.39,0,0,1-.82.18.71.71,0,0,1-.59-.27,1.2,1.2,0,0,1-.22-.79,10.18,10.18,0,0,1,.44-2.26l.74-2.75a16,16,0,0,1-3.9,4.69A5,5,0,0,1,336.1,259a1.1,1.1,0,0,1-.87-.37,1.82,1.82,0,0,1-.31-1.19,4.12,4.12,0,0,1,.09-.86,21.56,21.56,0,0,1,.54-2.13l.36-1.34a20.82,20.82,0,0,0,.85-3.82.59.59,0,0,0-.1-.38.3.3,0,0,0-.26-.13A5.93,5.93,0,0,0,334.49,249.78Z"/><path class="cls-1" d="M360.67,255.65l.26.82q-3.12,2.53-4.38,2.54a.73.73,0,0,1-.62-.27,1.41,1.41,0,0,1-.29-.9,28.45,28.45,0,0,1,.88-4.24l.23-.89a37,37,0,0,1-2.12,3.12,12.6,12.6,0,0,1-1.85,1.91,6.85,6.85,0,0,1-1.73,1.05,2.3,2.3,0,0,1-.88.22,1.26,1.26,0,0,1-1.07-.52,2.88,2.88,0,0,1-.38-1.71,13.77,13.77,0,0,1,.54-3.47,14.06,14.06,0,0,1,1.16-3.12,5.66,5.66,0,0,1,1.38-1.41,16.78,16.78,0,0,1,2.82-1.94,4.4,4.4,0,0,1,1.79-.36,6.23,6.23,0,0,1,1.36.15,6.59,6.59,0,0,1,1.33.47l1.17-.62.41.25c-.06.15-.15.41-.26.77l-.48,1.69-1.4,6a5.44,5.44,0,0,0-.19,1.22c0,.29.1.44.3.44A4.62,4.62,0,0,0,360.67,255.65Zm-3.29-7.26a6.45,6.45,0,0,0-1.08-.42,4.06,4.06,0,0,0-1-.13,2.06,2.06,0,0,0-1.48.58,8,8,0,0,0-1.32,2.94,18,18,0,0,0-.95,4.66,1.15,1.15,0,0,0,.15.66.42.42,0,0,0,.35.22,1.07,1.07,0,0,0,.52-.21,9.67,9.67,0,0,0,1.95-2,15.44,15.44,0,0,0,1.84-3,10.25,10.25,0,0,0,.92-2.72Z"/><path class="cls-1" d="M365.62,258.34a1.71,1.71,0,0,1-.67-1.23.84.84,0,0,1,.39-.76l1-.57a9.6,9.6,0,0,0,1.06-.71l-.54,0a4.32,4.32,0,0,1-1.93-.47,2.46,2.46,0,0,1-1.09-1,3.31,3.31,0,0,1-.39-1.68,5,5,0,0,1,.57-2.36,4.36,4.36,0,0,1,1.31-1.61,13.08,13.08,0,0,1,2.65-1.2,5,5,0,0,1,1.62-.3,4.5,4.5,0,0,1,1.78.31,2.85,2.85,0,0,0,.79.25,5.63,5.63,0,0,0,.92.06l2.48-.09.13.2-.3,1.32a10.78,10.78,0,0,0-1.9-.14l-.32,0a3.89,3.89,0,0,1,.26,1.39,5,5,0,0,1-.46,2.06,4.3,4.3,0,0,1-1.1,1.6,8.33,8.33,0,0,1-2.25,1.17,5.35,5.35,0,0,0-1.48.75.88.88,0,0,0-.36.59.65.65,0,0,0,.19.45,5.57,5.57,0,0,0,1,.84l1.67,1.2a5.47,5.47,0,0,1,1.5,1.44,2.68,2.68,0,0,1,.42,1.47,3.55,3.55,0,0,1-1.57,2.93,8.32,8.32,0,0,1-5,1.43,7,7,0,0,1-4-.93,2.74,2.74,0,0,1-1.31-2.28,2.9,2.9,0,0,1,.64-1.74,5,5,0,0,1,1.82-1.47A26.55,26.55,0,0,1,365.62,258.34Zm.39-6.47a2.65,2.65,0,0,0,.5,1.77,1.85,1.85,0,0,0,1.45.56,2.12,2.12,0,0,0,1.33-.45,3.7,3.7,0,0,0,1-1.56,6.64,6.64,0,0,0,.42-2.37,2.46,2.46,0,0,0-.51-1.71,1.88,1.88,0,0,0-1.44-.56,2.26,2.26,0,0,0-2,1.35A6.21,6.21,0,0,0,366,251.87Zm.16,6.94-1.27.58a6.87,6.87,0,0,0-1.18.79,2.62,2.62,0,0,0-.66.9,2.51,2.51,0,0,0-.24,1.08,2.25,2.25,0,0,0,1,1.85,4.17,4.17,0,0,0,2.63.75A4,4,0,0,0,369,264a2.14,2.14,0,0,0,.91-1.73,1.62,1.62,0,0,0-.4-1,11.53,11.53,0,0,0-2.15-1.69Z"/><path class="cls-1" d="M384.82,255.63l.28.69L383,257.68a12.92,12.92,0,0,1-2.25,1,5.53,5.53,0,0,1-1.68.3,3.23,3.23,0,0,1-2.36-.81,3,3,0,0,1-.84-2.3,13.87,13.87,0,0,1,.74-4.09,6.73,6.73,0,0,1,1.43-2.62,11.26,11.26,0,0,1,3.05-2.09,5.28,5.28,0,0,1,2.46-.62,2.62,2.62,0,0,1,1.79.57,1.9,1.9,0,0,1,.65,1.49,3.65,3.65,0,0,1-.64,2.09,5.67,5.67,0,0,1-2.3,1.76,15.05,15.05,0,0,1-4.09,1.19,6.29,6.29,0,0,0-.26,1.71,2,2,0,0,0,.51,1.5,2,2,0,0,0,1.44.5,5.53,5.53,0,0,0,1.84-.42A11.74,11.74,0,0,0,384.82,255.63ZM379,252.89a10.8,10.8,0,0,0,2.71-1,3.81,3.81,0,0,0,1.27-1.39,3.33,3.33,0,0,0,.51-1.6,1.18,1.18,0,0,0-.33-.87,1.22,1.22,0,0,0-.9-.33,2.07,2.07,0,0,0-1.18.4,3.65,3.65,0,0,0-1,1.42A20,20,0,0,0,379,252.89Z"/><path class="cls-1" d="M393.9,258.75l.14-.85h.3a2.62,2.62,0,0,0,1.13-.25c.16-.06.27-.23.35-.5.13-.44.34-1.48.61-3.13l1.11-6.57a39.43,39.43,0,0,0,.61-4.73c0-.24-.06-.4-.2-.47a2.61,2.61,0,0,0-1.25-.22h-.9l.13-.84c.92.05,2.32.07,4.23.07l4.34-.07a9.09,9.09,0,0,1,3.16.42,3.43,3.43,0,0,1,1.61,1.22,3.35,3.35,0,0,1,.54,1.93,4,4,0,0,1-1.17,2.81,7.7,7.7,0,0,1-3.83,1.84,6.21,6.21,0,0,1,3.46,1.27,3.48,3.48,0,0,1,1,2.61,4.63,4.63,0,0,1-.84,2.66,6.23,6.23,0,0,1-2.52,2,8.32,8.32,0,0,1-3.66.81l-5-.15C396.64,258.65,395.56,258.68,393.9,258.75Zm6.65-9.73,1.18,0a6.48,6.48,0,0,0,2.75-.47,3.43,3.43,0,0,0,1.52-1.45,4.63,4.63,0,0,0,.55-2.3,2.68,2.68,0,0,0-.36-1.44,2.27,2.27,0,0,0-1-.85,5.92,5.92,0,0,0-2.11-.27,11.11,11.11,0,0,0-1.43.08l-.5,3.07Zm-1.4,8.29a21.56,21.56,0,0,0,2.84.36,3.93,3.93,0,0,0,2-.45,3.52,3.52,0,0,0,1.28-1.54,5.54,5.54,0,0,0,.52-2.39,3,3,0,0,0-.87-2.36,4.24,4.24,0,0,0-2.85-.78l-1.75,0-.57,3.37Z"/><path class="cls-1" d="M423.71,255.65l.26.82q-3.12,2.53-4.38,2.54a.73.73,0,0,1-.62-.27,1.4,1.4,0,0,1-.28-.9,27.81,27.81,0,0,1,.87-4.24l.23-.89a37,37,0,0,1-2.12,3.12,12.6,12.6,0,0,1-1.85,1.91,6.85,6.85,0,0,1-1.73,1.05,2.3,2.3,0,0,1-.88.22,1.26,1.26,0,0,1-1.07-.52,3,3,0,0,1-.38-1.71,13.77,13.77,0,0,1,.54-3.47,14.06,14.06,0,0,1,1.16-3.12,5.66,5.66,0,0,1,1.38-1.41,17.21,17.21,0,0,1,2.82-1.94,4.44,4.44,0,0,1,1.79-.36,6.39,6.39,0,0,1,1.37.15,6.5,6.5,0,0,1,1.32.47l1.17-.62.41.25c-.06.15-.15.41-.26.77l-.48,1.69-1.4,6a5.44,5.44,0,0,0-.19,1.22c0,.29.1.44.3.44A4.62,4.62,0,0,0,423.71,255.65Zm-3.29-7.26a6.14,6.14,0,0,0-1.08-.42,4.06,4.06,0,0,0-1-.13,2,2,0,0,0-1.47.58,7.76,7.76,0,0,0-1.33,2.94,18,18,0,0,0-.95,4.66,1.15,1.15,0,0,0,.15.66.42.42,0,0,0,.35.22,1.07,1.07,0,0,0,.52-.21,9.43,9.43,0,0,0,1.95-2,15.44,15.44,0,0,0,1.84-3,10.25,10.25,0,0,0,.92-2.72Z"/><path class="cls-1" d="M425.48,258.3a17.86,17.86,0,0,0,.56-3.36h.78l0,1.22a4.43,4.43,0,0,0,3.23,1.49,2.56,2.56,0,0,0,1.75-.53,1.77,1.77,0,0,0,.6-1.39,1.59,1.59,0,0,0-.4-1.11,2.54,2.54,0,0,0-1.37-.63l-1.08-.23a4.33,4.33,0,0,1-2.06-.83,2.63,2.63,0,0,1-.84-2,2.92,2.92,0,0,1,1-2.36,7.39,7.39,0,0,1,4.74-2.06,6.14,6.14,0,0,1,1.46.18,6.54,6.54,0,0,1,1.5.56,23.82,23.82,0,0,0-.52,3h-.75L434,249a4.85,4.85,0,0,0-1.43-.91,4,4,0,0,0-1.42-.25,2.16,2.16,0,0,0-1.48.5,1.67,1.67,0,0,0-.55,1.29,1.55,1.55,0,0,0,.53,1.22,4.46,4.46,0,0,0,2,.71l.7.11a3.34,3.34,0,0,1,2,1,2.64,2.64,0,0,1,.65,1.83,3,3,0,0,1-.78,2,9,9,0,0,1-2.16,1.71,6.13,6.13,0,0,1-3.14.82,7.34,7.34,0,0,1-1.48-.13A15,15,0,0,1,425.48,258.3Z"/><path class="cls-1" d="M441.5,242.75a2.09,2.09,0,0,1,.5-1.5,1.64,1.64,0,0,1,1.28-.55,1.32,1.32,0,0,1,1,.38,1.33,1.33,0,0,1,.38,1,2.07,2.07,0,0,1-.49,1.43,1.62,1.62,0,0,1-1.27.57,1.34,1.34,0,0,1-1-.39A1.26,1.26,0,0,1,441.5,242.75Zm-4,7.56-.31-.68a46.24,46.24,0,0,1,3.85-2.63,4,4,0,0,1,1.58-.52.72.72,0,0,1,.57.25,1.05,1.05,0,0,1,.22.72,16.85,16.85,0,0,1-.81,3.66l-.41,1.35a19.87,19.87,0,0,0-.95,4c0,.29.12.43.35.43a8,8,0,0,0,2.15-1.2l.34.66-2.6,1.73a8.2,8.2,0,0,1-1.57.83,2,2,0,0,1-.68.14.88.88,0,0,1-.73-.32,1.67,1.67,0,0,1-.26-1,9.82,9.82,0,0,1,.4-2.4l.84-3a14.25,14.25,0,0,0,.65-2.92c0-.21-.1-.32-.29-.32a1.63,1.63,0,0,0-.6.2A12.05,12.05,0,0,0,437.51,250.31Z"/><path class="cls-1" d="M455.24,255.47l.29.82a23.82,23.82,0,0,1-3.82,2.21,6.3,6.3,0,0,1-2.32.51,3.31,3.31,0,0,1-2.46-.91,3.53,3.53,0,0,1-.88-2.57,11.36,11.36,0,0,1,.47-3.15,8.48,8.48,0,0,1,1.06-2.51,6,6,0,0,1,1.83-1.6l2.2-1.32a4.88,4.88,0,0,1,2.16-.47,5.84,5.84,0,0,1,1.27.15,9.28,9.28,0,0,1,1.46.49,18.1,18.1,0,0,0-.93,3.62h-.86a11.77,11.77,0,0,0,.14-1.32l0-.4a3.65,3.65,0,0,0-1.11-.69,3.26,3.26,0,0,0-1.24-.24,2.3,2.3,0,0,0-1.53.49,4.43,4.43,0,0,0-1.2,2.17A15.55,15.55,0,0,0,449,255a2.67,2.67,0,0,0,.53,1.79,1.71,1.71,0,0,0,1.4.64,5.41,5.41,0,0,0,2-.51A9.21,9.21,0,0,0,455.24,255.47Z"/><path class="cls-1" d="M456.83,258.3a17.86,17.86,0,0,0,.56-3.36h.78l0,1.22a4.07,4.07,0,0,0,1.43,1.07,4.16,4.16,0,0,0,1.8.42,2.58,2.58,0,0,0,1.75-.53,1.77,1.77,0,0,0,.6-1.39,1.64,1.64,0,0,0-.4-1.11A2.54,2.54,0,0,0,462,254l-1.08-.23a4.43,4.43,0,0,1-2.07-.83,2.63,2.63,0,0,1-.84-2,3,3,0,0,1,1-2.36,7.44,7.44,0,0,1,4.75-2.06,6.14,6.14,0,0,1,1.46.18,6.71,6.71,0,0,1,1.5.56,23.82,23.82,0,0,0-.52,3h-.75l-.14-1.24a4.88,4.88,0,0,0-1.44-.91,4,4,0,0,0-1.41-.25,2.14,2.14,0,0,0-1.48.5,1.68,1.68,0,0,0-.56,1.29,1.52,1.52,0,0,0,.54,1.22,4.41,4.41,0,0,0,2,.71l.7.11a3.31,3.31,0,0,1,2,1,2.6,2.6,0,0,1,.65,1.83,3,3,0,0,1-.77,2,8.92,8.92,0,0,1-2.17,1.71,6.1,6.1,0,0,1-3.14.82,7.24,7.24,0,0,1-1.47-.13A14.55,14.55,0,0,1,456.83,258.3Z"/><path class="cls-2" d="M471.32,11.2l2.38,1.5-2.13,3.13-2.38-1.5-2.26-1.13-2.37-1-2.89-.86-2.88-.75-.75-.12.5-3.76.67.08-.3-.08.63.12.25.13,2.88.75,2.89.88,2.88,1.12,2.63,1.38ZM279.08,81.88l1.63-1.63L283.34,83l-1.63,1.63L280,86.52l-3.64,4.76-1.42,2.36-1.46,3.15-2.76,6.77-3.38-1.5,2.76-6.9,1.5-3.13.13-.25L273.31,89l3.76-4.89.17-.2ZM312.79,71l3.38.75-.87,3.63-3.39-.75-3.74-.36-4.15.24-4.4.59-4.25,1.16-3.51,1.25L290.48,74l3.76-1.37h.25l4.26-1.13.26,0,4.63-.7h.25l4.39-.25,4.26.37Zm22.68-2.13,1.63-2.76,3.14,2-1.55,2.61L337.1,74l-1.63,3.26-2.75,6.64-1,2.51-2-1.88-3.64-3.38-1.62-1.26,2.25-3,1.88,1.37,1.77,1.66,1.74-4.29,1.75-3.38L335.47,69ZM363.3,43.91l2.5-.38.38,3.76-2.15.32-3.12,1.06-2.65,1.08-2.61,1.43L353,52.93l-2.38,2L348.44,57l-2.06,2.44-2.76-2.64,2.13-2.38,2.38-2.38,2.63-2.13L353.52,48l.25-.12,2.88-1.51,2.67-1.23-.41.11.75-.25h.25L363,44l.26-.06Zm29.55,11,1-2,3.26,1.88-2.25,4.39-1.26,2.38-1.75-2-2.82-3.18L386,53.81l-3.64-2.26-3.51-1.75-2.75-1.13,1.38-3.51,2.88,1.13,3.88,2,.25.13,3.64,2.25,3.38,2.89.19.18Zm18.94-28.57,3.14-3,2.63,2.76-3.07,2.95-1.94,2.32-2,2.25-3.78,4.75-3.86,5.9-.63.88-3.13-2,.62-1,3.89-5.89,4-5.14,2.13-2.38,2-2.25ZM446.63,6.19h.5l.26,3.76h-.51l-3.13.37-2.77.44-3,.94-2.66,1-2.86,1.42-2.25,1.25-2.51,1.88-2,1.63L423.32,16l2-1.63,2.63-2,2.76-1.63,3-1.38,2.57-1.08-.31.08.75-.25H437l3-.88.25-.1,3.13-.53,3.14-.37Z"/><path class="cls-2" d="M153.08,237.52a10.73,10.73,0,0,0-4.53-5.74L75.13,217.43l-17.68,2.12c-4.38.6-8.76,1.21-13.14,2S34,223,26.79,224.08c-7.1.91-15.41,2.27-24.63,4.08-.91,1.81-.53,2.15,2.34,3.66.91,1.06,1.38,4.46,1.23,7.18-.3,2.72-1.45,5.53-2.36,6.13L.73,246.27c-.16.75-1.29,1.79-.38,2.55.9.6,64.2,30.17,68,32.29,4.34,1.51,5.1,1.62,8.12.56,25.17-8.36,44.66-16.52,69.11-25.3.78-.3.45-1.21,1.23-1.51,1-.41,1.7,1,2.74.57,1.7-2.18,3.36-4.11,4.06-7.84A18.27,18.27,0,0,0,153.08,237.52Z"/><path class="cls-3" d="M146.18,232.91,145,234.65c-2.42-.45-8.08-1.81-8.69-2-8.31-1.51-15.86-2.72-22.81-4.08s-14.2-2.87-21.6-4.23-15.11-3-23.12-4.53l5.59-.91Z"/><path class="cls-3" d="M139.52,234.84l-65.9,20.59c-4.69.9-9.41-2.91-13-4-3.63-1.21-52.16-19.56-53.07-20C6,229.93,5.18,229.06,7,228.91l56-8.46a58.35,58.35,0,0,1,10.27,1.67c4.24.9,10.88,2.26,19.8,4.07s16,3.18,21.15,4.08S133.93,233.48,139.52,234.84Z"/><path class="cls-4" d="M148.59,253.35l-1.89-.95-2.08,2.46L74.94,279.41c2-5.1,2.36-6.42,2.36-11.71,0-4.38-.32-8-2-10.76l68.36-21.34,2.07,1.7,1.89-3C155.67,237.63,152.1,250.14,148.59,253.35Z"/><path class="cls-5" d="M6.58,232.58c1.91,1,40,15.86,48,18.69,7.17,3.21,12.84,5.76,19.45,6.14,1.13,5.66,3.21,9.06,0,22.19-2.6-1.07-70.44-31.44-70.44-31.44C8.66,242.3,7.15,237.3,6.58,232.58Z"/><path class="cls-1" d="M194.57,49.05c1.18,2.46-3.38,8.52-5.17,11.12a12.68,12.68,0,0,1-3.8-2.08C189.35,53,192.63,48.84,194.57,49.05Z"/><path class="cls-6" d="M15.83,219.17c-6.79-.38-9.43-1.76-9.25-7.74.09-3.12,1.23-4.06,4.44-4.44-3-1.7-5.95-1.79-5.95-7,0-3.3,1.42-7.08,4.72-7.08,1.75,0,2.83.38,4.44.19-1.61-1.32-6.15-3.37-4.63-5.76,2.46-3.87,6.8-6.89,10-6.33a13,13,0,0,1,3.59,1.14l.75.56c-1-1-1.9-2.25-1.32-3.49.66-1.42,2.36-2.45,5.76-2.83,2.77-.31,6.55,3.49,6.52,3.68-2.27,11.33-1.7,19.64-2.27,25.54-.37,3.9-.75,7.7-2.08,11.09C30.47,217,21.71,219.5,15.83,219.17Z"/><path class="cls-7" d="M104,137c6.61-.57,12.42-5.1,16.81-11,5.24-7,9.53-11.89,15.29-18.5,5.1-5.86,10.86-10.67,16.62-9.92,2.11.28,2.64,1.94,2.64,4.06,0,4.35-1.41,6-4.53,9.63a10,10,0,0,1,2.27-.37c1.32,0,2.84.77,2.64,2.07-.85,5.67-6,11.33-8.12,14,2.46-.19,4.25,1.22,3.59,3.58a17.83,17.83,0,0,1-4.34,8c1.6.1,2.51-.27,2.74,1.51.94,7.46-6.24,14-7.18,14.16-.19,0,.84,1.68-.1,3.5-3.39,6.61-17.94,22.85-36.82,27.95-5.7,1.53-7.46-4.68-10.76-9.63-3.87-5.86-6.23-9.83-6.23-16.81C88.54,148.78,103.31,137.09,104,137Z"/><path class="cls-8" d="M143.11,112.67l42.3-54,3.4,2.08S146.32,119.27,142.73,121A26.36,26.36,0,0,0,143.11,112.67Z"/><path class="cls-9" d="M55.11,197.26c8.28-17.37,43.17-20.2,48-20.2s5.57,10.75,4.91,17.18c-.76,7.37-2.84,16.43-12.94,26.25-1.75,2.18-10.57,7.08-15,5.48-2.74,2.64-14.26,3.4-16.81,3.3C59,229.12,35.85,237.68,55.11,197.26Z"/><path class="cls-10" d="M96.09,181c2.08,1.89,8.5,4.73,9.63-2.73,0-.14,1.54,3.75,1.6,3.68,3.31-3.87-.09-8.4-.47-9.92-.1-.41,2.17-1.13,1.51-4.72-.39-2.13-2.36-3.73-2.36-3.87.47-8.12-7.83-15.67-16.43-14.92-4.32.38-6.69.61-11,1.14C59.83,151.94,64,180,69.27,182,85.42,188,91.46,185.08,96.09,181Z"/><path class="cls-11" d="M108.69,93a15.66,15.66,0,0,1-1,6l2-.85c-1,4.44-5.2,7.32-9.16,9.54-1.51-1.23-3.54-8-3.54-8S105.11,96.28,108.69,93Z"/><path class="cls-12" d="M41.14,133.25c0-16.79,15.49-33,34.55-33.8,6.33-.27,17.22-3.14,22.1.75,1.15.9,3.59,4.72,2.45,11.33,2.27,5.86,7.52,17.7,7,23.8-.94,10.95-5.85,14.16-11.33,15.29-4.72,2.83-7.55,3-12.65,4C52.09,160.63,41.14,150,41.14,133.25Z"/><path class="cls-13" d="M89.48,156.85c4.13.44,6.61-4.81,6.61-9.44,0-4.25-3-8.12-7.27-8.12-5.19,0-8.88,4.67-8.88,9.87,0,.94,1.94,3.92,2,4.86C85.33,155.15,85.89,156.48,89.48,156.85Z"/><path class="cls-14" d="M95.43,150.62a12.44,12.44,0,0,0,9.72-6c3.31-5.28,2.2-13.38,1.32-15.76s-3.37-2.74-5.9-2.74c-5.07,0-9.3,3-10.24,8C88.25,145.15,95.9,145.9,95.43,150.62Z"/><path class="cls-15" d="M84.57,132.68c-.09,1.18-.28,1.8-.28,3v5.76c0,3,1.27,6.18,4.25,6.18A5.51,5.51,0,0,0,93.45,145C89.34,140.85,85.94,138.21,84.57,132.68Z"/><path class="cls-16" d="M85,110.59c2.26-4.53,4.44-7.76,9.44-7.55,4.53.18,5.67,3.94,5.67,8.12,0,.37,5.66,11.84,5.66,16.61a3.32,3.32,0,0,1-3,3c-4.3,0-13.32-3.39-14.16-4.72C85,120.41,85.94,116.77,85,110.59Z"/><path class="cls-17" d="M86.27,143.12c.57,2,.09,7.6-3.87,11.18-2,1.78-13.79,2.55-25.78.29,0-.8.47-2.84.47-3.5,0-1.32-3.77-.09-1.22-4.53.48-.84-2.93-.56-3.12-2.83-.11-1.32,1.51-2.36,2.93-3-1-.52-3-1.2-3.31-2.55s.32-3.21,3.21-3c.38-1.8.19-4.16,3.21-3.78,3.26-.14,26.54-1.32,26.54-1.32S85.11,139,86.27,143.12Z"/><path class="cls-18" d="M57.94,130.79c3-7.55,3-12.57,5.29-20,1.51-4.91,6-7.37,11.9-7.37,3.07,0,6.43,2.18,8.12,4.72,3.78,5.67,4.53,10.58,4.91,17.75,0,.38-1.94,1.85-2.83,3.4S85,132.4,84,134c-2.73,4.39-7.12,5.67-12.27,5.67C65.69,139.67,58.89,136.27,57.94,130.79Z"/><path class="cls-19" d="M68.52,120.6c1.13-6.14,4-10.2,8.12-10.2,5.48,0,7.46,4.71,7.93,10.48.38,4.63-3.55,10.33-7.93,10.48C71,131.55,67.47,126.29,68.52,120.6Z"/><path class="cls-20" d="M32.83,191.69c2.08-25.21,14.88-38.72,26.25-38.42,14.54.37,21.28,14.85,17.75,37-3.4,21.34-13.22,42.86-44,52.49-2.15.68-6.2,1-7-.94-6,2.27-11.9,1.51-10-1.32-.94-.76-4.91-2.65.66-6.71,2.18-6.13,9.64-6.83,12.75-13.12C33.77,207.46,32.36,197.4,32.83,191.69Z"/><polygon class="cls-21" points="16.78 89.82 66.06 74.71 125.55 78.11 81.93 97.37 16.78 89.82"/><path class="cls-22" d="M66.82,229.37c1.75-.85,3-1.89,4.91-1.89s4.36,2.19,5.66,3.77c2.65,3.21,3.1,3.32,4,6.8.19.76-2,1.51-3.4,1.51-2.93,0-4.06-2.55-5.66-4.91S70.22,233,66.82,229.37Z"/><path class="cls-23" d="M61.34,229.74c.81-.52,1.29-1.26,2.27-1.13,5.85.76,7.74,6.56,8.69,12.46-1.42.48-2.28.94-3.78.76-3.21-.38-3.43-2.86-5.1-4.53C61.34,235.22,60.82,232.91,61.34,229.74Z"/><path class="cls-24" d="M58.6,229c.14-.05,2.84.52,2.84,1.32v4.91a9.71,9.71,0,0,1-2,6A18.56,18.56,0,0,1,56.53,244c-1.51-1.32-3.57-3.11-3.17-4.91C55.21,231,55.25,230.36,58.6,229Z"/><path class="cls-25" d="M82.12,227.38c2-1.51,6.29-4,6.79-3.87,7.75,1.42,9.16,2.55,12.66,9.82.12.27-2.51,1.42-3.88,1.42-3.68,0-5.66-2.46-7.46-4.91A9.31,9.31,0,0,1,82.12,227.38Z"/><path class="cls-26" d="M90.05,223.61s4.12-2.66,6-2.17c8.59,2.17,11.14,4.2,12.65,10.29a8.31,8.31,0,0,1-4.34,1.13c-3.12,0-4.53-2.17-6.89-6A34.15,34.15,0,0,0,90.05,223.61Z"/><path class="cls-27" d="M101.57,220.49c7.55,2.17,8.49,3.68,12.84,9.35a6.14,6.14,0,0,1-3.69,1.41c-3.58-.28-3.58-2.73-5.38-5.85,0,0-3-2.08-4.91-2.36a7.24,7.24,0,0,1-2.36-.75A10.15,10.15,0,0,1,101.57,220.49Z"/><path class="cls-28" d="M51,94.16l30.59,3.21L98,90.57v8.69c-12.84,7.36-33,6.23-36.26,6-7-.57-7-1.13-10.76-4C51.15,99.45,51,94.16,51,94.16Z"/><path class="cls-29" d="M88.92,115.59c.64-4.14,2.26-6.69,5-7.84s5.1,3.45,5.64,6.71-1.59,9.7-5.37,9.73C89.65,124.22,88.26,119.83,88.92,115.59Z"/><path class="cls-30" d="M85.33,128.76c1.7-2.88,5.38-4.39,9.25-4.39,2.74,0,5.29,2,5.29,4.72a9.93,9.93,0,0,1-1.89,6c-1.7-.9-2-3-4-3s-2.69,2.26-4.72,2.26a4,4,0,0,1-4-4C85.33,129.76,85,129.29,85.33,128.76Z"/><path class="cls-31" d="M61.53,107.76C61,111.25,57.09,113,53.6,113c-5.43,0-8.31-6.23-9.82-10.39.8.24,1.79.62,2.55.9a23.56,23.56,0,0,1-.76-6.28C50.67,101,55.68,104.73,61.53,107.76Z"/><path class="cls-2" d="M28.14,90.69c1.37-.16,1.06.15-1.05.6.15,2.11,0,5,0,8.16-2.27,1.36-2.87,3.77-2,7.4a41,41,0,0,0-1.45,13.75c.15,6.49-.19,10.84-.94,11.89.9,0,2,.85,3.58,1,3,.36,6.9-1.7,6.9-1.7a50.58,50.58,0,0,1-.85-12.18c.3-4.83-.74-9.17-1.34-12.5.9-3.93.45-6.34-1.67-7.4a32.59,32.59,0,0,1-.3-4.83c0-1.21.15-2.12.15-3,13-1.66,26.44-4.23,40.64-7.25a21.4,21.4,0,0,0,6.8-.3c2.72-.45,2.87-1.36.75-2.42s-4.08-1.36-5.89-.6c-1.66.6-2.72,1.06-2.72,1.36-1.81.45-4.38,1.06-7.85,1.66-3.48.76-8.76,1.81-15.56,3.17C41.14,88.42,35.4,89.33,28.14,90.69Z"/><path class="cls-2" d="M45.22,96c-.61,1.51-.46,3.78.15,6.65l-2.12-1.06a13,13,0,0,0,.61,3.62c.45.91,1,2,1.81,3.18l2.27,2.72.9.9-2,2.57a30.64,30.64,0,0,0-7,18.13,22.6,22.6,0,0,0,5,15.71,31.73,31.73,0,0,0,6.2,5.74H51a38.38,38.38,0,0,0-11,11,44.07,44.07,0,0,0-4.84,10.57l-.9,2.57c-.61-.91-2.42-1.81-5.74-2.87a13,13,0,0,0-6.8,3.32c-.6.91-.3,1.82.75,2.72A5.62,5.62,0,0,0,18,179.94a21.65,21.65,0,0,0-5.74,3,11.19,11.19,0,0,0-3,3.33l-.9,2.26c.3,1.21,1.36,2.42,3.32,3.63a13.6,13.6,0,0,0-4.68.45c-2,2.72-3,5.14-2.87,7.25a13.5,13.5,0,0,0,.45,3.78l.75,1.66,3.33,1.51a7.69,7.69,0,0,0-2,.76,9.16,9.16,0,0,0-.9,5.59,7.25,7.25,0,0,0,1.66,4.08c1.21,1.81,4.38,2.72,9.36,2.72,5.14-.15,9.37-.76,12.54-2l-1.21,2.72a27.27,27.27,0,0,1-6.79,6.2c-2.72,2-4.54,3.92-5.14,6l-2.11,2A3.78,3.78,0,0,0,13,236.44a2.92,2.92,0,0,0-.3,2c0,.75.6,1.36,2,2.11-.45,2,.45,3,3,3.33a18.45,18.45,0,0,0,7.4-1.06c.31,1.36,2.72,1.66,7.1,1.06a40.23,40.23,0,0,0,12.69-4.69c1.67-1,3-1.81,4.23-2.41l5-3-.91,3.18a11.79,11.79,0,0,0-.6,1.81v1.21a5.22,5.22,0,0,0,.45,2,38,38,0,0,0,3.32,3,6.83,6.83,0,0,0,2.42-1.51c1.21-1.06,2.27-3.17,3.33-6.34l1,1.36.76,2.41a9.8,9.8,0,0,0,3.78,1.82,12.59,12.59,0,0,0,3.32.15,3.18,3.18,0,0,0,2.42-.91l-.76-4.38,1.66,1.81c2.27,1.21,4.38,1.51,6,.91A7.24,7.24,0,0,0,82.83,239,21.85,21.85,0,0,0,76,228.89l2.87-1.51A40.75,40.75,0,0,1,84.19,230c2.12,1.05,4.08,1.36,5.74.75,1.67,2.42,3.18,3.78,5,4.23a8.29,8.29,0,0,0,4.23.3,4.59,4.59,0,0,0,2.72-1.2c.3,0,.45-.31.45-.91a7.65,7.65,0,0,0,4.53.3,12.74,12.74,0,0,0,2.57-.9c0-.31.15-.61.15-.91a3.91,3.91,0,0,0,1.82.15,4.42,4.42,0,0,0,2.71-.76l1.06-1.05a28.8,28.8,0,0,0-6-6.95,5.06,5.06,0,0,0-1.81-.91,41.41,41.41,0,0,0-5.9-2.57l-2.56,1.36-2.42-.45,4.83-5.89a10.19,10.19,0,0,1,1.51-2,33.76,33.76,0,0,0,5.9-16.31,57.15,57.15,0,0,0,.45-8.76v-1.21h.15a1.53,1.53,0,0,0,1.21-.76,86.78,86.78,0,0,0,18.43-11.33,83.71,83.71,0,0,0,11.63-11.48q3.86-5.21,3.17-8.16a18.71,18.71,0,0,0,6.95-10.72c.76-4.08.31-6.05-1.51-6.05,2.12-2.11,3.17-5.28,3-9.51a3.44,3.44,0,0,0-1.36-1.21l-1.51-.76a22.11,22.11,0,0,0,2.72-3,13.64,13.64,0,0,0,2.42-3.62,27.22,27.22,0,0,0,2-5.59c.46-2.27-.6-3.63-3-3.93L163.81,96.7c3.62-4.53,6.95-9.06,10.42-13.74l8.91-12.69c2.12-3,4.38-6.2,6.65-9.37,2-2.57,3.47-4.83,4.68-6.5a9.6,9.6,0,0,0,.91-6.49,9.37,9.37,0,0,0-5.14,2.72c-2.56,3.17-6.79,8.61-12.84,16.77-5,6.79-12.69,16.61-23.11,29.3-1.81-.75-4.68-.45-8.16,1.21s-8,5.44-13.14,11.48L120.9,124.2a52.55,52.55,0,0,1-7,7.55c-1.36,1.06-2.56,2-3.62,2.72l-1.66.76h-.16l-.3.15-.15-1.36a47.18,47.18,0,0,0-2.11-10l-5.14-13,.3-2.72s1.51-.91,4.23-2.87,4.53-4.84,5.44-8.77l-2.11,1.21a21.65,21.65,0,0,0,.9-5.89v-.75a65.27,65.27,0,0,1-6.19,4.23c-1.81,1-3.32,1.81-4.23,2.26A10.23,10.23,0,0,0,96,99.27c0,.61.3.91.75.91l2.57,4.53-.91-.75a9.82,9.82,0,0,0-3.77-2l-1.67.45a11.6,11.6,0,0,0-8,7l-1.21-1.81a13.21,13.21,0,0,0-3.17-3.32c-1.36-.76-2.42-.46-3,.9q3.84,1.14,7.25,6.8l1.66,2.12-.76-3a8.57,8.57,0,0,1,1.36-2.57,9.13,9.13,0,0,1,6.8-4.69,4.66,4.66,0,0,1,2.87.91,4.16,4.16,0,0,1,1.81,2.42,5.94,5.94,0,0,1,.31,2.87,13.76,13.76,0,0,0-1.51-2c-1.06-.6-1.82-1-2.42-1.36H93.86c-4.53,1.82-6.34,6.5-5.44,13.9a6.32,6.32,0,0,0,3.18,3.63,10.52,10.52,0,0,0-7.26,4.53,10.27,10.27,0,0,1-2.56,6.35,13.59,13.59,0,0,1-5.9,2.87,19.64,19.64,0,0,1-7.25,0,18.79,18.79,0,0,1-6-2.42,6.35,6.35,0,0,1-3-5L62,122.08a33.39,33.39,0,0,0,.91-4.83,28.8,28.8,0,0,1,1.21-5.14,15.59,15.59,0,0,1,2.57-3.92c1.21-1.21,2-2.12,2.26-2.42l1.06-.61c-.15-.15-.45-.3-.6-.45q-3.18,0-5.44,3.63a13.23,13.23,0,0,0-1.66,3.32,53.92,53.92,0,0,0-1.36,6.5,49.07,49.07,0,0,1-1.51,5.59c-.61,1.66-1.21,3.92-2,6.79a3.48,3.48,0,0,0-2.11,3.78,6.31,6.31,0,0,0-.76-.15A6.18,6.18,0,0,0,52,135.23c-.72,1.06-.45,3.62-.3,4.53a17.44,17.44,0,0,1,2.57,1.06,3.86,3.86,0,0,0-2.42,2v.76A2.87,2.87,0,0,0,54,146.1c.15,0,.75.31,1.21.46-3,2.81.06,4.7,1.05,4.53a3.06,3.06,0,0,0,0,1.66c-.6.15-1.35.3-2,.45l-.15-.15-.45-.15h0a29.16,29.16,0,0,1-3.18-2.26c-6.94-5.44-9.51-12.54-8-21.15a40.2,40.2,0,0,1,5.74-14.2l1.06-1.36,1.05-1.21a4.05,4.05,0,0,0,2.12.45l1.66-.75A14.49,14.49,0,0,1,45.22,104L47.94,105a17.65,17.65,0,0,1-1.51-6.34l5.43,4.38a34.4,34.4,0,0,0,2.87,2.11,18.69,18.69,0,0,0,4.38,2.42c1.21.45,2,.61,2.42.3.3-.45,0-1-1.21-2,.31-.3-.3-.76-2-1.36A17.65,17.65,0,0,1,54,102.14Zm62.54-1.19a13,13,0,0,1-1.36,5.44,6.44,6.44,0,0,0,2.27-.6,12.44,12.44,0,0,1-7.71,6.34,1.35,1.35,0,0,0-.15-.75,3.43,3.43,0,0,0-.45-1.66,8.46,8.46,0,0,0-2-3.33,50,50,0,0,0,5.9-2.72A10.26,10.26,0,0,0,107.76,94.76ZM94,108.21h.61a4,4,0,0,1,3,2.72c.6.6.9,2,1.36,4.38a7.89,7.89,0,0,1-2,6.19c-1.51,1.82-3,2.42-4.23,2a6,6,0,0,1-2.72-2.72,12.14,12.14,0,0,1-.45-6A8.23,8.23,0,0,1,94,108.21Zm56.2-9.52a2.57,2.57,0,0,1,2,.76c-3,3.62-6.34,7.7-9.82,11.93a5.75,5.75,0,0,0-1.66-.9v.15h-.45a.78.78,0,0,0-.6.3,2.22,2.22,0,0,1-.91.3c0,.15-.15.15-.15.3a9.3,9.3,0,0,0-3.48,4.53v.31l.3.3H136c1.21-2.42,2.87-3.63,5.14-3.78a2.59,2.59,0,0,1,.45,1.51,14.23,14.23,0,0,1-3.78,12.24,6.06,6.06,0,0,1-.75-1.06c-.15,0-.15,0-.15.15-.16,0-.31.15-.46.31a.46.46,0,0,0,.15.3c.15.15.31.3.31.45s0,.45.15.61a12.24,12.24,0,0,1-.61,8.3,2.08,2.08,0,0,1-.6.46,2.14,2.14,0,0,0,1.06-.31h.75c.15-.15.15-.15.15-.3a8.49,8.49,0,0,0,.76-7.55h0a13.44,13.44,0,0,0,4.68-5.89l8.61-10.28a4.2,4.2,0,0,0,2.57.46.52.52,0,0,0,.15.3c.15.15.15.15.15.3s0,.76,0,1.21a40.89,40.89,0,0,1-3.17,6.35l-7.1,8.46a5.34,5.34,0,0,1,5.59-.16c.45-.3.45.76-.3,3s-2.27,4.83-5.14,7.55c2,.15,3.17.75,3.78,1.51a14.4,14.4,0,0,1-2.42,8c-1.36,2-2.11,2.87-2.11,2.72.15,0-.16.15-.76.75a10.7,10.7,0,0,1-2.42,1.81c1.21.91.46,3.33-2.11,7a70.81,70.81,0,0,1-5.74,6.35,84.32,84.32,0,0,1-24,16.92c-.15-.61-.31-1.21-.46-1.81v-.31a5.28,5.28,0,0,0,1.36-3.47,11.68,11.68,0,0,0-1.81-6.5c1.81-1.81,2-4.08.76-6.64a6,6,0,0,0-1.82-2.42,10.45,10.45,0,0,0-.15-3,16.31,16.31,0,0,0-7.4-9.82c.45-.15.76-.31,1.21-.46a12.9,12.9,0,0,0,5.59-5.43,20.15,20.15,0,0,0,2-7.1h.15a19.1,19.1,0,0,0,10.58-6.5c3.17-3.78,6-7.4,8.46-10.58a136,136,0,0,1,9.82-11.48c4.08-4.38,7.1-7.25,8.91-8.31C147.94,99.3,149.3,98.69,150.21,98.69Zm35.35-38.52c.15.45.76.75,1.51,1.06q-19.94,27.87-42.45,56.65a12.83,12.83,0,0,1-.15-1.82,5.88,5.88,0,0,0-.3-2.26Zm3.17-1.06a1.83,1.83,0,0,1-1.81-.9q5.21-7.49,6.8-7.71Q193.5,52.54,188.73,59.11ZM99.45,120c.76-2.87.91-4.83.45-6a116.25,116.25,0,0,1,5,13.45c-.3,2-1.81,2.71-4.23,1.81-.6-3-1.81-4.69-3.78-5.29A6.21,6.21,0,0,0,99.45,120Zm-5,5.74c2-.15,3.32,1.06,4.07,3.33.61,2.11.46,4.08-.75,5.44l-2.57-3.63a4.34,4.34,0,0,0-3,1.06,4.58,4.58,0,0,1-3.48,1c-1.51,0-2.11-1.35-2-4.07a8,8,0,0,1,2-2,9.33,9.33,0,0,1,1.82-.75A10.57,10.57,0,0,1,94.47,125.73Zm3.32,10.73c1.36-.61,2.27-2.57,3-5.44.45.45,1.21.45,2.42.3a3.2,3.2,0,0,0,2.26-1.36,19.4,19.4,0,0,1-2.11,15.11,9.74,9.74,0,0,1-8,4.83l-.75,1.82a3.14,3.14,0,0,1-2,2.72c-3.47,1.51-6.64.9-9.67-1.51l-.3,1a48.55,48.55,0,0,1-13.14,1.36L67,154h0a19.33,19.33,0,0,0-7.86-1.51,4.15,4.15,0,0,0-1.35.15v-.15c.15-.6.15-1.05.3-1.51.66.06.6-.91.6-1.06-4.26.58-3.17-2.44-1.66-3.32a.52.52,0,0,0,.15-.3v-.15h0a1.61,1.61,0,0,0-.15-.46h0c-.15-.15-.61-.15-.61,0-.75-.3-2.36-.57-2.71-2.26.15,0-.27-1.43,2.71-2.42a.76.76,0,0,0,.31-.6c.15-.31-.15-.61-.76-.76s-1.51-.75-2.57-1.21c-.36-1.39.35-1.86.66-2s.86-.1,1.61.5a1.34,1.34,0,0,0,1.21-.9c-.46-1.06.06-3.23.91-3.48A10.75,10.75,0,0,0,58.81,135a13.85,13.85,0,0,0,4.69,3.62,19.32,19.32,0,0,0,7.85,1.82,15.49,15.49,0,0,0,7.1-.91,12,12,0,0,0,5.89-5.14l.15,3c.31,1.2.61,2.56.91,3.92a5.13,5.13,0,0,0,2.12,2.87,8.2,8.2,0,0,0,4.68,1.06,6.74,6.74,0,0,1-5,1.81c-.15.31.31.61,1.67.76a7.07,7.07,0,0,0,3.17-.6,5.73,5.73,0,0,0,2.72-2.57l-.91-.76a11.18,11.18,0,0,1-2.72-8.16,7.48,7.48,0,0,1,3.33-2.87ZM93.11,156.1a6.86,6.86,0,0,0,3-5.14l1.66-.15V151A15.71,15.71,0,0,1,105,162.14h-.15l-1.36-.6c-.15,0-.3,0-.45.3l-.15.3a31.36,31.36,0,0,1,3,2.72,10.76,10.76,0,0,1,1.2,2.11,4.93,4.93,0,0,1,.16,2.12,2.36,2.36,0,0,1-.76,1.51l-1.36-1.21a7.67,7.67,0,0,0-2.57-5.13l-.3.15-.3.15v.3a9.84,9.84,0,0,1-.76,11c-.45,0-.6.3-.9.6l.15.3.15.16.91-.16a3.51,3.51,0,0,0,2.56-2.11,9.57,9.57,0,0,0,.91-3.17L106.1,173a10.57,10.57,0,0,1,1.51,6.8V180l-.3.3A9.41,9.41,0,0,0,106,178h-.46c-.15,0-.15.15-.15.3a22.36,22.36,0,0,1,1.21,3.93,49.36,49.36,0,0,1,0,15,32.58,32.58,0,0,1-7.4,17.22l-6.8,7.25c-2.42,1.06-4.23,1.21-5.59.3-.45,2-1.81,3.18-4.23,3.63l-2.72-.76a9.8,9.8,0,0,1-4.68,1.82,9.31,9.31,0,0,1-4.53-.76,6.42,6.42,0,0,1-4.84,2.27L63,227.25l-2,1.36-.91-.15,9.22-11.78a51.79,51.79,0,0,0,5.89-15.26l2.11-11a61.43,61.43,0,0,0,.61-13.6c-.15-5.58-.91-9.82-2.12-12.84s-2.87-5.28-4.53-6.34v-.15l-.3-.15-.3-.31v-.45h0a23.09,23.09,0,0,0,12.39-1.06,14.59,14.59,0,0,1,4.38,1.67,4.31,4.31,0,0,0,3.62.15A17.57,17.57,0,0,0,93.11,156.1Zm0,67.83c0-.61,1.2-1.06,3.47-1.36,5.14,1.21,8,2.57,8.76,4.38A31.88,31.88,0,0,1,107,231c-.9,1.51-2.56,1.51-5.43,0-1.36-2-2.57-3.78-3.78-5.29C95.67,225,94.16,224.38,93.11,223.93Zm7.25-2.12a5.4,5.4,0,0,1,1.66-.3,39.09,39.09,0,0,0,5.59,2.12,16.74,16.74,0,0,1,2.87,2.72c1.36,1.66,2.26,2.87,2.57,3.32-1.06,1.06-2.42,1.06-4.23.3a13.76,13.76,0,0,0-2.27-5A26.51,26.51,0,0,0,100.36,221.81ZM96.58,227c1.51,2.42,2.42,3.93,3,4.68a10.08,10.08,0,0,1,.91,1.36c-.45.15-.61.3-1.06.46a6,6,0,0,1-3.63.3,9.51,9.51,0,0,1-3.32-2.57,20.54,20.54,0,0,1-2.27-3,2.15,2.15,0,0,1-2,.75c-.45-.15-1.06-.15-1.66-.3L85,227.4l3-2.57A13.15,13.15,0,0,1,96.58,227ZM57.76,154.44h0l2.11-.15c.3-.16,1.66.15,4.38,1.05l4.08,1.36A17.11,17.11,0,0,1,73.77,164c.75,2.57,1.36,4.23,1.66,5,.15.75.45,2,.76,3.32a56.42,56.42,0,0,1,0,7.25,107.41,107.41,0,0,1-1.06,11,99,99,0,0,1-4.84,18.89A52.71,52.71,0,0,1,67,216.68c-.91,1.51-2,2.87-2.87,4.23a57.73,57.73,0,0,1-5,5.59,102.42,102.42,0,0,1-9.66,8.3c-2,1.06-5.29,2.72-10,4.69-5.13,2.11-8.76,3-11,2.72,1.21-.15,4.38-1.82,9.52-4.84,5.13-3.17,7.09-5.13,5.74-5.89-2.12,1.51-4.24,2.72-6.5,4.08a75.28,75.28,0,0,1-8.61,4.38c-3.48,1.51-6.5,2.27-8.91,2.12-2.57,0-3.48-.61-2.88-1.51a20.14,20.14,0,0,0,10.28-2.27,42.4,42.4,0,0,0,5.59-3A6,6,0,0,0,34,234.05c.3-.3.6-.76.9-1.06.15-.45.15-.6-.3-.6h-.15A99,99,0,0,1,22.86,238,15.14,15.14,0,0,1,17.12,239c-1.51,0-2.42-.46-2.87-1.36.15-1.21,1.06-2.12,2.56-2.72,2.72,1.36,7.41-.46,14.36-5.44.3-.61.3-.91,0-.91a16.67,16.67,0,0,0-3.78,1.81c-2.27,1.21-4.38,2.27-6.19,3-2,.75-3,.75-3,.15-.15-1.06.61-2.12,2.42-3.48s3.17-2.42,4.23-3.47c3.32-3.18,5-5.14,5.29-6.05.6-1.66,1.06-3.32,1.51-5a58.31,58.31,0,0,0,1.81-11.48c.15-5,.61-10,1.06-14.81a56.46,56.46,0,0,1,7.86-24.17,36.81,36.81,0,0,1,8.46-8.91c1.81-.61,3.77-1.21,5.58-1.81h1.37Zm-46.54,32a14,14,0,0,1,3-2.87,7.16,7.16,0,0,1,5.13-1.81,14.15,14.15,0,0,1,5,1.81,2.13,2.13,0,0,1,.91-.3c-1.67-2.27-2.27-3.78-1.67-4.38a7.91,7.91,0,0,1,3.48-1.36c1.66-.6,3.93.15,6.64,2.11a79.59,79.59,0,0,0-2.11,19.79,50.44,50.44,0,0,1-2,16.32c-8.46,1.36-14,1.81-16.32,1.51a15.82,15.82,0,0,1-3.93-.75,10.28,10.28,0,0,1-1.51-2c-.75-1.21-.9-2.72-.3-4.83.3-1.06,1.36-1.66,3.32-1.82a43.54,43.54,0,0,0,4.84-.45.82.82,0,0,0,.75-.45c-4.38-.46-7.55-1.36-9.51-2.87a3.14,3.14,0,0,0-.61-1.21c-.15-.45-.15-.91-.3-1.36a12.18,12.18,0,0,1,1.21-6.95,6.84,6.84,0,0,1,4.23-.75,21.39,21.39,0,0,1,4.23.45c.15-.3.6-.45,1.21-.45q-5.67-3-6.35-5.44A3.07,3.07,0,0,1,11.22,186.46Zm44.42,46.08,3-2.57,1.66.3v6c-.3,2.11-1.51,4.23-3.93,6.34a6.39,6.39,0,0,1-2.26-3.47Zm14.5-3.78a10.69,10.69,0,0,1,6.65,3.17,26.34,26.34,0,0,1,3.63,5.75c-1.52,1.36-3.33,1.2-5.44-.76-.46-.3-1.06-1.51-1.82-3.32a25.1,25.1,0,0,1-4.83-3.93Zm-8,1.66c1-1,2.41-.9,4.08.31a9.61,9.61,0,0,1,3.47,4.07,20.07,20.07,0,0,1,1.51,5.59c-2.11,1.21-4.08.61-5.89-1.81l-.3-1.66-2.27-2.12Z"/><path class="cls-2" d="M95.37,116.37a3.85,3.85,0,0,0-.6-2.42A2.34,2.34,0,0,0,93,112.89,2,2,0,0,0,91.14,114a3.86,3.86,0,0,0-.75,2.42,4.18,4.18,0,0,0,.75,2.41A2,2,0,0,0,93,119.84a2.34,2.34,0,0,0,1.82-1.06A4.12,4.12,0,0,0,95.37,116.37Z"/><path class="cls-2" d="M135.71,139.33c-.31,0-.46,0-.61-.15a32.38,32.38,0,0,0-.45,5.59,2.14,2.14,0,0,1-.91,1.81c-1.05.61-2,1.21-2.72,1.66-.15,0-.15-.15-.3-.3h-.45c-.15,0-.15,0-.15.15-.15,0-.15,0-.3.15v.61h-.16c0,.15,0,.15.16.15a12.34,12.34,0,0,1-7.71,9.82,6,6,0,0,0,4.23-.76,9.68,9.68,0,0,0,4.84-8.16h.45a5.61,5.61,0,0,0,1.66-.75C136.76,146.58,137.52,143.41,135.71,139.33Z"/><path class="cls-2" d="M98.39,155.64v.16h-.45c-.15.15-.15.15-.15.3v.15a12.87,12.87,0,0,0,.75,2.57,3.46,3.46,0,0,1,.46,2.41,3.94,3.94,0,0,1-3,3.93,9.59,9.59,0,0,0-3.33-5.28h-.3c-.15.15-.15.15-.3.15-.15.3-.15.45,0,.6a12.38,12.38,0,0,1,2.11,4.83.56.56,0,0,1-.15.46c0,.3.15.45.3.75h.16a5.18,5.18,0,0,1-2.12,4.69,4.35,4.35,0,0,0-1.66.9.58.58,0,0,0,.15.46,2.37,2.37,0,0,1,.6.15,10.1,10.1,0,0,0,2.12-.46,7.62,7.62,0,0,0,2.11-1.66l.31-.6a29.77,29.77,0,0,0,.3-3.48,6.52,6.52,0,0,0,2.72-.9,3.53,3.53,0,0,0,1.51-2.12A7.1,7.1,0,0,0,98.39,155.64Z"/><path class="cls-2" d="M96.88,173c-.6.15-.75.75-.45,1.51,1.06,2.57.45,4.53-1.81,5.89-1.51,1.06-3,2-4.54,2.87v.15a1.13,1.13,0,0,0,.31.76c1.21-.15,2.72-.61,4.08-.91.15,0,.15,0,.3-.15,3.77-2.72,4.68-5.89,2.57-10A.58.58,0,0,0,96.88,173Z"/><path class="cls-2" d="M85.4,159c0,.15-.15.15-.3.15a.15.15,0,0,0-.15.15,5.94,5.94,0,0,0,.6,3.48,4.3,4.3,0,0,1-1.36,5.74H80.26a.15.15,0,0,1-.15.15.89.89,0,0,0,.15,1.05c1.82,1.52,3.63,1.52,5.59,0,2.12-1.81,2.72-4.07,1.67-6.94-.15,0-.15-.16-.15-.16A20.6,20.6,0,0,0,85.4,159Z"/><path class="cls-2" d="M29.81,186.46c-.91-.15-1.67-.45-2.42-.6a15.27,15.27,0,0,0-2.42.75,5.9,5.9,0,0,0-2.41,2.27,4.65,4.65,0,0,0-.46,4.38c-.15-.15-.15-.15-.15,0a4.17,4.17,0,0,0-3.78,2.27,6.79,6.79,0,0,0-.9,6.34c.15.15.3.15.45.3v.16c0,.15,0,.3.15.3a.52.52,0,0,0,.3.15.51.51,0,0,0,.16.3c.15.15.3.15.3.3a.46.46,0,0,1,.3-.15v-.3a6.07,6.07,0,0,1,.91-6.35A5.25,5.25,0,0,1,25,195.07c0-.15,0-.3.15-.3v-.45A.52.52,0,0,0,25,194a.15.15,0,0,0-.15-.15,3.53,3.53,0,0,0-1.06-.31,5.73,5.73,0,0,1,0-2.26c.61-2.87,2.42-4.08,5.59-3.63.16-.15.31-.15.46-.3a.15.15,0,0,1,.15-.15v-.61Z"/><path class="cls-2" d="M22.71,202.63a2.63,2.63,0,0,1-.31,1.05c-1,3-.45,5.59,2,7.56.15,0,.3-.15.45-.15v-.15a9.76,9.76,0,0,1-.75-6.2,8,8,0,0,1,.45-1.06A11.7,11.7,0,0,1,28,201.12c0-.15,0-.31-.15-.31a.52.52,0,0,0-.15-.3.9.9,0,0,1-.6-.15.15.15,0,0,1-.15.15A6.34,6.34,0,0,0,22.71,202.63Z"/><path class="cls-2" d="M82.53,128.6c3.17-3.17,3.78-7.4,2-12.69-1.81-5.13-5-7.25-9.21-6.34q-6.57,2.72-7.71,10.88c-.6,5.43,1.06,9.06,5.44,10.87Q78,133.59,82.53,128.6Zm-2.27-16.31a10.49,10.49,0,0,1,3.18,4.83c1.51,6-.3,10.28-5.74,12.84-2.27,1.06-4.23.61-6-1.36-2.56-2.56-3.17-6-2-10.42C72.56,111.38,76.19,109.42,80.26,112.29Z"/><path class="cls-2" d="M78.6,121.2a5.57,5.57,0,0,0-1-3.47A3.13,3.13,0,0,0,75,116.22a2.86,2.86,0,0,0-2.42,1.51,5.71,5.71,0,0,0-1.21,3.47,6.2,6.2,0,0,0,1.21,3.63A2.73,2.73,0,0,0,75,126.19a3,3,0,0,0,2.57-1.36A6.07,6.07,0,0,0,78.6,121.2Z"/><path class="cls-2" d="M51.56,94.76c-.15-.15-.3-.15-.45-.3a.15.15,0,0,0-.15.15.57.57,0,0,0-.46.15v.31c-.15,1.81-.15,3.62-.15,5.43a2.52,2.52,0,0,0,.91.91c1.66,1.36,3.32,2.57,4.83,3.93a6.59,6.59,0,0,0,1.82.3v.15a.52.52,0,0,0,.3.15,80,80,0,0,0,24.77-.6c2.57-.45,5.29-1.06,7.71-1.66a19.58,19.58,0,0,0,7.4-3.33h.3a3.38,3.38,0,0,1,.76-.45v-.3a2.21,2.21,0,0,0-.3-1.66v-.61c0-2.57-.15-5.13-.31-7.55-.15-.15-.15-.3-.3-.3a.55.55,0,0,1-.45-.15c0,.15-.15.3-.15.6a23.25,23.25,0,0,0-.15,8.61l-4.08,1.81a13.25,13.25,0,0,1-2.87,1.06,78.27,78.27,0,0,1-36,1.51,18,18,0,0,0-2.41-1.06v-.45a.33.33,0,0,0-.31-.3v-.76C51.86,98.54,51.71,96.58,51.56,94.76Z"/><path class="cls-2" d="M17,88.57c-1.21,1.06-1.06,2,0,2.72,2.26.3,5.13.6,8.91,1.21,5.29.45,11.18,1.21,17.37,2C49.6,95.22,55.94,96,63,96.73c6.95.75,12.24,1.36,15.71,1.66a22.61,22.61,0,0,1,3.33.15l4.38-2c3-1.06,8.61-3.48,16.62-7.1,6.79-3.18,14.35-6.35,22.81-9.82.9-.76.9-1.51,0-2.42L66.06,74.07c-2.72.9-9.21,2.72-19.18,5.59-10.12,3-18,5.28-23.12,7.1A61.85,61.85,0,0,1,17,88.57Zm5.28,1.36-1.36-.6L67.27,75.58l54.39,2.72.75.6L81,96.43Z"/><rect class="cls-32" x="175.21" y="167.42" width="0.38" height="0.01"/><path class="cls-33" d="M185.31,59.23a7.74,7.74,0,0,0,2.55,2.26c-13.29,18.58-28.28,37.2-43.24,56.39a12.83,12.83,0,0,1-.15-1.82,12.66,12.66,0,0,0-.79-3.21Z"/><path class="cls-34" d="M188.9,59.7c-.9,0-2.24-1.29-2.55-1.89,3.48-5,7-7.88,8-8C194.57,52.33,192.08,55.32,188.9,59.7Z"/><path class="cls-35" d="M26.55,108.65c1-.09,2.89-.09,2.89-.09,1.6,5.73-.22,14.36,1.48,21.52-3.82,2.55-5.75.35-5.75.35C26,127,24.77,113.79,26.55,108.65Z"/><path class="cls-36" d="M27.57,101a4.86,4.86,0,0,1,1.34.05c1.45,1.45.69,6,.69,6l-2.82,0S25.58,102.59,27.57,101Z"/><path class="cls-1" d="M420.55,158.8V147.49a4.34,4.34,0,0,0-.44-2.47,2.73,2.73,0,0,0-2-.5h-2.66v-1.78a33.82,33.82,0,0,0,10.35-2.28l.57.37q-.22,3.16-.39,7.63l-.12,8.25-.07,2.67V177.9c0,3.45.11,5.38.31,5.77.31.56,1.17.93,2.57,1.11l2.2.28v1.78q-3.83-.19-6.74-.19c-.36,0-1.66.06-3.92.19q.19-2.1.32-6-2.62,2-6.71,5.73a14.92,14.92,0,0,1-4.63.86,11.25,11.25,0,0,1-8.74-3.93q-3.53-3.93-3.53-10.54a16.63,16.63,0,0,1,1.36-7,10.37,10.37,0,0,1,3.25-4.23,50.07,50.07,0,0,1,5.87-3.33,12.86,12.86,0,0,1,5.65-1.52,15,15,0,0,1,3.63.47A20.5,20.5,0,0,1,420.55,158.8Zm0,5.34a15.61,15.61,0,0,0-4.43-3.44,10.72,10.72,0,0,0-4.8-1.14,8,8,0,0,0-6.51,2.95c-1.65,2-2.47,4.86-2.47,8.65s.94,6.89,2.82,9.09a8.74,8.74,0,0,0,6.87,3.29,8,8,0,0,0,4.54-1.38,8.16,8.16,0,0,0,3-3.57,18.4,18.4,0,0,0,1-6.9Z"/><path class="cls-1" d="M436.77,165.31l0-2.09,0-2.14,3.38-1.91a19.42,19.42,0,0,1,4-1.79,13.62,13.62,0,0,1,3.67-.49,11.42,11.42,0,0,1,6.9,1.92,7.57,7.57,0,0,1,3.15,4.89,102.65,102.65,0,0,1,.46,11.05c0,5.55.17,8.62.37,9.19a1.44,1.44,0,0,0,1.54.87h2.4v2c-2.35-.13-4-.19-4.93-.19-1.15,0-2.7.06-4.65.19l0-2.75c0-.88,0-1.78,0-2.68l-6.41,4.89a5.78,5.78,0,0,1-1.7.91,8,8,0,0,1-2.33.26,8.62,8.62,0,0,1-6.1-2,6.89,6.89,0,0,1-2.11-5.29,9.91,9.91,0,0,1,1.5-5.47,8.93,8.93,0,0,1,4.28-3.46q2.78-1.11,12.87-2.91-.06-3.93-1.73-5.87a7.52,7.52,0,0,0-6-2.45,10.45,10.45,0,0,0-2.79.37,8.81,8.81,0,0,0-2.42,1.09c-.6,1.48-1.14,2.9-1.64,4.26Zm16.3,4.91q-8.61,1.86-10.93,3.48a5.74,5.74,0,0,0-2.33,5,5,5,0,0,0,1.34,3.67,4.55,4.55,0,0,0,3.44,1.38,8.32,8.32,0,0,0,4.44-1.3,14.9,14.9,0,0,0,4-3.87l-.06-6.88Z"/><path class="cls-1" d="M475,162.48v12.16a35.11,35.11,0,0,0,.31,6.08,3.55,3.55,0,0,0,1.25,2.08,3.8,3.8,0,0,0,2.4.74,4.68,4.68,0,0,0,1.76-.35,6.34,6.34,0,0,0,1.69-1.05l.9,1.09-3,3.55a15.51,15.51,0,0,1-1.94.51,9.57,9.57,0,0,1-1.81.18,8.39,8.39,0,0,1-3.9-.82,5.25,5.25,0,0,1-2.31-2.14,8.6,8.6,0,0,1-.72-4l.13-6v-11.8c-1.6,0-3.25.06-4.95.19v-1.29q2.67-1,4.95-2.07,0-4.44-.26-9.61a47.72,47.72,0,0,0,5.22-2.45l.81.62q-.24,2.41-.5,11.44,3.76,0,6.15-.08l2.47-.11-.31,3.11-1.28,0-5.95,0Z"/><path class="cls-1" d="M492.7,143.12a3.36,3.36,0,0,1,2.45,1,3.41,3.41,0,0,1,1,2.48,3.47,3.47,0,0,1-3.47,3.47,3.41,3.41,0,0,1-2.48-1,3.32,3.32,0,0,1-1-2.46,3.52,3.52,0,0,1,3.51-3.51Zm2.41,13.65.75.46c-.14,1.55-.22,3.25-.25,5.11q-.19,9.06-.2,13.36,0,4,.28,6.88a2.44,2.44,0,0,0,.59,1.55,4.5,4.5,0,0,0,2.23.66l2.1.27v1.78q-4.53-.19-8.27-.19t-7.4.19v-1.78l2.68-.28q1.56-.12,1.92-.57a7.15,7.15,0,0,0,.45-3q.15-3.94.15-10.87,0-4.82-.15-7.43a1.81,1.81,0,0,0-.55-1.36,3.73,3.73,0,0,0-2.16-.41h-2.34v-1.77c2.52-.37,4.38-.72,5.57-1A42.59,42.59,0,0,0,495.11,156.77Z"/><path class="cls-1" d="M503.49,172a15.26,15.26,0,0,1,2-7.73,14.05,14.05,0,0,1,5.56-5.41,16.68,16.68,0,0,1,8.13-2q6.6,0,10.56,3.91t4,10.41q0,7.68-5.18,12.21a16.18,16.18,0,0,1-11,4.05,13.18,13.18,0,0,1-10.09-4.16Q503.48,179.14,503.49,172Zm5.83-2.18a21.58,21.58,0,0,0,2.62,10.92,8.27,8.27,0,0,0,7.54,4.53,7.42,7.42,0,0,0,6.06-2.85q2.31-2.85,2.31-8.64a21.84,21.84,0,0,0-1.36-8.1,10.68,10.68,0,0,0-3.6-5,8.43,8.43,0,0,0-5-1.57,8.15,8.15,0,0,0-4.41,1.24,7.46,7.46,0,0,0-2.9,3.32A14.81,14.81,0,0,0,509.32,169.8Z"/><path class="cls-1" d="M546.51,162.84l4.67-4.17a5.34,5.34,0,0,1,1.76-1.09,12.67,12.67,0,0,1,4.08-.69,11.56,11.56,0,0,1,5.73,1.35,8.15,8.15,0,0,1,3.46,3.5,16.26,16.26,0,0,1,1,6.74l-.13,9.77c0,3.36.15,5.31.44,5.82a2.43,2.43,0,0,0,2.28,1h2.23v1.78c-2.21-.13-9-.13-10.78,0q.57-6,.57-16.3a16.62,16.62,0,0,0-.73-5.88,5.88,5.88,0,0,0-2.43-2.78,7.74,7.74,0,0,0-4.12-1,8.39,8.39,0,0,0-5.07,1.51,6.27,6.27,0,0,0-2.57,3.35,35.8,35.8,0,0,0-.31,6.31q0,5.67.09,10.53a2.74,2.74,0,0,0,.44,1.82,3.74,3.74,0,0,0,2.57.71H552v1.78q-5.28-.19-8.4-.19-3.32,0-7.53.19v-1.78h2.25c1.53,0,2.43-.35,2.69-1.06s.39-5,.39-12.84q0-5.29-.12-8.29a1.89,1.89,0,0,0-.5-1.36,4.82,4.82,0,0,0-2.46-.37H536v-1.77a37.09,37.09,0,0,0,4.79-.85,34.53,34.53,0,0,0,4.75-1.63,1.35,1.35,0,0,1,.53-.12c.33,0,.49.23.49.71l0,1.17Z"/><path class="cls-1" d="M576.24,177.39v2a6.2,6.2,0,0,0,.43,3,8,8,0,0,0,3.16,1.92,13.05,13.05,0,0,0,4.84.93,7.81,7.81,0,0,0,5.22-1.71,5.23,5.23,0,0,0,2-4.11,4,4,0,0,0-1.18-3,9.17,9.17,0,0,0-4.48-1.83,43.23,43.23,0,0,1-8.14-2.17,6.89,6.89,0,0,1-3-2.48,6.78,6.78,0,0,1-1-3.76,8.4,8.4,0,0,1,3-6.69q3-2.58,8.51-2.58a23.06,23.06,0,0,1,8.67,1.75q-.27,2.12-.44,7.07H592a8.3,8.3,0,0,0-.59-3.59,6.19,6.19,0,0,0-2.61-2.08,9.07,9.07,0,0,0-4-.93,6.75,6.75,0,0,0-4.52,1.44,4.55,4.55,0,0,0-1.69,3.61,3.74,3.74,0,0,0,1.33,3.13c.89.72,3.35,1.49,7.38,2.29a25.27,25.27,0,0,1,5.89,1.67,5.73,5.73,0,0,1,2.29,2.36,7.37,7.37,0,0,1,.87,3.62,9.17,9.17,0,0,1-3.58,7.21q-3.57,3-9.55,3a35.26,35.26,0,0,1-8.56-1.2c-.55-.14-.83-.36-.83-.65l.09-.43a9.48,9.48,0,0,0,.22-1.64c.19-2,.29-3.56.29-4.68l0-1.48Z"/><path class="cls-37" d="M170.87,131.21,217.32,117c6.39-2,11.84,1.92,13.79,8.31l23.23,73.08a12.56,12.56,0,0,1-8.12,15.48l-45.41,13.63c-6.38,2-12.79-1.16-14.74-7.54l-23.32-73.31A12.53,12.53,0,0,1,170.87,131.21Z"/><path class="cls-2" d="M216.61,116.2a12.83,12.83,0,0,1,16,8.52l22.53,73.68a12.83,12.83,0,0,1-8.52,16l-46.23,14.13a12.83,12.83,0,0,1-16-8.53l-22.53-73.67a12.83,12.83,0,0,1,8.52-16Zm.44,1.44-45.61,14.85c-6,1.83-10,7.44-8.14,13.43l24,73.67c1.83,6,7.38,8.77,13.37,6.94L246.21,213a11.32,11.32,0,0,0,7.52-14.14l-24-73.67C227.86,119.18,223,115.81,217.05,117.64Z"/><path class="cls-1" d="M208.32,171.94l3.53,11.56c1.7,5.54,2.81,8.6,3.33,9.15s1.6.58,3.24.08l2.58-.79.52,1.7q-4.91,1.31-7,2l-9.3,3-.52-1.7,2-.61c1.54-.47,2.36-1,2.44-1.75q.19-1.42-2.3-9.53l-3.53-11.56L199.11,175l-.37-1.21q1.78-1.65,3.59-3.43l-1.15-3.77a12.26,12.26,0,0,1-.64-4.93,16.2,16.2,0,0,1,1.86-5.24,26.62,26.62,0,0,1,3.6-5.8,5.91,5.91,0,0,1,2.71-1.58,10.53,10.53,0,0,1,2.7-.4c.27,1,.5,1.84.69,2.45s.46,1.45.83,2.5l-.64.55a6.17,6.17,0,0,0-4.48-.31,4,4,0,0,0-3,2.77c-.35,1.35.14,4.2,1.47,8.58l1.21,4c3.2-1,5.79-1.91,7.77-2.71l.3.23.43,2.93-3.7,1C211.36,170.91,210.05,171.34,208.32,171.94Z"/><path class="cls-38" d="M258.58,117.76h48a11.85,11.85,0,0,1,12,11.9l.57,77.42c0,6.68-5.6,11.14-12.28,11.14l-47.77.38c-6.68,0-11.9-4.84-11.9-11.52l-.66-77.23A12.08,12.08,0,0,1,258.58,117.76Z"/><path class="cls-1" d="M289.22,187.11l.32-5.55-1.82,2a13,13,0,0,1-4.34,3.26,13.87,13.87,0,0,1-5.45.94,9.34,9.34,0,0,1-4.79-1.17,7.14,7.14,0,0,1-2.92-3,14.12,14.12,0,0,1-.91-5.89q0-2.09.09-4.86l.09-4.95c0-3.47-.1-5.39-.3-5.78s-.86-.59-2-.59h-2.79v-1.71a33.8,33.8,0,0,0,7.85-1.61l2.59-1c.36,0,.53.26.53.77l-.21,3.15q-.42,6.55-.42,12.17a33.06,33.06,0,0,0,.46,7.18,4.84,4.84,0,0,0,1.94,2.6,6.14,6.14,0,0,0,3.6,1,8.43,8.43,0,0,0,5.26-1.84,9.24,9.24,0,0,0,3.12-3.72q.41-1.08.4-6.49,0-9.09-.34-9.89c-.21-.43-1.14-.65-2.79-.65H284v-1.71a54.65,54.65,0,0,0,5.43-.9,29.94,29.94,0,0,0,4.71-1.54,1.23,1.23,0,0,1,.56-.16c.35,0,.53.19.53.59l-.12,2.87q-.45,10.56-.45,18.59c0,3,.15,4.73.46,5.16q.69,1,2.94,1h1.8v1.78q-3.87-.2-6.57-.19C291.91,186.92,290.57,187,289.22,187.11Z"/><path class="cls-2" d="M307,116.82a12.84,12.84,0,0,1,12.84,12.84v77.05A12.84,12.84,0,0,1,307,219.55H258.68a12.84,12.84,0,0,1-12.84-12.84V129.66a12.84,12.84,0,0,1,12.84-12.84Zm-.75,1.89h-48c-6.26,0-10.57,4.32-10.57,10.57l.75,78.56c0,6.26,5.83,9.82,12.09,9.82l46.07-.76c6.26,0,11.71-4.31,11.71-10.57l-1.51-76.67C316.84,123.4,312.52,118.71,306.27,118.71Z"/><path class="cls-37" d="M342,114.37l47.21,11.7c6.47,1.62,9.35,8.07,7.74,14.54l-18,73.85c-1.61,6.48-6.34,10.86-12.81,9.24l-47.4-11.14c-6.48-1.61-11-8.29-9.42-14.77l17.35-74.93C328.27,116.39,335.48,112.75,342,114.37Z"/><path class="cls-1" d="M346.92,162.06l5.49-3a5.35,5.35,0,0,1,2-.66,12.62,12.62,0,0,1,4.13.25,11.48,11.48,0,0,1,5.27,2.6,8.08,8.08,0,0,1,2.59,4.19,16.18,16.18,0,0,1-.5,6.8l-2.32,9.49c-.75,3.28-1.05,5.2-.88,5.77a2.42,2.42,0,0,0,2,1.48l2.17.5-.4,1.73q-3.18-.93-5.54-1.47c-1.53-.36-3.19-.67-5-.95q1.92-5.75,4.23-15.76a16.77,16.77,0,0,0,.61-5.89,5.91,5.91,0,0,0-1.74-3.26,7.72,7.72,0,0,0-3.78-2,8.38,8.38,0,0,0-5.28.34,6.31,6.31,0,0,0-3.26,2.68A36.93,36.93,0,0,0,345,171q-1.28,5.52-2.27,10.28a2.75,2.75,0,0,0,0,1.88,3.79,3.79,0,0,0,2.35,1.27l2.16.5-.39,1.73q-5.1-1.38-8.15-2.08-3.22-.73-7.37-1.5l.4-1.73,2.18.5c1.5.35,2.46.2,2.87-.43s1.5-4.78,3.27-12.43q1.18-5.14,1.74-8.09a1.87,1.87,0,0,0-.18-1.44,4.77,4.77,0,0,0-2.31-.92l-2.19-.5.4-1.73a36.9,36.9,0,0,0,4.85.25,34.41,34.41,0,0,0,5-.52,1.23,1.23,0,0,1,.54,0c.32.07.43.34.32.8l-.29,1.14Z"/><path class="cls-2" d="M388.2,124.33a12.85,12.85,0,0,1,9.63,15.4L380.49,214.8a12.82,12.82,0,0,1-15.39,9.62L318,213.55a12.84,12.84,0,0,1-9.62-15.4l17.33-75.07a12.84,12.84,0,0,1,15.4-9.62Zm-.36,2.69-47.08-12.09a11.33,11.33,0,0,0-13.59,8.49l-17.33,75.07c-1.41,6.1,3.55,11.34,9.64,12.75L365.43,223c6.1,1.41,10.43-1.46,11.84-7.56l19.08-76C397.76,133.29,393.94,128.42,387.84,127Z"/><path class="cls-38" d="M508.89,2.76l30,23.51c4.07,3.3,2.92,10-.37,14.07L502.47,87.08c-3.3,4.07-9.15,3.29-13.22,0L460,64.61c-4.07-3.3-4-9.63-.66-13.69L495.57,4.16A9.48,9.48,0,0,1,508.89,2.76Z"/><path class="cls-1" d="M489.5,38.29a11.9,11.9,0,0,1,4.93-3.8,10.88,10.88,0,0,1,6-.65,13.08,13.08,0,0,1,5.94,2.7A11.25,11.25,0,0,1,511,44a10.88,10.88,0,0,1-2.56,8.3,12,12,0,0,1-9,5,12.67,12.67,0,0,1-8.75-2.82,10.28,10.28,0,0,1-4.19-7.4Q486.06,42.7,489.5,38.29Zm4.63,1.46a16.8,16.8,0,0,0-3.63,8A6.44,6.44,0,0,0,493,54.13a5.78,5.78,0,0,0,5.09,1.16c1.86-.43,3.71-1.83,5.57-4.2a17.27,17.27,0,0,0,3.05-5.64,8.35,8.35,0,0,0,.18-4.79,6.58,6.58,0,0,0-2.31-3.35A6.26,6.26,0,0,0,501.23,36a5.75,5.75,0,0,0-3.37.64A11.43,11.43,0,0,0,494.13,39.75Z"/><path class="cls-2" d="M538.86,25.34a10,10,0,0,1,1.73,14.06l-37,47.35a10,10,0,0,1-14,1.73L459.82,65.26A10,10,0,0,1,458.1,51.2l37-47.35a10,10,0,0,1,14.06-1.73Zm-.72.93L508.43,3.05A8.85,8.85,0,0,0,496,4.58L460,51.86c-3,3.85-3.28,9.47.57,12.47L491.33,87c3.84,3,8.33,2.89,11.34-1L537.4,39.4C540.41,35.55,542,29.27,538.14,26.27Z"/><path class="cls-2" d="M603,142.72a6.71,6.71,0,0,1,3.26.86A6,6,0,0,1,608.7,146a6.75,6.75,0,0,1,.89,3.32,6.64,6.64,0,0,1-.88,3.3,6.17,6.17,0,0,1-2.45,2.46,6.69,6.69,0,0,1-6.6,0,6.26,6.26,0,0,1-2.46-2.46,6.73,6.73,0,0,1-.87-3.3,6.64,6.64,0,0,1,.89-3.32,6,6,0,0,1,2.48-2.45A6.71,6.71,0,0,1,603,142.72Zm0,1.1a5.72,5.72,0,0,0-2.72.71,5.17,5.17,0,0,0-2.07,2.05,5.49,5.49,0,0,0,0,5.52,5.18,5.18,0,0,0,2.05,2.05,5.54,5.54,0,0,0,5.5,0,5.18,5.18,0,0,0,2-2.05,5.53,5.53,0,0,0,.73-2.75,5.67,5.67,0,0,0-.74-2.77,5.17,5.17,0,0,0-2.07-2.05A5.75,5.75,0,0,0,603,143.82Zm-2.91,9.2v-7.14h2.45a6,6,0,0,1,1.82.2,1.72,1.72,0,0,1,.9.69,1.86,1.86,0,0,1,.33,1,1.9,1.9,0,0,1-.55,1.36,2.23,2.23,0,0,1-1.49.65,1.72,1.72,0,0,1,.61.38,8.14,8.14,0,0,1,1.06,1.41l.87,1.4h-1.41l-.63-1.13a5.85,5.85,0,0,0-1.21-1.66,1.51,1.51,0,0,0-.92-.24h-.68v3Zm1.15-4h1.4a2.27,2.27,0,0,0,1.37-.3,1,1,0,0,0,.19-1.35,1,1,0,0,0-.49-.38,3.71,3.71,0,0,0-1.16-.12H601.2Z"/></g></g></svg>