<svg xmlns="http://www.w3.org/2000/svg" viewBox="0 0 567.9 152.95"><defs><style>.cls-1{fill:#fff;}.cls-2{fill:#fdc24e;}</style></defs><title>just-words-logo-base--white</title><g id="Layer_2" data-name="Layer 2"><g id="Layer_1-2" data-name="Layer 1"><polygon class="cls-1" points="236.22 21.14 244.11 21.14 262.7 70.63 262.92 70.63 276.42 28.27 283.02 28.27 296.63 70.63 296.85 70.63 315.65 21.14 323.43 21.14 300.85 80.25 292.31 80.25 279.77 40.91 279.56 40.91 267.24 80.25 258.7 80.25 236.22 21.14"/><path class="cls-1" d="M351.06,74.84c11.45,0,23.34-9.07,23.34-24.53s-13.18-23.88-23.34-23.88c-10.81,0-23.34,8.86-23.34,24.53a23.7,23.7,0,0,0,23.34,23.88M351,19.62c17.51,0,31,14.81,31,31s-13.29,31-31,31a31,31,0,0,1,0-62"/><path class="cls-1" d="M389.82,21.14h7.56v8.53h.22c3.56-8.32,10.26-9.62,16.64-10v8c-5.3.43-9.84,2.38-12.75,5.84a19.29,19.29,0,0,0-4.11,12.21V80.25h-7.56Z"/><path class="cls-1" d="M447.05,74.84a23.76,23.76,0,0,0,23.67-24.1c0-13-10.05-24.31-23.67-24.31-13,0-24.2,9.4-24.2,24.42,0,13.19,9.72,24,24.2,24m30.8,5.41h-7.56V69.87h-.22c-6.27,9.4-16.75,11.78-23,11.78-18.58,0-31.77-14.15-31.77-31.12,0-15.78,12.43-30.91,31.77-30.91,6.49,0,16.64,2.38,23,11.67h.22V.28h7.56Z"/><path class="cls-1" d="M506.05,62.74c.22,11.24,7.89,12.1,10.59,12.1,7.14,0,11-4.21,11-10.59,0-8.1-7.35-9.94-11.78-11.78-6.05-2-15.67-5.29-15.67-16.42,0-8.32,5.94-16.43,16.86-16.43a15.82,15.82,0,0,1,16.1,15.89v.21h-7.57c-.54-7.24-5.51-9.29-8.86-9.29a8.76,8.76,0,0,0-9,8.86c0,6.27,6.27,8.43,10.59,9.84,6.92,2.26,16.86,6,16.86,18.26v.21c0,10.05-6.16,18.05-18.59,18.05-8.1,0-18.15-5.4-18.15-18.26v-.65Z"/><path class="cls-2" d="M24.08,0a14.74,14.74,0,0,1,8,1.89,5.77,5.77,0,0,1,3,5.07c0,3-1.5,5.35-4.47,7.08q-7.1,4.14-17.12,4.13a12.34,12.34,0,0,1-6.74-1.63,6.58,6.58,0,0,1-3.36-5.8q0-5,7.13-7.84A36.83,36.83,0,0,1,24.08,0M36.39,26.41V77.83a46.23,46.23,0,0,1-1.22,12.08A13.42,13.42,0,0,1,31,96.64a23.38,23.38,0,0,1-7.86,4,32.2,32.2,0,0,1-9.84,1.54A18.36,18.36,0,0,1,3.8,100Q0,97.69,0,94.32a3.62,3.62,0,0,1,1.07-2.61A3.47,3.47,0,0,1,3.65,90.6a12.67,12.67,0,0,1,1.86.18c.78.11,1.26.17,1.45.17a2.47,2.47,0,0,0,1.89-1,3.36,3.36,0,0,0,.84-2.21,11.36,11.36,0,0,0-.17-1.63,20.81,20.81,0,0,1-.41-4V45.27a7.71,7.71,0,0,0-.9-4.06,6.11,6.11,0,0,0-3.1-2.32q-3.32-1.34-3.31-4a6.73,6.73,0,0,1,2.67-5.31q2.67-2.24,8.7-4.15a95.17,95.17,0,0,1,10.45-2.49,54,54,0,0,1,9.11-1.16,3.39,3.39,0,0,1,2.85,1,6,6,0,0,1,.81,3.6"/><path class="cls-2" d="M71.72,24.72V56.18q0,10.09,6.68,10.1a6.45,6.45,0,0,0,3.31-1A5.46,5.46,0,0,0,84,63q1.27-2.79,1.28-12.43a86.87,86.87,0,0,0-.64-13,4.34,4.34,0,0,0-.81-2.11,8.4,8.4,0,0,0-2.21-1.55q-3.32-1.74-3.31-4.41,0-3.6,5.69-5a88.52,88.52,0,0,1,21.3-2.67q5.87,0,5.86,6.21,0,.64-.06,2.61-.1,2.79-.17,6.8V63q0,2,3.37,3.6a4.39,4.39,0,0,1,2.84,4.06q0,5.24-12.36,8.07a62.24,62.24,0,0,1-14,1.68,7.92,7.92,0,0,1-3.8-.63,3.08,3.08,0,0,1-1.19-2.5c-.19-2.4-.93-3.6-2.2-3.6a2.64,2.64,0,0,0-1.28.32c-.39.22-1.57,1-3.54,2.35a21.93,21.93,0,0,1-12.6,4q-11.13,0-15.73-6.45-3.88-5.39-3.88-18.16c0-3.17,0-5.88.05-8.13V45a22,22,0,0,0-.9-7.34A7,7,0,0,0,42.35,34a11,11,0,0,1-2.87-1.85,2.8,2.8,0,0,1-.61-1.92q0-4.41,6.68-5.86a106.12,106.12,0,0,1,22.75-2.5q3.42,0,3.42,2.9"/><path class="cls-2" d="M140.72,21.42a55.54,55.54,0,0,1,9.46,1.28,13.91,13.91,0,0,0,2.21.23,14.28,14.28,0,0,0,3.83-1.05,6.37,6.37,0,0,1,2.26-.52q2.67,0,5.4,3.42a25.37,25.37,0,0,1,3.6,6,14.71,14.71,0,0,1,1.39,5.63,5.09,5.09,0,0,1-1.62,3.86,5.68,5.68,0,0,1-4.07,1.54,6.77,6.77,0,0,1-3.63-1,38.56,38.56,0,0,1-5.13-4.35q-3.72-3.6-6.15-3.6a4.06,4.06,0,0,0-4,4q0,2.84,5.46,5.34,9.81,4.41,15,9.63a14.69,14.69,0,0,1,4.41,10.8q0,8.07-7.08,13.46a23.64,23.64,0,0,1-14.92,4.7,79.26,79.26,0,0,1-8.24-.75q-5.62-.65-6.32-.64a9.89,9.89,0,0,0-1.75.18,21,21,0,0,1-2.43.23,6.25,6.25,0,0,1-4.3-1.4,19.79,19.79,0,0,1-4.41-6.76,20.34,20.34,0,0,1-2-7.92q0-5.34,4.18-5.34a4.77,4.77,0,0,1,3,1.07,76.52,76.52,0,0,1,5.72,5.72,20.71,20.71,0,0,0,3.94,3.51,6.33,6.33,0,0,0,3.37,1,4.48,4.48,0,0,0,3.07-1,3.37,3.37,0,0,0,1.16-2.7q0-2.6-4.46-4.76-9.36-4.58-13.5-9.45A16.92,16.92,0,0,1,120,40.46a17.79,17.79,0,0,1,4.24-11.91q6-7.12,16.48-7.13"/><path class="cls-2" d="M208.38,36.63V56.24a9,9,0,0,0,1.72,5.69,5.31,5.31,0,0,0,4.38,2.21c1.5,0,3.5-.7,6-2.09a3.35,3.35,0,0,1,1.74-.53,3.21,3.21,0,0,1,2.55,1.69,6.33,6.33,0,0,1,1.16,3.65c0,2.4-1.31,4.71-3.95,6.91a29.74,29.74,0,0,1-20,7q-9.28,0-14.92-5.25T181.45,61.7V34.88a2.66,2.66,0,0,0-.32-1.65,2.66,2.66,0,0,0-1.65-.32h-6c-1.12,0-1.84-.18-2.15-.55a4.57,4.57,0,0,1-.46-2.58V27.22a2.93,2.93,0,0,1,1.33-2.55L198.81,8a5.1,5.1,0,0,1,2.44-.52h4.69a2.3,2.3,0,0,1,1.95.67,4.8,4.8,0,0,1,.49,2.64v7.83a3.3,3.3,0,0,0,.55,2.27,3.64,3.64,0,0,0,2.35.52H222q2.14,0,2.79.78a5.89,5.89,0,0,1,.64,3.34V28.9a6.65,6.65,0,0,1-.82,3.87,3.51,3.51,0,0,1-2.95,1.07H211.17a3.15,3.15,0,0,0-2.21.58,3.19,3.19,0,0,0-.58,2.21"/><path class="cls-1" d="M344.77,42.26c0,6-3.5,10.81-7.81,10.81s-7.8-4.84-7.8-10.81,3.49-10.8,7.8-10.8,7.81,4.84,7.81,10.8"/><path class="cls-1" d="M439.89,42.26c0,6-3.49,10.81-7.8,10.81s-7.8-4.84-7.8-10.81,3.49-10.8,7.8-10.8,7.8,4.84,7.8,10.8"/><path class="cls-1" d="M488.18,56.08a41.44,41.44,0,0,1,10.76-27.85c7.82-8.48,19-13,32.31-13.23a35.61,35.61,0,0,1,6.42,5.81c6.32,7.33,10,17.57,10,28.08,0,17.59-10.45,36.52-33.38,36.52-18,0-26.06-14.73-26.06-29.33M504.89,5.26A2.7,2.7,0,0,0,507.59,8a44,44,0,0,1,14.71,2.44C508.83,12.61,500.11,19,495,24.57a46.94,46.94,0,0,0-12.18,31.51c0,16.73,9.85,34.73,31.46,34.73,26.65,0,38.78-21.73,38.78-41.92a48.23,48.23,0,0,0-11.26-31.61,41.38,41.38,0,0,0-7.58-6.82,2.57,2.57,0,0,0-1.12-.73,45.84,45.84,0,0,0-25.47-7.17,2.7,2.7,0,0,0-2.7,2.7"/><path class="cls-1" d="M460.21,90.92c-.14.27-14.32,27.05-44.69,43.62-28.06,15.3-76.1,24.78-145.68-16.94a2,2,0,0,0-2.85,1.28,3.06,3.06,0,0,0,1,3.6c71.16,42.68,120.55,32.74,149.44,16.88C448.9,122.11,463.2,95,463.79,93.88a3.15,3.15,0,0,0-.61-3.73,1.9,1.9,0,0,0-3,.77"/><path class="cls-1" d="M560.52,1.75a5.6,5.6,0,0,1,5.53,5.79,5.52,5.52,0,0,1-5.49,5.72,5.61,5.61,0,0,1-5.62-5.76,5.61,5.61,0,0,1,5.53-5.75Zm0-1.45a7.26,7.26,0,0,0-7.43,7.2,7.41,7.41,0,0,0,14.81,0A7.21,7.21,0,0,0,560.56.3Zm-1.1,4.83a3.59,3.59,0,0,1,.92-.09c1,0,1.54.44,1.54,1.1s-.75,1.05-1.67,1.05h-.79Zm0,3.25h.79c.93,0,1.37.35,1.5,1.1a5.77,5.77,0,0,0,.57,1.76H564a6.19,6.19,0,0,1-.53-1.76c-.22-1-.57-1.54-1.28-1.76V7.63a1.85,1.85,0,0,0,1.5-1.71,1.83,1.83,0,0,0-.75-1.54,3.84,3.84,0,0,0-2.46-.57A19.32,19.32,0,0,0,557.7,4v7.21h1.67Z"/></g></g></svg>