<svg xmlns="http://www.w3.org/2000/svg" viewBox="0 0 568.8 206.53"><defs><style>.cls-1{fill:#003b71;}.cls-2{fill:#fdc24e;}</style></defs><title>just-words-logo--dark</title><g id="Layer_2" data-name="Layer 2"><g id="Layer_1-2" data-name="Layer 1"><polygon class="cls-1" points="237.13 74.71 245.01 74.71 263.6 124.2 263.82 124.2 277.32 81.84 283.92 81.84 297.53 124.2 297.75 124.2 316.55 74.71 324.33 74.71 301.75 133.82 293.21 133.82 280.67 94.49 280.46 94.49 268.14 133.82 259.6 133.82 237.13 74.71"/><path class="cls-1" d="M352,128.42c11.45,0,23.34-9.08,23.34-24.53S362.12,80,352,80c-10.81,0-23.34,8.86-23.34,24.53A23.71,23.71,0,0,0,352,128.42m-.11-55.22c17.51,0,31,14.8,31,31s-13.3,31-31,31a31,31,0,0,1,0-62"/><path class="cls-1" d="M390.72,74.71h7.56v8.54h.22c3.56-8.32,10.26-9.62,16.64-10v8c-5.3.43-9.83,2.37-12.75,5.83a19.31,19.31,0,0,0-4.11,12.21v34.58h-7.56Z"/><path class="cls-1" d="M448,128.42a23.76,23.76,0,0,0,23.67-24.1c0-13-10.05-24.31-23.67-24.31-13,0-24.2,9.4-24.2,24.42,0,13.18,9.72,24,24.2,24m30.8,5.4h-7.56V123.45H471c-6.27,9.4-16.75,11.78-23,11.78-18.58,0-31.77-14.16-31.77-31.12,0-15.78,12.43-30.91,31.77-30.91,6.49,0,16.64,2.38,23,11.67h.22v-31h7.56Z"/><path class="cls-1" d="M507,116.32c.22,11.23,7.89,12.1,10.59,12.1,7.14,0,11-4.21,11-10.59,0-8.11-7.35-9.94-11.78-11.78-6-2-15.67-5.3-15.67-16.42,0-8.33,5.94-16.43,16.86-16.43a15.82,15.82,0,0,1,16.1,15.88v.22h-7.57C526,82.06,521,80,517.65,80a8.76,8.76,0,0,0-9,8.86c0,6.27,6.27,8.43,10.59,9.83,6.92,2.27,16.86,6,16.86,18.26v.22c0,10-6.16,18-18.59,18-8.1,0-18.15-5.41-18.15-18.27v-.64Z"/><path class="cls-2" d="M25,53.58a14.88,14.88,0,0,1,8,1.88,5.79,5.79,0,0,1,3,5.08q0,4.47-4.47,7.08-7.08,4.13-17.12,4.12a12.45,12.45,0,0,1-6.74-1.62,6.6,6.6,0,0,1-3.36-5.81q0-5,7.13-7.83A36.63,36.63,0,0,1,25,53.58M37.29,80v51.42a46.15,46.15,0,0,1-1.22,12.07,13.45,13.45,0,0,1-4.18,6.74,23.38,23.38,0,0,1-7.86,4,32.51,32.51,0,0,1-9.84,1.54,18.36,18.36,0,0,1-9.49-2.26C2.17,152,.9,150.14.9,147.89A3.65,3.65,0,0,1,2,145.28a3.47,3.47,0,0,1,2.59-1.1,14,14,0,0,1,1.85.17,13.64,13.64,0,0,0,1.46.18,2.45,2.45,0,0,0,1.88-1,3.32,3.32,0,0,0,.84-2.21,11.25,11.25,0,0,0-.17-1.62,20.89,20.89,0,0,1-.41-4V98.85a7.69,7.69,0,0,0-.9-4.06A6.17,6.17,0,0,0,6,92.46c-2.21-.88-3.31-2.22-3.31-4a6.73,6.73,0,0,1,2.67-5.31Q8,80.91,14.07,79a97.3,97.3,0,0,1,10.45-2.5,55,55,0,0,1,9.12-1.16,3.39,3.39,0,0,1,2.84,1,6,6,0,0,1,.81,3.6"/><path class="cls-2" d="M72.62,78.3v31.46q0,10.09,6.68,10.1a6.47,6.47,0,0,0,3.31-1,5.4,5.4,0,0,0,2.26-2.35q1.27-2.79,1.28-12.42a86.78,86.78,0,0,0-.64-13A4.39,4.39,0,0,0,84.7,89a8.43,8.43,0,0,0-2.21-1.54q-3.31-1.74-3.31-4.41,0-3.6,5.69-5a88.52,88.52,0,0,1,21.3-2.67q5.86,0,5.87,6.21c0,.43,0,1.3-.06,2.61Q111.86,87,111.8,91v25.6c0,1.31,1.13,2.51,3.37,3.6a4.38,4.38,0,0,1,2.84,4.06q0,5.22-12.36,8.07A62.24,62.24,0,0,1,91.6,134a7.78,7.78,0,0,1-3.8-.64,3.08,3.08,0,0,1-1.19-2.49c-.19-2.4-.93-3.6-2.2-3.6a2.64,2.64,0,0,0-1.28.32c-.39.21-1.57,1-3.54,2.35A21.91,21.91,0,0,1,67,134q-11.14,0-15.74-6.44-3.88-5.4-3.88-18.17c0-3.17,0-5.88,0-8.12V98.56a22,22,0,0,0-.9-7.34,7,7,0,0,0-3.28-3.69,10.69,10.69,0,0,1-2.87-1.86,2.77,2.77,0,0,1-.61-1.91q0-4.41,6.68-5.86A105.49,105.49,0,0,1,69.2,75.4q3.42,0,3.42,2.9"/><path class="cls-2" d="M141.62,75a56.61,56.61,0,0,1,9.46,1.28,12.82,12.82,0,0,0,2.21.23,14.12,14.12,0,0,0,3.83-1,6.41,6.41,0,0,1,2.26-.53c1.78,0,3.58,1.15,5.4,3.43a25.37,25.37,0,0,1,3.6,6A14.63,14.63,0,0,1,169.77,90a5.1,5.1,0,0,1-1.62,3.86,5.67,5.67,0,0,1-4.06,1.54,6.72,6.72,0,0,1-3.63-1A38.61,38.61,0,0,1,155.32,90q-3.72-3.6-6.15-3.6a4.06,4.06,0,0,0-4,4q0,2.85,5.46,5.34,9.81,4.41,15,9.64a14.68,14.68,0,0,1,4.41,10.79q0,8.07-7.08,13.47a23.69,23.69,0,0,1-14.91,4.7,79.15,79.15,0,0,1-8.25-.75q-5.62-.65-6.32-.65a9.89,9.89,0,0,0-1.75.18,19,19,0,0,1-2.43.23A6.25,6.25,0,0,1,125,132a20,20,0,0,1-4.41-6.76,20.38,20.38,0,0,1-2-7.93q0-5.34,4.18-5.34a4.72,4.72,0,0,1,3,1.08,76.52,76.52,0,0,1,5.72,5.72,21,21,0,0,0,3.94,3.51,6.32,6.32,0,0,0,3.37,1,4.48,4.48,0,0,0,3.07-1,3.39,3.39,0,0,0,1.17-2.7c0-1.74-1.5-3.32-4.47-4.76q-9.36-4.57-13.5-9.46A16.88,16.88,0,0,1,120.9,94a17.78,17.78,0,0,1,4.24-11.9q6-7.12,16.48-7.14"/><path class="cls-2" d="M209.28,90.2v19.62a9,9,0,0,0,1.72,5.69,5.3,5.3,0,0,0,4.38,2.2c1.51,0,3.5-.69,6-2.09a3.34,3.34,0,0,1,1.74-.52,3.19,3.19,0,0,1,2.55,1.68,6.36,6.36,0,0,1,1.16,3.66q0,3.6-3.94,6.91a29.77,29.77,0,0,1-20,7q-9.28,0-14.92-5.25t-5.63-13.85V88.46a2.66,2.66,0,0,0-.32-1.65,2.66,2.66,0,0,0-1.65-.32h-6a2.88,2.88,0,0,1-2.15-.56,4.53,4.53,0,0,1-.46-2.58V80.8a2.91,2.91,0,0,1,1.34-2.55l26.58-16.72a5.12,5.12,0,0,1,2.44-.53h4.7a2.32,2.32,0,0,1,1.94.67,4.85,4.85,0,0,1,.49,2.64v7.84a3.19,3.19,0,0,0,.56,2.26,3.6,3.6,0,0,0,2.35.52h10.74c1.42,0,2.35.27,2.78.79a5.84,5.84,0,0,1,.64,3.34v3.42a6.68,6.68,0,0,1-.81,3.86,3.52,3.52,0,0,1-3,1.07H212.07a2.27,2.27,0,0,0-2.79,2.79"/><path class="cls-1" d="M345.67,95.84c0,6-3.5,10.81-7.81,10.81s-7.8-4.84-7.8-10.81S333.55,85,337.86,85s7.81,4.84,7.81,10.81"/><path class="cls-1" d="M440.8,95.84c0,6-3.5,10.81-7.81,10.81s-7.8-4.84-7.8-10.81S428.68,85,433,85s7.81,4.84,7.81,10.81"/><path class="cls-1" d="M489.09,109.66a41.43,41.43,0,0,1,10.75-27.85c7.82-8.48,19-13,32.31-13.24a35.64,35.64,0,0,1,6.42,5.81c6.32,7.34,9.95,17.57,9.95,28.08,0,17.59-10.44,36.53-33.38,36.53-18,0-26.05-14.74-26.05-29.33m16.7-50.82a2.7,2.7,0,0,0,2.7,2.7A43.77,43.77,0,0,1,523.2,64c-13.47,2.2-22.19,8.58-27.33,14.15a46.93,46.93,0,0,0-12.19,31.52c0,16.72,9.85,34.73,31.46,34.73,26.65,0,38.78-21.73,38.78-41.93a48.27,48.27,0,0,0-11.26-31.61A41.75,41.75,0,0,0,535.08,64,2.66,2.66,0,0,0,534,63.3a45.92,45.92,0,0,0-25.47-7.16,2.7,2.7,0,0,0-2.7,2.7"/><path class="cls-1" d="M461.11,144.5c-.14.27-14.32,27.05-44.69,43.61-28.06,15.3-76.1,24.79-145.67-16.94a2,2,0,0,0-2.86,1.28,3.05,3.05,0,0,0,1,3.6c71.16,42.68,120.55,32.74,149.44,16.89,31.45-17.25,45.75-44.34,46.34-45.48a3.16,3.16,0,0,0-.61-3.74,1.89,1.89,0,0,0-3,.78"/><path class="cls-1" d="M173.54,2.26a5.6,5.6,0,0,1,5.53,5.79,5.52,5.52,0,0,1-5.49,5.72A5.61,5.61,0,0,1,168,8a5.61,5.61,0,0,1,5.53-5.75Zm0-1.45A7.26,7.26,0,0,0,166.11,8a7.41,7.41,0,0,0,14.81,0,7.21,7.21,0,0,0-7.34-7.2Zm-1.1,4.83a3.59,3.59,0,0,1,.92-.09c1.06,0,1.54.44,1.54,1.1s-.75,1-1.67,1h-.79Zm0,3.25h.79c.92,0,1.36.35,1.49,1.1a5.77,5.77,0,0,0,.57,1.76H177a6.56,6.56,0,0,1-.53-1.76c-.22-1-.57-1.54-1.27-1.76V8.14a1.85,1.85,0,0,0,1.49-1.71A1.83,1.83,0,0,0,176,4.89a3.84,3.84,0,0,0-2.46-.57,19,19,0,0,0-2.76.22v7.21h1.67ZM130.57,39.25h8.67V22.31L139,17.56l10.84,21.69h8.85V1.05H150V19l.35,4.12-11-22h-8.8Zm-12.78-19.4q0,6.86-1.29,9.2a4,4,0,0,1-3.71,2.35,3.68,3.68,0,0,1-3.42-2.35c-.79-1.56-1.18-4.69-1.18-9.37q0-10.89,4.66-10.89,5,0,4.94,11.06m5.64,15Q127,29.57,127.05,20T123.38,5.18Q119.69,0,112.75,0a11.75,11.75,0,0,0-10.17,5.16q-3.64,5.16-3.65,14.4,0,10,3.63,15.32c2.43,3.54,5.94,5.3,10.56,5.3a11.73,11.73,0,0,0,10.31-5.3M85.1,40.3a12.5,12.5,0,0,0,8.83-3.23,10.68,10.68,0,0,0,3.48-8.17,11.26,11.26,0,0,0-2.67-7.42,27.71,27.71,0,0,0-5.27-5Q85.11,13.36,85.11,11A2.53,2.53,0,0,1,86.05,9a4,4,0,0,1,2.56-.76A14.37,14.37,0,0,1,95,10.31V1.61A17.83,17.83,0,0,0,87.66,0,10.74,10.74,0,0,0,76.44,11.25a11.5,11.5,0,0,0,2,6.63A29.82,29.82,0,0,0,85,24.31a16,16,0,0,1,2.63,2.43,3.32,3.32,0,0,1,.78,2.11,3.09,3.09,0,0,1-1,2.36,3.69,3.69,0,0,1-2.6.89q-2.84,0-7-2.46v9A16.78,16.78,0,0,0,85.1,40.3m-25.6-1H75.08V30.46H68.17V1.05H59.5Zm-14.17,0H54V1.05H45.33Zm-36.22,0h7.68l3.66-16.57c.22-1,.56-3,1.05-5.92q.43,2.61,1.11,5.41l3.55,17.08H33.9l9.33-38.2H34.67L29.82,23.83,25.4,1.05H17.84l-4.6,23-4.92-23H0Z"/><path class="cls-1" d="M561.42,55.32a5.6,5.6,0,0,1,5.53,5.8,5.51,5.51,0,0,1-5.49,5.71,5.76,5.76,0,0,1-.09-11.51Zm0-1.45a7.23,7.23,0,1,0,7.38,7.21,7.26,7.26,0,0,0-7.38-7.21Zm-1.1,4.84a3.59,3.59,0,0,1,.92-.09c1,0,1.54.44,1.54,1.09s-.75,1.06-1.67,1.06h-.79ZM560.27,62h.8c.92,0,1.36.35,1.49,1.09a5.67,5.67,0,0,0,.57,1.76h1.76a6.06,6.06,0,0,1-.53-1.76c-.22-1-.57-1.53-1.27-1.75v-.09a1.86,1.86,0,0,0,1.49-1.71,1.81,1.81,0,0,0-.75-1.54,3.84,3.84,0,0,0-2.46-.57,19,19,0,0,0-2.76.22v7.2h1.66Z"/></g></g></svg>