<svg xmlns="http://www.w3.org/2000/svg" viewBox="0 0 456.7 626.88"><defs><style>.cls-1{fill:#fff;}</style></defs><title>wilson-logo-full--white</title><g id="Layer_2" data-name="Layer 2"><g id="Layer_1-2" data-name="Layer 1"><path class="cls-1" d="M50,587.74c1.34.66,2.47,2.09,3,2.09a.69.69,0,0,0,.37-.08A1.25,1.25,0,0,0,54,589a4,4,0,0,0,.12-1.09,10.2,10.2,0,0,1,1-1.73c.4-.24.73-.37.73-1,0-.07-.55-1.92-1.44-1.92s-6,1.61-6,3.27a1.31,1.31,0,0,0,.82,1.07A2.15,2.15,0,0,0,50,587.74Z"/><path class="cls-1" d="M165.18,596.07a13.62,13.62,0,0,0-.64,2.43,16.17,16.17,0,0,1-.6,4.14,52.63,52.63,0,0,1-2.58,6.38,35.89,35.89,0,0,1-5,7.06c-1,1-2.22,2.13-3.44,3.18a16.46,16.46,0,0,1-3.35,2,6.66,6.66,0,0,1-4.09,2.27,2.46,2.46,0,0,1-2.06-.87c.07,0-.19-.33-.19-.24-1-1.46-1-4-1-5.22,0-3.76,3.12-14.29,3.12-16.58,0-1-1-1.27-1.95-1.27a4.5,4.5,0,0,0-2.31,1.17,15.45,15.45,0,0,0-1.73,1.53c-1.25,1.2-2.45,2.52-3.22,3.34a1.37,1.37,0,0,1-.74.2c-.49,0-.53-.44-.54-1.07,0,0,.54-3,.54-3.52,0-.75-.1-3.8-1.66-3.8-2.1,0-6.56,5.22-6.6,6.3-1.45,1.72-2.73,3.49-4,5.24.07-.18-.36.51-.36.51-.77,1.08-1.53,2.16-2.31,3.2a1.7,1.7,0,0,0-.73,1,32.63,32.63,0,0,1-5.36,5.61c.11-.1-.59.13-.91.42,1-2.16,4.54-9.91,4.54-12.2,0-.48.59-6.24.59-6.72,0-2-.56-6.63-4.88-6.63-2.42,0-4.55,1.51-6.37,3.67a23.91,23.91,0,0,0-4.3,6.33,8.63,8.63,0,0,0-.51,1.48l-.26.46a5.57,5.57,0,0,0-.64,2.07c-.53,1.32-1,2.44-1.25,3.21l-.13.3c-.39.86-4.7,4.43-6.73,5.75-1,.66-4.22,3.45-6.14,3.45-.49,0-.42,0-.59-.11,1-1.57,1.81-4.18,3.17-5.32.32-.08,0-.23,0-.71a4.49,4.49,0,0,1,.16-1.09c.4-1.07.85-2.27,1.25-3.44a15.7,15.7,0,0,0,1.52-5.13c0-.49,1-8.58,1-9.07s.25-2-1.07-2c-3,0-10.65,12.25-12.09,14.51a1.52,1.52,0,0,0-.2.31c-.44-.66-.44-1.56-1.56-1.56-.88,0-2.83,1.35-2.83,2.63,0,.49.59,3.61.59,4.1,0,.83-6.32,6.54-7.12,6.54-1.81,0-2.44-4.44-2.44-5.07a12.35,12.35,0,0,1,.48-3.7,18.44,18.44,0,0,1,2.4-4.05c.44-.32.82-.75.75-1a8.73,8.73,0,0,0,1-2.07l.35-.51a38.83,38.83,0,0,0,2.47-4.69c.38-.76.74-1.55,1.08-2.34.19-.44.36-.86.53-1.27,1.16-2.72,2-5,2-5.21,0-.49-.38.1-.38-.39,0-.24,1.75-3.91,1.75-5.17a15.1,15.1,0,0,0-1.22-5.06h-.77a10.68,10.68,0,0,0-1.19.67A8.48,8.48,0,0,0,73,584a22.91,22.91,0,0,0-1.63,3,37.45,37.45,0,0,0-2.4,6.45c-.18.52-.36,1-.54,1.51a60.11,60.11,0,0,0-2.2,7.55c0,.44,0,.88,0,1.31-.21,1.1-.36,2.22-.55,3.33-1.14,4.26-4,8.15-9.13,12.79-.54.49-3.42,2.85-3.84,2.85-2,0-2.44-5-2.44-6.24,0-2.44,4.69-11.95,4.69-17.45,0,0,.14-1.67-.78-1.67-2.93,0-5,6.33-6.08,11.06a21.66,21.66,0,0,0-.72,3.38c-.16.87-.26,1.47-.3,1.64a21.18,21.18,0,0,1-2.52,4.84c-1.56,2.39-4.2,5.15-5.79,7.89l.37.24a2,2,0,0,0,1,.41c2.27,0,4.31-4.25,6.15-6.26h.35c.77,3.38,1.16,5.48,4.33,5.48,4.51,0,10-6.93,12.65-10,.05,2.17.81,7.22,4.42,7.22,2.94,0,6.48-3.09,9.26-5.88a2,2,0,0,0,.9,1c1.85,4.51,2.84,5.12,7.2,5.12a13.14,13.14,0,0,0,7.13-2.39,23,23,0,0,0,3.82-2.93,35.14,35.14,0,0,0,2.75-2.3,1.26,1.26,0,0,1,.54-.18c.08,0,1.37,8.39,5.56,8.39h.32a.82.82,0,0,0,.85,0,18.87,18.87,0,0,0,5-1,16.67,16.67,0,0,0,6.75-3.85,38.65,38.65,0,0,0,7.66-9.37c1.36-1.9,2.83-4,4.5-6.25,1.54-1.36.87,1.32.69,1.9a17.53,17.53,0,0,0-.52,2.17c0,4.12-6.05,18-6.05,18,0,1.05,2,.88,2.24.88a6.14,6.14,0,0,0,1.35-.09c1.4-2.32,3.36-6.52,5.34-10.52a89.9,89.9,0,0,1,6.39-10l.19,0c.48,0,.3.14.3.14l-.19.93c0-.3-2.16,11.66-2.16,12.1,0,2.36,1.46,7.31,5.75,7.31,3,0,6.25-1.56,9.41-4A37.84,37.84,0,0,0,165,607.88a15.93,15.93,0,0,0,1.85-6.29c-.22-.23-.19-.35,0-3.29A4,4,0,0,0,165.18,596.07Zm-94.54,2.68c.51-1.74,1-3.49,1.51-5,.35-1,.65-1.94.88-2.67a30.46,30.46,0,0,1,3.65-6.49c.07.28.26.19.26.68,0,.06-1.41,5.55-1.7,7.13-.38,1.1-.74,2.15-1,3a13.11,13.11,0,0,0-.78,2.14c0,.49-1.35,1.5-1.76,2.93a19.68,19.68,0,0,0-.88,2.18l-.61.93a1.82,1.82,0,0,1-.63.07C69.92,602,70.27,600.33,70.64,598.75ZM83.9,619.27c-.81-.2-3.06-4.85-3.06-5.95a21.74,21.74,0,0,1,2.49-4.15l.65-1c2.09-3.05,4.65-6.61,5.77-8.23-.13,2.44-.52,5-.52,5.45C89.23,608.42,84.85,617.86,83.9,619.27Zm24.06,1c-2.12,0-3.12-6.12-3.12-6.93,0-3.55.82-4.58,4.48-8.53.22-.11-.19-.63-.19-1.12a2.87,2.87,0,0,1,.09-.65c.45-.92.85-1.86,1.21-2.8l.24-.64c.92-1.65,2.06-3.13,2.85-3.13.63,0,2.27,1.31,2.83,2.06l-.2.66c0-.16,0,2.1,0,2.1-.15,1.22-.36,3.19-.49,4.59C114.74,610.1,111.28,620.25,108,620.25Z"/><path class="cls-1" d="M42.47,597.86c0-.49.74-1,1-1.66a8.1,8.1,0,0,0,.47-2.38c0-.49-.19-.29-.19-.78v-.76c.19,0,.4-.2.4-.6s.57-4.14.57-4.14c-.28-.06.11-.84.37-.86V586a12.79,12.79,0,0,0,.23-2.37c0-.39-.34-3.51-1.45-3.51-.78,0-3,.68-3,2.1.1.27.47.53.81.81a3.58,3.58,0,0,1,.53.93v3.3a5.17,5.17,0,0,1,0,.54c-.17,1.28-.43,2.83-.74,4.5-1.24,5.83-3.53,13.91-3.53,14.64,0,1.34-4.48,10.07-4.48,10.14,0,.78-3.66,4.38-4.2,4.38-.24,0-2-.38-2-1.56a17.9,17.9,0,0,1-1.36-3.31,3.34,3.34,0,0,0,0-.5c0-1.16-.18-3.77-.18-4.18,0-8.17,4.88-20.75,4.88-22.33,0-.49-.39-.4-.42-.66-.85,0-1.82-.22-2.31-.22-1.34,0-3,8.11-3.65,10.21a57.21,57.21,0,0,0-1.24,6.44c-.27,1-.59,2-1,3-1.73,3.13-9.36,14.31-13.47,14.31-4.41,0-4.87-5.49-4.87-8.09,0-3.59,5.65-23,5.65-23.12a1.69,1.69,0,0,1,0-.3c.43-1,.87-2,1.29-2.92.92-1.59,2-3.2,2-4.09,0-.49-.78-1.08-1.26-1.08a1.1,1.1,0,0,0-.68.33c-2.12,1-4.32,7.19-6.16,14a115.65,115.65,0,0,0-3.8,13.53c0,.48-.58,4.67-.58,5.16A11.66,11.66,0,0,0,.27,620c.59,3.85,3.12,5.54,5.95,5.54,5.46,0,9.4-4.66,12.05-8.09,1.09-1.2,2.08-2.39,2.9-3.44a.87.87,0,0,1,.46-.17c.18,0,.27,0,.31.14-.21,2.17.4,11,5.84,11,8.85,0,14.82-20.87,14.82-25.16C42.6,599.28,42.47,598.35,42.47,597.86Z"/><path class="cls-1" d="M331.69,619.55a6.74,6.74,0,0,0-2.27.51l-.19,0c-.16,0-.43.46-.43.46a.86.86,0,0,0-.26.59l0,.31c.11,1.14.87,1.5,1.86,1.6a1,1,0,0,0,.29,0h.87a4.48,4.48,0,0,0,2.34-.41l.25-.2a1.45,1.45,0,0,0,.45-1.12c0-.54-.22-.54-.25-.84C333.43,620.42,332.23,619.55,331.69,619.55Z"/><path class="cls-1" d="M324.11,590.88a2.5,2.5,0,0,0,.37-1.31,2.43,2.43,0,0,0-.65-1.62,2.55,2.55,0,0,0-2-.75h-3.34v8.5h1V592h2.44l1.55,3.68h1.12l-1.67-3.93A2,2,0,0,0,324.11,590.88Zm-2.44.27h-2.21v-3h2.35a1.77,1.77,0,0,1,1.15.38,1.27,1.27,0,0,1,.45,1,1.6,1.6,0,0,1-.43,1.14A1.7,1.7,0,0,1,321.67,591.15Z"/><path class="cls-1" d="M321.52,583.68a7.78,7.78,0,1,0,7.77,7.77A7.77,7.77,0,0,0,321.52,583.68Zm0,14.31a6.54,6.54,0,1,1,6.53-6.54A6.53,6.53,0,0,1,321.52,598Z"/><path class="cls-1" d="M322.15,616.37a.44.44,0,0,0-.24,0h-.28a3.21,3.21,0,0,1-.34.41,52.59,52.59,0,0,1-5.88,3.77c-4.76,2.12-10.81,3.6-14.31,3.6a4.5,4.5,0,0,1-2.24-.27c.11,0-.46-.24-.49-.77a13.22,13.22,0,0,0,2-3.44,11.28,11.28,0,0,0,.49-1c.13-.36.27-.72.39-1.09,1.28-3.26,2.42-7,2.42-8.61a15.38,15.38,0,0,1,.3-3c.29-1.07.62-2.23.92-3.31a20.92,20.92,0,0,0,1.32-3.91,1.76,1.76,0,0,0-1.95-1.65c-.49,0-2.17.27-2.48,1A70,70,0,0,1,295,608.84a1.65,1.65,0,0,0-.62.77s-3.5,4-4.59,4c-1.78,0,.86-4.1-2.24-4.1a2.76,2.76,0,0,0-3,2.92c0,.49.4,3.12.4,3.61,0,2.1-8.88,5-10.44,5a5,5,0,0,1-1-.1c-.39-.1-.71-.26-.92-.32-2.31-1.14-2.69-4.41-2.69-6.11a4.83,4.83,0,0,1,.22-1.41A14.86,14.86,0,0,1,272,610a33.57,33.57,0,0,1,8-6,6.4,6.4,0,0,0,3.11-1.79l.82-.51v-.89a9,9,0,0,0-2.13-.62c-1.25,0-4,1.5-6.65,3.22l-.7.35a45.12,45.12,0,0,0-5.56,4.33c.56-1.09,1.4-2.59,1.17-2.57,1.11-2.26,2.57-5.2,2.57-6.31,0,0,.93-2.74,1.91-6.1a22.61,22.61,0,0,0,1.39-5.29,26.91,26.91,0,0,0,.8-5.38c0-.39,0-3.9-1.85-3.9a2.8,2.8,0,0,0-1.58.53,4.81,4.81,0,0,0-1.91,2.11c-1.92,3-3.37,7.91-4.31,11.57-.74,2.41-1.47,4.91-2.09,7.11a21.36,21.36,0,0,0-.94,2.67,55.64,55.64,0,0,1-3.55,10.31,1,1,0,0,0-.51,1,3.84,3.84,0,0,1-.36.5A28.5,28.5,0,0,1,247.82,622l-.32.09a4.21,4.21,0,0,0-.73.17,6.94,6.94,0,0,1-1.08.09c-.63,0-1.17.25-1.17-.87,0-3,4.88-5,4.88-12.59,0-2.84-1.54-6.58-2.82-10.15l-.43-1.22a.21.21,0,0,0-.1-.32,21,21,0,0,1-1-4.21c0-.65-1.24-.67-1.39-.67-.51,0-2.83.7-2.83,1.85,0,.48,1,4.68,1,5.17,0,3-1.49,5.86-3.11,8.72-.83,1.46-1.7,2.92-2.41,4.4l-.17.31c-.27.39-.54.77-.82,1.14a16.79,16.79,0,0,1-2.41,2.23c-.2,0-.42,0-.53.41-1.11.84-2.26,1.58-3.18,2.16s-2.88,2.08-4.15,2.08a1,1,0,0,1-.67-.19l.32-.34a2.35,2.35,0,0,1,.51-.23,2.4,2.4,0,0,0,.25-.37,16.85,16.85,0,0,0,3.66-5.69,1.43,1.43,0,0,0,.19-.44,32.71,32.71,0,0,0,2.57-10.78c0-1.53-1.49-7.51-4.88-7.51-5.53,0-6.41,7.61-13.56,7.61-.78,0-4.38-.54-4.38-2.24,0-.49-.2-.79-.2-1.27s.39-2.44.39-2.93-.15-1.56-1.07-1.56a1.25,1.25,0,0,0-.59.41h-.24l-.42.74a7.51,7.51,0,0,0-1.57,2.63v3.77c.22.23.25.69.13.55l-.34.38v.88a.81.81,0,0,0,.09.37l0,.17-.21.78a.41.41,0,0,0-.21.1v.65c-1.33,4.64-4.61,15.09-6.54,15.09-.49,0-1.08-.38-1.08-.87,0-.32-.4-.68-.69-1-.1-.2-.2-.42-.29-.63-.08-.72-1-3.93-1-4.39,0-4,3.91-10,3.91-12.88a1.42,1.42,0,0,0-.32-1.06,1.19,1.19,0,0,0-.76-.21,2,2,0,0,0-1,.28,3.1,3.1,0,0,0-1.35,1.35c-2.18,3.06-3.6,9.37-3.7,9.54-.32.54-.58,1.07-.84,1.55s-.73,1-1.14,1.61a3.4,3.4,0,0,1-1.39.77c-.51,1.45-5.32,6.55-6.91,6.55-2.07,0-1.95-1-1.95-2.73,0-1.95,2.34-10.65,2.34-10.73,0-.88,1.25-4.52,2.37-7.61a19.37,19.37,0,0,0,1.45-3.92l.28-.75c0-.66-.56-1.76-1.46-1.76a1.07,1.07,0,0,0-.62.22c-.91.09-.65.47-1.76,1.59-.09.44-.35,1.32-.71,2.45a82.9,82.9,0,0,0-2.95,9,39.85,39.85,0,0,0-1.67,6c0,.15-.09.77-.21,1.57a47.92,47.92,0,0,0-1,5c0,3.24,1.41,4.87,5,4.87,3,0,9.87-6.6,10.72-8,.09.93,2.28,7.61,5.48,7.61a9,9,0,0,0,.9,0c0,.22.9,0,.73-.08a3.91,3.91,0,0,0,1.67-.56,11,11,0,0,0,1.6-2.06,14.18,14.18,0,0,0,1.79-2.86c.19-.38.38-.78.56-1.19a11.51,11.51,0,0,0,1.23-3.34,69,69,0,0,0,1.95-8.78c.18-.62.32-1.05.36-1.14,1.29.16,3.84.55,4.33.55s3.8-.78,4.29-.78.61,0,.78.12c-1,2.85-2.34,5.93-2.34,8.65a23.42,23.42,0,0,1-.88,4.59,1.4,1.4,0,0,0-.11.79,8.79,8.79,0,0,0-.18,1.55,4.11,4.11,0,0,0,4.29,4.19c.49,0,1.85-1,2.34-1s2,.39,2.54.39c8.77,0,18.84-12.21,20-20.47l0-.18c.15.28.93,2,1.35,3.09l.27,1c0,.19.06.56.13,1-.08-.22,0,.2.05.29l.09.54c0-.17.08.61.06.37.13.78.25,1.5.25,1.71,0,4.12-5.27,8.8-5.27,11,0,1.12,1.58,3.41,3.41,3.41a20.49,20.49,0,0,0,8.64-2.51,38.3,38.3,0,0,0,5.05-2.87,10.1,10.1,0,0,1,1.82-1c.49,0,.43.16.59.31a9,9,0,0,0-.59,2.71c0,.49.2,1.17.22,1.63,1,0,2.32.42,2.81.42.8,0,2.8-4.71,3.69-5.66a31.16,31.16,0,0,0,2.17,3.15c1.86,2.25,3.43,2.7,6.52,2.7,1.37,0,3.72-1.13,5.94-2.22,1.5-.64,2.95-1.34,4.33-1.93a2.68,2.68,0,0,1,.75-.14c.35,0,.77.42,1.33,1.05,1.84,2.79,5.53,5.54,8.47,5.59a12.78,12.78,0,0,0,2.2.19c6.05,0,21.74-2.34,25.65-8.9a5.66,5.66,0,0,0,.67-1.61h-1.36Zm-49.17-30c.12,0,.28.48-.08,1.3-.27,1.15-.55,2.33-.85,3.53,0-.16-1.08,4.34-1.08,4.34-.36,1-.7,2-1,2.91-.51.56-1,.46-1,.13C269,597.3,271.78,589.49,273,586.32Zm-51.81,33.09a1.74,1.74,0,0,1-.45.06c-.92,0-1.95-4.34-1.95-4.49,0-.51.58-1,.58-1.07,0-.49-.38-.1-.38-.59,0-.06,0-.14,0-.23l.13-.51a12.85,12.85,0,0,0,.43-1.66l.36-1.29c1.15-3.29,4.74-11.62,6.37-11.62a2.28,2.28,0,0,1,1.88,1,5.74,5.74,0,0,1,.46.89,9.24,9.24,0,0,1,.68,3.71,41.64,41.64,0,0,1-3.09,9.46c-.48.76-1,1.53-1.48,2.24.1-.16-.48.16-.43.61A18.23,18.23,0,0,1,221.17,619.41ZM298,615.67c-.88,2.23-3.07,5.94-4.39,5.94s-3.42-4-3.42-4.1,6-5.55,8.72-8.18l-.06.73a2.84,2.84,0,0,0-.19,1.63c-.14,1.2-.28,2.32-.28,2.72S298.11,615.25,298,615.67Z"/><path class="cls-1" d="M405,167.16a17.19,17.19,0,0,0,5.4-.6c2.43-.72,12.27-4.82,16.09-8.14a4.27,4.27,0,0,0,1.5-2,104.58,104.58,0,0,1-13.39,4.6,84.53,84.53,0,0,0-12.29,4.58A3,3,0,0,0,405,167.16Z"/><path class="cls-1" d="M382.19,164.75l11.46-1c1.58-.25,8.74-1,9.08-1.65,0-.08,0-.16-.19-.23-5.27-2.11-17,.94-20.89,1.13-.07,0-5.47-.84-5.7.29a3.56,3.56,0,0,0-.07.52C375.74,166,378.34,165.63,382.19,164.75Z"/><path class="cls-1" d="M232.79,160.93a5.93,5.93,0,0,0,2.63,2.58,3.07,3.07,0,0,1,.18-.61,4.1,4.1,0,0,1,.54-1,18.08,18.08,0,0,1-4-2.52A7.8,7.8,0,0,0,232.79,160.93Z"/><path class="cls-1" d="M220.28,197.25c-.76.19-3,.12-3.82.51l.57,2.58a18.42,18.42,0,0,0,.72,3.15c-.42.78-.08,1.69-.17,2.57a7.82,7.82,0,0,0,1.43-1.27l.34-.39c0-.2,1.52-3.63,1.6-4.12.09-.29.26-.68.42-1.07a8.52,8.52,0,0,0-.5-1.08A6.15,6.15,0,0,1,220.28,197.25Z"/><path class="cls-1" d="M236.23,166.09v2.16c1.21.29,2.58-1,3.4-2.16a5.34,5.34,0,0,0,.65-1.24,19.59,19.59,0,0,1-2,.54A7.41,7.41,0,0,0,236.23,166.09Z"/><path class="cls-1" d="M225.67,172a2.24,2.24,0,0,0-.13,3h2.64c.7-.66.19-1.47.1-2.28A4.29,4.29,0,0,1,225.67,172Z"/><path class="cls-1" d="M215.77,168.6a29.82,29.82,0,0,0,1.84,2.39c.59.6,2.3-.36,2.3-.36C219,169.35,218.8,167.18,215.77,168.6Z"/><path class="cls-1" d="M227.59,159.42h-3.35v2.23c1.93.69,3.83.11,5.24,0C229.56,160.86,228.28,160.05,227.59,159.42Z"/><path class="cls-1" d="M231.67,171.36a3.74,3.74,0,0,1,2.09-.83,22.15,22.15,0,0,0-3.3-1.87C230.85,169.47,230.85,170.67,231.67,171.36Z"/><path class="cls-1" d="M214.77,161.18c.2.47,1.22,3,3.4,3,1.5,0,1.71-.09,2.39-1-2-.82-3.08-1.94-5.09-3.83A1.83,1.83,0,0,0,214.77,161.18Z"/><path class="cls-1" d="M263.09,169.15c1.05-1,2.79-3.37,2.93-4.9a1.07,1.07,0,0,0-.52-1.17c-2.31.6-4.36,1.42-5.31,3a4.56,4.56,0,0,0-.42,3.48C260.4,170.42,262.26,171.9,263.09,169.15Z"/><path class="cls-1" d="M249,192.14h0a5.92,5.92,0,0,0,.41-2c-.08-2.73-3.76-8-4.42-9.8a2,2,0,0,1-1.66.49c-.16.22-.16.22-.25.22a3,3,0,0,1-.5.2,3.07,3.07,0,0,0-.42,1.17c.84-.09,2.52,1.57,2.69,1.67.17-.1.25-.2.42-.2a.79.79,0,0,1,.51.39c.08.1.17.2.17.3a2.69,2.69,0,0,1,.75,2.06c0,1,0,1.86-.08,2.84l-.08.39a1.8,1.8,0,0,0-.09.69,13.1,13.1,0,0,0-.78,1.54h0a8.66,8.66,0,0,0-.65,2.46,5,5,0,0,0-.42.69c-.09.1-3,4.8-5.14,5.39a6.76,6.76,0,0,0-.84.29,1.57,1.57,0,0,1-1.35,1,2.44,2.44,0,0,1-1.86.88,3.49,3.49,0,0,1-2.61.69l-.51-.3-.16-.58v-.3a1.25,1.25,0,0,1,.25-.39c-.09-.1-.25-.2-.34-.29a3.78,3.78,0,0,1-.17-.79,14,14,0,0,0-.75,1.57,1.31,1.31,0,0,1-.26.39,7,7,0,0,1,1.43,2.25,5.15,5.15,0,0,1,1.69.59,35.53,35.53,0,0,0,4.64-2.25,4.36,4.36,0,0,1,1.18-.49c1.11-.43,2.22-.94,3.28-1.46a2.9,2.9,0,0,1,.55-.38A16.63,16.63,0,0,0,247,194.8,6.78,6.78,0,0,0,249,192.14Z"/><path class="cls-1" d="M234.44,198.32c0,.49-.09,2.75-.09,2.75a.8.8,0,0,1-.17.49,10.49,10.49,0,0,0,1.52-.79,1.19,1.19,0,0,0,.25-.39.73.73,0,0,0,.34-.39,3.38,3.38,0,0,1,.25-1.27.55.55,0,0,1,.26-.49.71.71,0,0,1,.42-.3,4,4,0,0,1,.59.3,2,2,0,0,1,0,1,9.44,9.44,0,0,1,1.68-1.08.74.74,0,0,1,0-.59,4.79,4.79,0,0,1-1.35-1.86,7.21,7.21,0,0,1-.25-.69l.25-.29c.09,0,.17-.1.26-.1h.25a9.86,9.86,0,0,0,1.94,1.86,2.18,2.18,0,0,0,.84.1,2.73,2.73,0,0,1,.17-.78,3.31,3.31,0,0,1-1.09-1.37.65.65,0,0,1-.09-.4.77.77,0,0,1,.34-.39,1,1,0,0,1,.5-.19,4.75,4.75,0,0,1,1.52.88,6,6,0,0,1,.59-1.28,3.8,3.8,0,0,1-1.1-.58c0-.11,0-.21,0-.32h0a.9.9,0,0,1,.07-.27c.08-.1.17-.2.17-.3.42,0,.84-.09,1.18-.09a3.42,3.42,0,0,0-.43-.79,3.27,3.27,0,0,1-1.34-.29,1.25,1.25,0,0,1,0-1c.08-.1.17-.2.17-.29a1.4,1.4,0,0,1,.59-.1l-.51-.79a1,1,0,0,1-1-.58,11.34,11.34,0,0,1,1.09-.49c0-.1.09-.2.17-.4a2.27,2.27,0,0,0-1.6-1.27,3.12,3.12,0,0,1,.25-.49c-.25,0-.41-.19-.58-.19-.25.2-.6.78-.68.78a2.1,2.1,0,0,1-1.52,0A6.46,6.46,0,0,0,237,186a2.56,2.56,0,0,1-1,.69c.51.68.17,2.74.17,2.74a4.76,4.76,0,0,1-1.44,2.73h0a3.53,3.53,0,0,1-3.53.31,2.58,2.58,0,0,1-.39-.31h0a4.24,4.24,0,0,1-.87-1.06,1,1,0,0,1-.34-.49c-.48.37-.71.54-1,.69l-.15.48c.09,0,.23.18.34.37h0a1.49,1.49,0,0,1,.2.43,11.15,11.15,0,0,0,1.91,1.25,4.72,4.72,0,0,0,4.55-.3c.08-.09.17-.09.25-.19a5,5,0,0,0,.65-.58,7.68,7.68,0,0,0,.49-.61h0a9.18,9.18,0,0,0,.54-.87s.09-.59.09-.78c.09-.49.17-.89.25-1.18a1,1,0,0,1,1-.1l.09.69a3,3,0,0,1,.17.49,6,6,0,0,1-.51,1.57s0,.1,0,.17h0c0,.17-.06.4-.06.4a14.32,14.32,0,0,1-1,1.28,2.28,2.28,0,0,1-1,1.07,6.31,6.31,0,0,1-1.85.79c-.08.1-.17.1-.34.2a5.53,5.53,0,0,1-4.55-.49.58.58,0,0,0-.34-.2,4.48,4.48,0,0,1-.16.78l.5.3a2.79,2.79,0,0,1,.42.68c.09.1.09.2.17.3A4,4,0,0,1,234.44,198.32Z"/><path class="cls-1" d="M290.15,157.19a19.69,19.69,0,0,0-4.26,0l-.89,5.28C287.74,163.18,288.79,158.13,290.15,157.19Z"/><path class="cls-1" d="M218.33,155.19c-1.07-.92-2.09-1.65-3-2.41v2.27c1.6.48,2.33,2.28,5.25,2.34A21.75,21.75,0,0,0,218.33,155.19Z"/><path class="cls-1" d="M313.46,156.58l0-.15h-3.94c-2.49,2.1-5.36,1.73-6.14,5.26h2.73C308.86,160.1,313,159.07,313.46,156.58Z"/><path class="cls-1" d="M326,164.84c1.5,0,5.89-2.48,7.38-2.7-3.95-2.81-4.83-.6-6.57-.17C322.1,164,324.46,164.84,326,164.84Z"/><path class="cls-1" d="M295.13,161.67a7.52,7.52,0,0,0,5.81-4.52c-2.27-1.07-10.35-2.65-9.49,5.73Z"/><path class="cls-1" d="M315.52,164.89c.84-.3,5.15-3.88,4.52-6.06-4.29-.37-6.84,3.83-10,7C311.59,165.33,313.94,165.35,315.52,164.89Z"/><path class="cls-1" d="M337.22,167.41c1.5,0,4.54-.4,6-.25,3.35.34,5.69-.39,6.77-1.17s.91-1.47-.49-1.47c-2.56-.08-7.58-.35-9.19-.36h-.09c-1.5,0-4.94-.1-6.14,1.1C333.51,165.86,335.72,167.41,337.22,167.41Z"/><path class="cls-1" d="M281.77,158.39h0a33.16,33.16,0,0,0-4.67.12c-1.63,0-2.13.81-3,2.79-.44,1-1,2.32-1.81,4C275.67,167.2,283.56,158.89,281.77,158.39Z"/><path class="cls-1" d="M134.3,100.56c-1.48-.18-5.52-2.1-5.74-3-.93,1-.38,2.08-.2,3C138.59,109.29,136.16,102.57,134.3,100.56Z"/><path class="cls-1" d="M104.6,108.39,103,109.84c1.84,3.18,3.58,6.5,6.13,8.22,2.1,1.43,4.46.71,6.28,2.28a3.87,3.87,0,0,1,.78-1.55C112.15,115.84,104.78,109.26,104.6,108.39Z"/><path class="cls-1" d="M107.78,95.42c.63,1.38,16.82,10.35,17.06,10.85a14,14,0,0,0,4.51.72c-6.49-8.12-11.57-9.45-17.88-13.85C110.93,93.41,107.78,95.42,107.78,95.42Z"/><path class="cls-1" d="M120.36,107.35c-1.48-.19-2.68-1.39-4-1.36-.69.66-.78,0-.78,1.47,0,.23,5.4,7.2,5.58,12.28.93-.67,1.62-1.78,3.12-1.78s14.32,2.39,21.2,4.15v-2.82c-1.91-.71-3.51-2.31-3.77-3.2-7.47-7.49-15.54-2-23.13-6.86A8,8,0,0,0,120.36,107.35Z"/><path class="cls-1" d="M117,89.53c1.12.78,3.48,3.15,5.6,5,.19-1.48.1-2.89-.71-3.58-.81.69-20.19-16.71-21.1-17.38-.5,4,6.88,10.08,7.26,10.87C110.42,85,115,89.54,117,89.53Z"/><path class="cls-1" d="M173.73,140.61c-1.12-2.25-3-8.3-4.57-8.83a7.53,7.53,0,0,0-1.39,3.88c0,1.5,1.21,3.06,1.42,3.94A9.89,9.89,0,0,0,173.73,140.61Z"/><path class="cls-1" d="M193.46,155.94v-.57a10.4,10.4,0,0,0-2.81-3.17,6.06,6.06,0,0,0-1.11-.61L188.8,155a27.15,27.15,0,0,1,4.66,2.54Z"/><path class="cls-1" d="M182.45,152.16l1.52-1.5c-1.49-4.88-3.12-.25-3.28-1C180.77,151,181.69,151.5,182.45,152.16Z"/><path class="cls-1" d="M157.33,130.77a28.66,28.66,0,0,1-1-7.41c0-1.5.57-1,.31-1.54-1-.8-2.11-1.53-2.11-3s0-2.33-.11-3.68h-1a7.41,7.41,0,0,0-1.3,3.75v4.8C152.17,126.59,157.78,132.12,157.33,130.77Z"/><path class="cls-1" d="M70,57.57c2.51,2.14,5.87,5,8,6.71,3.6,2.85,8.54,2.82,10.41,6.59,2.73.88,4.49,2.66,7.18,3.85a13,13,0,0,0,.74-3.25c0-4.35-13.81-8.49-14.53-10.68-1.62.1-5.42-2.82-5.57-2.82C74.78,58,72.68,57.37,70,57.57Z"/><path class="cls-1" d="M103.26,104.16l1.22-1.2c1,1.12,1.5,1.2,3,1.2s2-.08,2.7-.94a34.29,34.29,0,0,1-3.71-2.21,65.32,65.32,0,0,1-9.26-10.45,34.41,34.41,0,0,0-9.8-1.21c1.26,1.53,2.37,1,2.37,2.51,0,2.33-.1,3,1.8,4.2l-1,.92c-3.84-.39-6.42-9.62-10.17-9.57H76.67A3.37,3.37,0,0,1,76,89c1.92,1.34,1.89,1.7,3.58,3.49,1.31,1.39,7.81,4.25,13.7,6.84C98,101.4,102.37,103.32,103.26,104.16Z"/><path class="cls-1" d="M79,55.41c.6.22,1.18.43,1.71.65-1.68-2.5-7-7.19-13.1-11.37-5.23-3.6-11-6.83-15.4-7.93L51.4,38a11.84,11.84,0,0,1,5,4.48c4.7,2.88,9.94,6.17,14.43,9.25A33.88,33.88,0,0,0,79,55.41Z"/><path class="cls-1" d="M118.88,130.56c1.5,0,4.2-1.2,6.28-1.4-3.09-2.73-6.06-6.4-7.56-6.39l-3.8,0c-.7.68-1.35.89-1.35,2.39S117.38,130.56,118.88,130.56Z"/><path class="cls-1" d="M169,169.86c0-1.5-5.4-5.1-6.9-5.1-2.92,0-16,7.39-16.95,8a31.8,31.8,0,0,1-3.24,2c-.33.16-.68.32-1.1.5,3.11,2.68,6.6,5.75,8.1,5.75a3.33,3.33,0,0,0,1.62-.63,10.92,10.92,0,0,0,2.87-2.69c-.68-.79-3-4.18-3.1-5.72h1.52c1.06.67,7,4.24,9.08,4.24C162.37,176.16,169,171.36,169,169.86Z"/><path class="cls-1" d="M184.57,166.86c0-1.5-11.7-16.5-11.7-16.5-1.41,1.29-1.2,2.4-2.7,2.4-1.2,0-9-4.57-9-6s1.2-2.4,1.2-3.9-1.83-4.93-3.16-7.47c-.79,1.05-2.61-.17-4.52-.57-.12,1.44-1.32,1.14-1.32,2.64s2.42,7.37,3.17,9.7c1.5,4.35,4.63,7.7,4.63,8.9,0,1.5,6.68,8,8.82,10.36.2.54,5,3.38,5,4.88s-1.56,1.26-1.56,1.26l-1.17-1.2c-2.61,2.49-7.5,4.8-7.5,6.3,0,1.25-2.45,3.62-4.34,5.92-.38.46-.74.92-1,1.36,1.21.5,2.51,1,3.81,1.49,3.15,1.13,6.36,2,8.76,1.5-2.51-2.11-5.68-3.44-5.39-4.32l1-.86a44,44,0,0,0,9.07,3c1.41-2.45,4.51-3.28,7.06-6l1.27,1.19c1.42-3.18,4.44-7.49,4.44-9C189.37,169.86,184.57,167.61,184.57,166.86Z"/><path class="cls-1" d="M177.52,190.82a2.06,2.06,0,0,0-.15.64,1.23,1.23,0,0,0,.27.68h0c1,1.44,4.75,3.22,5.53,3.8.18-1,.28-2.05.36-3.08,0-.24,0-.48.05-.72a75.14,75.14,0,0,1,.84-10.55C182,183.78,178.29,188.71,177.52,190.82Z"/><path class="cls-1" d="M134.18,165.06c0-1.5.41-.92.41-.92,3.39,1.2,9.19,4.82,10.69,4.82s10.35-4.85,15.29-8.07c-.68-.84-1.8-.33-1.8-1.83s-3-8.1-4.5-8.1c-.52,0-.9.23-.9-.3,0-6.45-6.44-6.86-10.21-11.48v-1.6a18.29,18.29,0,0,1,5.4-3c-2.43-4.16-5.08-5.2-7.48-5.2-1.5,0-4.2,1.2-5.7,1.2s0-2.56.57-4c-3.64-1.21-3.4-6.85-13-6.37-.72,1,1.67,5.36,1.67,5.36,2.59,1,1.35,3.23,6.6,4.2L130,130.86l-3.83.32c-1.5,0-4.87,2-6.75,2.54a40.38,40.38,0,0,1-6,1.12l-.78.08a10.85,10.85,0,0,0,1.71,2.16,3.33,3.33,0,0,1,1.25,2.18c0,1,0,1.74,0,2.37q0,.45.06.84l.83,0c1.53.06,2.59.05,3.82,0v-2.7a10,10,0,0,0-2.34-3.52l1.48-1.51c.83,1.24,6.39,7.8,9.62,7.8,1.5,0,5.38-3.09,7.23-2.94.65-.15,4.07-.67,5.69-.24-1.66,3.73-14.7,5.88-20.35,8.72a10.43,10.43,0,0,0-1.27.73c1.29,1.44,4,10.06,6.35,10.06a5.06,5.06,0,0,0,1.85-.53,19.53,19.53,0,0,1,3.77-1.59c-1.86-2.12-3-2.81-3-4.31s-.09-2.61-1.2-3.58l.88-.92a7,7,0,0,0,4.67,2.74c.58.82,1.65,3.71,4.78,3.59a4.65,4.65,0,0,0,3.77,2.67c1.5,0,8.09-4.2,9.6-4.2s1.6,1.88,1.6,1.88C147,157,141,160,135.65,161.59c-.22.3-.05.78-.69.94a13.15,13.15,0,0,1-3.22,1.29,16,16,0,0,1-2.93.5c1.83,2.72,4.22,5.11,5.64,7a5.14,5.14,0,0,1,2.69-.76,49.9,49.9,0,0,1-2.72-4.47A3,3,0,0,1,134.18,165.06Z"/><path class="cls-1" d="M111.38,123.66c0-1.13-2.37-1.79-3.72-2a5.25,5.25,0,0,0-.78-.09,6.43,6.43,0,0,0-3.9.87c1.88,1.69,3.47,8.83,7.31,8.46a4.09,4.09,0,0,0,1.69-.59c-1.29-1.45-1.8-1.54-1.8-3S111.38,125.16,111.38,123.66Z"/><path class="cls-1" d="M189.67,160l-1.5,1.52c1.29,1.39,2.4,3.28,2.4,4.78s-1.2.3-1.2,1.8.79,1.48.79,1.48c.43-.07,4.61-4.48,4.61-6s-.6-1.5-.71-2.33C191.5,161.54,191.23,161.32,189.67,160Z"/><path class="cls-1" d="M91,85.58c3.73,1.76,9.55,4.18,11,4.18s1.41-.08,2.1-.9C99.89,84.45,92.78,76,91.28,76s-1,.08-2-.56c.48,2.15,1.66,4.46,1.66,6s-.3.6-2,.62c-4.1-4.72-8.23-13.22-9.73-13.22s-2-.52-2.69.27l1.22,1.34c0,2.29,1.21,4.82,2.38,7-.52.43-3.67-.73-4.08-1.28a15,15,0,0,0-.4-2.29c-2.2-2.58-3.32-6.7-5.42-9.18-1.52-1.8-4.41-3-6.47-4.15l-.24-.13-.79,2.69c.6,2.46,4.8,12,6.9,13.22,1.66.89,3.52,1.87,5.42,2.72a29.92,29.92,0,0,0,5.3,1.89C82.81,81.51,91,85.58,91,85.58Z"/><path class="cls-1" d="M100.58,109.31l1.2-1.28a28.29,28.29,0,0,0-7-3.31,18.89,18.89,0,0,0-1.9-.48,11,11,0,0,0,5.24,8.82,53.86,53.86,0,0,0,5.33,3A17.44,17.44,0,0,0,100.58,109.31Z"/><path class="cls-1" d="M232.57,282.6a7,7,0,0,1,.68.93l.16.29a9.16,9.16,0,0,0,1.17,2.12l2.12-.49.44-.11a26,26,0,0,0,5.59-1.91v-2.08l-1.82-1.87c-.95-2.06-2.27-7.89-4.46-9.13-1.95,1.25-3.59,2.4-5.06,2.59-.46,9.11,6.57.19,6.57,4.91C238,279.35,235.13,281.18,232.57,282.6Z"/><path class="cls-1" d="M270.7,194.16c-3.2,1.84-7.37,2.36-7.37,3.86s-.48,12.91-.48,12.91.75,4.46.38,5.82c-.08.28-.19.44-.37.4-.17,1.08-.18,1.8.26,2.28h0c.57.61,1.87.81,4.51.81a2,2,0,0,0,1.34-.81h0a5.87,5.87,0,0,0,1-1.79,6.44,6.44,0,0,0,.4-2.19c0-1.51.6-6,.6-7.5s-1.2-3.61-1.2-5.1S271.47,194.84,270.7,194.16Z"/><path class="cls-1" d="M251.46,253.55a8.46,8.46,0,0,0,1.88-.25,10.62,10.62,0,0,0,1.24-.37c.18-.88-1.79-4.53-2.61-5.89a11.65,11.65,0,0,0-2,2.39,28.88,28.88,0,0,0-2.39,5.79C249.06,255.35,250,253.55,251.46,253.55Z"/><path class="cls-1" d="M243.88,239.74a19.57,19.57,0,0,1-.14,2.15c.24.67.82-.34.82,1.16a11,11,0,0,1-1.34,3.68,16,16,0,0,0-1,2.5c1.43,0,3.33-1.1,4.81-2.5h0a10.49,10.49,0,0,0,1.23-1.38,4.64,4.64,0,0,0,1.09-2.6c0-1.5-3.66-5.88-5.82-8.37A36,36,0,0,1,243.88,239.74Z"/><path class="cls-1" d="M260.13,200.31c-4-.53-9,1.27-9,3.75,0,2.32-.6,3.6-.6,5.1,0,1.19-1.5,4.8-2.4,8.79-.11.49-.21,1-.3,1.49h0c-.09.55-.17,1.11-.23,1.66h3.16a4.58,4.58,0,0,0,2.94-1.39l.16-.12a.77.77,0,0,1,0-.15h0a28.54,28.54,0,0,1,1.58-7.47c.75-1.87,3.47-4,3.47-5.51A11.93,11.93,0,0,1,260.13,200.31Z"/><path class="cls-1" d="M257.89,269.69c1.69-.45,3.59-.94,5.3-1.48.38-.12.77-.24,1.12-.37v-2.1c-1.24-1.3-1.15-2-2.65-2a4.4,4.4,0,0,0-1.21.21,10,10,0,0,0-3.86,2.38C256.56,267.65,257.76,268.25,257.89,269.69Z"/><path class="cls-1" d="M251.76,259.85c0,1.5,1.29,2,2.13,2.7.71-1,2-2.38,3.06-3.75s2-2.7,2-3.45c0-1.5-.6-.9-.8-1.78a23.63,23.63,0,0,1-3.16,2.85C253.3,257.76,251.76,259,251.76,259.85Z"/><path class="cls-1" d="M261.69,273.58a7,7,0,0,0-.32.72l2.72,2.65c1.12-1.4,5.67-2.4,5.62-5.26a3.39,3.39,0,0,1-1.91-2.5c-1.22.74-2.19,1.24-3,1.67C263.22,271.72,262.37,272.24,261.69,273.58Z"/><path class="cls-1" d="M255.93,332.2c-51.93-11.43-69.25-11.22-85.76-.75V437.64c17.74-9.87,37.7-9,85.76,1.54Z"/><path class="cls-1" d="M217.73,291.12l-.38.65c-1.17,2.43-1.9,8.54-6.15,7.54-.61.43-1.7,1.07-2.36.3a4.78,4.78,0,0,0,.42-3.14,3.19,3.19,0,0,1-1.94.88c0,3.95-3.15-3.1-3.28-3.33,0-2.29.37-4.95.39-7.27-1.09-.29-2.18-.57-3.28-.84a139.62,139.62,0,0,0-14.06-2.72c-1.19-.17-2.37-.34-3.57-.48l-.27.51.12,4.25c-2.49,2.59-5.4,6.28-6.9,6.28s0-1.2-1.5-1.2c-.18.1-.18.2-.26.3a6.17,6.17,0,0,1-.62-.09c-.58.35-.63,1.08-1.24,1.59-3-3.72-3.28-5.25-3.28-8.4v-.33a.87.87,0,0,1-.35-.41v-1.08l.41-2.33-2.34,0h-1.08A140.3,140.3,0,0,0,27,422.08H52.62V354.72c3-.67,6.39-1.42,10.16-2.21V341.16c3.13-.7,6.54-1.47,10.17-2.27V327.6c28.79-6.39,65.63-17.86,94.35-1,28.73-16.84,65.57-5.37,94.36,1v11.29c3.63.8,7,1.57,10.17,2.27v11.35c3.77.79,7.19,1.54,10.16,2.21v67.36h25.6a140.33,140.33,0,0,0-86.72-129.69C219.83,292,218.79,291.53,217.73,291.12Z"/><path class="cls-1" d="M254.09,268H252c-4.28,2.61-5.9,5.65-10.4,6.76.67.89,1.84,2.14,2.74,1.68,3.06-3,7.94-4.78,11-6.35C254.67,269.24,254.16,268.85,254.09,268Z"/><path class="cls-1" d="M170.17,448.1v.5c19.08-9.74,47.48-7.14,95.93,3.46V345.76l-4.44-1V446.32l-3.49-.78c-31.37-7-59.79-16.25-88-.9Z"/><path class="cls-1" d="M256.27,272.15c-1.49,3.81-5.11,8.4-5.11,9.9a4.86,4.86,0,0,0,1.25,2.49,10.07,10.07,0,0,0,2.06,2c3.93-3,5.09-3.53,5.09-7.5,0-2.13-1-2.6-2-4.09A9.77,9.77,0,0,1,256.27,272.15Z"/><path class="cls-1" d="M403.35,176.12a10.47,10.47,0,0,0-3.71-.56,8.7,8.7,0,0,0-2.18.61c-2.79,1-7,3-7.68,3.15,0,0,23.86.83,22.76-.49C406.69,178.58,405.72,177,403.35,176.12Z"/><path class="cls-1" d="M414,170.76c-.75.69-3.75,2.49-4.42,3.41a20.87,20.87,0,0,1,3.74.63c3.13.76,6.28,2,7.34,2,1.5,0,4.8-.6,6.88-.8-2.6-2.4-6.61-3.33-10-4.18A32.08,32.08,0,0,1,414,170.76Z"/><path class="cls-1" d="M456.7,145.26a6,6,0,0,0-.27-1.83,4.51,4.51,0,0,0-1.24-2,6.55,6.55,0,0,0-1-.75,4.48,4.48,0,0,0-4-.49c-3.66,1.28-7.33,2.69-10.89,4.06-6.64,2.55-12.9,5-19,6.61a23.9,23.9,0,0,1-2.93.48,26.69,26.69,0,0,0-4.77.91c-1.91.25-11.88.94-29.65,2.05-15,.94-29.24,1.79-30.27,1.84h-.14a14.88,14.88,0,0,0-3.2.7,9.83,9.83,0,0,1-1.14.32c-2.23-.47-11.25-3.74-14.72-5-1.56-.56-2.8-1-3.42-1.22l-.43-.13a15.17,15.17,0,0,0-3.48-.23,42.62,42.62,0,0,1-5.88-1.46l-1.8-.53-1.56-.42c-2-.54-4-1.09-6.14-1.55l-.62-.13-.18,0a5.56,5.56,0,0,0-.93-.08,34.18,34.18,0,0,0-4.12.36c-1-.13-2.19-.35-3.49-.59a46.45,46.45,0,0,0-7.38-1c-1.5,0-3.11.56-6.33,1.74a39.09,39.09,0,0,1-5.09,1.65,4.46,4.46,0,0,0-.89.22c-.94.32-3,1.1-5.62,2.09-4.2,1.59-12.1,4.59-15.87,5.81a15.3,15.3,0,0,0-1.75-3,4.48,4.48,0,0,0-4.43-1.63,29,29,0,0,0-7.21,2.84,33.71,33.71,0,0,1-4.45,2c-5.77-5.3-13.68-7.83-20.74-10.09-1.89-.61-3.67-1.18-5.34-1.78a5.09,5.09,0,0,0-1-.23,7.3,7.3,0,0,0-1.07-2.28,28.58,28.58,0,0,0-3.12-3.49c-.55-.55-1.06-1.07-1.51-1.57a5,5,0,0,0-7.68.81c-1.52,2.44-2.93,4.94-4.28,7.42-2-3.22-6.63-9.06-16.9-20.63l-2.48-2.8-1-1.17a13.51,13.51,0,0,0-4.21-3.15,9.1,9.1,0,0,1-1.53-1,4.87,4.87,0,0,0-.78-.66l-1.88-1.2a21,21,0,0,1-3.92-2.82,4.54,4.54,0,0,0-.41-.93c-1.32-2.25-11.08-10.51-13.95-12.16v0a42.48,42.48,0,0,1-5.8-3.91,61.89,61.89,0,0,0-5.47-3.82,15.23,15.23,0,0,0-4.05-1.41c-.6-.15-1.56-.39-2.24-.61-.72-1.56-3.24-3.91-11.95-11.53-6.67-5.82-13.85-11.87-18.73-15.76a26.63,26.63,0,0,0-4-2.53,21.63,21.63,0,0,1-2.54-1.55,51.86,51.86,0,0,1-7.59-6.57,4.43,4.43,0,0,0-.82-.74c-2-1.35-13.18-12.1-16.17-15.08a4.31,4.31,0,0,0-.62-.51c-.61-.42-1.31-.82-2.14-1.29a23.8,23.8,0,0,1-3.19-2,4.77,4.77,0,0,0-.45-.94l-.17-.25-.07-.11c-.44-.65-1.15-1.58-2.06-2.75A66.76,66.76,0,0,1,57.71,21c-.15-1.37-.78-3.16-2.17-6.7-.25-.64-.46-1.18-.58-1.51a7.87,7.87,0,0,1-.09-1.23,13,13,0,0,0-.49-3.5c0-.11-.07-.22-.11-.33C52,2,50.08,1,49.36.56A6,6,0,0,0,44,.69a4.5,4.5,0,0,0-2.6,3.72c0,.31-.12.74-.21,1.2a15.24,15.24,0,0,0-.4,3.16,17.21,17.21,0,0,0,.26,2.91l-1.28-1a4.5,4.5,0,0,0-2.81-1H35.18a4.51,4.51,0,0,0-4.5,4.5v.73a4.45,4.45,0,0,0,.47,2c.3.61.79,1.45,1.47,2.61.55.95,1.52,2.63,2.3,4.1a6.35,6.35,0,0,0-4.86,6.54A4.46,4.46,0,0,0,30.45,32c1.11,2.5,4.07,4.94,8.8,8.71a57.1,57.1,0,0,1,4.62,3.92,4.42,4.42,0,0,0,1.3,1C47.81,46.88,54,52.22,54,55.27c0,1.07.19,2.64.4,4.46.12,1,.24,2.07.33,3a4.44,4.44,0,0,0,1.1,2.58A15.39,15.39,0,0,0,60,75.21a30.63,30.63,0,0,0,3,3c.82.78,2.12,2,3,3a4.58,4.58,0,0,0-.46,1.84c-.1,3,2,5.82,8,12.38.62.68,1.26,1.39,1.49,1.66a3.86,3.86,0,0,0,.48.51c.32.29.74.7,1.21,1.16,2.76,2.67,4.87,4.61,7,5.32a16.91,16.91,0,0,1,2,.81c1.22,7.56,3.88,13.88,11,19.13,0,.1,0,.2,0,.3v.22a4.77,4.77,0,0,0,.17,1.25,19.48,19.48,0,0,0,3.12,5.5,21.56,21.56,0,0,1,2.39,3.88,4.48,4.48,0,0,0,1.69,2.19c1.39,1,1.69,2,2.31,4.4a24.39,24.39,0,0,0,1.51,4.58,4.47,4.47,0,0,0,1.39,1.72,20.67,20.67,0,0,1,3.2,3.26c.64.75,1.3,1.52,2,2.28a30,30,0,0,0,2.75,7.66,4.43,4.43,0,0,0,1.54,1.73,16.08,16.08,0,0,0,2.58,1.34c.2.09.47.2.69.31a4.55,4.55,0,0,0,.8,2.72l.14.21.12.15a38.27,38.27,0,0,0,5.44,5.17c1,.84,2.41,2,3.2,2.8a4.48,4.48,0,0,0,.14.73c.61,2.27,2.67,4.11,8.18,8.16.52.38.94.68,1.09.81a20.89,20.89,0,0,0,12.9,4.47l.93,1c2.12,2.23,4.52,4.75,7.56,5.95l.1,0a34.14,34.14,0,0,0,8.06,1.94,7.85,7.85,0,0,0,3.4.54h.27a11.36,11.36,0,0,1,2.2.63c-4.47.62-12.31,1.64-13.87,1.64h-5.4a8.26,8.26,0,0,1-1.52-.39,13.3,13.3,0,0,0-4.18-.81,32.28,32.28,0,0,0-4.95.47,13.59,13.59,0,0,1-5.37.12,4.51,4.51,0,0,0-5.57,4.38v6a4.73,4.73,0,0,0,.2,1.34c.61,2,2.07,3.72,3.62,5.6.56.68,1.42,1.73,1.9,2.44-.22.34-.53.78-.79,1.14-1.51,2.14-3.81,5.38-3.81,10.4,0,6.49,4.51,8.34,6.68,9.23.34.14.83.34,1.09.48a2.77,2.77,0,0,1,0,.49,30.21,30.21,0,0,1-1.09,5.23,30.67,30.67,0,0,0-1.31,7,4.56,4.56,0,0,0,.27,1.55,15.4,15.4,0,0,0,3.8,5.08,23,23,0,0,1,2,2.16,7.12,7.12,0,0,0,.58,2.13,13.2,13.2,0,0,0,.85,4.2c-76.07,8.77-135.33,73.56-135.33,152,0,84.34,68.62,153,153,153s153-68.62,153-153A153,153,0,0,0,250.58,293.5h.7A12.63,12.63,0,0,0,262,289.58a13,13,0,0,0,3.25-7.46c2.89-.51,4.2-1,5.24-1.95l.41-.2a7,7,0,0,0,3.63-3.18,4.72,4.72,0,0,0,.41-1.46,4.52,4.52,0,0,0,.57-1.64,6.08,6.08,0,0,0,.06-.94c0-2-1.14-3.73-2.87-6.37a31.32,31.32,0,0,1-1.91-3.12,4.38,4.38,0,0,0-.76-1.45c-1.09-1.38-2.07-2.87-3.11-4.45a57.61,57.61,0,0,0-4.49-6.2,4.49,4.49,0,0,0-1.58-3.38c-.24-.21-.53-.44-.83-.68a17.33,17.33,0,0,1-1.87-1.66,8.59,8.59,0,0,0-1.37-4,4.29,4.29,0,0,0-.36-.48c-2.5-2.89-7.41-9.3-8.41-11.52a9.35,9.35,0,0,1,.49-1.65,18,18,0,0,0,5.41.91,18.69,18.69,0,0,0,5-.84,12.07,12.07,0,0,1,2.63-.53,4.48,4.48,0,0,0,3.28-1.46l.59.2a12.42,12.42,0,0,0,4.1.83,15.3,15.3,0,0,0,7.36-2.79c2.85-.23,8.47-1,11.88-3.37a6.49,6.49,0,0,0,1.28.11c1.64,0,3.56-.71,8.54-3.18l.7-.35a21.69,21.69,0,0,1,6-1.58c3.79-.61,8.33-1.34,12.16-5.91a6.7,6.7,0,0,0,1.86.27c.78,0,2.6,0,11.25-4.21a9.36,9.36,0,0,0,3-2.55,5.68,5.68,0,0,0,2.71.68c1.53,0,3.85-.68,10.33-3l1-.34a9.22,9.22,0,0,0,4-3,4.5,4.5,0,0,0,3.77-2.06c.66-.25,1.38-.48,2.14-.72a23.85,23.85,0,0,0,5.56-2.34,17.14,17.14,0,0,0,3-2.52c.44-.43,1.13-1.11,1.53-1.42a82.66,82.66,0,0,1,10.12-.07c1.36.05,2.69.09,3.95.11h.16c4.34.07,9-.12,11.14-3,1-.25,3.52-.59,9.47-.55h1c.88,0,1.78,0,2.68,0a56.28,56.28,0,0,0,9-.54l.12,0,.29-.06a4.51,4.51,0,0,0,3.1-2.28,6,6,0,0,1,1.95-.31c1.06-.06,2.38,0,3.79,0s3.28,0,5.11,0l.25,0A10.17,10.17,0,0,0,433,181a4.51,4.51,0,0,0,1.67-6.81c-.18-.23-.37-.45-.56-.67a20.41,20.41,0,0,0,2.38-.35c1.1-.25,2.09-.43,3-.61a28.31,28.31,0,0,0,9.38-3,4.49,4.49,0,0,0-.51-8.16l-.58-.23c-1.58-.58-3.13-1.12-4.64-1.6,1.87-1.32,3.36-2.43,3.5-2.54C455.05,150.69,456.7,147.91,456.7,145.26Zm-8.93,19.62c.36.67.15.88-.13,1.58-4.58,2.54-7.29,2.42-11.94,3.47-3.45.75-10.53-.14-11.78,1.62,2.19.42,13.84,6.17,5.3,6.94-6.78.26-12.6-.93-13.8,2.32.09,1.45-24.39.34-25,2.22-1.27,4-14.45,1.23-23.75,2.28-1.5.15-3.32,3-5.5,4.38a31.24,31.24,0,0,1-6.31,2.46h0a16,16,0,0,0-1.82.75c-.57.57-2.25,1.69-2.63.65-.94,1.12-2.18,3.29-4,4-2.55.9-8.66,3.17-10.16,3.17s-1.64-1.12-3.14-1.12S330.78,202,329,202.9c-2.92,1.42-8.23,3.86-9.73,3.86a5.05,5.05,0,0,1-2.87-1.22c-4,7.8-13.05,6.14-18.6,8.76-2.17,1-6.3,3.21-7.8,3.21s-1.53-.64-1.85-1.16c-.31,1.32-2.25,2.35-4.59,3.1h0a32.84,32.84,0,0,1-7.88,1.4c-.49.74-4.68,2.7-6.18,2.7s-3.9-1.2-5.4-1.2-1.5.3-1.62,1.75c-2.15-.56-5.73,1.25-8.58,1.25a18.49,18.49,0,0,1-7.12-1.81,16.36,16.36,0,0,0-2.18,6.31c0,1.5,5.93,9.48,9.31,13.38a5.27,5.27,0,0,1,.89,2.82,1.59,1.59,0,0,0,.17.68h0c.64,1.36,2.93,2.89,4.16,4a3.85,3.85,0,0,0,0,1.75c3.41,3.53,5.82,8.35,8.41,11.56.62,2.46,4.68,6.73,4.68,8.68,0,1.5-.6.6-.6,2.1s-2.85,2.23-3.3,2.75c-.9,1-3.24,1.07-6.35,1.62,1.32,7-4.78,11.45-10.45,10.93a52.88,52.88,0,0,0-5.94.19,1.09,1.09,0,0,0-.36.11c.52.39.52,1.59,1.2,2.4l-1.2,1.21,1.1,1.11,1.55,1a149.44,149.44,0,1,1-96.28-22.7c1.29-.14,2.59-.26,3.89-.36a16.62,16.62,0,0,1-2.26-3.66,10.23,10.23,0,0,1-1-4.19c0-1.5-.6-.9-.6-2.4s-6-6.6-6-8.1c0-.92.92-4.82,1.62-8h4c-.36,1.32-1.38,2.45-1.38,3.82a9.14,9.14,0,0,0,1.59,3l.06.09c1.77,2.67,4.35,6.11,4.35,7.09,0,1.5-1.2,1.8-1.2,3.3s1.2,3,1.39,4.48c.62-.53,1.42-1.09,2.2-1.71,1.53-1.2,3-2.64,3-4.57,0-3.37-7.8-10-7.8-10.2a8.38,8.38,0,0,0-.89-3.05c-.34-.75-.72-1.52-1.08-2.27h1.95c1.2,1.48,3,3.24,4,4.56.64-.15,4.52,5.16,6.65,7.5.2,1.12-.68,2.53-.23,3.58,1.13,2.64,3.23,4.33,5.63,6.44l.38.33c.82.73,1.67,1.51,2.54,2.41.65-.88,1.37-1.73,2.09-2.6l0-.05,0-.06a4.68,4.68,0,0,1,1-1.56l1.18-1.57c-3.27-.79-10.08-6.11-10.08-8.56a2.45,2.45,0,0,1,2.7-2.4c1.5,0,5.79,5.31,9.09,8.39l.79-4c-3.09-2.52-6.69-5.52-9.58-7.7,1.34-1.2,5.77-1.82,5.92-3.79a5,5,0,0,1-2.83-.92h13.49a6.57,6.57,0,0,0-.84,2.67c-.9-.62-2-1.16-2.95-1.82-.19.87-.79,1.47-.74,2.23,2.52,1.31,4.15,3.14,5.65,3.14a4.19,4.19,0,0,0,2.79-.95c1.42-1.86,3.43-3.81,4-5.27h0a2,2,0,0,0,.14-.68c0-1.27,1-2.91-4.32-1.43.12-1.57-.51-2.63,0-3.71a14.62,14.62,0,0,0,3.62-.24c.76-1.46,5.39-3.07,7.27-4.52.71,1.08.42,1.48.42,1.48a77.17,77.17,0,0,0-4.66,9.1h0a26.35,26.35,0,0,0-2.23,8.53c1.42.09,2.92,1.29,4.42,1.29s4.24-.6,6.1-.84c.94-.54,5.5-6.82,5.6-9h0v-.07c0-1.48-1.47-1.2-1.5-2.65.59-.2,1.51-.27,1.66.35a14,14,0,0,0,1.51,2.38h0a51.08,51.08,0,0,0,7.62,7.53,11.41,11.41,0,0,0,4.41.41v-2.83c-1.41-.09-1.79-2.58-1.11-3.39a3.36,3.36,0,0,0-2.41-.88l-1.22-.84-1.77-1.23c1-.38,3.61-1.55,5.1-1.55s2.71,1.2,4.21,1.2,2-1.29,2.62-2V238a51.39,51.39,0,0,0-6.76,1.74c-.45-.52-3.36-1.51-3.36-3s-.09-.68.34-1.2a6.89,6.89,0,0,0,3.56,1.2c3.45,0,6.31-2.89,7.46-4.63-2.68-.09-4.85.08-7.17-2.24l1-.95c1.68,0,5.95,0,5.95,0,.23-3.3-3.36-7.27-3.36-7.5a3,3,0,0,1,1-2h0a7.5,7.5,0,0,1,1.64-1.3,3.42,3.42,0,0,0,1.16,1.3h0a5.26,5.26,0,0,0,2.84,1.12,30.45,30.45,0,0,0,5.4-1.12h0c1.22-.32,2.47-.67,3.59-1a76.7,76.7,0,0,0-15-2.5c.53-.29,1.21-1.1,1.12-1.49,4.95.46,11.18-4.37,15.67-6.94a12.49,12.49,0,0,0-1.39-4l-8.72,4.51a6.61,6.61,0,0,1-2.44.35L230.64,207c-.83.52-3.36,4.13-4.63,1.67a2.67,2.67,0,0,0-2.11.78l-1.51-.1c-.39-.44-.36-.74-.6-1.07-1.92-.84-3.44,2.5-5.22,1.47-.72-.42-.37-1.4-1-1.77l-.25.49a.84.84,0,0,1-1,0A4.1,4.1,0,0,1,214,207l1.52-2.25.34-.1c0-.48.32-1.65.25-2l-.93,1c-.27.06-1,0-1-.49a9.43,9.43,0,0,1,.75-2.48l-1.42,1c-.42.22-1.12-.31-1-.88.81-1.49,2.05-2.51,2.94-3.92.2-.57,1.18-.91,1-1.27l1.68-2.55.42.3A21.18,21.18,0,0,0,220,195.9a10.29,10.29,0,0,1,2.16.17c.85-.21,2.88,0,2.78-3.43a1.69,1.69,0,0,1,.49-.51h0l.26-.17A13,13,0,0,1,229,189.5c2.42-1.62,5.05-3.12,7.56-4.56a23.84,23.84,0,0,1,2.62-1.53l.62-.37.25-.29c1.83-4.95,2.69-5.17,4.4-6.36a23.92,23.92,0,0,0,4.14-7,1.79,1.79,0,0,0-1.71.95,13.63,13.63,0,0,1-.68,2.05,33.43,33.43,0,0,0-2.78,2.16v.29c-1.49,1.47-5.26,3.13-5.73,5.19l-1.52.89c0,.78-2.32,2.41-2.86,2.64l-.08.3c-2.08,1.14-3,1.5-4.56,3.82a3.94,3.94,0,0,0-2.14.47,4.51,4.51,0,0,0-1,.65,2.79,2.79,0,0,0-.5.54L224,190.39a4,4,0,0,1-2.62.69,3,3,0,0,1-.33-1.48c-.5-.76-1.91-4.44-2.53-4.6-.32-.72-.58-1.46-.84-2.2-1.15-2.11-2.33-4.22-3.45-6.31a4.89,4.89,0,0,1-1.1-1.58,14,14,0,0,1-2.7-4.21,12.78,12.78,0,0,0,0-2.51c-1-2.79-1.17-5.69-1.65-8.77a3.55,3.55,0,0,0-.83-1.26c-.49.32-.61,1.23-.61,2l.61,4.07c.74,1.52.89,10.49.42,12,.22.29.69.69.76,1.08,2.92,1.6,5.59,4,6.32,7.84-3.28,3.75-6.18.32-5.39-2.94,0,0,.5-1,.88-1.84a9.82,9.82,0,0,1-1.39-1.3c-5,9.87,3.53,9.24,4.58,10.49l.51,2a3.47,3.47,0,0,0-.25.67h0c-.19.72-.31,1.56-.85,1.88l-1.77.29-.67.88c-.56.35-.95-.39-.93-1l2-1.57c0-.12-.1-.3-.17-.5h0c-.16-.44-.34-1-.17-1.26-5.72-.95-4.93-4.44-5.43-9.65.21-.43,2-2.34,2.11-2.79-1.86-1-2-4.36-2.61-4.8a4.76,4.76,0,0,0-2.36.29l-.84-.39-.6.88a9,9,0,0,0,3,2.06c-1.29,2.43-2.7.23-3.29.19l-.84.79-.17,1.56a4.53,4.53,0,0,1,3.37.69c.23.33-.06.58-.17.88l-1.43.1c-.9,1.13-.51,1-.51,2.25l2.11,1.37.21.74a2.31,2.31,0,0,1-1,.34l-.16,1.47c.75,1.08,3.28,3.35,2.61,4.7l-1.43-.19c.13-.93-1.56-2.36-2.11-2.84v-.39s-1.2-1.21-1.26-1.33c-5-6.19-.41-12,2.78-17.29a8.4,8.4,0,0,0,3.11-1.37c.06-.79-.08-2.28-.93-2.45a5.08,5.08,0,0,1-2.61.69c-1.34,2.36-3.12,3.36-4.8,5.19l-.09,2c-1.52.15-1.56,4.35-1.17,5.68-.66,1.23-.57,1.78-.34,3.33l.84.69c-.11,2.41.34,5.91,1.85,7.64,0,.31-.22,1,0,1.25h0c-1-.62-3.86-5.53-3.67-6.84l-1.27-2.16-.11-1.13-.57-9.95c1-.45.6-1.67.57-2.52l.7-1.15c-.24-.49-.5-.59-.81,0-.94,2-2.15,5.1-2.15,6.6a124.11,124.11,0,0,0,2.18,13c.3,1.35,1.42,1.44,1.42,2.94a12.65,12.65,0,0,0,.06,1.28h0c.43,4.36,3.2,4.33,6.55,10.05l-1,1h-2.24c-3.84-1.61-5.71-6.27-7.28-11h0c-1.15-3.45-2.14-6.95-3.62-9.38a27.34,27.34,0,0,0-1.46,6.9,15.38,15.38,0,0,0,.34,2.48h0c.34,1.75.87,3.85,1.25,5.17a7.45,7.45,0,0,0,3.81,4.35c0,1.5,3.09,4.41,4.2,5.38l-1.5,1.52c-2.15-2.28-4.51-4.64-7.83-7.63l-.17-.16v4c-.1,1.5,4.7,8.32,4.7,9.83,0,1.27-5.49-.49-8.15-6.6a8.3,8.3,0,0,0,1.15,4.8c.75,1.2,2.53,3.28,3.21,4.63a6.08,6.08,0,0,1,.41,2.05h0a3.36,3.36,0,0,0,.39,1.34l-1,1a35.47,35.47,0,0,0-5.57-2.32h0a22.88,22.88,0,0,0-2.39-.63v2.73c1.18,1.88,1.14,4.18,1.53,5.8.84,1.46,3,1.92,4.22,3.87.6,1,3.2,2.33,2,3.91-5.08-1-7.95-5.51-10.66-7.33-.17,1.46-.77,1.76-.77,3.26,0,3.6,3.51,7.38,6,10.78-1.11,1-1.2,1.52-2.7,1.52s-1.8-1.2-2.68-1c.67.93,1.18,1.31,1.27,2.12,3.81.09,6.74-.52,8.95-.05a20.65,20.65,0,0,1-.86,2.31H172.66c-3-1.93-5.49-6.44-5.49-9.08v-1.5c0-1.5,1.41.14,1.41.14,1.69,1.58,3.48,4,5.07,5.21a14.74,14.74,0,0,1-1.08-4.45,5,5,0,0,0-.29-2.44c-1-.79-3.91-2.06-3.91-3.56s-1.8-3.9-1.8-5.4-.63-3.46-.18-4.52c1.59.61,2.88,0,3.89,0a88.65,88.65,0,0,0,2.59,10.27,92.61,92.61,0,0,0,2.45-11.91h0a23.88,23.88,0,0,0,.25-2.48c0-1.5-1.2-4.5-1.2-6a3.32,3.32,0,0,1,.37-1.68,11.84,11.84,0,0,1,.81-1.14,10.42,10.42,0,0,0-4.94,1.13c0,.18-.06.37-.1.56a32.19,32.19,0,0,1-1.9,7.13c-2.65-2.18-2.64-4.33-3.13-6.56a8.75,8.75,0,0,0-.85-2.38h-4.57a9,9,0,0,1-.51,2.57,4.45,4.45,0,0,0-.18,1.27c0,1.49,1.8,3.29,1.8,4.79s.09,1.59-.43,2.14c0,0-.47.56-2,.56s-3.36-5.64-5.17-9.4l-.36-.73h-3.42v3.91c0,1.5,1.16.15,1.22,1.65v4a5.47,5.47,0,0,1-.79-.42,5.62,5.62,0,0,1-2.87-4.44,2.83,2.83,0,0,0,0-.29c-.06-1.18-.46-2.22-.65-3.72,0-.24-.06-.48-.08-.74a9.93,9.93,0,0,1-3.4.63v2.72c1.69,2.33,2.35,5.51,4.46,6.89h0a3.91,3.91,0,0,0,.44.26,12.65,12.65,0,0,0,2.47.86c3.43.87,7.44.73,10.73,1.31,2.17,2.2,4,8.73,4,12.48,0,1.5-1.5.62-1.93,1.14-4-2.37-3.56-9.63-4.87-13.12-2.06,1.23-3.79,1.2-5.76,1.95.58,2,.43,3.9.95,5.63s2,3.2,2,4.7.09,1-.3,1.5c-.38-.51-1.09-.58-1.6-.75-1.13-2.09-2.89-4.65-2.89-6.15a21.29,21.29,0,0,0-1.07-5.46c-.08-.27-.17-.53-.26-.78a13.24,13.24,0,0,0-3.43.69c.59,1.49-.65,2.25-.65,3.75a19.11,19.11,0,0,0,.42,3.3,23,23,0,0,0,.55,2.25,12.6,12.6,0,0,0,1.64,3.63c1.12,1.65,3.09,3.72,4.59,3.72a2.87,2.87,0,0,0,.65-.09c1.92-.43,5.83-2.31,7.15-2.31a5,5,0,0,1,3.6,1.5c-.51.39-1.2-.3-1.2,1.2,0,.81,1.38,3.51,2.66,6.07h-5.07c-1.07-2.4-2.27-4.58-4.19-4.58a6.67,6.67,0,0,0-2.77.7c-.81.41-1.43,1-1.43,1.7a3.74,3.74,0,0,0,.93,1.85l.25.32H151.4c-.06-.13-.12-.25-.17-.37,0,.12,0,.24-.08.36h-4a35.45,35.45,0,0,0,.79-4.28c0-6.07-7.8-2.25-7.8-10.2,0-6.52,4.8-9.15,4.8-11.69a2.58,2.58,0,0,0-.46-1.12h0c-1.39-2.34-5.53-6.86-5.47-8.11V203.8c4.47,1.78,8.85,0,12.52,0,1.5,0,4.2,1.2,5.7,1.2h5.4c1.5,0,11.36-1.2,16.7-2,.54-.35,1.09-1.51,2.24-2.61v-2.11c-2.21-.48-5.74-2.27-7.24-2.27s-2.28-.06-2.8-.47a31.17,31.17,0,0,1-7.8-1.8,9.93,9.93,0,0,1-2.67-1.55c-1.63-1.34-2.91-3.17-5.72-5.65a17.68,17.68,0,0,1-12.09-3.65c-3.08-2.48-9.14-6.24-8.13-8,.48-.84-10-8.43-9.8-9.92.48-3.83-4.58-3.83-5.18-5.11a26,26,0,0,1-2.62-7.79c-1.88-1.72-3.65-4.7-6.56-6.77-1.61-3.13-1.28-8.26-5.41-10.81-.8-2.88-5.61-8.36-5.61-9.86s.69-1.11,1.2-1.46c-8.4-4.58-11.4-12.15-12.41-20.29a17.86,17.86,0,0,0-4-1.89c-2-.67-5.06-4-7.1-5.85C76,93,66.5,83.87,69.39,82.27,72,80.83,65.28,76.72,62.5,73a12.29,12.29,0,0,1-3.31-8.7c0-1.5-.54-.42-1-1.1-.17-2.48-.77-6.4-.77-7.9,0-5.48-8.75-11.88-10.91-12.81C45,40.6,33.39,32.47,33.39,30.07c0-5.1,6-2.55,6-4.5,0-1.5-3.57-6.77-5.34-10.43V13H37.4c3.08,2.42,5.48,4.82,8.22,7.16,0,0,.37.59.37-.91s-1.8-9-1.8-10.5.6-2.7.65-4.66a3.76,3.76,0,0,1,2.35-.74c1.5,0,3.2,3.72,4,5.59.38,1,.08,3.09.61,4.82s2.64,6.39,2.64,7.89,7.8,10.8,7.8,11.4c0,1.5,5.27,4,6.64,5,2,2,14.81,14.37,16.8,15.59a51.65,51.65,0,0,0,8.23,7.19c2.18,1.65,4.43,2.41,6.38,4,10.05,8,29.74,25,29.74,26.48s5.48,1.85,7.65,3.12c3.75,2.25,7.18,5.62,11.37,7.78.58.22,12.77,9.8,12.77,11.3s6.49,5.17,7.27,5.79c.47.63,4.52,2.65,5.64,4,.6.83,21.29,23.36,21.29,26.81,0,1.5,1.11,1,2.06,2.1,2.18-4,4-7.66,7-12.52a2.43,2.43,0,0,0,1.42-.68c2,2.52,5.62,5.4,5.68,6.9.15,3.94,2.17,2.11,2.78,2.26,7.89,2.86,20.39,5.64,26.42,12.46,3.76-.47,11.82-5.42,13.69-5.42.83,0,2.92,4,2.69,5,.52.48-.29.39,1.21.39s16.4-6,24-8.62c3.25-.38,9.59-3.38,11.09-3.38s7.23,1.2,10.9,1.59a36.61,36.61,0,0,1,4.09-.39c1.5,0,15.6,4.2,17.1,4.2a12.29,12.29,0,0,1,2.79.16c6.61,2.26,17.61,6.44,19.11,6.44s3-.9,4.78-1.05c1.57-.07,59.17-3.51,60.52-4,2.25-.75,5-.68,7.81-1.43,10-2.7,20.38-7.34,30.74-11,.75.68,1.44.59,1.44,2.09,0,4.05-17.28,15.2-18.6,15.57C439.31,161.77,448.31,164.75,447.77,164.88ZM160.56,246.73h5.07c1.11,2.21,2.14,4.33,2.14,5,0,1.5-1.2,1.2-2.7,1.2C163,253,161.87,249.67,160.56,246.73ZM201.74,196a1.62,1.62,0,0,0,.42-.29c.17-.1.34-.1.42-.2l.51.3.25.29v.78c0,.2-.08.4-.08.59a.29.29,0,0,1-.26.1c-.08.1-.25.1-.42.2-.25-.2-.51-.4-.84-.69,0-.2-.09-.49-.09-.68S201.74,196.17,201.74,196Zm-.17-1.47a.28.28,0,0,1-.25.1c-.09.1-.26.1-.43.2-.25-.2-.5-.39-.84-.69v-.68a1.81,1.81,0,0,1,.26-.59.9.9,0,0,1,.58-.2l.51.2.25.29v.79C201.65,194.11,201.57,194.31,201.57,194.5Zm10.11,13.13a3.45,3.45,0,0,1,2.53-3,4.44,4.44,0,0,1-.84,2.93,1.2,1.2,0,0,0-.25.4,1.22,1.22,0,0,0-.43.19c-.25,0-.5-.1-.75-.1A1.46,1.46,0,0,0,211.68,207.63Z"/><path class="cls-1" d="M392.76,170.1c-11.61-.09-19.29.41-18.51,4.79,1.4.07,4.58,1.38,6.08,1.38s7.19.52,7.19.52c2.55-.6,6.16-3.26,7-3.88C395.14,171.31,395.48,169.94,392.76,170.1Z"/><path class="cls-1" d="M430.33,163.6c-1.65.2-4.58,1.2-6.77,1.54a3.54,3.54,0,0,0-.94.65,11.47,11.47,0,0,0-1.66,1.78c.88.19,1.18.79,2.68.79a146.68,146.68,0,0,0,17.7-3.31,66.1,66.1,0,0,0-10.5-1.49A5,5,0,0,0,430.33,163.6Z"/><path class="cls-1" d="M310.11,192.14c-.56-2.07-1.1-4.09-1.49-5.73-5.31.7-9.46,2-11.4,2a35.39,35.39,0,0,1-6.47-.59c.13-.93-.17-1.08,0-2.25,5.15-.41,10.64-.71,15.36-1.46,2.4-.37,5-2.35,7.06-3.4,1.5-.75,3.39-3.94,4.89-3.94s1.8-.6,3.3-.6a19.4,19.4,0,0,1,2.26.1,36.57,36.57,0,0,0,6.51-.56c.6-.15,4.82-.91,5.8-1.21a52.49,52.49,0,0,0,8.23-4c-.69-.86-1.2-.95-2.7-.95s-1.5,1.2-3,1.2-7.92-.45-11.45.15c-3.07.53-7.75,2.85-9.25,2.85s-1.93.05-3.13-.78c-.61-.38.13-1.62-1.37-1.62s-6.29,1.8-7.8,1.8-3.59-1.2-5.09-1.2-7.5,5.4-9,5.4-1.29.09-1.83-.42c0-4,4.82-6.39,4-9.77a9.44,9.44,0,0,1-2.57,1.35,11.3,11.3,0,0,1-3,.22,25.53,25.53,0,0,0-7.76,3.41c-4,2.48-7.31,8.76-11.58,8.76-1.5,0,.49-1.75.49-3.25s-.78-1.47-.78-1.47c-5,1.18-8.52,2.37-11.74,2.47a68.51,68.51,0,0,1,.12,13.48h0c0,.26-.05.51-.08.76.59-.27,1.18-.52,1.77-.77h0c7.52-3.1,16-4.59,22.92-8.18l1,.91a3.9,3.9,0,0,1-1.56,3.38,18.42,18.42,0,0,1-6.18,3.9h0c-.33.13-.66.26-1,.38-.05,1-.85,1.64-.85,3.14,0,2.17,2.52,6.5,2.52,6.5a9.1,9.1,0,0,0-1.32,4.3c0,.71-.55.3-.11,2.56,1.09.47,1.54,4.54,1.68,6.18l.05.67a24,24,0,0,1,.25,2.83h2.1c2.46-1.18,5.47-1.78,7.74-3.06a48.77,48.77,0,0,0,1.34-6.71,18.63,18.63,0,0,0,.15-1.87c0-1.5-2.4-9.6-2.4-11.1v-5.1c0-1.5,1.29-1,1.84-.45.19.63.35,1.2.51,1.73a105.3,105.3,0,0,0,3.48,10.9,20.57,20.57,0,0,1,2.78,7.15,9.84,9.84,0,0,1-.13,3.12l4.16-1c2.55,0,3.56-2.18,3.56-4.65a1.48,1.48,0,0,0,0-.27c-.23-1.85-2.48-9.21-3.36-15.25h.94c.85,1.68,1.77,3.29,1.77,3.29-.08,1.5,1,4.13,3,5.93,2.4,2.2,3,3.85,2.84,5.11-.17,1.63-1.48,2.6-1.46,3.21l5.42-.8c2.91-1.37,2.91-2.38,2.91-5.31a15.82,15.82,0,0,0-.5-2.57c-.56-2.28-1.49-5.63-2.36-8.85h0Zm-12.54,0c-.14-1-.26-2-.31-2.89a20.25,20.25,0,0,0,1.25,2.88Z"/><path class="cls-1" d="M380.92,179.62a25.16,25.16,0,0,0-4.05-.46,8.13,8.13,0,0,0-2.06.29,8.72,8.72,0,0,0-4.25,2.5,40.69,40.69,0,0,0,13.75,0A5,5,0,0,0,380.92,179.62Z"/><path class="cls-1" d="M347.64,190.67c-.15-.08-.62-.45-1.31-1l-1.89-1.5s-4.69-3.14-5.37-4.18c-3.29-2.47-4-2.53-6.12-2.53-1.12,0-7.55-1-7.55-1-.31,4.5,7.65,6,8.85,10.52.11.21.32.64.57,1.16a24.53,24.53,0,0,0,1.29,2.39,2.16,2.16,0,0,0,.73.82c.86.3,6.07-1.1,9.15-3.21h0A7.27,7.27,0,0,0,347.64,190.67Z"/><path class="cls-1" d="M330.26,194.51c-.88-.77-1.72-1.56-2.48-2.37h0c-4.38-4.73-6.63-9.92-7.3-10.62-2.63,2.48-7.41,4.71-7.41,6.21,0,.42,1.15,2.1,2.36,4.41h0a22.64,22.64,0,0,1,2.62,7.57,11.4,11.4,0,0,1,0,2.61,2.8,2.8,0,0,0,2.36,1.44c.08,0,13.07-6.59,10.55-8.61C330.74,194.94,330.51,194.72,330.26,194.51Z"/><path class="cls-1" d="M374.1,170.37c-3.22,1.09-7.06-.68-9.07-1.37l-6,.45c1.28,3,11.79,4.11,13.24,3.12Z"/><path class="cls-1" d="M362.89,176.56c-1.36.05-4.94,3.86-4.94,3.86l-6.79,1,5.38-5.92c-1.27-.34-3.46-.81-3.46-.81-1.76-.48-3.82-1-6.36-1.5-1.34,2.53-9.07,5.13-9,5.87,3.17,2.06,7.55,2.42,8.94,5l.66.37s3.78,0,5.66,2.48l.18.24a6.6,6.6,0,0,0,1.82.45c1.5,0,3.46-1.25,5-2.3s6.05-4.32,8.23-5.72a6.38,6.38,0,0,1,1.12-.63C369.76,178.22,365.65,176.59,362.89,176.56Z"/><path class="cls-1" d="M68.51,345.76v106.3c48.44-10.6,76.84-13.2,95.93-3.46v-4c-28.21-15.35-56.64-6.07-88,.9l-3.48.78V344.8Z"/><path class="cls-1" d="M216.34,288.14l.42-.68c0-.32,0-.62.06-.91a12.25,12.25,0,0,0-.31-4.09c-.15-.39-.29-.7-.42-1a4.81,4.81,0,0,0-.51-.89,2.68,2.68,0,0,0-1.77-.39h-.08c-.51,0-.66-.22-.42-.87a4.16,4.16,0,0,1,1.58-1l.27-.09,0-.1-.45-.88a2.53,2.53,0,0,0-1.61-.88c-1.26.1-1.85-.1-1.68-.59l.48-.4a3.4,3.4,0,0,1,1.63-.77l.33-1.18a28.43,28.43,0,0,0-2.86-1.86l-2.7-.1a1.73,1.73,0,0,0-.84,1.08v.29l-.09.59c0,.21-.07.41-.1.62-.12.72-.24,1.44-.4,2.12s-.19,1.57-.27,2.34-.12,1.22-.15,1.78c0,1,0,2,0,2.88,0,.46.06.91.12,1.33a4,4,0,0,0-.17,1,16.56,16.56,0,0,1-.09,2,8.49,8.49,0,0,1-.08,1.66,2,2,0,0,1-.09.49,1.87,1.87,0,0,0-.5,1.18,9.88,9.88,0,0,0,.08,2.74c.17,1.08.51,1.57,1.27,1.77l1.09-.49a9.69,9.69,0,0,0,.76-1.08,10.66,10.66,0,0,0,1.43-3.43l.13-.59.13-.59a6.11,6.11,0,0,1,1.07-4.36l0,0,0,.06a3.74,3.74,0,0,1,.72,2.39.89.89,0,0,1-.08.49c-.17.85-.25,1.61-.33,2.38v.06a9.88,9.88,0,0,1-.42,2.75,3.42,3.42,0,0,1-.17.88,6.29,6.29,0,0,0-.25,1.76,2.92,2.92,0,0,1-.42,1.47c-.17.39,0,.59.42.69.33-.2.67-.3.92-.49a5.44,5.44,0,0,0,2.7-3.14,6.22,6.22,0,0,0,.59-3l.42-.89Z"/><path class="cls-1" d="M214.87,259.93a14.81,14.81,0,0,1-2.09.42c.67.91,1.49,2.2,3,2.2s1.5-.6,2.39-.83A15.15,15.15,0,0,0,214.87,259.93Z"/><path class="cls-1" d="M271.83,459.19l-3.49-.77c-27.78-6.17-68.68-17.73-98.17-2.81v4.62c20.34-9.61,57.24-5.3,106.1,5.39V359.31l-4.44-.95Z"/><path class="cls-1" d="M195.49,275.29a3.89,3.89,0,0,0,.56-3.79,2.92,2.92,0,0,0-.14-.38,6.72,6.72,0,0,0-.54-1.07,2.34,2.34,0,0,0-2.1-.9,4.71,4.71,0,0,0-3.61,1.27l0,0a8.79,8.79,0,0,0-1.74,3.59C190.44,274.4,193,274.81,195.49,275.29Z"/><path class="cls-1" d="M173.36,289.22c.34.1.59-.29.67-.88a14.24,14.24,0,0,1,.93-4.17l.09-.24a6.41,6.41,0,0,0,.33-1.17c.17-.79.34-1.37.51-2.06a8,8,0,0,1,1.25-2.58c.14-.18.27-.37.43-.56l.6-.19a2.29,2.29,0,0,1,0,.82c0,.05,0,.11,0,.16a6.53,6.53,0,0,1-.34,1.86,27.61,27.61,0,0,0-.72,5.77c0,.66,0,1.32,0,2a1.18,1.18,0,0,0,.93,1.08,9.42,9.42,0,0,0,.93-.59,14.58,14.58,0,0,0,1.09-1.37,3.27,3.27,0,0,0,.59-2.55,4.76,4.76,0,0,1,.34-1l-.34-1.08a15.49,15.49,0,0,0,1.1-2.15l.76-1.72c.4-.93.68-1.59.84-1.91a3.57,3.57,0,0,1,1.1-1.56,8.09,8.09,0,0,0,.5-.79,7.22,7.22,0,0,0,.68-1.47,16,16,0,0,0,.67-2.64.13.13,0,0,1,0-.06,1.37,1.37,0,0,0,0-.19,2.33,2.33,0,0,0-.11-.73,3,3,0,0,1-.34-2.26.65.65,0,0,1,.92.3l.43,1,1-1.47a7.83,7.83,0,0,1-.25-3.14,13,13,0,0,0-5.82-1.56l-.59,1c-.5.58-1.09,1.17-1.6,1.76a4.42,4.42,0,0,0-.84,1.66,18.91,18.91,0,0,0-2.7,2.45l-.08.12a7.22,7.22,0,0,0-.55.81l-.21.35a15.57,15.57,0,0,1-1.61,2.94l-.19.27a7.42,7.42,0,0,0-.73,1.29,8.24,8.24,0,0,0-.51,1.77c-.07.46-.12.93-.18,1.39-.16,1.2-.31,2.4-.49,3.6-.08.2-.08.49-.17.59a8.31,8.31,0,0,1-.42,1.86,11.25,11.25,0,0,0,1.18,4.9Z"/><path class="cls-1" d="M203,263.28c1.26-.77,2.9-2.53,3.95-2.57,1.84,3.19,3.21,3.57,6.41,3.48-1.82-2.72-4.16-5.84-5.66-5.84s-4.2,1.2-5.7,1.2-2.4-1.2-3.9-1.2c-.75,0-5.7.53-5.7,2.7,0,1.43.24,2-1.77,4.34C195.11,265,199.31,263.75,203,263.28Z"/><path class="cls-1" d="M221.75,259.34c-2.75-2-7.06-5-8-7l-1.56,1.49C212.17,257.68,220.19,259.55,221.75,259.34Z"/><path class="cls-1" d="M226.37,270.7a15.64,15.64,0,0,0,9.75-1.69,41,41,0,0,0-.08-4.72s1.27.53,1.44.28c.46-1,2.2-2.12,2.43-3.47.3-1.8,1.65-3.65,1.56-5.06a15.56,15.56,0,0,0-4,.18c-.06,1.23-.93,2.45-1.46,3.5-.68,1.35-3.41,2.34-5,4.14-.15.22-.7,3.09-1.9,3.92s-3,.86-4.32,2.27A1.81,1.81,0,0,0,226.37,270.7Z"/><path class="cls-1" d="M234.94,248.24h-3.8c-1.5-.09-4.44.32-5.1,1.24,1.48.19,4.32,3.59,5.83,3.59C232.91,253.07,233.26,250.88,234.94,248.24Z"/><path class="cls-1" d="M227.56,280.91l-.73-1c-.08.18-.15.35-.22.53l-.09.23a19.05,19.05,0,0,0-1,3.67q2.57,1.1,5.07,2.26a9.51,9.51,0,0,1,1.39-.28c-1.45-1.66-2.84-3.45-4.09-5.08Z"/><path class="cls-1" d="M251.76,265.27c-1.29-1.43-2-3.29-3.33-3.92-3.76,3.07-7.35,5.46-9.87,7.48,1.29,1.43,2,3.29,3.35,3.92C245.68,269.06,248.65,267.89,251.76,265.27Z"/><path class="cls-1" d="M167.3,272.63c1.16,0,2.3,0,3.45.06a26.25,26.25,0,0,0-3.34-2.7,19.72,19.72,0,0,0-2-1.19c-2-1-4-1.36-5,0l-.12.16a6.43,6.43,0,0,0-.58,3.87C162.24,272.7,164.76,272.63,167.3,272.63Z"/><polygon class="cls-1" points="246.48 508.8 239.88 476.37 227.97 476.37 227.97 538.02 238.91 538.02 238.91 507.15 245.57 538.02 252.1 538.02 257.37 538.02 257.37 533.98 257.37 476.37 246.48 476.37 246.48 508.8"/><path class="cls-1" d="M206.89,475.16q-7.63,0-11.86,8.4t-4.21,23.67q0,15.24,4.2,23.62t11.87,8.38q7.63,0,11.81-8.36t4.17-23.64q0-15.32-4.19-23.7T206.89,475.16Zm3,44.85c-.57,2.32-1.59,3.48-3,3.48s-2.5-1.17-3.08-3.52-.88-6.73-.88-13.15.29-10.8.88-13.16,1.61-3.55,3.08-3.55,2.47,1.17,3,3.51.87,6.73.87,13.2S210.49,517.69,209.91,520Z"/><path class="cls-1" d="M164.44,437.64V331.45c-16.51-10.47-33.84-10.68-85.77.75v107C126.73,428.66,146.7,427.77,164.44,437.64Z"/><path class="cls-1" d="M179,499.72l-.35-.42q-3.09-3.46-3.09-5.82a4.22,4.22,0,0,1,.82-2.68,2.65,2.65,0,0,1,2.18-1A6.36,6.36,0,0,1,182,491a21.13,21.13,0,0,1,4,3.69v-16a22.82,22.82,0,0,0-5-2.66,13.65,13.65,0,0,0-4.69-.88,11.26,11.26,0,0,0-9.47,5q-3.69,5-3.69,12.85a23.35,23.35,0,0,0,1.53,8.48c1,2.62,3.32,6.3,7,11.23,2.07,2.81,3.11,5,3.11,6.42a5,5,0,0,1-.92,3.09,2.87,2.87,0,0,1-2.37,1.22,6.9,6.9,0,0,1-3.77-1.52,28,28,0,0,1-4.71-4.45v17a19.66,19.66,0,0,0,5,3.55,11.59,11.59,0,0,0,5,1.14,12.37,12.37,0,0,0,10.51-5.47q4-5.46,4-14.5a25.29,25.29,0,0,0-1.59-9.39Q184.38,505.88,179,499.72Z"/><polygon class="cls-1" points="150.85 476.37 138.82 476.37 138.82 538.02 159.63 538.02 159.63 522.71 150.85 522.71 150.85 476.37"/><path class="cls-1" d="M245.74,215a3.34,3.34,0,0,0,.55-2.75h-2.14l-1.22,1.17a13.9,13.9,0,0,0-3.15.15,5.68,5.68,0,0,0,3.88,2.22C245.16,215.76,244.87,215.87,245.74,215Z"/><rect class="cls-1" x="120.1" y="476.37" width="11.97" height="61.65"/><polygon class="cls-1" points="101.51 512.85 97.66 476.37 88.03 476.37 84.13 512.85 81.31 476.37 69.41 476.37 77.2 533.95 77.75 538.02 82.51 538.02 88.71 538.02 92.85 499.46 96.96 538.02 107.94 538.02 116.31 476.37 104.41 476.37 101.51 512.85"/><path class="cls-1" d="M164.44,458.94v-3.33C135,440.69,94,452.25,66.27,458.42l-3.49.77V358.36l-4.44.95V465.62c48.85-10.69,85.76-15,106.1-5.39Z"/><path class="cls-1" d="M283.12,560.56a10.74,10.74,0,1,0-10.73-10.74A10.74,10.74,0,0,0,283.12,560.56Zm0-19.75a9,9,0,1,1-9,9A9,9,0,0,1,283.12,540.81Z"/><path class="cls-1" d="M280.28,550.61h3.37l2.15,5.08h1.54L285,550.25a2.82,2.82,0,0,0,1.68-1.22,3.6,3.6,0,0,0,.5-1.8,3.36,3.36,0,0,0-.9-2.25,3.54,3.54,0,0,0-2.78-1h-4.62v11.73h1.37Zm0-5.37h3.24a2.4,2.4,0,0,1,1.59.52,1.75,1.75,0,0,1,.63,1.44,2.22,2.22,0,0,1-.6,1.57,2.33,2.33,0,0,1-1.8.64h-3.06Z"/></g></g></svg>