<svg xmlns="http://www.w3.org/2000/svg" viewBox="0 0 435.57 568.25"><defs><style>.cls-1{fill:#fff;}.cls-2{fill:#003da6;}</style></defs><title>wilson-logo-base--blue-white</title><g id="Layer_2" data-name="Layer 2"><g id="Layer_1-2" data-name="Layer 1"><path class="cls-1" d="M206.48,158.29v-2.15h3.27c.15.14.32.28.5.43.66.53,1.39,1.14,1.37,1.73-.35,0-.72.08-1.11.13A8.29,8.29,0,0,1,206.48,158.29Zm7.37,9.68a2.84,2.84,0,0,1,1.52-.69l.45-.1a22.28,22.28,0,0,0-3.07-1.74,7.71,7.71,0,0,1,.26.81A3.21,3.21,0,0,0,213.85,168Zm22.8,115.2.86-.65c3.22-2.43,4.19-3.16,4.19-6.79a4.15,4.15,0,0,0-1.24-3.08c-.24-.3-.49-.6-.74-1a9.71,9.71,0,0,1-1.27-2.69,41.56,41.56,0,0,1-3,5.52c-1.12,1.86-2.09,3.47-2.09,4.23a4.74,4.74,0,0,0,1.23,2.46A10.53,10.53,0,0,0,236.65,283.17ZM210,169.34a3.53,3.53,0,0,1-2.12-.64,2.25,2.25,0,0,0-.11,2.86h2.6c.48-.46.34-1,.2-1.58a4.11,4.11,0,0,1-.12-.61C210.27,169.35,210.13,169.35,210,169.34Zm17.13,7.78a2,2,0,0,1-1.61.48c-.15.19-.17.21-.26.21l-.24.1a1.11,1.11,0,0,1-.25.09,3.36,3.36,0,0,0-.39,1.08h0c.71,0,1.85,1,2.4,1.47l.23.19.09-.06a.54.54,0,0,1,.33-.13h0a.82.82,0,0,1,.53.41.57.57,0,0,1,.17.3,2.69,2.69,0,0,1,.76,2.07c0,1,0,1.87-.08,2.85l-.09.4a1.93,1.93,0,0,0-.08.67v0h0a11.45,11.45,0,0,0-.75,1.48h0l0,.06a8.43,8.43,0,0,0-.64,2.46h0a4.54,4.54,0,0,0-.41.68.87.87,0,0,0-.1.14c-2,3.05-3.83,4.92-5.07,5.27-.32.1-.57.19-.81.28h0a1.59,1.59,0,0,1-1.36,1,2.51,2.51,0,0,1-1.86.89,3.49,3.49,0,0,1-2.64.68h0l-.52-.31h0l-.17-.61V199a1.31,1.31,0,0,1,.24-.37l-.14-.11a1.29,1.29,0,0,1-.17-.15v0a6.07,6.07,0,0,1-.16-.65,5.64,5.64,0,0,0-.41.86c-.09.2-.17.4-.26.58a1.31,1.31,0,0,1-.24.37,7.13,7.13,0,0,1,1.4,2.21,5.09,5.09,0,0,1,1.66.57,36.18,36.18,0,0,0,4.6-2.23,4.93,4.93,0,0,1,1.19-.5c1-.39,2.07-.86,3.28-1.45a2.51,2.51,0,0,1,.54-.38,16.57,16.57,0,0,0,3.4-6.27h0a6.91,6.91,0,0,0,1.92-2.57h0l0-.07a6.06,6.06,0,0,0,.41-2c-.06-1.83-1.79-4.91-3.05-7.16A25.2,25.2,0,0,1,227.1,177.12Zm-.62,96c2.35-2.32,5.84-3.93,8.64-5.22.84-.38,1.64-.75,2.34-1.11-.13-.17-.26-.32-.38-.46a2.79,2.79,0,0,1-.85-1.56h-2a30.76,30.76,0,0,0-4,3c-1.91,1.62-3.56,3-6.32,3.72C224.37,272.16,225.57,273.54,226.48,273.09Zm-8.91-113a2.55,2.55,0,0,1,.17-.56,3.44,3.44,0,0,1,.51-.91,12.34,12.34,0,0,1-3.11-1.87l-.77-.57a8,8,0,0,0,.64,1.38A6,6,0,0,0,217.57,160.12Zm3.06,29.11v0a14.09,14.09,0,0,1-1,1.27,2.41,2.41,0,0,1-1,1.1l-.28.14a5.09,5.09,0,0,1-1.57.64.44.44,0,0,1-.18.12l-.16.08h0a5.59,5.59,0,0,1-4.59-.49h0a.56.56,0,0,0-.25-.17,4.79,4.79,0,0,1-.16.7l.49.28a3.27,3.27,0,0,1,.42.69l.09.15a.61.61,0,0,0,0,.12,4.55,4.55,0,0,1,1.29-.2,4.13,4.13,0,0,1,2.95,1.3h0v0c0,.49-.08,2.73-.08,2.75a.8.8,0,0,1-.1.38,11.1,11.1,0,0,0,1.36-.72h0a1.85,1.85,0,0,0,.23-.37v0h0a.71.71,0,0,0,.32-.36,3.39,3.39,0,0,1,.25-1.28.58.58,0,0,1,.27-.51.77.77,0,0,1,.45-.31h0a5.53,5.53,0,0,1,.6.3h0v0a2.17,2.17,0,0,1,0,.87,11.08,11.08,0,0,1,1.55-1,.74.74,0,0,1,0-.55,4.76,4.76,0,0,1-1.34-1.85c-.08-.2-.16-.4-.25-.69v0l.29-.33h0a.26.26,0,0,0,.1,0,.32.32,0,0,1,.15-.06h.28l0,0a10.5,10.5,0,0,0,1.91,1.84,2.29,2.29,0,0,0,.78.09,2.21,2.21,0,0,1,.11-.58s0-.08,0-.13a3.44,3.44,0,0,1-1.08-1.37.66.66,0,0,1-.1-.42v0a.77.77,0,0,1,.36-.41,1.1,1.1,0,0,1,.53-.21h0a4.83,4.83,0,0,1,1.47.84,5.47,5.47,0,0,1,.54-1.16,3.71,3.71,0,0,1-1-.57l0,0v0c0-.1,0-.21,0-.31v-.05a.84.84,0,0,1,.07-.24v0c.07-.08.16-.17.16-.26v-.05h.05a4.62,4.62,0,0,0,.65-.05,4.07,4.07,0,0,1,.47,0,4.55,4.55,0,0,0-.38-.69,3.21,3.21,0,0,1-1.35-.3h0v0a1.28,1.28,0,0,1,0-.94l0-.08a.52.52,0,0,0,.16-.27v0h0a1.24,1.24,0,0,1,.52-.1l-.44-.69a1,1,0,0,1-1-.62l0,0,0,0A4.51,4.51,0,0,1,224,184l.44-.19a.75.75,0,0,1,.08-.2,1.19,1.19,0,0,0,.08-.16,2.26,2.26,0,0,0-1.56-1.22l0,0,0-.09a2.92,2.92,0,0,1,.18-.39,1.33,1.33,0,0,1-.28-.1.6.6,0,0,0-.19-.08,3.18,3.18,0,0,0-.4.47c-.16.22-.23.3-.28.31a2.15,2.15,0,0,1-1.54,0,7.41,7.41,0,0,0-1.3.37,2.62,2.62,0,0,1-1,.68c.46.74.16,2.64.15,2.73a5.06,5.06,0,0,1-1.36,2.67h0l-.1.08a3.57,3.57,0,0,1-3.58.32,2.25,2.25,0,0,1-.39-.3l0,0a4.35,4.35,0,0,1-.88-1.06.93.93,0,0,1-.32-.45c-.43.33-.65.5-.89.65l-.12.42a1,1,0,0,1,.32.37l0,.08h0a1.91,1.91,0,0,1,.16.36,9.55,9.55,0,0,0,1.55,1l.34.19a4.68,4.68,0,0,0,4.49-.29.5.5,0,0,1,.13-.1.31.31,0,0,0,.12-.09,3.82,3.82,0,0,0,.64-.58,4.75,4.75,0,0,0,.49-.6l0,0a9.38,9.38,0,0,0,.52-.83c0-.08.08-.59.08-.76.1-.54.18-.92.26-1.19s.36-.21.45-.23a.85.85,0,0,1,.65.11h0l.08.69a2.18,2.18,0,0,1,.17.51,6,6,0,0,1-.5,1.58.6.6,0,0,1,0,.12h0v0Zm1.14-26.49a5.58,5.58,0,0,0,.61-1.13,16.54,16.54,0,0,1-1.66.44l-.28.07a8,8,0,0,0-2,.67v2.1C219.65,165.14,221,163.89,221.77,162.74ZM168.06,263.63h0a.69.69,0,0,1,1,.31l.39.9.95-1.37a7.63,7.63,0,0,1-.25-3.1,12.82,12.82,0,0,0-5.74-1.54l-.57.95c-.26.3-.54.6-.81.89s-.55.59-.8.88a4.33,4.33,0,0,0-.83,1.65h0a19,19,0,0,0-2.69,2.44l0,.06,0,.06a7.29,7.29,0,0,0-.54.8l0,.05-.18.3a15.78,15.78,0,0,1-1.61,2.94l-.14.21-.05.07a7.19,7.19,0,0,0-.73,1.28,7.65,7.65,0,0,0-.5,1.75c-.06.36-.1.73-.15,1.08l0,.31-.12.9c-.11.89-.23,1.81-.37,2.71h0a1.38,1.38,0,0,0-.08.29.71.71,0,0,1-.09.3,8,8,0,0,1-.42,1.85,11.29,11.29,0,0,0,1.17,4.85l.83.38a.26.26,0,0,0,.24,0,1.23,1.23,0,0,0,.36-.81,13.89,13.89,0,0,1,.93-4.18,1,1,0,0,1,0-.1.78.78,0,0,1,.05-.14,6.28,6.28,0,0,0,.33-1.17c.12-.53.23-1,.35-1.42,0-.21.1-.42.16-.63a8,8,0,0,1,1.26-2.6,5.57,5.57,0,0,1,.43-.56h0l.66-.22V274a2.17,2.17,0,0,1,0,.84.13.13,0,0,1,0,.06.28.28,0,0,1,0,.09,6.76,6.76,0,0,1-.33,1.86h0a28,28,0,0,0-.72,5.76c0,.68,0,1.34,0,2a1.12,1.12,0,0,0,.87,1,8.24,8.24,0,0,0,.9-.57c.31-.36.75-.87,1.09-1.36a3.24,3.24,0,0,0,.58-2.51h0a4.45,4.45,0,0,1,.33-1l-.34-1.09h0a15.87,15.87,0,0,0,1.1-2.15c.29-.65.54-1.21.76-1.72l.23-.55c.28-.64.48-1.11.61-1.36a3.66,3.66,0,0,1,1.11-1.59,8.49,8.49,0,0,0,.49-.76,7.26,7.26,0,0,0,.67-1.47,15.79,15.79,0,0,0,.67-2.6v-.09l0-.19a2.25,2.25,0,0,0-.12-.71,3.15,3.15,0,0,1-.34-2.28Zm45.56,19.44c.14,0,.28,0,.41-.06-1.4-1.61-2.76-3.36-4-5l-1-1.26c-.06.14-.11.29-.17.43l0,.06c0,.06-.05.12-.08.19a19.26,19.26,0,0,0-1,3.62c1.67.71,3.35,1.46,5,2.23A4.89,4.89,0,0,1,213.62,283.07Zm-15.14,1.73.42-.68c0-.27,0-.57,0-.89a12.18,12.18,0,0,0-.3-4.07c-.14-.34-.27-.65-.42-1a5.08,5.08,0,0,0-.49-.87,2.6,2.6,0,0,0-1.74-.38h-.08c-.28,0-.44-.07-.53-.2s-.08-.38.06-.74v0a4.18,4.18,0,0,1,1.6-1l.09,0,.12,0-.47-.93a2.45,2.45,0,0,0-1.56-.85c-.93.07-1.5,0-1.69-.27a.38.38,0,0,1,0-.39h0l.49-.4a3.44,3.44,0,0,1,1.61-.78l.32-1.11c-.12-.08-.23-.17-.36-.25a22.8,22.8,0,0,0-2.46-1.58l-2.67-.1a1.65,1.65,0,0,0-.81,1v.29a2.87,2.87,0,0,1,0,.31l-.14.91c-.13.8-.25,1.47-.4,2.12-.1.82-.19,1.61-.26,2.34s-.13,1.28-.16,1.77c0,1,0,2,.06,2.88,0,.55.06,1,.11,1.32v0a1.51,1.51,0,0,0-.09.44c0,.15,0,.33-.07.52a18.53,18.53,0,0,1-.08,1.95,7.67,7.67,0,0,1-.09,1.67,1,1,0,0,1-.06.38.58.58,0,0,0,0,.1v0a1.74,1.74,0,0,0-.49,1.14,10,10,0,0,0,.08,2.73c.16,1.06.49,1.53,1.21,1.72l1.07-.48a9.36,9.36,0,0,0,.73-1v0a10.55,10.55,0,0,0,1.43-3.41l.25-1.17a6.15,6.15,0,0,1,1.08-4.39s0,0,0,0v0l0-.06,0,.06s0,0,0,0l0,0a3.83,3.83,0,0,1,.73,2.41.9.9,0,0,1-.09.52c-.16.81-.24,1.52-.33,2.36v0s0,0,0,0a9.62,9.62,0,0,1-.42,2.74,3.25,3.25,0,0,1-.17.89,6.61,6.61,0,0,0-.25,1.75,2.85,2.85,0,0,1-.43,1.5.49.49,0,0,0,0,.37.61.61,0,0,0,.4.23l.41-.2a2.65,2.65,0,0,0,.5-.27,5.45,5.45,0,0,0,2.68-3.12h0a6.11,6.11,0,0,0,.58-3v0l.43-.89Zm-61.67-24.07a6.53,6.53,0,0,0,.7,2.43,8.2,8.2,0,0,1,.67,1.95c.36-.31.78-.62,1.22-.95l.92-.7c1.48-1.16,3-2.61,3-4.53,0-2.66-4.86-7.31-6.93-9.3-.77-.74-.87-.84-.87-.9a8.5,8.5,0,0,0-.9-3c-.23-.52-.5-1.07-.75-1.6l-.32-.66,0-.07h0l-.08-.17a.75.75,0,0,1,0,.16h0l0,.07a9.23,9.23,0,0,1-.64,1.52,5.26,5.26,0,0,0-.73,2.29,9.7,9.7,0,0,0,1.57,3l.06.09c.43.63.9,1.33,1.36,2,1.55,2.25,3,4.36,3,5.13a2.8,2.8,0,0,1-.61,1.68A2.66,2.66,0,0,0,136.81,260.73Zm17.67,7.42c.51-.69,1.08-1.38,1.63-2l.42-.51s0,0,.05-.05v-.06a4.68,4.68,0,0,1,1-1.57l1.13-1.5c-3.42-.88-10-6.19-10-8.59a2.5,2.5,0,0,1,2.75-2.45c1,0,3.26,2.36,5.63,4.86,1.15,1.21,2.34,2.47,3.42,3.48l.77-3.88-1.79-1.47c-2.67-2.19-5.43-4.45-7.76-6.22l0,0,0,0a9.11,9.11,0,0,1,2.41-1.21c1.57-.62,3.35-1.32,3.49-2.49h-.06a5.14,5.14,0,0,1-2.74-.93l-.14-.09h0c-3-2.06-5.38-6.51-5.38-9v-1.5c0-.37.09-.6.26-.66.43-.16,1.15.67,1.23.76.72.68,1.47,1.51,2.19,2.32a26.84,26.84,0,0,0,2.74,2.78c-.07-.22-.14-.44-.22-.66a11.57,11.57,0,0,1-.8-3.64,4.9,4.9,0,0,0-.29-2.41,11.74,11.74,0,0,0-1-.67c-1.28-.79-2.88-1.77-2.88-2.92a7.68,7.68,0,0,0-.9-2.68,7.72,7.72,0,0,1-.9-2.72,12.92,12.92,0,0,0-.18-1.79,5.75,5.75,0,0,1,0-2.75v0h.05a5.13,5.13,0,0,0,3,.09,7.61,7.61,0,0,1,.88-.14h0v0a60,60,0,0,0,1.9,7.84c.22.78.44,1.52.64,2.26a90.63,90.63,0,0,0,2.4-11.74,22.29,22.29,0,0,0,.26-2.48,14.34,14.34,0,0,0-.6-3,13.89,13.89,0,0,1-.6-3,3.37,3.37,0,0,1,.37-1.7c.15-.25.32-.48.51-.74.08-.1.17-.21.25-.33a10.57,10.57,0,0,0-4.8,1.12c0,.13,0,.26-.07.39l0,.15a33,33,0,0,1-1.91,7.14l0,.06-.05,0a8,8,0,0,1-2.94-5.55c-.06-.34-.13-.69-.2-1a9.64,9.64,0,0,0-.83-2.34h-4.5a7.73,7.73,0,0,1-.39,2.15l-.12.38a4.42,4.42,0,0,0-.17,1.25,5.6,5.6,0,0,0,.89,2.38,5.62,5.62,0,0,1,.91,2.42v.56c0,1,0,1.13-.45,1.61a2.61,2.61,0,0,1-2,.58c-1.07,0-2.39-3-3.79-6.25-.47-1.08-1-2.2-1.43-3.18-.12-.26-.24-.49-.35-.7h-3.33v3.86c0,.71.23.74.52.77s.66.09.69.88v4.1l-.07,0a5.64,5.64,0,0,1-.79-.42,5.72,5.72,0,0,1-2.9-4.48c0-.07,0-.13,0-.2v-.09a11.6,11.6,0,0,0-.32-1.9c-.12-.56-.25-1.13-.34-1.82,0-.21-.05-.43-.07-.67a8.91,8.91,0,0,1-2.9.58l-.4,0v2.66a20,20,0,0,1,1.62,2.89c.78,1.61,1.52,3.12,2.8,4h0a2.55,2.55,0,0,0,.43.25,12.23,12.23,0,0,0,2.46.86,37.72,37.72,0,0,0,6.27.83c1.57.12,3.06.24,4.45.48h0c2.18,2.21,4.05,8.73,4.05,12.52a1,1,0,0,1-.24.76,1.22,1.22,0,0,1-.91.23h-.09c-.3,0-.57,0-.7.18l0,0,0,0c-2.78-1.64-3.42-5.58-4-9.06a24.5,24.5,0,0,0-.88-4,11.92,11.92,0,0,1-3.56,1.3,16,16,0,0,0-2.12.61,17.07,17.07,0,0,1,.5,2.94,14,14,0,0,0,.45,2.64,11.21,11.21,0,0,0,1,2.06,5.71,5.71,0,0,1,1,2.66c0,.29,0,.51,0,.67,0,.49,0,.51-.13.64a1.66,1.66,0,0,0-.19.22l0,0,0,0a2.09,2.09,0,0,0-1.2-.62l-.38-.11h0v0c-.27-.5-.58-1-.88-1.56-1-1.7-2-3.45-2-4.61a21.55,21.55,0,0,0-1.06-5.45c-.08-.24-.16-.49-.25-.74h-.15a7.83,7.83,0,0,0-2.27.43,8.28,8.28,0,0,1-.91.24,2.54,2.54,0,0,1-.24,2.13,3.81,3.81,0,0,0-.42,1.59,20,20,0,0,0,.41,3.29,22.9,22.9,0,0,0,.56,2.24,12,12,0,0,0,1.63,3.61c1.25,1.85,3.15,3.71,4.55,3.71a3,3,0,0,0,.63-.09,28.67,28.67,0,0,0,3.25-1.11,16.41,16.41,0,0,1,3.92-1.2,5.08,5.08,0,0,1,3.63,1.51l.05,0-.05,0a.93.93,0,0,1-.56.16c-.35,0-.62,0-.62,1,0,.74,1.22,3.17,2.39,5.53l.3.59h-.06c1.1,2.2,2.12,4.29,2.12,5,0,1.5-1.2,1.2-2.7,1.2-2.06,0-3.19-3.24-4.5-6.18h0v0c-1-2.19-2.2-4.54-4.14-4.54a6.77,6.77,0,0,0-2.76.69c-.63.33-1.39.88-1.39,1.66a3.57,3.57,0,0,0,.92,1.81l.07.1c0,.08.11.15.17.23l.07.08h0c.53.65,1.17,1.34,1.8,2,.81.89,1.58,1.72,2.11,2.44h0c.45,0,1.79,1.62,3.93,4.25,1,1.2,2,2.43,2.73,3.27h0a4.5,4.5,0,0,1-.16,1.65A3.21,3.21,0,0,0,146,259c1,2.42,2.9,4,5.05,5.92l.57.5.29.25.08.08C152.66,266.39,153.56,267.2,154.48,268.15ZM197,157.84c.79,1.9,2,2.95,3.35,2.95s1.67-.08,2.31-.9a14.14,14.14,0,0,1-4.52-3.33c-.16-.14-.32-.3-.49-.46a2.09,2.09,0,0,0-.7,1.45.51.51,0,0,0,0,.27Zm5.61-3.83a21.18,21.18,0,0,0-2.13-2.1c-.7-.61-1.39-1.13-2-1.64-.31-.24-.61-.47-.9-.71v2.13a5.31,5.31,0,0,1,1.55.91A5.53,5.53,0,0,0,202.61,154ZM198,165.3c.24.31.46.63.68.93a10.69,10.69,0,0,0,1.11,1.4c.51.52,1.91-.19,2.19-.33-.18-.26-.33-.55-.48-.82C200.93,165.32,200.35,164.23,198,165.3Zm-21.29-.24c.13-.23.25-.35.36-.35h0c.11,0,.22.13.34.36l-.69,1.13h0a4.73,4.73,0,0,0,0,.52c.08.76.17,1.61-.59,2h0l.58,10,.11,1.12,1.26,2.16c-.17,1.39,2.57,6,3.62,6.83l0,0,.13,0h.06l.07,0-.05-.05c-.12-.14-.06-.47,0-.77a2.07,2.07,0,0,0,0-.46h0v0c-1.45-1.64-2-5-1.84-7.6v0l-.85-.69h0c-.23-1.54-.31-2.06.33-3.27v0c-.31-1.07-.34-4,.44-5.14a1,1,0,0,1,.69-.47h.05l.08-2c.58-.63,1.17-1.16,1.74-1.67a14.17,14.17,0,0,0,3-3.49h.18a5.37,5.37,0,0,0,2.41-.69c.79.18.92,1.62.87,2.37a7.13,7.13,0,0,1-2.71,1.24l-.37.11h0c-.31.52-.64,1-1,1.55a27.45,27.45,0,0,0-3.74,7.61,9,9,0,0,0,1.91,8.19c.09.14,1,1.09,1.25,1.31v.4l.06.05c.6.51,2.18,1.88,2,2.76v.05l1.52.21,0,0c.52-1.07-.85-2.67-1.86-3.84-.31-.35-.57-.66-.75-.9l.16-1.41a2.56,2.56,0,0,0,.95-.35l0,0-.22-.77v0l-2.1-1.37a4.48,4.48,0,0,0-.06-.74c-.06-.48-.08-.65.54-1.43l1.41-.1h0l0,0a.7.7,0,0,1,.11-.23c.11-.22.23-.44,0-.7h0a4.57,4.57,0,0,0-3.34-.71l.16-1.48.81-.76a1.71,1.71,0,0,1,.55.33,2.06,2.06,0,0,0,1.59.59c.44-.1.82-.47,1.18-1.14l0-.05-.05,0a8.06,8.06,0,0,1-2.68-1.76l-.3-.26.54-.81.8.37h0a5,5,0,0,1,2.32-.29,3.29,3.29,0,0,1,.57,1.35c.35,1.17.83,2.77,2,3.43a10.42,10.42,0,0,1-1.22,1.63,10,10,0,0,0-.87,1.11h0v0c.07.78.12,1.52.16,2.23.25,4,.41,6.63,5.24,7.46a1.85,1.85,0,0,0,.17,1.17l0,.14c.06.15.11.29.14.39l-2,1.55h0v0a1.19,1.19,0,0,0,.45,1.05.5.5,0,0,0,.55,0l.67-.88,1.76-.29h0a2.35,2.35,0,0,0,.79-1.58c0-.1.05-.2.08-.29v0a3,3,0,0,1,.24-.66v0l-.51-2h0a3.7,3.7,0,0,0-1.59-.71c-1.45-.45-3.44-1.06-4.2-2.86-.68-1.59-.28-3.88,1.19-6.8A9.71,9.71,0,0,0,193,177c-.38.87-.86,1.79-.86,1.79v0a3.92,3.92,0,0,0,1.56,4.38c1.17.61,2.61.1,3.92-1.4l0,0v0c-.62-3.26-2.75-5.9-6.32-7.86a2,2,0,0,0-.55-.83l-.2-.23c.48-1.58.29-10.47-.43-11.95l-.6-4.06c0-.57.06-1.57.55-1.94a3.47,3.47,0,0,1,.79,1.21c.12.78.22,1.55.32,2.3a32.56,32.56,0,0,0,1.32,6.47,11.87,11.87,0,0,1,.05,2.49v0l.28.54a12.79,12.79,0,0,0,2.42,3.68,5.57,5.57,0,0,0,1.11,1.58c.78,1.46,1.6,2.95,2.39,4.39l1.06,1.91c.23.67.5,1.45.84,2.21v0h0c.38.1,1.17,1.79,1.74,3,.31.67.58,1.26.75,1.53a2.8,2.8,0,0,0,.3,1.39l.05.12h0a3.84,3.84,0,0,0,2.58-.65l.06,0,1.12-1.09a2.91,2.91,0,0,1,.48-.53,4.51,4.51,0,0,1,1-.65,3.86,3.86,0,0,1,2.11-.47h0l0,0a8.79,8.79,0,0,1,4-3.5l.55-.3h0l.09-.29c.51-.24,2.84-1.82,2.87-2.66l1.49-.86,0,0v0c.3-1.35,2.07-2.54,3.63-3.6a16.25,16.25,0,0,0,2.08-1.56l0,0v-.29a23.5,23.5,0,0,1,2.18-1.72l.58-.42h0a2.55,2.55,0,0,1,.1-.29,9.64,9.64,0,0,0,.58-1.77,1.76,1.76,0,0,1,1.58-.92,23.52,23.52,0,0,1-4.1,6.95l-.43.29c-1.44,1-2.31,1.56-4,6.08l-.24.28-.6.36a24.39,24.39,0,0,0-2.63,1.53l-.46.27c-2.37,1.36-4.83,2.77-7.09,4.3a12.65,12.65,0,0,0-3.37,2.45l-.26.17h0a1.63,1.63,0,0,0-.49.53h0c.08,2.93-1.39,3.16-2.37,3.31l-.36.07a9.57,9.57,0,0,0-2.13-.17h0a20.5,20.5,0,0,1-1.35-2.45l-.48-.34-1.71,2.59,0,0,0,0c.07.15-.15.33-.4.53a1.81,1.81,0,0,0-.61.69,15.58,15.58,0,0,1-1.34,1.73,13.39,13.39,0,0,0-1.61,2.2h0a.86.86,0,0,0,.38.82.68.68,0,0,0,.71.11l1.22-.86a9.49,9.49,0,0,0-.53,1.89l-.09.39h0a.49.49,0,0,0,.2.35,1.27,1.27,0,0,0,.87.18h0l.86-.91a5.88,5.88,0,0,1-.12.85,7.53,7.53,0,0,0-.14,1l-.32.1-1.52,2.26v0a2.63,2.63,0,0,0,.15,1.12c0,.14.08.26.1.37v0h0a.89.89,0,0,0,1.07,0l.24-.46a1.16,1.16,0,0,1,.4.78,1.34,1.34,0,0,0,.57,1c.93.54,1.8-.08,2.64-.68S203,204.65,204,205a2.25,2.25,0,0,1,.19.38,1.87,1.87,0,0,0,.39.68l0,0,1.53.1h0a2.61,2.61,0,0,1,2-.78,1.4,1.4,0,0,0,1,.84l.17,0c.92,0,2-1,2.74-1.81a5.77,5.77,0,0,1,.75-.69l1.32,1.34h0a6.16,6.16,0,0,0,2.47-.35l8.67-4.48.07.14a11.84,11.84,0,0,1,1.29,3.73c-.93.53-1.92,1.16-3,1.81-4.1,2.57-8.73,5.47-12.64,5.11H211v.06c.09.35-.56,1.14-1.09,1.43l-.15.08.17,0a77.07,77.07,0,0,1,14.83,2.45l-.38.1-3,.83h0a30.66,30.66,0,0,1-5.39,1.11,5.08,5.08,0,0,1-2.8-1.1h0A3.45,3.45,0,0,1,212,214.8l0-.06,0,0a7.69,7.69,0,0,0-1.64,1.29l0,0a3,3,0,0,0-1,2c0,.06.09.19.38.58.95,1.28,3.14,4.26,3,6.86-.47,0-4.34,0-5.9,0h0l-1.07,1,0,0c2.13,2.12,4.15,2.17,6.49,2.23h.63c-1.17,1.72-4,4.54-7.38,4.54a6.48,6.48,0,0,1-3.36-1.1l-.2-.12,0,0c-.14.16-.21.18-.26.19s-.11.05-.1.43v.61c0,1.09,1.43,1.88,2.48,2.46a4.84,4.84,0,0,1,.9.58l0,0h0a49.12,49.12,0,0,1,6.69-1.73v5.07c-.13.15-.26.33-.39.51a2.63,2.63,0,0,1-2.19,1.44,5.24,5.24,0,0,1-2.08-.59,5.24,5.24,0,0,0-2.12-.61,14.77,14.77,0,0,0-4.37,1.26l-.75.29-.09,0,3.06,2.12h.11a3.35,3.35,0,0,1,2.27.84,2.71,2.71,0,0,0-.07,2.41,1.52,1.52,0,0,0,1.2,1v2.74a11.3,11.3,0,0,1-4.34-.41,51.36,51.36,0,0,1-7.6-7.52l0,0a14.21,14.21,0,0,1-1.48-2.33.63.63,0,0,0-.32-.41,2,2,0,0,0-1.41,0h0v0a1.59,1.59,0,0,0,.77,1.34,1.48,1.48,0,0,1,.73,1.31v.07c-.1,2.17-4.62,8.37-5.57,8.94-.66.09-1.41.21-2.21.35a27.92,27.92,0,0,1-3.87.49,6.4,6.4,0,0,1-2.34-.66,6.93,6.93,0,0,0-2-.63,26,26,0,0,1,2.21-8.43v0a76.11,76.11,0,0,1,4.66-9.1s.3-.43-.42-1.53l0,0,0,0a22.91,22.91,0,0,1-3.19,1.81c-1.78.9-3.61,1.83-4.09,2.7a14.21,14.21,0,0,1-3.59.24h0v0a3.32,3.32,0,0,0-.09,2,7.84,7.84,0,0,1,.11,1.74v.07l.07,0c2.3-.64,3.59-.75,4.08-.34.3.26.26.71.21,1.19a4.9,4.9,0,0,0,0,.54,1.88,1.88,0,0,1-.13.66l0,.06h0a14.55,14.55,0,0,1-2.4,3.33c-.53.61-1.07,1.25-1.54,1.87a4.2,4.2,0,0,1-2.75.93c-.89,0-1.83-.65-3-1.48a24.18,24.18,0,0,0-2.61-1.64,2.44,2.44,0,0,1,.35-1.17,4.47,4.47,0,0,0,.37-.95c.5.34,1,.66,1.57,1s.92.53,1.33.81l.09.06v-.11a5.88,5.88,0,0,1,.72-2.41l.14-.31h0a18.65,18.65,0,0,0,.85-2.25v0h0a18.68,18.68,0,0,0-4.61-.08c-1.28.08-2.72.17-4.31.13a2.87,2.87,0,0,0-.78-1.46l-.44-.58a1.31,1.31,0,0,1,.91.38,2.56,2.56,0,0,0,1.68.65,2.38,2.38,0,0,0,2.13-1c.17-.17.36-.37.6-.59l0,0,0,0c-.44-.6-.9-1.2-1.39-1.84-2.26-2.93-4.6-6-4.6-8.91a4.2,4.2,0,0,1,.36-1.75,5.68,5.68,0,0,0,.39-1.43,21.4,21.4,0,0,1,2.55,2.24c2.13,2.05,4.54,4.37,8.07,5.06h0l0,0c.87-1.17-.25-2.22-1.16-3.06a5.24,5.24,0,0,1-.85-.91,7.54,7.54,0,0,0-2.41-2.23A5.53,5.53,0,0,1,163.6,224c-.11-.47-.19-1-.27-1.56a10.69,10.69,0,0,0-1.25-4.23v-2.66a21.18,21.18,0,0,1,2.32.62h0a35.21,35.21,0,0,1,5.56,2.31l0,0,1-1,0,0,0,0a3.48,3.48,0,0,1-.38-1.32h0c0-.12,0-.25,0-.37a4.84,4.84,0,0,0-.38-1.69,22.39,22.39,0,0,0-2-2.88c-.49-.65-1-1.28-1.26-1.75a8.58,8.58,0,0,1-1.16-4.59A13.55,13.55,0,0,0,170,210.2c1.58,1.18,3,1.58,3.57,1.45a.42.42,0,0,0,.39-.42c0-.74-1.11-2.69-2.29-4.76s-2.46-4.3-2.41-5.06v-3.84l.09.07c2.9,2.62,5.32,5,7.83,7.63l0,0,1.54-1.55,0,0,0,0c-.43-.37-4.19-3.71-4.19-5.35,0,0,0-.05-.19-.14a6.86,6.86,0,0,1-3.62-4.21c-.38-1.33-.91-3.44-1.25-5.17v0a14.47,14.47,0,0,1-.33-2.43,26.64,26.64,0,0,1,1.43-6.78,39.27,39.27,0,0,1,3,7.56c.17.55.35,1.1.53,1.65h0l0,.06c1.56,4.7,3.41,9.43,7.31,11.06h2.29l1-1,0,0,0,0a24.75,24.75,0,0,0-3.85-5c-1.42-1.48-2.44-2.56-2.69-5,0-.4-.06-.83-.06-1.27a2.31,2.31,0,0,0-.7-1.68,2.78,2.78,0,0,1-.72-1.27,125.21,125.21,0,0,1-2.18-13C174.6,170.26,175.68,167.35,176.75,165.06Zm17.12,39.25a1.46,1.46,0,0,1,.25.39c.25,0,.51.1.76.1a1.35,1.35,0,0,1,.42-.2,1.46,1.46,0,0,1,.25-.39,4.4,4.4,0,0,0,.85-2.94A3.43,3.43,0,0,0,193.87,204.31Zm-10-11.66a2.3,2.3,0,0,1-.08.39c0,.2.08.49.08.69.34.29.59.49.85.68.16-.09.33-.09.42-.19a.28.28,0,0,0,.25-.1c0-.2.08-.39.08-.59v-.78l-.25-.29-.5-.3c-.09.1-.26.1-.43.2A1.69,1.69,0,0,1,183.92,192.65Zm-1.68-1.86c.33.29.59.49.84.69.17-.1.34-.1.42-.2a.28.28,0,0,0,.25-.1c0-.19.09-.39.09-.59v-.78l-.26-.29-.5-.2a.92.92,0,0,0-.59.2,1.62,1.62,0,0,0-.25.58Zm18.58,11,.34-.35.33-.37a16.3,16.3,0,0,1,.66-1.68c.42-1,.89-2.16.94-2.43h0c.08-.29.25-.67.4-1v0a9.7,9.7,0,0,0-.49-1,5.26,5.26,0,0,1-.57-.85,9.8,9.8,0,0,1-1.39.15,8.42,8.42,0,0,0-2.34.34l.56,2.54h0a18.19,18.19,0,0,0,.71,3.13v0a2.78,2.78,0,0,0-.18,1.6,6.14,6.14,0,0,1,0,.86A6.1,6.1,0,0,0,200.82,201.78Zm7.73,65.55h0c2.83.59,6.18,0,9.68-1.67a37.83,37.83,0,0,0-.07-4.68v-.09l.08,0c.51.21,1.28.44,1.37.29a5.54,5.54,0,0,1,1-1.28,4.72,4.72,0,0,0,1.42-2.17,11.26,11.26,0,0,1,.83-2.43,6.58,6.58,0,0,0,.74-2.58,16.6,16.6,0,0,0-4,.17,6.74,6.74,0,0,1-1,2.72c-.15.27-.29.52-.41.77a6.6,6.6,0,0,1-2.3,2,13.45,13.45,0,0,0-2.69,2.15,3,3,0,0,0-.16.49c-.26.91-.8,2.79-1.74,3.44a6.9,6.9,0,0,1-1.65.74,6.21,6.21,0,0,0-2.64,1.49A1.75,1.75,0,0,0,208.55,267.33ZM292.37,162.4a18.65,18.65,0,0,1,2.69-.44,17.57,17.57,0,0,0,2.63-.44c.81-.29,5.05-3.85,4.5-6l-.49,0c-3.07,0-5.22,2.39-7.5,4.9C293.61,161.09,293,161.77,292.37,162.4Zm-15.06-4.1h0a7.55,7.55,0,0,0,5.72-4.45,11,11,0,0,0-4.13-.83,5.89,5.89,0,0,0-3.43.93c-1.46,1-2.08,2.9-1.82,5.54Zm13.48-1.22c2.2-1,4.47-2.06,4.8-3.83a.64.64,0,0,1,0-.07v0h-3.86a11.48,11.48,0,0,1-2.66,1.58c-1.57.74-2.92,1.37-3.43,3.59h2.65C289.06,157.88,289.94,157.47,290.79,157.08ZM244,167.35c.54-.09,1-.61,1.23-1.53v0h0c1.1-1,2.78-3.39,2.92-4.87a1,1,0,0,0-.48-1.11c-1.92.5-4.25,1.29-5.26,2.95h0a4.52,4.52,0,0,0-.42,3.44C242.34,166.66,243.18,167.49,244,167.35Zm26.93-11.49a7,7,0,0,1,1.29-2,19.29,19.29,0,0,0-4.09,0l-.88,5.19C269,159.51,270,157.57,270.92,155.86Zm-11.24,4.66c2.58-1.82,4.62-4.37,4.48-5.17a.27.27,0,0,0-.21-.23h0a13,13,0,0,0-2.92,0c-.57.05-1.17.09-1.73.09-1.6,0-2.08.76-3,2.77l-.26.6c-.38.9-.86,2-1.53,3.36C256.07,162.77,258.41,161.41,259.68,160.52Zm48.47.94a15.6,15.6,0,0,0,4.12-1.45,20.22,20.22,0,0,1,3.13-1.22c-2.86-2-4.06-1.32-5.21-.65a4.77,4.77,0,0,1-1.22.55c-2.38,1-2.79,1.68-2.71,2.05S307.3,161.46,308.15,161.46Zm76.46.84a2.91,2.91,0,0,0,2.62,1.49h.63a15.58,15.58,0,0,0,4.75-.6c2.54-.76,12.29-4.84,16.07-8.13a4.43,4.43,0,0,0,1.46-1.86,86.8,86.8,0,0,1-11.25,3.94l-2.05.62a84.73,84.73,0,0,0-12.23,4.54Zm21.14-.43a3.64,3.64,0,0,0-.91.63,11.71,11.71,0,0,0-1.61,1.72,3.27,3.27,0,0,1,.76.31,3.54,3.54,0,0,0,1.84.46,145.28,145.28,0,0,0,17.48-3.26A66.5,66.5,0,0,0,413,160.29a5,5,0,0,0-.5,0,27.55,27.55,0,0,0-3.2.72C408.1,161.37,406.84,161.7,405.75,161.87ZM319.4,164c.59,0,1.43-.07,2.31-.13a26.12,26.12,0,0,1,3.73-.12c3.33.33,5.66-.38,6.74-1.16.48-.35.71-.71.62-1s-.47-.4-1.07-.4h0c-1.05,0-2.53-.1-4-.16-2.1-.1-4.28-.2-5.23-.2h-.86c-1.7,0-4.33.08-5.34,1.09a.34.34,0,0,0-.05.39A4.24,4.24,0,0,0,319.4,164Zm45-2.66,11.46-1c.34-.06.94-.13,1.7-.23,2.47-.33,7.08-.92,7.34-1.4a.08.08,0,0,0,0,0s0-.06-.17-.12c-3.79-1.52-10.91-.36-16.11.49-2,.32-3.68.59-4.77.65l-.16,0c-3.36-.45-5.36-.35-5.49.27a3.12,3.12,0,0,0-.07.51,1.39,1.39,0,0,0,.41,1.22C359.42,162.43,361.8,162,364.37,161.38ZM232.23,246.13a21.12,21.12,0,0,0-1.95,4.53c-.13.39-.27.78-.41,1.19H230a3.15,3.15,0,0,0,1.76-.81,3.35,3.35,0,0,1,1.94-.87,7.9,7.9,0,0,0,1.86-.25c.62-.15,1.09-.32,1.21-.36.12-.84-1.59-4.13-2.57-5.78A11.62,11.62,0,0,0,232.23,246.13Zm-5.68-33.74c.61,0,.66,0,1.09-.52l.25-.26a3,3,0,0,0,.57-2.37l0-.29h-2.08l-1.22,1.17h0a15.42,15.42,0,0,0-3.05.13,5.6,5.6,0,0,0,3.79,2.13Zm2.55,31.06h0l.09-.08a10.5,10.5,0,0,0,1.23-1.37,4.66,4.66,0,0,0,1.08-2.57c0-1.08-1.92-3.84-5.7-8.21a37.2,37.2,0,0,1,.32,5.2c0,.76-.07,1.48-.14,2.14a.29.29,0,0,0,.34.22h0a.38.38,0,0,1,.28.09,1.3,1.3,0,0,1,.18.86,9.74,9.74,0,0,1-1.16,3.31l-.19.39a16.19,16.19,0,0,0-1,2.43A8.17,8.17,0,0,0,229.1,243.45Zm4.9,13.08c0,1.17.78,1.72,1.55,2.25l.52.38c.4-.55,1-1.24,1.58-2,.48-.57,1-1.17,1.44-1.76.86-1.07,2-2.6,2-3.41s-.19-1-.4-1.16a.84.84,0,0,1-.37-.52,24.05,24.05,0,0,1-3.11,2.79l-.2.16C235.39,254.58,234,255.69,234,256.53Zm-19.95-6.83c.6,0,1-.8,1.54-2A23.27,23.27,0,0,1,217,245h-3.71c-1.56-.09-4.28.32-5,1.16a8.33,8.33,0,0,1,2.69,1.73C212.13,248.76,213.28,249.7,214.05,249.7Zm8,17.46a5.8,5.8,0,0,0,2.06,2.2,37.73,37.73,0,0,1,6-4.72,41.35,41.35,0,0,0,3.74-2.7,15.69,15.69,0,0,1-1.23-1.65,5.81,5.81,0,0,0-2-2.2c-2.15,1.75-4.25,3.29-6.11,4.65-1.35,1-2.62,1.92-3.69,2.77A16.55,16.55,0,0,1,222,267.16Zm8.08-51.09h0v.06c-.09.51-.17,1.05-.23,1.6H233a4.18,4.18,0,0,0,2.73-1.23l.19-.15.14-.11v-.05a.25.25,0,0,0,0-.08,28.44,28.44,0,0,1,1.59-7.48,11.11,11.11,0,0,1,1.76-2.59c.87-1.07,1.7-2.09,1.7-2.91v-.47a11.31,11.31,0,0,1,1.15-5.63c-2.86-.35-6.22.46-7.87,1.91a2.38,2.38,0,0,0-1,1.79,15.78,15.78,0,0,1-.35,3.13,9.84,9.84,0,0,0-.25,2,16.63,16.63,0,0,1-.88,3.41c-.48,1.53-1.08,3.43-1.52,5.39C230.28,215.16,230.19,215.63,230.11,216.07Zm15-2.18h0c-.15,1-.16,1.73.26,2.19l.07.07c.57.53,1.83.73,4.41.73a1.88,1.88,0,0,0,1.3-.8h0a6.25,6.25,0,0,0,1-1.75,6.58,6.58,0,0,0,.39-2.19c0-.75.16-2.28.3-3.75s.3-3,.3-3.75a9,9,0,0,0-.59-2.53,8.9,8.9,0,0,1-.61-2.57,24.26,24.26,0,0,1,.47-3c.42-2.27.95-5.09.51-5.59a25.46,25.46,0,0,1-4,1.71c-1.87.68-3.35,1.22-3.35,2.08,0,1.49-.47,12.81-.47,12.92s.74,4.47.37,5.83C245.38,213.74,245.25,213.89,245.09,213.89ZM250,266c-1,.63-1.92,1.09-2.62,1.47l-.3.16c-1.57.85-2.42,1.36-3.11,2.7a7,7,0,0,0-.31.69l2.66,2.58a7.91,7.91,0,0,1,2-1.36c1.67-.92,3.57-2,3.56-3.79A3.45,3.45,0,0,1,250,266Zm-35.12,13.34a7.55,7.55,0,0,1,.65.89c.06.11.12.2.16.29.18.33.32.63.44.9a3.6,3.6,0,0,0,.7,1.19l.79-.18,1.3-.3.28-.07.16,0a26.26,26.26,0,0,0,5.55-1.9v-2l-1.81-1.87c-.26-.57-.55-1.4-.87-2.37-.84-2.45-2-5.81-3.54-6.72l-.61.39a12.53,12.53,0,0,1-4.41,2.18c-.1,2.11.19,3.4.9,3.93s1.88.19,3-.18c.9-.31,1.75-.61,2.26-.25a1.61,1.61,0,0,1,.46,1.37C220.2,275.73,218.44,277.29,214.83,279.29Zm27.82-18.6a9.94,9.94,0,0,0-3.83,2.34,2.83,2.83,0,0,0,.61,1.62,3.84,3.84,0,0,1,.69,1.66l1-.26c1.43-.38,2.91-.78,4.28-1.21l.14,0,.95-.31v-2.06a10.12,10.12,0,0,1-.81-1,1.82,1.82,0,0,0-1.79-1A4.21,4.21,0,0,0,242.65,260.69ZM134,168.55c1.39.9,7,4.24,9.05,4.24.68,0,2.6-1.09,4.58-2.58s3.47-3,3.47-3.67c0-1.41-5.31-5-6.85-5-2.9,0-15.93,7.37-16.93,8l-.88.56a18.69,18.69,0,0,1-2.37,1.39c-.34.17-.66.32-1,.47l.29.25c2.94,2.55,6.28,5.44,7.71,5.44a3.26,3.26,0,0,0,1.6-.62,11.13,11.13,0,0,0,2.84-2.65c-.77-.89-3-4.22-3.1-5.72v0H134Zm15.48,100.71c.89,0,1.79,0,2.67,0l.65,0a26.24,26.24,0,0,0-3.24-2.61,18.12,18.12,0,0,0-2-1.18,7.15,7.15,0,0,0-3-.9,2.25,2.25,0,0,0-1.89.87l0,.05a.86.86,0,0,0-.07.1h0a6.38,6.38,0,0,0-.58,3.8C144.46,269.32,147,269.26,149.49,269.26Zm11.69,227.17a4.55,4.55,0,0,1-.36-.43c-2-2.3-3.09-4.26-3.09-5.84a4.23,4.23,0,0,1,.83-2.71,2.7,2.7,0,0,1,2.21-1.05,6.46,6.46,0,0,1,3.47,1.25,21.43,21.43,0,0,1,3.95,3.59V475.41a22.58,22.58,0,0,0-5-2.64,13.51,13.51,0,0,0-4.66-.89,11.25,11.25,0,0,0-9.43,5c-2.44,3.34-3.68,7.65-3.68,12.82a23.08,23.08,0,0,0,1.53,8.46c1,2.63,3.31,6.3,7,11.22,2.07,2.81,3.12,5,3.12,6.45a5,5,0,0,1-.93,3.11,2.89,2.89,0,0,1-2.4,1.25,7.06,7.06,0,0,1-3.81-1.53,28,28,0,0,1-4.63-4.35V531.2a20,20,0,0,0,5,3.52,11.68,11.68,0,0,0,4.94,1.14,12.4,12.4,0,0,0,10.48-5.45c2.62-3.62,3.95-8.49,3.95-14.47a25.39,25.39,0,0,0-1.58-9.37C167.06,503.93,164.73,500.52,161.18,496.43Zm39.64-16.19c2.78,5.55,4.18,13.51,4.18,23.67s-1.4,18.08-4.17,23.62-6.71,8.33-11.76,8.33-9-2.81-11.82-8.36-4.2-13.49-4.2-23.59,1.42-18.09,4.21-23.65,6.77-8.38,11.81-8.38S198.05,474.69,200.82,480.24ZM193,503.5q0-9.71-.87-13.21t-3-3.5q-2.2,0-3.09,3.55t-.88,13.16q0,9.62.88,13.15c.59,2.34,1.62,3.52,3.09,3.52s2.46-1.16,3-3.48S193,510,193,503.5Zm-60-30.4H121.06v61.55h20.7V519.44H133Zm95.72,32.38h-.09L222,473.1H210.2v61.55H221V503.83h.1l6.66,30.83h11.7V473.1H228.71Zm25.35-49.54-.06,0-3.49-.77-7.82-1.78c-26.79-6.16-63.48-14.6-90.29-1.06v4.52c7.56-3.56,17.64-5.31,30.59-5.31q5.52,0,11.72.42c16.44,1.12,36.68,4.39,63.69,10.29V356l-4.34-.93ZM83.74,509.53h-.1L79.8,473.1H70.26l-3.9,36.43h-.1L63.45,473.1H51.65L60,534.65H70.85L75,496.14h.1l4.11,38.51H90.08l8.35-61.55H86.64ZM152.4,445.2c8-4.08,17.77-6,30.3-6q3.18,0,6.61.17c14.41.7,32.59,3.59,58.92,9.35V342.47l-4.34-.93V443.06l-.06,0-3.48-.77c-3.41-.76-6.82-1.55-10.12-2.32-27.1-6.3-52.7-12.25-77.83,1.39Zm-5.83-11V328.16c-16.83-10.66-34.46-10.51-85.66.76V435.8c25.62-5.61,41.83-8.12,54.2-8.41C128,427.09,137.4,429.14,146.57,434.23ZM102.34,534.65H114.2V473.1H102.34ZM50.74,342.47V448.68c26.34-5.76,44.51-8.65,58.93-9.35,15.78-.77,27.51,1.1,36.9,5.87v-3.86c-25.12-13.64-50.72-7.69-77.83-1.39-3.3.77-6.71,1.56-10.11,2.32l-3.55.79V341.54Zm95.83,109.84c-26.81-13.54-63.5-5.1-90.28,1.06-2.74.63-5.32,1.22-7.83,1.78l-3.54.79V355.1l-4.34.93v106.2c27-5.9,47.25-9.17,63.68-10.29,18.76-1.27,32.61.33,42.31,4.89ZM312.69,191.46l-.28-.24a33.36,33.36,0,0,1-2.46-2.35l0,0a47.12,47.12,0,0,1-6.34-9,12.81,12.81,0,0,0-.93-1.53,33.16,33.16,0,0,1-3.77,2.84c-1.93,1.31-3.59,2.44-3.59,3.3a7.7,7.7,0,0,0,.94,1.84c.4.69.9,1.55,1.4,2.52l0,0a22.46,22.46,0,0,1,2.63,7.6,11.37,11.37,0,0,1,0,2.6,2.73,2.73,0,0,0,2.31,1.39c.27-.12,10.39-5.28,10.81-7.77a.72.72,0,0,0-.29-.75Zm64-21.91c.34-.89.61-1.74.23-2.24s-.92-.54-2-.48c-9.94-.08-16.06.32-17.94,2.55a2.5,2.5,0,0,0-.53,2.14,15.52,15.52,0,0,1,2.74.65,14.64,14.64,0,0,0,3.29.73c1.47,0,6.94.49,7.19.51,1.66-.39,4-1.68,6.94-3.83Zm-13.59,6.8a16,16,0,0,0-3.31-.41c-.35,0-.6,0-.73-.05a7.66,7.66,0,0,0-2,.29,8.73,8.73,0,0,0-4.17,2.42,40.72,40.72,0,0,0,13.58,0A4.83,4.83,0,0,0,363.09,176.35Zm36.6-7.84a34.42,34.42,0,0,1-3.52-1,16.12,16.12,0,0,1-1.51,1.1,17.51,17.51,0,0,0-2.81,2.21,19.82,19.82,0,0,1,3.65.61c1.34.33,2.68.74,3.86,1.1a18.23,18.23,0,0,0,3.47.87,36.92,36.92,0,0,0,4-.43c1-.14,2-.28,2.79-.36-2.51-2.26-6.24-3.18-9.54-4Zm-43.56-1.36c-2.77.84-5.93-.32-8-1.1l-.9-.32-5.94.44c.55,1.17,2.49,2,4,2.4,3.62,1.05,8.18,1.25,9.1.64ZM238.07,435.8V328.92c-51.2-11.27-68.83-11.42-85.67-.76V434.23c8.6-4.77,17.42-6.87,29.08-6.87l2.39,0C196.23,427.68,212.44,430.19,238.07,435.8ZM387.26,173.67a12.67,12.67,0,0,0-1.74-.82,10.35,10.35,0,0,0-3.69-.56,8.1,8.1,0,0,0-2.17.61c-1.42.52-3.25,1.31-4.72,1.95-1.18.51-2.16.93-2.67,1.11,6.38.22,22,.55,22.44-.34a.07.07,0,0,0,0-.06A14.78,14.78,0,0,1,387.26,173.67Zm-109,189.24c-.44-1-.91-2-1.37-3-.11-.25-.22-.49-.34-.74s-.36-.79-.55-1.19c-.28-.6-.59-1.19-.89-1.79s-.68-1.36-1-2l-.51-1-.38-.68c-.61-1.14-1.24-2.27-1.88-3.39-.4-.7-.81-1.38-1.22-2.07s-.71-1.19-1.08-1.78-.84-1.36-1.28-2-.8-1.23-1.2-1.84c-.54-.8-1.08-1.61-1.63-2.4s-1.26-1.81-1.91-2.7c-.42-.58-.86-1.15-1.29-1.73s-1-1.27-1.45-1.9-.87-1.12-1.32-1.67c-.58-.72-1.17-1.43-1.76-2.14-.43-.52-.87-1-1.31-1.55-.83-1-1.68-1.92-2.53-2.87-.41-.44-.83-.88-1.24-1.33-.64-.68-1.29-1.37-1.95-2-.41-.43-.82-.85-1.24-1.27-.85-.85-1.71-1.7-2.59-2.53l-.83-.79q-1.5-1.41-3-2.76l-1.18-1c-.8-.69-1.6-1.36-2.41-2l-1.17-1c-1.15-.93-2.31-1.85-3.49-2.74l-.72-.53c-1.05-.78-2.1-1.55-3.17-2.31-1.27-.89-2.55-1.76-3.86-2.62l0,0-.09-.06-2.23-1.42-.85-.53A141,141,0,0,0,203,289.12c-1-.42-2.06-.86-3.1-1.26l-.36.61a16.79,16.79,0,0,0-.75,2c-.94,2.81-2.1,6.31-5.43,5.55-1.11.76-1.92.85-2.41.27l0,0v0a4.6,4.6,0,0,0,.43-3,3.6,3.6,0,0,1-1.78.84h-.07c0,.74-.13,1.13-.37,1.18h-.06c-.52,0-1.44-1.4-2.82-4.28l-.13-.27h0v0c0-1.18.1-2.47.2-3.72s.19-2.39.2-3.51c-1.07-.29-2.16-.56-3.22-.82h0a139,139,0,0,0-14.06-2.72l-.14,0c-1.1-.16-2.25-.32-3.38-.45-.1.16-.18.32-.25.46l.12,4.26,0,0c-.57.59-1.17,1.25-1.75,1.89-2.06,2.26-4,4.4-5.18,4.4-.8,0-.8-.35-.8-.65s0-.55-.69-.55a.47.47,0,0,0-.17.18l-.07.1v0h0a2.57,2.57,0,0,1-.4-.05l-.21,0a1.8,1.8,0,0,0-.59.74,2.58,2.58,0,0,1-.63.83l0,0,0,0c-3-3.73-3.29-5.28-3.29-8.43v-.31a.83.83,0,0,1-.34-.42v-1.09l.39-2.28c-.84,0-1.58,0-2.27,0H148.4C71.69,279.11,9.28,342,9.25,418.7h25.5V351.35h0c2.39-.53,6-1.33,10.13-2.19V337.8h0l4.14-.93,6-1.34V324.24h0c3.1-.69,6.24-1.42,9.56-2.2C78,318.92,93,315.4,107.62,314.61c16.76-.91,30.45,1.9,41.87,8.59,11.42-6.69,25.12-9.5,41.86-8.59,14.62.79,29.67,4.31,42.94,7.42,3.33.78,6.46,1.51,9.56,2.2h0v11.28l5.85,1.31,4.28,1h0v11.35c4,.84,7.52,1.61,10.13,2.19h0V418.7h25.51a140.52,140.52,0,0,0-11.22-55.06Zm66.87-189.63c-1.32.05-4.88,3.81-4.91,3.85h0l-6.93,1,.1-.11,5.32-5.86c-1.26-.33-3.36-.77-3.38-.78-2.07-.57-4.14-1.06-6.32-1.5-.85,1.55-4.05,3.12-6.38,4.27-1.32.64-2.57,1.25-2.63,1.53a21.29,21.29,0,0,0,4,1.85c2.08.79,4.05,1.54,4.91,3.09l.63.36c.25,0,3.87.11,5.68,2.49l.06.08.12.15a6.06,6.06,0,0,0,1.78.45c1.46,0,3.35-1.19,5-2.3.68-.44,1.93-1.33,3.27-2.28,1.75-1.24,3.73-2.65,5-3.44a7.84,7.84,0,0,1,1.11-.63.17.17,0,0,0,0-.18C351.08,174.66,347.64,173.31,345.08,173.28Zm-52.16,18c-.23-.82-.45-1.65-.68-2.47v-.07h0c-.47-1.71-1.05-3.89-1.46-5.63-2.65.36-5,.86-6.95,1.26a26.81,26.81,0,0,1-4.41.72,33.43,33.43,0,0,1-6.49-.59h0v0a3.26,3.26,0,0,0,0-1,4.23,4.23,0,0,1,0-1.29v0h0L276,182c4.17-.3,8.48-.62,12.26-1.22a15.32,15.32,0,0,0,5-2.26c.71-.42,1.38-.82,2-1.14a9.07,9.07,0,0,0,2-1.81c1-1.05,2-2.13,2.88-2.13a4.51,4.51,0,0,0,1.63-.3,4.71,4.71,0,0,1,1.67-.3,20,20,0,0,1,2.26.1l1.26,0a28.29,28.29,0,0,0,5.24-.51c.21-.06.87-.18,1.7-.34,1.46-.29,3.46-.67,4.09-.87a51.13,51.13,0,0,0,8-3.87l.14-.08c-.66-.81-1.19-.88-2.61-.88a2,2,0,0,0-1.47.59,2.21,2.21,0,0,1-1.53.61c-.33,0-.89,0-1.6-.05a58.32,58.32,0,0,0-9.84.2,32.77,32.77,0,0,0-5.34,1.67,16.61,16.61,0,0,1-3.92,1.18h-.47a3.67,3.67,0,0,1-2.69-.79.9.9,0,0,1-.33-.72c-.06-.46-.12-.89-1-.89a20.6,20.6,0,0,0-3.88.89,20.45,20.45,0,0,1-3.92.91,8.9,8.9,0,0,1-2.57-.61,9,9,0,0,0-2.53-.59c-.73,0-2.63,1.36-4.47,2.69s-3.76,2.7-4.53,2.7h-.86a.92.92,0,0,1-.89-.33l-.11-.11h0v0c0-2,1.11-3.54,2.22-5.05s2.17-3,1.81-4.63a9.87,9.87,0,0,1-2.53,1.31,6.73,6.73,0,0,1-2.24.21,4.26,4.26,0,0,0-.73,0,26.17,26.17,0,0,0-7.74,3.4,24.2,24.2,0,0,0-4.34,3.93c-2.27,2.38-4.6,4.84-7.27,4.84-.29,0-.47-.07-.56-.21s.08-.69.36-1.25a4.19,4.19,0,0,0,.64-1.84,1.69,1.69,0,0,0-.36-1.26.54.54,0,0,0-.36-.17c-1.37.33-2.62.65-3.83,1a38.61,38.61,0,0,1-7.86,1.52,67.92,67.92,0,0,1,.11,13.43l-.06.67c.55-.25,1.12-.49,1.69-.73h0c3.21-1.32,6.62-2.36,9.92-3.37a78.61,78.61,0,0,0,13-4.81h0l1,.94v0a3.78,3.78,0,0,1-1.39,3.24L263,185a19,19,0,0,1-6.19,3.91h0q-.44.18-1,.36a3.69,3.69,0,0,1-.37,1.18,4.35,4.35,0,0,0-.49,1.92c0,2.14,2.49,6.44,2.52,6.48v.05a8.87,8.87,0,0,0-1.32,4.27,1,1,0,0,1-.12.5c-.12.24-.28.54,0,2,1.09.52,1.54,4.51,1.68,6.21,0,.41.05.67.05.68a23.93,23.93,0,0,1,.26,2.78h2a31.77,31.77,0,0,1,3.53-1.35,25.69,25.69,0,0,0,4.18-1.69,47.23,47.23,0,0,0,1.33-6.69,16.21,16.21,0,0,0,.15-1.87,43.14,43.14,0,0,0-1.2-5.53,43.3,43.3,0,0,1-1.2-5.57v-5.09c0-.53.16-.86.46-1a1.58,1.58,0,0,1,1.47.5v0c.19.62.35,1.18.51,1.72.24.83.44,1.55.63,2.22a85.47,85.47,0,0,0,2.85,8.68,21.2,21.2,0,0,1,2.78,7.16,7.33,7.33,0,0,1-.07,2.68c0,.16,0,.29-.06.38l4.11-1h0a3,3,0,0,0,2.27-.83,5.26,5.26,0,0,0,1.24-3.77,2.5,2.5,0,0,0,0-.25c-.09-.7-.46-2.19-.94-4.07-.79-3.13-1.87-7.42-2.42-11.18v-.06h.05c-.14-1-.25-2-.3-2.84a20.41,20.41,0,0,0,1.22,2.84h.05l0,0c.83,1.66,1.76,3.28,1.77,3.29v0h0c-.08,1.49,1,4.1,3,5.89s3,3.58,2.85,5.16a5,5,0,0,1-1,2.3,2.17,2.17,0,0,0-.45.84l5.35-.79c2.88-1.35,2.88-2.34,2.88-5.26a15.77,15.77,0,0,0-.51-2.56C294.19,196,293.57,193.72,292.92,191.31Zm35.47-5-1.79-1.42c-.19-.13-4.69-3.14-5.38-4.19-3.23-2.42-3.87-2.51-6.08-2.51-1.08,0-6.84-.89-7.51-1-.12,2.32,2,3.82,4.23,5.41,2,1.42,4.05,2.88,4.62,5,.1.19.27.54.49,1l.08.16a25.7,25.7,0,0,0,1.28,2.39,2.23,2.23,0,0,0,.71.8c.78.28,5.79-1,9-3.11h0l.14-.1a7.11,7.11,0,0,0,1.6-1.41c-.19-.12-.64-.47-1.27-1ZM10.55,363.64l0,.05h0Zm100-266.45c5.42,4.64,6.91,4.61,7.32,4.18.63-.66-.45-3-1.45-4.08-1.44-.19-5.3-2-5.73-2.94a2.31,2.31,0,0,0-.25,2.38C110.52,96.89,110.56,97,110.59,97.19Zm9.83,29.5a12.42,12.42,0,0,1-2.86.6A.64.64,0,0,1,117,127c-.36-.56.24-1.87.77-3,.12-.27.24-.51.33-.74a6.89,6.89,0,0,1-2.85-2.33c-1.65-1.9-3.5-4-9-4l-1.13,0c-.62,1,1.52,5,1.68,5.27a4.09,4.09,0,0,1,1.89,1.6c.73,1,1.49,2,4.68,2.59l.1,0-1.3,1.21-3.84.31h0a12.74,12.74,0,0,0-3.9,1.39,23.71,23.71,0,0,1-2.83,1.16,41.43,41.43,0,0,1-6,1.12,2.4,2.4,0,0,0-.28,0l-.43,0a11.16,11.16,0,0,0,1.62,2l0,.05a3.36,3.36,0,0,1,1.26,2.22c0,1,0,1.74,0,2.36,0,.32,0,.58.06.8l.78,0c1.47.05,2.53.05,3.78,0v-2.64a10,10,0,0,0-2.33-3.49l0,0,0,0,1.52-1.56,0,0c.89,1.32,6.42,7.78,9.57,7.78a9.28,9.28,0,0,0,3.1-1.32c1.46-.8,3-1.62,4-1.62h.13c.63-.15,4.06-.68,5.71-.24l.06,0,0,.05c-1.06,2.37-6.65,4.1-12.06,5.77a60.34,60.34,0,0,0-8.31,3,9.25,9.25,0,0,0-1.22.7,18.61,18.61,0,0,1,1.69,3.3c1.35,3,3,6.7,4.59,6.7a4.82,4.82,0,0,0,1.83-.53c.39-.17.8-.37,1.19-.57a10.51,10.51,0,0,1,2.5-1c-.43-.49-.82-.9-1.17-1.27-1.1-1.16-1.76-1.86-1.76-3,0-1.47-.08-2.59-1.18-3.54l0,0,1-1,0,.05a7,7,0,0,0,4.64,2.72h0l0,0c.09.13.19.31.31.52.62,1.07,1.76,3,4.24,3h.22l0,0a4.58,4.58,0,0,0,3.71,2.64c.74,0,2.79-1.07,4.78-2.1s4.06-2.1,4.82-2.1c1.53,0,1.65,1.9,1.65,1.92v0h0c-2.87,1-5.62,2.19-8.29,3.3a100.85,100.85,0,0,1-9.53,3.65,1,1,0,0,0-.11.31.73.73,0,0,1-.58.64,13.61,13.61,0,0,1-3.23,1.29,18.25,18.25,0,0,1-2.86.5,51.69,51.69,0,0,0,3.47,4.37c.78.91,1.52,1.77,2.09,2.54a3.7,3.7,0,0,1,2-.64l.59-.08c-.37-.62-.77-1.23-1.17-1.82a15.6,15.6,0,0,1-1.52-2.6,2.91,2.91,0,0,1-.25-1.08c0-.89.15-1,.25-1.08s.21.07.25.11a53.16,53.16,0,0,1,5.47,2.57c2.25,1.16,4.37,2.25,5.18,2.25,1.44,0,10-4.66,15.22-8a2,2,0,0,0-.83-.51,1.16,1.16,0,0,1-.94-1.31c0-1.47-3-8.05-4.45-8.05a2,2,0,0,0-.36,0c-.21,0-.38,0-.49-.05a.44.44,0,0,1-.1-.33c0-4.05-2.51-5.67-5.41-7.54a20,20,0,0,1-4.8-3.91h0v-1.65h0a18.75,18.75,0,0,1,5.36-3c-2-3.45-4.45-5.13-7.41-5.13A12,12,0,0,0,120.42,126.69ZM164.3,148.5l.34.27,1.46-1.45c-.42-1.36-.89-2.09-1.4-2.19h-.12c-.48,0-.93.56-1.23.95s-.31.39-.41.39h0A3,3,0,0,0,164.3,148.5Zm-27.38-16.94a1.76,1.76,0,0,1-.68,1.25,1.54,1.54,0,0,0-.63,1.33c0,1,1.17,4.2,2.11,6.75.42,1.14.82,2.21,1.05,2.93A30,30,0,0,0,142,150a7.67,7.67,0,0,1,1.4,2.73c0,1.14,4.08,5.38,6.78,8.19.82.85,1.54,1.6,2,2.13v0a7.55,7.55,0,0,0,1.42,1.18c1.52,1.14,3.59,2.7,3.59,3.72a1.25,1.25,0,0,1-.4,1,1.66,1.66,0,0,1-1.21.3h0l-1.13-1.16a32.66,32.66,0,0,1-3.81,2.87c-1.87,1.28-3.64,2.49-3.64,3.36s-1.39,2.53-2.86,4.2c-.5.57-1,1.16-1.49,1.75s-.74.92-1,1.31c1.18.48,2.46,1,3.75,1.46,3.88,1.4,6.63,1.88,8.63,1.52a30.56,30.56,0,0,0-3-2.13c-1.45-.94-2.5-1.61-2.31-2.18v0l1-.88h0a43.76,43.76,0,0,0,9,3,10.39,10.39,0,0,1,3.5-3.15,19.35,19.35,0,0,0,3.55-2.8l0,0,1.26,1.18c.57-1.27,1.38-2.7,2.17-4.09,1.15-2,2.24-3.94,2.24-4.82,0-1.29-1.89-2.67-3.27-3.68-.89-.65-1.53-1.12-1.53-1.42,0-1.43-11-15.54-11.66-16.43a6.55,6.55,0,0,0-1.05,1.3c-.4.63-.69,1.08-1.64,1.08-.66,0-3.05-1.26-5-2.47-.95-.61-4.07-2.64-4.07-3.58a4.38,4.38,0,0,1,.6-2,4.17,4.17,0,0,0,.6-1.93c0-1.45-1.76-4.79-3-7.23l-.08-.15c-.58.68-1.61.32-2.8-.1C138,131.88,137.49,131.69,136.92,131.56Zm2.46-4c.09,0,.11,0,.11,0s0,0,0-.14a28.76,28.76,0,0,1-1-7.42c0-.89.2-1.1.31-1.23s.1-.1,0-.28l-.19-.14c-.95-.73-1.93-1.49-1.93-2.93s0-2.3-.11-3.62h-.92l-.13.23a7,7,0,0,0-1.14,3.47v4.8C134.41,122.86,138.51,127.2,139.38,127.58Zm32.79,36.31c-.29.07-.56.14-.56.85A1.76,1.76,0,0,0,172,166a.58.58,0,0,0,.37.17,14,14,0,0,0,2.43-2.43c1.36-1.6,2.13-2.87,2.13-3.49a2.55,2.55,0,0,0-.4-1.56,1.63,1.63,0,0,1-.29-.72c-2.54.3-2.84.06-4.36-1.25l-1.43,1.45c1.16,1.26,2.38,3.17,2.38,4.78C172.8,163.73,172.47,163.81,172.17,163.89Zm-20.75-27.65a10.52,10.52,0,0,0,4,1h.39c-.32-.66-.7-1.61-1.11-2.62-1-2.53-2.27-5.68-3.36-6.11l-.09.17a7,7,0,0,0-1.27,3.65,6.62,6.62,0,0,0,.9,2.75A6.5,6.5,0,0,1,151.42,136.24Zm33.72,123.67a15.44,15.44,0,0,0,1.4-1.05,6,6,0,0,1,2.56-1.52h0l0,0c1.71,3,3,3.47,5.61,3.47h.67c-2.61-3.86-4.43-5.74-5.58-5.74a11.9,11.9,0,0,0-2.83.6,12.6,12.6,0,0,1-2.87.6,4.31,4.31,0,0,1-2-.61,4.25,4.25,0,0,0-1.93-.59c-.7,0-5.65.53-5.65,2.65,0,.14,0,.28,0,.4,0,1.16,0,1.86-1.7,3.87,2.51-.25,4.9-.73,7.21-1.19C181.89,260.45,183.56,260.11,185.14,259.91Zm15.09-1.53a15.35,15.35,0,0,0-3.18-1.72,13.84,13.84,0,0,1-2,.41l.11.15c.63.87,1.42,2,2.78,2a2.41,2.41,0,0,0,1.61-.46A2.61,2.61,0,0,1,200.23,258.38Zm-36.08-66.54c.51.29.93.53,1.17.69a28.26,28.26,0,0,0,.34-3,2.83,2.83,0,0,0,0-.29c0-.15,0-.29,0-.44,0-.79.07-1.57.1-2.41a52.29,52.29,0,0,1,.71-8c-2.44,2.21-6,7-6.77,9.1a2,2,0,0,0-.15.62,1.19,1.19,0,0,0,.24.64l0,0C160.61,189.82,162.74,191,164.15,191.84ZM203.8,256l-.46-.34c-2.74-2-6.48-4.66-7.44-6.52l-1.5,1.43a3.46,3.46,0,0,0,1.37,2.54C198,255,202.22,256,203.66,256ZM175.59,154.12v-2.06a10,10,0,0,0-2.79-3.14,5.68,5.68,0,0,0-1-.58l-.71,3.31c.41.23.86.43,1.33.65A15.55,15.55,0,0,1,175.59,154.12Zm-85.33-73a16,16,0,0,1,4.36,2.56c1.72,1.24,3.51,2.51,4.55,2.51h0a38.85,38.85,0,0,1,3,2.67c.82.77,1.67,1.56,2.5,2.29.2-1.69,0-2.84-.69-3.42h0c-1,0-7.85-5.85-17.85-14.61-1.61-1.41-2.81-2.46-3.16-2.74-.28,3.06,4,7.37,6.08,9.45A10.32,10.32,0,0,1,90.26,81.08Zm87.93,187.11v0c0-.11-.08-.23-.13-.34a7.49,7.49,0,0,0-.53-1.06,2,2,0,0,1-.3-.27,2,2,0,0,0-1.77-.61,4.69,4.69,0,0,0-3.57,1.25h0l0,0h0a8.52,8.52,0,0,0-1.72,3.52c2.5.35,5,.76,7.52,1.24A3.87,3.87,0,0,0,178.19,268.19ZM93.65,89.88c-.57.29-3.26,2-3.62,2.23.56.93,7,4.75,11.76,7.55,3.29,2,5.06,3,5.26,3.24l.64.17a11.64,11.64,0,0,0,3.75.56c-4.63-5.76-8.55-8.09-12.7-10.55C97.11,92.11,95.42,91.11,93.65,89.88ZM72.78,93.71h0c-1.92-.2-3.53-2.58-5.09-4.88s-3.19-4.69-5.05-4.69H58.9a3.44,3.44,0,0,1-.64,1.5,10.62,10.62,0,0,1,2.38,2.16c.3.36.65.76,1.16,1.31,1.29,1.36,7.75,4.21,13.45,6.72l.23.11c4.62,2,9,4,10,4.83l1.23-1.2,0,0c1,1.07,1.42,1.18,3,1.18s2-.07,2.62-.88l-1.42-.8a14.52,14.52,0,0,1-2.24-1.38,64.55,64.55,0,0,1-9.26-10.45c-.2,0-.48-.1-.84-.19a31.91,31.91,0,0,0-7.87-1h-1a4.44,4.44,0,0,0,1.38,1.07c.54.3.94.51.94,1.4v.33c0,2,0,2.72,1.77,3.83l.06,0,0,0Zm-14.32-39h0a16.52,16.52,0,0,1-1.92-.17,20.9,20.9,0,0,0-4.23-.23c3.56,3,6.23,5.26,7.95,6.63A18.87,18.87,0,0,0,65,63.39c2.35,1,4.58,1.87,5.7,4.12a17.17,17.17,0,0,1,4,2.06,24.09,24.09,0,0,0,3.11,1.76,6.89,6.89,0,0,1,.26-.9,6.42,6.42,0,0,0,.47-2.29c0-2.6-5.11-5.18-9.22-7.24-2.66-1.34-5-2.5-5.3-3.38h0c-1.3,0-3.74-1.65-4.92-2.46Zm15,18h-.72a1,1,0,0,1-.83-.26l-.33-.24a25.82,25.82,0,0,0,.8,2.6A11.18,11.18,0,0,1,73.22,78c0,.56,0,.77-.17.87s-.29,0-.56,0a4.79,4.79,0,0,0-1.22-.17h-.1l0,0A67.21,67.21,0,0,1,65.73,71c-1.87-2.93-3.48-5.47-4.26-5.47a7.66,7.66,0,0,1-1.22-.1c-.63-.09-1-.14-1.41.33L60,67v0c0,2.28,1.22,4.81,2.38,7l0,0,0,0a1,1,0,0,1-.68.1,8,8,0,0,1-3.47-1.39h0c-.05-.21-.08-.52-.12-.85a5.27,5.27,0,0,0-.27-1.43,22.68,22.68,0,0,1-2.78-4.69,22.58,22.58,0,0,0-2.63-4.48,16,16,0,0,0-4.8-3.25c-.59-.3-1.15-.59-1.66-.89l-.1-.05-.09,0L45,59.75c.59,2.37,4.76,12,6.88,13.19,1.69.9,3.52,1.86,5.41,2.71a30.26,30.26,0,0,0,5.3,1.89c2.38.59,10.54,4.63,10.63,4.67,3.67,1.74,9.53,4.18,11,4.18,1.33,0,1.38-.06,1.88-.66a1.19,1.19,0,0,1,.15-.18c-1.26-1.3-2.74-2.92-4.3-4.63C78.49,77.06,74.5,72.69,73.47,72.69ZM38.65,39.08c6,3.65,10.67,6.68,14.43,9.25a31.31,31.31,0,0,0,7.49,3.49l.63.22c.6.22,1.1.4,1.56.59-1.81-2.57-7.23-7.24-13-11.22-6-4.11-11.41-6.92-15.35-7.92l-.75,1.13A11.7,11.7,0,0,1,38.65,39.08Zm53.54,88.45h.28a4,4,0,0,0,1.61-.55c-.27-.31-.5-.55-.71-.76a2.6,2.6,0,0,1-1.05-2.27,3.46,3.46,0,0,1,.6-1.82,3.34,3.34,0,0,0,.59-1.78c0-1.07-2.3-1.74-3.67-2a5,5,0,0,0-.77-.09,6.41,6.41,0,0,0-3.82.83,12,12,0,0,1,1.85,3C88.39,124.67,89.84,127.53,92.19,127.53ZM80.35,109.7a47.19,47.19,0,0,0,4.77,2.75l.46.24A17.46,17.46,0,0,0,82.72,106l0,0,1.19-1.27A28.16,28.16,0,0,0,77,101.45a17,17,0,0,0-1.83-.47A10.93,10.93,0,0,0,80.35,109.7Zm17.2,7.23a3.86,3.86,0,0,1,.73-1.45c-3.74-2.76-11-9.17-11.52-10.33l-1.53,1.37.51.88c1.61,2.82,3.29,5.74,5.58,7.3a7.58,7.58,0,0,0,3.09,1A6.3,6.3,0,0,1,97.55,116.93Zm3.51,10.26a12.65,12.65,0,0,0,3-.64,20.31,20.31,0,0,1,3.19-.75c-1-.86-1.92-1.81-2.84-2.72-1.93-1.92-3.6-3.58-4.59-3.58h0l-3.79,0c-.12.12-.24.22-.36.33a2.17,2.17,0,0,0-1,2C94.69,123.34,99.63,127.19,101.06,127.19ZM100.74,106l-.07,0,.06,0a7.37,7.37,0,0,0,1.72-1.81,6.43,6.43,0,0,1-1.89-.7,4.67,4.67,0,0,0-2-.65h0a1.6,1.6,0,0,1-.52.34c-.21.1-.25.11-.25,1.09l.45.69c1.35,2,4.93,7.32,5.13,11.49a7.69,7.69,0,0,0,.63-.53,3.48,3.48,0,0,1,2.44-1.2c1.51,0,14.33,2.4,21.16,4.13V116c-1.83-.69-3.49-2.25-3.77-3.21-4.15-4.15-8.56-4.31-12.83-4.46C107.62,108.21,104.1,108.08,100.74,106Z"/><path class="cls-2" d="M268.89,545.7a3.45,3.45,0,0,0,.51-1.79,3.33,3.33,0,0,0-.91-2.25,3.52,3.52,0,0,0-2.78-1H261.1v11.73h1.37v-5.08h3.36l2.15,5.08h1.54l-2.3-5.44A2.77,2.77,0,0,0,268.89,545.7Zm-3.37.39h-3v-4.17h3.23a2.4,2.4,0,0,1,1.59.52,1.75,1.75,0,0,1,.63,1.44,2.25,2.25,0,0,1-.59,1.57A2.35,2.35,0,0,1,265.52,546.09ZM435.57,141.94a1.62,1.62,0,0,0-.89-1.71,3.89,3.89,0,0,1-.56-.42l0,0h0c-3.78,1.31-7.61,2.79-11.32,4.21-6.43,2.47-13.08,5-19.42,6.74a29.13,29.13,0,0,1-3.94.69,21.36,21.36,0,0,0-3.88.74c-1.37.46-59.93,3.93-60.5,4a11,11,0,0,0-2.44.56,8.1,8.1,0,0,1-2.33.49c-1,0-6.61-2-12-3.93-2.46-.89-5-1.8-7.1-2.51a12.39,12.39,0,0,0-2.79-.16c-.75,0-4.71-1.07-8.54-2.1a86.42,86.42,0,0,0-8.56-2.1,37.38,37.38,0,0,0-4.1.39c-1.78-.19-4.06-.57-6.08-.91a43.68,43.68,0,0,0-4.82-.68,20.23,20.23,0,0,0-4.27,1.32,36,36,0,0,1-6.84,2.06c-3,1-7.07,2.58-11,4.08-6.19,2.33-12,4.54-13,4.54h-.58a1.45,1.45,0,0,1-.36,0v0a.69.69,0,0,0-.21-.33c.14-.78-1-3.22-1.92-4.39-.34-.43-.61-.65-.82-.65-.86,0-2.95,1-5.37,2.16-2.93,1.4-6.25,3-8.3,3.25-4.83-5.43-13.88-8.34-21.15-10.68-1.89-.61-3.68-1.19-5.28-1.77a1.4,1.4,0,0,0-.63.12,1.56,1.56,0,0,1-1.38,0c-.44-.31-.69-1.1-.74-2.35,0-1-1.54-2.53-3.14-4.16-.9-.92-1.82-1.87-2.55-2.77l0,0,0,0a2.46,2.46,0,0,1-1.39.67h0v0c-2.48,3.94-4.1,7-5.83,10.25-.39.73-.77,1.47-1.18,2.21a2.94,2.94,0,0,0-1.11-.75c-.51-.23-.89-.4-.89-1.26,0-2.88-14.09-18.72-19.4-24.69-1.08-1.21-1.79-2-1.9-2.15a18.08,18.08,0,0,0-3.66-2.65,11.05,11.05,0,0,1-2-1.36c-.18-.14-.64-.44-1.29-.85-2.08-1.32-6-3.77-6-4.9,0-.82-3.37-3.81-6.19-6.17-3.17-2.65-6.32-5.06-6.61-5.17a47.49,47.49,0,0,1-6.58-4.41A52.38,52.38,0,0,0,119.84,91a15.8,15.8,0,0,0-3.75-1.25c-2-.5-3.88-1-3.88-1.83,0-1.51-19.7-18.49-29.75-26.52a20.74,20.74,0,0,0-3.2-2,25.68,25.68,0,0,1-3.18-2,50.21,50.21,0,0,1-8.23-7.18h0C65.86,49,53.2,36.8,51,34.65c-.37-.27-1-.64-1.79-1.08-2-1.16-4.83-2.76-4.83-3.82a24.14,24.14,0,0,0-2.61-3.69c-2.19-2.87-5.19-6.81-5.19-7.71,0-1.07-1-3.66-1.82-5.74-.35-.88-.64-1.64-.82-2.17a11.64,11.64,0,0,1-.36-2.84,7.47,7.47,0,0,0-.25-2C32.7,3.93,31,0,29.37,0A3.84,3.84,0,0,0,27,.75h0v0a12.34,12.34,0,0,1-.36,2.58,9.75,9.75,0,0,0-.29,2.09,48.79,48.79,0,0,0,.9,5.26,45.83,45.83,0,0,1,.9,5.24c0,.88-.13,1-.15,1s-.1-.05-.12-.09h0c-1.06-.9-2.08-1.83-3.08-2.73-1.6-1.45-3.25-2.95-5.15-4.43H16.18v2.19c.68,1.41,1.62,3.05,2.53,4.63,1.44,2.5,2.8,4.87,2.8,5.78,0,.7-.84.78-1.91.89-1.72.17-4.08.41-4.08,3.61,0,1.6,4.92,5.58,8.87,8.77a42.47,42.47,0,0,1,4.23,3.65h0c2.15.93,10.87,7.3,10.87,12.77,0,.82.18,2.36.37,4,.16,1.37.32,2.78.4,3.91v0h0a.59.59,0,0,0,.63.26c.11,0,.19,0,.25,0s.14.33.14.76a12.22,12.22,0,0,0,3.33,8.73,31.33,31.33,0,0,0,3.86,4c1.91,1.78,3.71,3.46,3.58,4.51a.94.94,0,0,1-.54.7,1,1,0,0,0-.55.78c-.34,2.12,4.24,7.09,7,10.07.83.89,1.48,1.6,1.82,2,.53.47,1.11,1,1.74,1.64,1.81,1.74,3.86,3.72,5.38,4.23a17.35,17.35,0,0,1,4,1.87c1.23,9.87,5.16,16.31,12.36,20.26a1.74,1.74,0,0,1-.36.13c-.41.1-.79.2-.79,1.33,0,.74,1.11,2.37,2.39,4.26s2.81,4.13,3.22,5.61v0h0c2.77,1.71,3.54,4.66,4.21,7.26a18,18,0,0,0,1.18,3.53l0,0a24,24,0,0,1,4.37,4.36,24.83,24.83,0,0,0,2.17,2.39,25.72,25.72,0,0,0,2.62,7.79c.21.45.93.74,1.77,1.07,1.65.68,3.72,1.51,3.4,4-.1.82,2.78,3.3,5.56,5.7,2.09,1.81,4.46,3.85,4.25,4.21-.81,1.42,2.69,4,5.77,6.28.87.64,1.69,1.25,2.37,1.8a17.7,17.7,0,0,0,12.11,3.66c1.47,1.31,2.51,2.42,3.43,3.4a23.62,23.62,0,0,0,2.28,2.23,9.37,9.37,0,0,0,2.67,1.56,30.84,30.84,0,0,0,7.8,1.8c.53.41,1.3.47,2.83.47a14.51,14.51,0,0,1,3.8,1.13,26.23,26.23,0,0,0,3.38,1.13V197a12.6,12.6,0,0,0-1.37,1.63,4.17,4.17,0,0,1-.84,1c-5.56.84-15.22,2-16.67,2h-5.4a12.41,12.41,0,0,1-2.84-.59,12,12,0,0,0-2.86-.61,25.69,25.69,0,0,0-3.76.39c-2.68.41-5.73.86-8.75-.34l-.07,0V208c0,.78,1.45,2.7,3,4.73.92,1.2,1.87,2.43,2.42,3.33h0l0,.08a2.52,2.52,0,0,1,.44,1.08c0,1-.69,1.94-1.57,3.17-1.44,2-3.23,4.5-3.23,8.53,0,4.28,2.3,5.2,4.32,6,1.79.72,3.48,1.39,3.48,4.19a36.66,36.66,0,0,1-.78,4.26l0,.06h0c-.13.61-.27,1.23-.41,1.86a56.47,56.47,0,0,0-1.19,6.12c0,.77,1.46,2.38,3,4.08s3,3.29,3,4a1.86,1.86,0,0,0,.31,1.23,1.7,1.7,0,0,1,.29,1.17,10.45,10.45,0,0,0,1,4.21,17.1,17.1,0,0,0,2.22,3.6c-1.25.09-2.53.21-3.8.35a148.51,148.51,0,0,0-50.43,14.6q6.34-3.12,13-5.63c1.1-.41,2.2-.83,3.31-1.22-1.2.43-2.38.87-3.56,1.32l-.75.29c-.94.37-1.88.74-2.81,1.13l-.9.37-2.68,1.16-.85.38-2.89,1.34-.54.26c-2.33,1.12-4.63,2.31-6.89,3.54l-.44.26c-1,.52-1.9,1.05-2.83,1.6l-.78.46c-.84.49-1.67,1-2.5,1.5l-.81.5-2.51,1.61-.67.44c-1,.66-2,1.34-3,2l-.1.07c-2.11,1.47-4.18,3-6.2,4.57l-.56.44L55,303l-.7.58c-.76.62-1.5,1.26-2.24,1.89-.22.19-.45.38-.66.58q-1.22,1.05-2.4,2.13l-.4.36c-1.89,1.74-3.75,3.52-5.55,5.35l-.26.27c-.78.8-1.56,1.61-2.33,2.44l-.55.59c-.68.73-1.35,1.47-2,2.21l-.58.66c-.68.77-1.34,1.54-2,2.32l-.46.54c-.8,1-1.58,1.91-2.36,2.88v0c-1.61,2-3.16,4.09-4.67,6.2l-.34.49c-.61.87-1.22,1.74-1.81,2.62-.16.22-.31.45-.46.68-.57.84-1.12,1.69-1.67,2.55l-.42.67c-.6.93-1.18,1.88-1.75,2.83l-.23.38c-1.34,2.24-2.61,4.51-3.83,6.82l-.11.2c-.55,1.05-1.09,2.1-1.61,3.17l-.33.66c-.45.93-.9,1.86-1.33,2.8-.12.25-.24.51-.35.76-.44.95-.87,1.92-1.28,2.88-.1.21-.19.42-.28.63-.49,1.16-1,2.33-1.44,3.5h0l0-.05c.37-.95.76-1.9,1.15-2.83.61-1.47,1.24-2.94,1.9-4.38-1.15,2.51-2.26,5-3.28,7.62A149.33,149.33,0,0,0,25.53,502.34a150.33,150.33,0,0,0,40.38,40.38,149.3,149.3,0,0,0,167.16,0A149.9,149.9,0,0,0,287.23,477a149.49,149.49,0,0,0-7.18-131,150.57,150.57,0,0,0-50-53.11l-.18-.11c-.45-.29-.91-.59-1.36-.86l-1.06-1.08,1.2-1.21,0,0a3.92,3.92,0,0,1-.67-1.38,2.49,2.49,0,0,0-.48-1,1,1,0,0,1,.27-.07,52.39,52.39,0,0,1,5.93-.19,10.31,10.31,0,0,0,8.43-3.21,8.84,8.84,0,0,0,2.08-7.73c.72-.13,1.38-.23,2-.32,2.1-.32,3.61-.55,4.31-1.31a3.83,3.83,0,0,1,.94-.55c1-.49,2.37-1.17,2.37-2.23,0-.73.14-.87.29-1s.31-.31.31-1.08c0-1.05-1.12-2.71-2.31-4.47a16.91,16.91,0,0,1-2.37-4.23v0c-1-1.28-2-2.81-3.1-4.44a47.77,47.77,0,0,0-5.3-7.11,4,4,0,0,1,0-1.71v0h0c-.36-.33-.8-.69-1.27-1.08a11,11,0,0,1-2.88-3l0,0a1.6,1.6,0,0,1-.15-.63,5.14,5.14,0,0,0-.9-2.83v0c-3.59-4.14-9.29-11.93-9.29-13.35a16.4,16.4,0,0,1,2.14-6.24,18.75,18.75,0,0,0,7.11,1.79,17.1,17.1,0,0,0,4.09-.72c1.7-.43,3.3-.84,4.47-.54l.06,0v-.13c.11-1.38.14-1.63,1.57-1.63a10.68,10.68,0,0,1,2.68.6,10.37,10.37,0,0,0,2.71.6c1.45,0,5.63-1.92,6.22-2.7a32.21,32.21,0,0,0,7.85-1.41h0c1.86-.59,4.14-1.59,4.59-3l.08.15c.23.46.46.94,1.76.94s4.46-1.56,6.78-2.71l1-.51a25.81,25.81,0,0,1,6.15-1.65c4.78-.89,9.72-1.81,12.44-7.07a5.13,5.13,0,0,0,2.86,1.18c1.74,0,8.43-3.21,9.75-3.86a6.5,6.5,0,0,0,2-1.83c.67-.81,1.25-1.51,2.05-1.51a2.47,2.47,0,0,1,1.54.55,2.49,2.49,0,0,0,1.6.57c1.31,0,6.13-1.72,9-2.75l1.15-.41c1.48-.53,2.55-2,3.41-3.12.22-.29.42-.56.61-.79a.66.66,0,0,0,.45.36c.67.15,1.77-.62,2.22-1.07a18.91,18.91,0,0,1,1.8-.75h0l1.54-.5a21.66,21.66,0,0,0,4.78-2,16,16,0,0,0,2.67-2.31c1-1,2-2,2.81-2.07a80.41,80.41,0,0,1,11-.13c6.41.21,11.95.39,12.77-2.17.31-1,7.51-1.13,13.86-1.27,5.65-.12,10.52-.23,11.08-.83a.2.2,0,0,0,.06-.14c.89-2.39,4.41-2.33,8.86-2.25,1.57,0,3.18,0,4.89,0,2-.18,3.09-.67,3.13-1.45.1-2-6.66-5.19-8.35-5.58.83-1,3.8-1.08,6.68-1.15a30.51,30.51,0,0,0,5-.39c1.21-.27,2.27-.46,3.31-.65a24.1,24.1,0,0,0,8.64-2.82h0v0c0-.1.08-.2.12-.28a1.19,1.19,0,0,0,0-1.3,0,0,0,0,0,0,0c0-.26-3.75-1.46-4.89-1.83-3.11-1-6.09-1.81-8-2.21a83.62,83.62,0,0,0,9.65-6.36C430.77,148.15,435.57,144.11,435.57,141.94ZM230.27,304.07c1.06.75,2.11,1.51,3.15,2.29h0l.72.53h0c1.18.89,2.34,1.81,3.49,2.74l1.17,1c.81.67,1.61,1.34,2.41,2l1.18,1q1.53,1.35,3,2.76l.83.79c.88.83,1.74,1.68,2.59,2.53.42.42.83.84,1.24,1.27.66.67,1.31,1.36,1.95,2,.41.45.83.89,1.24,1.33.85.95,1.7,1.9,2.53,2.87.44.51.88,1,1.31,1.55.59.71,1.18,1.42,1.76,2.14.45.55.88,1.11,1.32,1.67s1,1.27,1.45,1.9.87,1.15,1.29,1.73c.65.89,1.28,1.79,1.91,2.7s1.09,1.6,1.63,2.4c.4.61.81,1.23,1.2,1.84s.86,1.36,1.28,2,.72,1.18,1.08,1.78.82,1.37,1.22,2.07c.64,1.12,1.27,2.25,1.88,3.38h0l.38.68.51,1c.34.67.69,1.34,1,2h0c.3.6.61,1.19.89,1.79h0l.54,1.18c.59,1.24,1.16,2.48,1.71,3.74h0c.1.24.19.48.3.72h0a140.52,140.52,0,0,1,11.22,55.06H264.22V351.35h0c-2.61-.58-6.11-1.35-10.13-2.19V337.8h0l-4.28-1-5.85-1.31V324.24h0c-3.1-.69-6.23-1.42-9.56-2.2-13.27-3.11-28.32-6.63-42.94-7.42-16.74-.91-30.44,1.9-41.86,8.59-11.42-6.69-25.11-9.5-41.87-8.59C93,315.4,78,318.92,64.68,322c-3.32.78-6.46,1.51-9.56,2.2h0v11.28l-6,1.34-4.14.93h0v11.35c-4.1.86-7.74,1.66-10.13,2.19h0V418.7H9.25C9.28,342,71.69,279.11,148.4,278.52h1.09c.69,0,1.43,0,2.27,0l-.39,2.28v1.09a.83.83,0,0,0,.34.42v.31c0,3.15.28,4.7,3.29,8.43l0,0,0,0a2.58,2.58,0,0,0,.63-.83,1.8,1.8,0,0,1,.59-.74l.21,0a2.57,2.57,0,0,0,.4.05h0v0l.07-.1a.47.47,0,0,1,.17-.18c.69,0,.69.25.69.55s0,.65.8.65c1.18,0,3.12-2.14,5.18-4.4.58-.64,1.18-1.3,1.75-1.89l0,0-.12-4.26c.07-.14.15-.3.25-.46,1.13.13,2.28.29,3.38.45l.14,0a139,139,0,0,1,14.06,2.72h0c1.06.26,2.15.53,3.22.82,0,1.12-.11,2.34-.2,3.51s-.2,2.54-.2,3.72v0h0l.13.27c1.38,2.88,2.3,4.28,2.82,4.28h.06c.24,0,.36-.44.37-1.18h.07a3.6,3.6,0,0,0,1.78-.84,4.6,4.6,0,0,1-.43,3v0l0,0c.49.58,1.3.49,2.41-.27,3.33.76,4.49-2.74,5.43-5.55a16.79,16.79,0,0,1,.75-2l.36-.61c1,.4,2.08.84,3.1,1.26a141,141,0,0,1,20.16,10.29l.85.53,2.23,1.42.09.06,0,0h0c1.31.86,2.59,1.73,3.86,2.62Zm-53,176.19c2.79-5.56,6.77-8.38,11.81-8.38s9,2.81,11.75,8.36S205,493.75,205,503.91s-1.4,18.08-4.17,23.62-6.71,8.33-11.76,8.33-9-2.81-11.82-8.36-4.2-13.49-4.2-23.59S174.47,485.82,177.26,480.26Zm-35.5,39.18v15.21h-20.7V473.1H133v46.34ZM58.63,442.27c3.4-.76,6.81-1.55,10.11-2.32,27.11-6.3,52.71-12.25,77.83,1.39v3.86c-9.39-4.77-21.12-6.64-36.9-5.87-14.42.7-32.59,3.59-58.93,9.35V342.47l4.34-.93V443.06Zm87.94-8c-9.17-5.09-18.59-7.14-31.46-6.84-12.37.29-28.58,2.8-54.2,8.41V328.92c51.2-11.27,68.83-11.42,85.66-.76ZM40.58,356l4.34-.93V455.94l3.54-.79c2.51-.56,5.09-1.15,7.83-1.78,26.78-6.16,63.47-14.6,90.28-1.06v4.52c-9.7-4.56-23.55-6.16-42.31-4.89-16.43,1.12-36.67,4.39-63.68,10.29ZM145.33,514.34a28,28,0,0,0,4.63,4.35,7.06,7.06,0,0,0,3.81,1.53,2.89,2.89,0,0,0,2.4-1.25,5,5,0,0,0,.93-3.11c0-1.47-1-3.64-3.12-6.45-3.7-4.92-6-8.59-7-11.22a23.08,23.08,0,0,1-1.53-8.46c0-5.17,1.24-9.48,3.68-12.82a11.25,11.25,0,0,1,9.43-5,13.51,13.51,0,0,1,4.66.89,22.58,22.58,0,0,1,5,2.64v15.83a21.43,21.43,0,0,0-3.95-3.59,6.46,6.46,0,0,0-3.47-1.25,2.7,2.7,0,0,0-2.21,1.05,4.23,4.23,0,0,0-.83,2.71c0,1.58,1,3.54,3.09,5.84a4.55,4.55,0,0,0,.36.43c3.55,4.09,5.88,7.5,6.93,10.14a25.39,25.39,0,0,1,1.58,9.37c0,6-1.33,10.85-3.95,14.47a12.4,12.4,0,0,1-10.48,5.45,11.68,11.68,0,0,1-4.94-1.14,20,20,0,0,1-5-3.52Zm7.07-69.14v-3.86c25.13-13.64,50.73-7.69,77.83-1.39,3.3.77,6.71,1.56,10.12,2.32l3.48.77.06,0V341.54l4.34.93V448.68c-26.33-5.76-44.51-8.65-58.92-9.35q-3.44-.16-6.61-.17C170.17,439.16,160.43,441.12,152.4,445.2Zm0-11V328.16c16.84-10.66,34.47-10.51,85.67.76V435.8c-25.63-5.61-41.84-8.12-54.2-8.41l-2.39,0C169.82,427.36,161,429.46,152.4,434.23Zm0,18.08c26.81-13.54,63.5-5.1,90.29,1.06l7.82,1.78,3.49.77.06,0V355.1l4.34.93v106.2c-27-5.9-47.25-9.17-63.69-10.29q-6.21-.42-11.72-.42c-13,0-23,1.75-30.59,5.31ZM114.2,473.1v61.55H102.34V473.1Zm-50.75,0,2.81,36.43h.1l3.9-36.43H79.8l3.84,36.43h.1l2.9-36.43H98.43l-8.35,61.55H79.19l-4.11-38.51H75l-4.13,38.51H60L51.65,473.1ZM210.2,534.65V473.1H222l6.6,32.39h.09V473.1H239.5v61.55H227.8l-6.66-30.83H221v30.82ZM337.13,184.19a6.06,6.06,0,0,1-1.78-.45l-.12-.15-.06-.08c-1.81-2.38-5.43-2.49-5.68-2.49l-.63-.36c-.86-1.55-2.83-2.3-4.91-3.09a21.29,21.29,0,0,1-4-1.85c.06-.28,1.31-.89,2.63-1.53,2.33-1.15,5.53-2.72,6.38-4.27,2.18.44,4.25.93,6.32,1.5,0,0,2.12.45,3.38.78l-5.32,5.86-.1.11,6.93-1h0s3.59-3.8,4.91-3.85c2.56,0,6,1.38,6.39,2.08a.17.17,0,0,1,0,.18,7.84,7.84,0,0,0-1.11.63c-1.23.79-3.21,2.2-5,3.44-1.34.95-2.59,1.84-3.27,2.28C340.48,183,338.59,184.19,337.13,184.19ZM328,188.87c-3.19,2.12-8.2,3.39-9,3.11a2.23,2.23,0,0,1-.71-.8,25.7,25.7,0,0,1-1.28-2.39l-.08-.16c-.22-.45-.39-.8-.49-1-.57-2.15-2.63-3.61-4.62-5-2.24-1.59-4.35-3.09-4.23-5.41.67.1,6.43,1,7.51,1,2.21,0,2.85.09,6.08,2.51.69,1.05,5.19,4.06,5.38,4.19l1.79,1.42.09.07c.63.51,1.08.86,1.27,1a7.11,7.11,0,0,1-1.6,1.41l-.14.1Zm-14.58,3.74c-.42,2.49-10.54,7.65-10.81,7.77a2.73,2.73,0,0,1-2.31-1.39,11.37,11.37,0,0,0,0-2.6,22.46,22.46,0,0,0-2.63-7.6l0,0c-.5-1-1-1.83-1.4-2.52a7.7,7.7,0,0,1-.94-1.84c0-.86,1.66-2,3.59-3.3a33.16,33.16,0,0,0,3.77-2.84,12.81,12.81,0,0,1,.93,1.53,47.12,47.12,0,0,0,6.34,9l0,0a33.36,33.36,0,0,0,2.46,2.35l.28.24.46.4A.72.72,0,0,1,313.44,192.61Zm-38,17.31c0-.09,0-.22.06-.38a7.33,7.33,0,0,0,.07-2.68,21.2,21.2,0,0,0-2.78-7.16A85.47,85.47,0,0,1,270,191c-.19-.67-.39-1.39-.63-2.22-.16-.54-.32-1.1-.51-1.72v0a1.58,1.58,0,0,0-1.47-.5c-.3.13-.46.46-.46,1v5.09a43.3,43.3,0,0,0,1.2,5.57,43.14,43.14,0,0,1,1.2,5.53,16.21,16.21,0,0,1-.15,1.87,47.23,47.23,0,0,1-1.33,6.69,25.69,25.69,0,0,1-4.18,1.69,31.77,31.77,0,0,0-3.53,1.35h-2a23.93,23.93,0,0,0-.26-2.78s0-.27-.05-.68c-.14-1.7-.59-5.69-1.68-6.21-.29-1.49-.13-1.79,0-2a1,1,0,0,0,.12-.5,8.87,8.87,0,0,1,1.32-4.27v-.05s-2.52-4.34-2.52-6.48a4.35,4.35,0,0,1,.49-1.92,3.69,3.69,0,0,0,.37-1.18q.53-.18,1-.36h0A19,19,0,0,0,263,185l.18-.18a3.78,3.78,0,0,0,1.39-3.24v0l-1-.94h0a78.61,78.61,0,0,1-13,4.81c-3.3,1-6.71,2.05-9.92,3.37h0c-.57.24-1.14.48-1.69.73l.06-.67a67.92,67.92,0,0,0-.11-13.43,38.61,38.61,0,0,0,7.86-1.52c1.21-.31,2.46-.63,3.83-1a.54.54,0,0,1,.36.17,1.69,1.69,0,0,1,.36,1.26,4.19,4.19,0,0,1-.64,1.84c-.28.56-.51,1-.36,1.25s.27.21.56.21c2.67,0,5-2.46,7.27-4.84a24.2,24.2,0,0,1,4.34-3.93,26.17,26.17,0,0,1,7.74-3.4,4.26,4.26,0,0,1,.73,0,6.73,6.73,0,0,0,2.24-.21,9.87,9.87,0,0,0,2.53-1.31c.36,1.67-.7,3.11-1.81,4.63s-2.25,3.07-2.22,5.05v0h0l.11.11a.92.92,0,0,0,.89.33h.86c.77,0,2.59-1.31,4.53-2.7s3.74-2.69,4.47-2.69a9,9,0,0,1,2.53.59,8.9,8.9,0,0,0,2.57.61,20.45,20.45,0,0,0,3.92-.91,20.6,20.6,0,0,1,3.88-.89c.89,0,.95.43,1,.89a.9.9,0,0,0,.33.72,3.67,3.67,0,0,0,2.69.79h.47a16.61,16.61,0,0,0,3.92-1.18,32.77,32.77,0,0,1,5.34-1.67,58.32,58.32,0,0,1,9.84-.2c.71,0,1.27.05,1.6.05a2.21,2.21,0,0,0,1.53-.61,2,2,0,0,1,1.47-.59c1.42,0,1.95.07,2.61.88l-.14.08a51.13,51.13,0,0,1-8,3.87c-.63.2-2.63.58-4.09.87-.83.16-1.49.28-1.7.34a28.29,28.29,0,0,1-5.24.51l-1.26,0a20,20,0,0,0-2.26-.1,4.71,4.71,0,0,0-1.67.3,4.51,4.51,0,0,1-1.63.3c-.89,0-1.9,1.08-2.88,2.13a9.07,9.07,0,0,1-2,1.81c-.64.32-1.31.72-2,1.14a15.32,15.32,0,0,1-5,2.26c-3.78.6-8.09.92-12.26,1.22l-3.1.23h0v0a4.23,4.23,0,0,0,0,1.29,3.26,3.26,0,0,1,0,1v0h0a33.43,33.43,0,0,0,6.49.59,26.81,26.81,0,0,0,4.41-.72c1.92-.4,4.3-.9,6.95-1.26.41,1.74,1,3.92,1.46,5.63h0v.07c.23.82.45,1.65.68,2.47.65,2.41,1.27,4.69,1.68,6.38a15.77,15.77,0,0,1,.51,2.56c0,2.92,0,3.91-2.88,5.26l-5.35.79a2.17,2.17,0,0,1,.45-.84,5,5,0,0,0,1-2.3c.16-1.58-.77-3.26-2.85-5.16s-3.05-4.4-3-5.89h0v0s-.94-1.63-1.77-3.29l0,0h-.05a20.41,20.41,0,0,1-1.22-2.84c.05.89.16,1.85.3,2.84h-.05v.06c.55,3.76,1.63,8,2.42,11.18.48,1.88.85,3.37.94,4.07a2.5,2.5,0,0,1,0,.25,5.26,5.26,0,0,1-1.24,3.77,3,3,0,0,1-2.27.83h0Zm-24.34,6.15h0a1.88,1.88,0,0,1-1.3.8c-2.58,0-3.84-.2-4.41-.73l-.07-.07c-.42-.46-.41-1.18-.26-2.19h0c.16,0,.29-.15.37-.45.37-1.36-.34-5.66-.37-5.83s.47-11.43.47-12.92c0-.86,1.48-1.4,3.35-2.08a25.46,25.46,0,0,0,4-1.71c.44.5-.09,3.32-.51,5.59a24.26,24.26,0,0,0-.47,3,8.9,8.9,0,0,0,.61,2.57,9,9,0,0,1,.59,2.53c0,.75-.15,2.27-.3,3.75s-.3,3-.3,3.75a6.58,6.58,0,0,1-.39,2.19A6.25,6.25,0,0,1,251.13,216.07Zm-15.43.43a4.18,4.18,0,0,1-2.73,1.23h-3.1c.06-.55.14-1.09.23-1.6v-.06h0c.08-.44.17-.91.29-1.44.44-2,1-3.86,1.52-5.39a16.63,16.63,0,0,0,.88-3.41,9.84,9.84,0,0,1,.25-2,15.78,15.78,0,0,0,.35-3.13,2.38,2.38,0,0,1,1-1.79c1.65-1.45,5-2.26,7.87-1.91a11.31,11.31,0,0,0-1.15,5.63v.47c0,.82-.83,1.84-1.7,2.91a11.11,11.11,0,0,0-1.76,2.59,28.44,28.44,0,0,0-1.59,7.48.25.25,0,0,1,0,.08v.05l-.14.11Zm16.15,51.9c0,1.83-1.89,2.87-3.56,3.79a7.91,7.91,0,0,0-2,1.36L243.61,271a7,7,0,0,1,.31-.69c.69-1.34,1.54-1.85,3.11-2.7l.3-.16c.7-.38,1.57-.84,2.62-1.47A3.45,3.45,0,0,0,251.85,268.4Zm-8-7.92a1.82,1.82,0,0,1,1.79,1,10.12,10.12,0,0,0,.81,1v2.06l-.95.31-.14,0c-1.37.43-2.85.83-4.28,1.21l-1,.26a3.84,3.84,0,0,0-.69-1.66,2.83,2.83,0,0,1-.61-1.62,9.94,9.94,0,0,1,3.83-2.34A4.21,4.21,0,0,1,243.85,260.48Zm-7.2,22.69a10.53,10.53,0,0,1-2-2,4.74,4.74,0,0,1-1.23-2.46c0-.76,1-2.37,2.09-4.23a41.56,41.56,0,0,0,3-5.52,9.71,9.71,0,0,0,1.27,2.69c.25.38.5.68.74,1a4.15,4.15,0,0,1,1.24,3.08c0,3.63-1,4.36-4.19,6.79ZM137.4,259.11a2.8,2.8,0,0,0,.61-1.68c0-.77-1.46-2.88-3-5.13-.46-.66-.93-1.36-1.36-2l-.06-.09a9.7,9.7,0,0,1-1.57-3,5.26,5.26,0,0,1,.73-2.29,9.23,9.23,0,0,0,.64-1.52l0-.07h0a.75.75,0,0,0,0-.16l.08.17h0l0,.07.32.66c.25.53.52,1.08.75,1.6a8.5,8.5,0,0,1,.9,3c0,.06.1.16.87.9,2.07,2,6.93,6.64,6.93,9.3,0,1.92-1.51,3.37-3,4.53l-.92.7c-.44.33-.86.64-1.22.95a8.2,8.2,0,0,0-.67-1.95,6.53,6.53,0,0,1-.7-2.43A2.66,2.66,0,0,1,137.4,259.11Zm-9.59-35a3.81,3.81,0,0,1,.42-1.59,2.54,2.54,0,0,0,.24-2.13,8.28,8.28,0,0,0,.91-.24,7.83,7.83,0,0,1,2.27-.43h.15c.09.25.17.5.25.74a21.55,21.55,0,0,1,1.06,5.45c0,1.16,1,2.91,2,4.61.3.53.61,1.06.88,1.56v0h0l.38.11a2.09,2.09,0,0,1,1.2.62l0,0,0,0a1.66,1.66,0,0,1,.19-.22c.13-.13.13-.15.13-.64,0-.16,0-.38,0-.67a5.71,5.71,0,0,0-1-2.66,11.21,11.21,0,0,1-1-2.06,14,14,0,0,1-.45-2.64,17.07,17.07,0,0,0-.5-2.94,16,16,0,0,1,2.12-.61,11.92,11.92,0,0,0,3.56-1.3,24.5,24.5,0,0,1,.88,4c.57,3.48,1.21,7.42,4,9.06l0,0,0,0c.13-.17.4-.18.7-.18h.09a1.22,1.22,0,0,0,.91-.23,1,1,0,0,0,.24-.76c0-3.79-1.87-10.31-4.05-12.52h0c-1.39-.24-2.88-.36-4.45-.48a37.72,37.72,0,0,1-6.27-.83,12.23,12.23,0,0,1-2.46-.86,2.55,2.55,0,0,1-.43-.25h0c-1.28-.85-2-2.36-2.8-4a20,20,0,0,0-1.62-2.89v-2.66l.4,0a8.91,8.91,0,0,0,2.9-.58c0,.24,0,.46.07.67.09.69.22,1.26.34,1.82a11.6,11.6,0,0,1,.32,1.9v.09c0,.07,0,.13,0,.2a5.72,5.72,0,0,0,2.9,4.48,5.64,5.64,0,0,0,.79.42l.07,0v-4.1c0-.79-.38-.84-.69-.88s-.54-.06-.52-.77V206h3.33c.11.21.23.44.35.7.47,1,1,2.1,1.43,3.18,1.4,3.22,2.72,6.25,3.79,6.25a2.61,2.61,0,0,0,2-.58c.46-.48.46-.63.45-1.61v-.56a5.62,5.62,0,0,0-.91-2.42,5.6,5.6,0,0,1-.89-2.38,4.42,4.42,0,0,1,.17-1.25l.12-.38a7.73,7.73,0,0,0,.39-2.15h4.5a9.64,9.64,0,0,1,.83,2.34c.07.35.14.7.2,1a8,8,0,0,0,2.94,5.55l.05,0,0-.06a33,33,0,0,0,1.91-7.14l0-.15c0-.13,0-.26.07-.39a10.57,10.57,0,0,1,4.8-1.12c-.08.12-.17.23-.25.33-.19.26-.36.49-.51.74a3.37,3.37,0,0,0-.37,1.7,13.89,13.89,0,0,0,.6,3,14.34,14.34,0,0,1,.6,3,22.29,22.29,0,0,1-.26,2.48,90.63,90.63,0,0,1-2.4,11.74c-.2-.74-.42-1.48-.64-2.26a60,60,0,0,1-1.9-7.84v0h0a7.61,7.61,0,0,0-.88.14,5.13,5.13,0,0,1-3-.09h-.05v0a5.75,5.75,0,0,0,0,2.75,12.92,12.92,0,0,1,.18,1.79,7.72,7.72,0,0,0,.9,2.72,7.68,7.68,0,0,1,.9,2.68c0,1.15,1.6,2.13,2.88,2.92a11.74,11.74,0,0,1,1,.67,4.9,4.9,0,0,1,.29,2.41,11.57,11.57,0,0,0,.8,3.64c.08.22.15.44.22.66a26.84,26.84,0,0,1-2.74-2.78c-.72-.81-1.47-1.64-2.19-2.32-.08-.09-.8-.92-1.23-.76-.17.06-.26.29-.26.66v1.5c0,2.52,2.34,7,5.38,9h0l.14.09a5.14,5.14,0,0,0,2.74.93h.06c-.14,1.17-1.92,1.87-3.49,2.49a9.11,9.11,0,0,0-2.41,1.21l0,0,0,0c2.33,1.77,5.09,4,7.76,6.22l1.79,1.47-.77,3.88c-1.08-1-2.27-2.27-3.42-3.48-2.37-2.5-4.61-4.86-5.63-4.86a2.5,2.5,0,0,0-2.75,2.45c0,2.4,6.62,7.71,10,8.59l-1.13,1.5a4.68,4.68,0,0,0-1,1.57v.06s0,0-.05.05l-.42.51c-.55.66-1.12,1.35-1.63,2-.92-.95-1.82-1.76-2.51-2.37l-.08-.08-.29-.25L151,265c-2.15-1.88-4-3.5-5.05-5.92a3.21,3.21,0,0,1,.07-1.93,4.5,4.5,0,0,0,.16-1.65h0c-.76-.84-1.76-2.07-2.73-3.27-2.14-2.63-3.48-4.25-3.93-4.25h0c-.53-.72-1.3-1.55-2.11-2.44-.63-.68-1.27-1.37-1.8-2h0l-.07-.08c-.06-.08-.12-.15-.17-.23l-.07-.1a3.57,3.57,0,0,1-.92-1.81c0-.78.76-1.33,1.39-1.66a6.77,6.77,0,0,1,2.76-.69c1.94,0,3.15,2.35,4.14,4.54v0h0c1.31,2.94,2.44,6.18,4.5,6.18,1.5,0,2.7.3,2.7-1.2,0-.69-1-2.78-2.12-5h.06l-.3-.59c-1.17-2.36-2.39-4.79-2.39-5.53,0-1,.27-1,.62-1a.93.93,0,0,0,.56-.16l.05,0-.05,0a5.08,5.08,0,0,0-3.63-1.51,16.41,16.41,0,0,0-3.92,1.2,28.67,28.67,0,0,1-3.25,1.11,3,3,0,0,1-.63.09c-1.4,0-3.3-1.86-4.55-3.71a12,12,0,0,1-1.63-3.61,22.9,22.9,0,0,1-.56-2.24A20,20,0,0,1,127.81,224.13Zm20.91-43.88v0c-.19.57.86,1.24,2.31,2.18a30.56,30.56,0,0,1,3,2.13c-2,.36-4.75-.12-8.63-1.52-1.29-.47-2.57-1-3.75-1.46.27-.39.59-.81,1-1.31s1-1.18,1.49-1.75c1.47-1.67,2.86-3.25,2.86-4.2s1.77-2.08,3.64-3.36a32.66,32.66,0,0,0,3.81-2.87l1.13,1.16h0a1.66,1.66,0,0,0,1.21-.3,1.25,1.25,0,0,0,.4-1c0-1-2.07-2.58-3.59-3.72a7.55,7.55,0,0,1-1.42-1.18v0c-.48-.53-1.2-1.28-2-2.13-2.7-2.81-6.78-7.05-6.78-8.19A7.67,7.67,0,0,0,142,150a30,30,0,0,1-3.24-6.19c-.23-.72-.63-1.79-1.05-2.93-.94-2.55-2.11-5.72-2.11-6.75a1.54,1.54,0,0,1,.63-1.33,1.76,1.76,0,0,0,.68-1.25c.57.13,1.12.32,1.66.5,1.19.42,2.22.78,2.8.1l.08.15c1.29,2.44,3,5.78,3,7.23a4.17,4.17,0,0,1-.6,1.93,4.38,4.38,0,0,0-.6,2c0,.94,3.12,3,4.07,3.58,1.93,1.21,4.32,2.47,5,2.47.95,0,1.24-.45,1.64-1.08a6.55,6.55,0,0,1,1.05-1.3c.69.89,11.66,15,11.66,16.43,0,.3.64.77,1.53,1.42,1.38,1,3.27,2.39,3.27,3.68,0,.88-1.09,2.79-2.24,4.82-.79,1.39-1.6,2.82-2.17,4.09l-1.26-1.18,0,0a19.35,19.35,0,0,1-3.55,2.8,10.39,10.39,0,0,0-3.5,3.15,43.76,43.76,0,0,1-9-3h0ZM132.4,168.6c.11,1.5,2.33,4.83,3.1,5.72a11.13,11.13,0,0,1-2.84,2.65,3.26,3.26,0,0,1-1.6.62c-1.43,0-4.77-2.89-7.71-5.44l-.29-.25c.36-.15.68-.3,1-.47a18.69,18.69,0,0,0,2.37-1.39l.88-.56c1-.62,14-8,16.93-8,1.54,0,6.85,3.64,6.85,5,0,.64-1.36,2.08-3.47,3.67s-3.9,2.58-4.58,2.58c-2,0-7.66-3.34-9.05-4.24H132.4Zm-18.46-8a13.61,13.61,0,0,0,3.23-1.29.73.73,0,0,0,.58-.64,1,1,0,0,1,.11-.31,100.85,100.85,0,0,0,9.53-3.65c2.67-1.11,5.42-2.27,8.29-3.3h0v0s-.12-1.92-1.65-1.92c-.76,0-2.74,1-4.82,2.1s-4,2.1-4.78,2.1a4.58,4.58,0,0,1-3.71-2.64l0,0h-.22c-2.48,0-3.62-2-4.24-3-.12-.21-.22-.39-.31-.52l0,0h0a7,7,0,0,1-4.64-2.72l0-.05-1,1,0,0c1.1,1,1.18,2.07,1.18,3.54,0,1.15.66,1.85,1.76,3,.35.37.74.78,1.17,1.27a10.51,10.51,0,0,0-2.5,1c-.39.2-.8.4-1.19.57a4.82,4.82,0,0,1-1.83.53c-1.56,0-3.24-3.71-4.59-6.7a18.61,18.61,0,0,0-1.69-3.3,9.25,9.25,0,0,1,1.22-.7,60.34,60.34,0,0,1,8.31-3c5.41-1.67,11-3.4,12.06-5.77l0-.05-.06,0c-1.65-.44-5.08.09-5.71.24h-.13c-1,0-2.54.82-4,1.62a9.28,9.28,0,0,1-3.1,1.32c-3.15,0-8.68-6.46-9.57-7.78l0,0-1.52,1.56,0,0,0,0a10,10,0,0,1,2.33,3.49v2.64c-1.25.06-2.31.06-3.78,0l-.78,0c0-.22,0-.48-.06-.8,0-.62,0-1.34,0-2.36a3.36,3.36,0,0,0-1.26-2.22l0-.05a11.16,11.16,0,0,1-1.62-2l.43,0a2.4,2.4,0,0,1,.28,0,41.43,41.43,0,0,0,6-1.12,23.71,23.71,0,0,0,2.83-1.16,12.74,12.74,0,0,1,3.9-1.39h0l3.84-.31,1.3-1.21-.1,0c-3.19-.59-3.95-1.61-4.68-2.59a4.09,4.09,0,0,0-1.89-1.6c-.16-.29-2.3-4.3-1.68-5.27l1.13,0c5.46,0,7.31,2.15,9,4a6.89,6.89,0,0,0,2.85,2.33c-.09.23-.21.47-.33.74-.53,1.16-1.13,2.47-.77,3a.64.64,0,0,0,.59.27,12.42,12.42,0,0,0,2.86-.6,12,12,0,0,1,2.84-.6c3,0,5.38,1.68,7.41,5.13a18.75,18.75,0,0,0-5.36,3h0v1.65h0a20,20,0,0,0,4.8,3.91c2.9,1.87,5.41,3.49,5.41,7.54a.44.44,0,0,0,.1.33c.11.09.28.07.49.05a2,2,0,0,1,.36,0c1.47,0,4.45,6.58,4.45,8.05a1.16,1.16,0,0,0,.94,1.31,2,2,0,0,1,.83.51c-5.17,3.37-13.78,8-15.22,8-.81,0-2.93-1.09-5.18-2.25a53.16,53.16,0,0,0-5.47-2.57s-.14-.15-.25-.11-.25.19-.25,1.08a2.91,2.91,0,0,0,.25,1.08,15.6,15.6,0,0,0,1.52,2.6c.4.59.8,1.2,1.17,1.82l-.59.08a3.7,3.7,0,0,0-2,.64c-.57-.77-1.31-1.63-2.09-2.54a51.69,51.69,0,0,1-3.47-4.37A18.25,18.25,0,0,0,113.94,160.55Zm-21.75-33c-2.35,0-3.8-2.86-5.09-5.4a12,12,0,0,0-1.85-3,6.41,6.41,0,0,1,3.82-.83,5,5,0,0,1,.77.09c1.37.22,3.67.89,3.67,2a3.34,3.34,0,0,1-.59,1.78,3.46,3.46,0,0,0-.6,1.82,2.6,2.6,0,0,0,1.05,2.27c.21.21.44.45.71.76a4,4,0,0,1-1.61.55ZM78.05,70.43a6.89,6.89,0,0,0-.26.9,24.09,24.09,0,0,1-3.11-1.76,17.17,17.17,0,0,0-4-2.06c-1.12-2.25-3.35-3.16-5.7-4.12a18.87,18.87,0,0,1-4.72-2.47c-1.72-1.37-4.39-3.6-7.95-6.63a20.9,20.9,0,0,1,4.23.23,16.52,16.52,0,0,0,1.92.17h0l.57.37c1.18.81,3.62,2.46,4.92,2.46h0c.34.88,2.64,2,5.3,3.38,4.11,2.06,9.22,4.64,9.22,7.24A6.42,6.42,0,0,1,78.05,70.43ZM62.76,52.63c-.46-.19-1-.37-1.56-.59l-.63-.22a31.31,31.31,0,0,1-7.49-3.49c-3.76-2.57-8.48-5.6-14.43-9.25a11.7,11.7,0,0,0-5-4.46l.75-1.13c3.94,1,9.39,3.81,15.35,7.92C55.53,45.39,61,50.06,62.76,52.63Zm-17,4.51.09,0,.1.05c.51.3,1.07.59,1.66.89a16,16,0,0,1,4.8,3.25,22.58,22.58,0,0,1,2.63,4.48,22.68,22.68,0,0,0,2.78,4.69A5.27,5.27,0,0,1,58.12,72c0,.33.07.64.12.85h0a8,8,0,0,0,3.47,1.39,1,1,0,0,0,.68-.1l0,0,0,0c-1.16-2.2-2.4-4.73-2.38-7v0l-1.2-1.32c.42-.47.78-.42,1.41-.33a7.66,7.66,0,0,0,1.22.1c.78,0,2.39,2.54,4.26,5.47a67.21,67.21,0,0,0,5.42,7.74l0,0h.1a4.79,4.79,0,0,1,1.22.17c.27.07.44.11.56,0s.17-.31.17-.87a11.18,11.18,0,0,0-.83-3.24,25.82,25.82,0,0,1-.8-2.6l.33.24a1,1,0,0,0,.83.26h.72c1,0,5,4.37,8.53,8.23,1.56,1.71,3,3.33,4.3,4.63a1.19,1.19,0,0,0-.15.18c-.5.6-.55.66-1.88.66-1.5,0-7.36-2.44-11-4.18-.09,0-8.25-4.08-10.63-4.67a30.26,30.26,0,0,1-5.3-1.89c-1.89-.85-3.72-1.81-5.41-2.71C49.78,71.72,45.61,62.12,45,59.75Zm72.12,44.23c-.41.43-1.9.46-7.32-4.18,0-.15-.07-.3-.11-.46a2.31,2.31,0,0,1,.25-2.38c.43.94,4.29,2.75,5.73,2.94C117.46,98.37,118.54,100.71,117.91,101.37ZM100.74,106c3.36,2.13,6.88,2.26,10.28,2.38,4.27.15,8.68.31,12.83,4.46.28,1,1.94,2.52,3.77,3.21v2.72c-6.83-1.73-19.65-4.13-21.16-4.13a3.48,3.48,0,0,0-2.44,1.2,7.69,7.69,0,0,1-.63.53c-.2-4.17-3.78-9.48-5.13-11.49l-.45-.69c0-1,0-1,.25-1.09a1.49,1.49,0,0,0,.51-.34h0a4.67,4.67,0,0,1,2,.65,6.43,6.43,0,0,0,1.89.7,7.37,7.37,0,0,1-1.72,1.81l-.06,0ZM90,92.11c.36-.23,3-1.94,3.62-2.23,1.77,1.23,3.46,2.23,5.09,3.2,4.15,2.46,8.07,4.79,12.7,10.55a11.64,11.64,0,0,1-3.75-.56l-.64-.17c-.2-.24-2-1.29-5.26-3.24C97.05,96.86,90.59,93,90,92.11ZM85.74,107.4l-.51-.88,1.53-1.37c.53,1.16,7.78,7.57,11.52,10.33a3.86,3.86,0,0,0-.73,1.45,6.3,6.3,0,0,0-3.14-1.18,7.58,7.58,0,0,1-3.09-1C89,113.14,87.35,110.22,85.74,107.4Zm9.9,12.45c.12-.11.24-.21.36-.33l3.79,0h0c1,0,2.66,1.66,4.59,3.58.92.91,1.86,1.86,2.84,2.72a20.31,20.31,0,0,0-3.19.75,12.65,12.65,0,0,1-3,.64c-1.43,0-6.37-3.85-6.37-5.33A2.17,2.17,0,0,1,95.64,119.85Zm9.1-28.73c-.83-.73-1.68-1.52-2.5-2.29a38.85,38.85,0,0,0-3-2.67h0c-1,0-2.83-1.27-4.55-2.51a16,16,0,0,0-4.36-2.56,10.32,10.32,0,0,0-1.18-1.27C87,77.73,82.72,73.42,83,70.36c.35.28,1.55,1.33,3.16,2.74C96.16,81.86,103,87.71,104,87.71h0C104.71,88.28,104.94,89.43,104.74,91.12Zm-45.84-7h3.72c1.86,0,3.48,2.38,5.05,4.69s3.17,4.68,5.09,4.88h0l1-.93,0,0-.06,0C72,91.59,72,90.91,72,88.87v-.33c0-.89-.4-1.1-.94-1.4a4.44,4.44,0,0,1-1.38-1.07h1a31.91,31.91,0,0,1,7.87,1c.36.09.64.16.84.19a64.55,64.55,0,0,0,9.26,10.45,14.52,14.52,0,0,0,2.24,1.38l1.42.8c-.67.81-1.2.88-2.62.88s-2-.11-3-1.18l0,0-1.23,1.2c-1-.88-5.34-2.8-10-4.83l-.23-.11c-5.7-2.51-12.16-5.36-13.45-6.72-.51-.55-.86-1-1.16-1.31a10.62,10.62,0,0,0-2.38-2.16A3.44,3.44,0,0,0,58.9,84.14ZM77,101.45a28.16,28.16,0,0,1,6.93,3.26L82.7,106l0,0a17.46,17.46,0,0,1,2.86,6.68l-.46-.24a47.19,47.19,0,0,1-4.77-2.75A10.93,10.93,0,0,1,75.13,101,17,17,0,0,1,77,101.45Zm61.86,17.36c-.11.13-.31.34-.31,1.23a28.76,28.76,0,0,0,1,7.42c0,.12,0,.14,0,.14s0,0-.11,0c-.87-.38-5-4.72-5-7.24v-4.8a7,7,0,0,1,1.14-3.47l.13-.23h.92c.11,1.32.11,2.14.11,3.62s1,2.2,1.93,2.93l.19.14C138.92,118.71,138.89,118.73,138.82,118.81Zm17,18.44h-.39a10.52,10.52,0,0,1-4-1,6.5,6.5,0,0,0-.51-1.15,6.62,6.62,0,0,1-.9-2.75,7,7,0,0,1,1.27-3.65l.09-.17c1.09.43,2.35,3.58,3.36,6.11C155.14,135.64,155.52,136.59,155.84,137.25ZM176.21,158a1.63,1.63,0,0,0,.29.72,2.55,2.55,0,0,1,.4,1.56c0,.62-.77,1.89-2.13,3.49a14,14,0,0,1-2.43,2.43A.58.58,0,0,1,172,166a1.76,1.76,0,0,1-.36-1.25c0-.71.27-.78.56-.85s.63-.16.63-.95c0-1.61-1.22-3.52-2.38-4.78l1.43-1.45C173.37,158,173.67,158.26,176.21,158Zm-16.45,29.55c.76-2.1,4.33-6.89,6.77-9.1a52.29,52.29,0,0,0-.71,8c0,.84-.06,1.62-.1,2.41,0,.15,0,.29,0,.44a2.83,2.83,0,0,1,0,.29,28.26,28.26,0,0,1-.34,3c-.24-.16-.66-.4-1.17-.69-1.41-.81-3.54-2-4.28-3.05l0,0a1.19,1.19,0,0,1-.24-.64A2,2,0,0,1,159.76,187.51Zm11.29-35.86.71-3.31a5.68,5.68,0,0,1,1,.58,10,10,0,0,1,2.79,3.14v2.06a15.55,15.55,0,0,0-3.21-1.82C171.91,152.08,171.46,151.88,171.05,151.65Zm-1.22,80.18c.87-1.17-.25-2.22-1.16-3.06a5.24,5.24,0,0,1-.85-.91,7.54,7.54,0,0,0-2.41-2.23A5.53,5.53,0,0,1,163.6,224c-.11-.47-.19-1-.27-1.56a10.69,10.69,0,0,0-1.25-4.23v-2.66a21.18,21.18,0,0,1,2.32.62h0a35.21,35.21,0,0,1,5.56,2.31l0,0,1-1,0,0,0,0a3.48,3.48,0,0,1-.38-1.32h0c0-.12,0-.25,0-.37a4.84,4.84,0,0,0-.38-1.69,22.39,22.39,0,0,0-2-2.88c-.49-.65-1-1.28-1.26-1.75a8.58,8.58,0,0,1-1.16-4.59A13.55,13.55,0,0,0,170,210.2c1.58,1.18,3,1.58,3.57,1.45a.42.42,0,0,0,.39-.42c0-.74-1.11-2.69-2.29-4.76s-2.46-4.3-2.41-5.06v-3.84l.09.07c2.9,2.62,5.32,5,7.83,7.63l0,0,1.54-1.55,0,0,0,0c-.43-.37-4.19-3.71-4.19-5.35,0,0,0-.05-.19-.14a6.86,6.86,0,0,1-3.62-4.21c-.38-1.33-.91-3.44-1.25-5.17v0a14.47,14.47,0,0,1-.33-2.43,26.64,26.64,0,0,1,1.43-6.78,39.27,39.27,0,0,1,3,7.56c.17.55.35,1.1.53,1.65h0l0,.06c1.56,4.7,3.41,9.43,7.31,11.06h2.29l1-1,0,0,0,0a24.75,24.75,0,0,0-3.85-5c-1.42-1.48-2.44-2.56-2.69-5,0-.4-.06-.83-.06-1.27a2.31,2.31,0,0,0-.7-1.68,2.78,2.78,0,0,1-.72-1.27,125.21,125.21,0,0,1-2.18-13c0-1.38,1.08-4.29,2.15-6.58.13-.23.25-.35.36-.35h0c.11,0,.22.13.34.36l-.69,1.13h0a4.73,4.73,0,0,0,0,.52c.08.76.17,1.61-.59,2h0l.58,10,.11,1.12,1.26,2.16c-.17,1.39,2.57,6,3.62,6.83l0,0,.13,0h.06l.07,0-.05-.05c-.12-.14-.06-.47,0-.77a2.07,2.07,0,0,0,0-.46h0v0c-1.45-1.64-2-5-1.84-7.6v0l-.85-.69h0c-.23-1.54-.31-2.06.33-3.27v0c-.31-1.07-.34-4,.44-5.14a1,1,0,0,1,.69-.47h.05l.08-2c.58-.63,1.17-1.16,1.74-1.67a14.17,14.17,0,0,0,3-3.49h.18a5.37,5.37,0,0,0,2.41-.69c.79.18.92,1.62.87,2.37a7.13,7.13,0,0,1-2.71,1.24l-.37.11h0c-.31.52-.64,1-1,1.55a27.45,27.45,0,0,0-3.74,7.61,9,9,0,0,0,1.91,8.19c.09.14,1,1.09,1.25,1.31v.4l.06.05c.6.51,2.18,1.88,2,2.76v.05l1.52.21,0,0c.52-1.07-.85-2.67-1.86-3.84-.31-.35-.57-.66-.75-.9l.16-1.41a2.56,2.56,0,0,0,.95-.35l0,0-.22-.77v0l-2.1-1.37a4.48,4.48,0,0,0-.06-.74c-.06-.48-.08-.65.54-1.43l1.41-.1h0l0,0a.7.7,0,0,1,.11-.23c.11-.22.23-.44,0-.7h0a4.57,4.57,0,0,0-3.34-.71l.16-1.48.81-.76a1.71,1.71,0,0,1,.55.33,2.06,2.06,0,0,0,1.59.59c.44-.1.82-.47,1.18-1.14l0-.05-.05,0a8.06,8.06,0,0,1-2.68-1.76l-.3-.26.54-.81.8.37h0a5,5,0,0,1,2.32-.29,3.29,3.29,0,0,1,.57,1.35c.35,1.17.83,2.77,2,3.43a10.42,10.42,0,0,1-1.22,1.63,10,10,0,0,0-.87,1.11h0v0c.07.78.12,1.52.16,2.23.25,4,.41,6.63,5.24,7.46a1.85,1.85,0,0,0,.17,1.17l0,.14c.06.15.11.29.14.39l-2,1.55h0v0a1.19,1.19,0,0,0,.45,1.05.5.5,0,0,0,.55,0l.67-.88,1.76-.29h0a2.35,2.35,0,0,0,.79-1.58c0-.1.05-.2.08-.29v0a3,3,0,0,1,.24-.66v0l-.51-2h0a3.7,3.7,0,0,0-1.59-.71c-1.45-.45-3.44-1.06-4.2-2.86-.68-1.59-.28-3.88,1.19-6.8A9.71,9.71,0,0,0,193,177c-.38.87-.86,1.79-.86,1.79v0a3.92,3.92,0,0,0,1.56,4.38c1.17.61,2.61.1,3.92-1.4l0,0v0c-.62-3.26-2.75-5.9-6.32-7.86a2,2,0,0,0-.55-.83l-.2-.23c.48-1.58.29-10.47-.43-11.95l-.6-4.06c0-.57.06-1.57.55-1.94a3.47,3.47,0,0,1,.79,1.21c.12.78.22,1.55.32,2.3a32.56,32.56,0,0,0,1.32,6.47,11.87,11.87,0,0,1,.05,2.49v0l.28.54a12.79,12.79,0,0,0,2.42,3.68,5.57,5.57,0,0,0,1.11,1.58c.78,1.46,1.6,2.95,2.39,4.39l1.06,1.91c.23.67.5,1.45.84,2.21v0h0c.38.1,1.17,1.79,1.74,3,.31.67.58,1.26.75,1.53a2.8,2.8,0,0,0,.3,1.39l.05.12h0a3.84,3.84,0,0,0,2.58-.65l.06,0,1.12-1.09a2.91,2.91,0,0,1,.48-.53,4.51,4.51,0,0,1,1-.65,3.86,3.86,0,0,1,2.11-.47h0l0,0a8.79,8.79,0,0,1,4-3.5l.55-.3h0l.09-.29c.51-.24,2.84-1.82,2.87-2.66l1.49-.86,0,0v0c.3-1.35,2.07-2.54,3.63-3.6a16.25,16.25,0,0,0,2.08-1.56l0,0v-.29a23.5,23.5,0,0,1,2.18-1.72l.58-.42h0a2.55,2.55,0,0,1,.1-.29,9.64,9.64,0,0,0,.58-1.77,1.76,1.76,0,0,1,1.58-.92,23.52,23.52,0,0,1-4.1,6.95l-.43.29c-1.44,1-2.31,1.56-4,6.08l-.24.28-.6.36a24.39,24.39,0,0,0-2.63,1.53l-.46.27c-2.37,1.36-4.83,2.77-7.09,4.3a12.65,12.65,0,0,0-3.37,2.45l-.26.17h0a1.63,1.63,0,0,0-.49.53h0c.08,2.93-1.39,3.16-2.37,3.31l-.36.07a9.57,9.57,0,0,0-2.13-.17h0a20.5,20.5,0,0,1-1.35-2.45l-.48-.34-1.71,2.59,0,0,0,0c.07.15-.15.33-.4.53a1.81,1.81,0,0,0-.61.69,15.58,15.58,0,0,1-1.34,1.73,13.39,13.39,0,0,0-1.61,2.2h0a.86.86,0,0,0,.38.82.68.68,0,0,0,.71.11l1.22-.86a9.49,9.49,0,0,0-.53,1.89l-.09.39h0a.49.49,0,0,0,.2.35,1.27,1.27,0,0,0,.87.18h0l.86-.91a5.88,5.88,0,0,1-.12.85,7.53,7.53,0,0,0-.14,1l-.32.1-1.52,2.26v0a2.63,2.63,0,0,0,.15,1.12c0,.14.08.26.1.37v0h0a.89.89,0,0,0,1.07,0l.24-.46a1.16,1.16,0,0,1,.4.78,1.34,1.34,0,0,0,.57,1c.93.54,1.8-.08,2.64-.68S203,204.65,204,205a2.25,2.25,0,0,1,.19.38,1.87,1.87,0,0,0,.39.68l0,0,1.53.1h0a2.61,2.61,0,0,1,2-.78,1.4,1.4,0,0,0,1,.84l.17,0c.92,0,2-1,2.74-1.81a5.77,5.77,0,0,1,.75-.69l1.32,1.34h0a6.16,6.16,0,0,0,2.47-.35l8.67-4.48.07.14a11.84,11.84,0,0,1,1.29,3.73c-.93.53-1.92,1.16-3,1.81-4.1,2.57-8.73,5.47-12.64,5.11H211v.06c.09.35-.56,1.14-1.09,1.43l-.15.08.17,0a77.07,77.07,0,0,1,14.83,2.45l-.38.1-3,.83h0a30.66,30.66,0,0,1-5.39,1.11,5.08,5.08,0,0,1-2.8-1.1h0A3.45,3.45,0,0,1,212,214.8l0-.06,0,0a7.69,7.69,0,0,0-1.64,1.29l0,0a3,3,0,0,0-1,2c0,.06.09.19.38.58.95,1.28,3.14,4.26,3,6.86-.47,0-4.34,0-5.9,0h0l-1.07,1,0,0c2.13,2.12,4.15,2.17,6.49,2.23h.63c-1.17,1.72-4,4.54-7.38,4.54a6.48,6.48,0,0,1-3.36-1.1l-.2-.12,0,0c-.14.16-.21.18-.26.19s-.11.05-.1.43v.61c0,1.09,1.43,1.88,2.48,2.46a4.84,4.84,0,0,1,.9.58l0,0h0a49.12,49.12,0,0,1,6.69-1.73v5.07c-.13.15-.26.33-.39.51a2.63,2.63,0,0,1-2.19,1.44,5.24,5.24,0,0,1-2.08-.59,5.24,5.24,0,0,0-2.12-.61,14.77,14.77,0,0,0-4.37,1.26l-.75.29-.09,0,3.06,2.12h.11a3.35,3.35,0,0,1,2.27.84,2.71,2.71,0,0,0-.07,2.41,1.52,1.52,0,0,0,1.2,1v2.74a11.3,11.3,0,0,1-4.34-.41,51.36,51.36,0,0,1-7.6-7.52l0,0a14.21,14.21,0,0,1-1.48-2.33.63.63,0,0,0-.32-.41,2,2,0,0,0-1.41,0h0v0a1.59,1.59,0,0,0,.77,1.34,1.48,1.48,0,0,1,.73,1.31v.07c-.1,2.17-4.62,8.37-5.57,8.94-.66.09-1.41.21-2.21.35a27.92,27.92,0,0,1-3.87.49,6.4,6.4,0,0,1-2.34-.66,6.93,6.93,0,0,0-2-.63,26,26,0,0,1,2.21-8.43v0a76.11,76.11,0,0,1,4.66-9.1s.3-.43-.42-1.53l0,0,0,0a22.91,22.91,0,0,1-3.19,1.81c-1.78.9-3.61,1.83-4.09,2.7a14.21,14.21,0,0,1-3.59.24h0v0a3.32,3.32,0,0,0-.09,2,7.84,7.84,0,0,1,.11,1.74v.07l.07,0c2.3-.64,3.59-.75,4.08-.34.3.26.26.71.21,1.19a4.9,4.9,0,0,0,0,.54,1.88,1.88,0,0,1-.13.66l0,.06h0a14.55,14.55,0,0,1-2.4,3.33c-.53.61-1.07,1.25-1.54,1.87a4.2,4.2,0,0,1-2.75.93c-.89,0-1.83-.65-3-1.48a24.18,24.18,0,0,0-2.61-1.64,2.44,2.44,0,0,1,.35-1.17,4.47,4.47,0,0,0,.37-.95c.5.34,1,.66,1.57,1s.92.53,1.33.81l.09.06v-.11a5.88,5.88,0,0,1,.72-2.41l.14-.31h0a18.65,18.65,0,0,0,.85-2.25v0h0a18.68,18.68,0,0,0-4.61-.08c-1.28.08-2.72.17-4.31.13a2.87,2.87,0,0,0-.78-1.46l-.44-.58a1.31,1.31,0,0,1,.91.38,2.56,2.56,0,0,0,1.68.65,2.38,2.38,0,0,0,2.13-1c.17-.17.36-.37.6-.59l0,0,0,0c-.44-.6-.9-1.2-1.39-1.84-2.26-2.93-4.6-6-4.6-8.91a4.2,4.2,0,0,1,.36-1.75,5.68,5.68,0,0,0,.39-1.43,21.4,21.4,0,0,1,2.55,2.24c2.13,2.05,4.54,4.37,8.07,5.06h0ZM202.61,154a5.53,5.53,0,0,1-3.53-1.41,5.31,5.31,0,0,0-1.55-.91v-2.13c.29.24.59.47.9.71.66.51,1.35,1,2,1.64A21.18,21.18,0,0,1,202.61,154Zm19.16,8.73c-.79,1.15-2.12,2.4-3.31,2.15v-2.1a8,8,0,0,1,2-.67l.28-.07a16.54,16.54,0,0,0,1.66-.44A5.58,5.58,0,0,1,221.77,162.74Zm-9,2.7a22.28,22.28,0,0,1,3.07,1.74l-.45.1a2.84,2.84,0,0,0-1.52.69,3.21,3.21,0,0,1-.84-1.72A7.71,7.71,0,0,0,212.75,165.44Zm5-5.88a2.55,2.55,0,0,0-.17.56,6,6,0,0,1-2.56-2.53,8,8,0,0,1-.64-1.38l.77.57a12.34,12.34,0,0,0,3.11,1.87A3.44,3.44,0,0,0,217.74,159.56Zm-9.89,9.14a3.53,3.53,0,0,0,2.12.64c.16,0,.3,0,.45,0a4.11,4.11,0,0,0,.12.61c.14.57.28,1.12-.2,1.58h-2.6a2.25,2.25,0,0,1,.11-2.86Zm2.66-10.27a8.29,8.29,0,0,1-4-.14v-2.15h3.27c.15.14.32.28.5.43.66.53,1.39,1.14,1.37,1.73C211.27,158.33,210.9,158.38,210.51,158.43Zm-9,8c.15.27.3.56.48.82-.28.14-1.68.85-2.19.33a10.69,10.69,0,0,1-1.11-1.4c-.22-.3-.44-.62-.68-.93C200.35,164.23,200.93,165.32,201.54,166.48Zm1.12-6.59c-.64.82-.86.9-2.31.9s-2.56-1-3.35-2.95v0a.51.51,0,0,1,0-.27,2.09,2.09,0,0,1,.7-1.45c.17.16.33.32.49.46A14.14,14.14,0,0,0,202.66,159.89Zm23.68,78.89h0c-.15,0-.27,0-.35-.22.07-.66.12-1.38.14-2.14a37.2,37.2,0,0,0-.32-5.2c3.78,4.37,5.7,7.13,5.7,8.21a4.66,4.66,0,0,1-1.08,2.57,10.5,10.5,0,0,1-1.23,1.37l-.09.08h0a8.17,8.17,0,0,1-4.62,2.41,16.19,16.19,0,0,1,1-2.43l.19-.39a9.74,9.74,0,0,0,1.16-3.31,1.3,1.3,0,0,0-.18-.86A.38.38,0,0,0,226.34,238.78Zm-83.8,26.87h0a.86.86,0,0,1,.07-.1l0-.05a2.25,2.25,0,0,1,1.89-.87,7.15,7.15,0,0,1,3,.9,18.12,18.12,0,0,1,2,1.18,26.24,26.24,0,0,1,3.24,2.61l-.65,0c-.88,0-1.78,0-2.67,0-2.49,0-5,.06-7.53.19A6.38,6.38,0,0,1,142.54,265.65Zm54.92,22a6.11,6.11,0,0,1-.58,3h0a5.45,5.45,0,0,1-2.68,3.12,2.65,2.65,0,0,1-.5.27l-.41.2a.61.61,0,0,1-.4-.23.49.49,0,0,1,0-.37,2.85,2.85,0,0,0,.43-1.5,6.61,6.61,0,0,1,.25-1.75,3.25,3.25,0,0,0,.17-.89,9.62,9.62,0,0,0,.42-2.74s0,0,0,0v0c.09-.84.17-1.55.33-2.36a.9.9,0,0,0,.09-.52,3.83,3.83,0,0,0-.73-2.41l0,0s0,0,0,0l0-.06,0,.06v0s0,0,0,0a6.15,6.15,0,0,0-1.08,4.39l-.25,1.17a10.55,10.55,0,0,1-1.43,3.41v0a9.36,9.36,0,0,1-.73,1l-1.07.48c-.72-.19-1-.66-1.21-1.72a10,10,0,0,1-.08-2.73,1.74,1.74,0,0,1,.49-1.14v0a.58.58,0,0,1,0-.1,1,1,0,0,0,.06-.38,7.67,7.67,0,0,0,.09-1.67,18.53,18.53,0,0,0,.08-1.95c0-.19.05-.37.07-.52a1.51,1.51,0,0,1,.09-.44v0c-.05-.36-.08-.77-.11-1.32-.06-.92-.06-1.89-.06-2.88,0-.49.08-1.05.16-1.77s.16-1.52.26-2.34c.15-.65.27-1.32.4-2.12l.14-.91a2.87,2.87,0,0,0,0-.31v-.29a1.65,1.65,0,0,1,.81-1l2.67.1a22.8,22.8,0,0,1,2.46,1.58c.13.08.24.17.36.25l-.32,1.11A3.44,3.44,0,0,0,194,272l-.49.4h0a.38.38,0,0,0,0,.39c.19.25.76.34,1.69.27a2.45,2.45,0,0,1,1.56.85l.47.93-.12,0-.09,0a4.18,4.18,0,0,0-1.6,1v0c-.14.36-.15.59-.06.74s.25.19.53.2H196a2.6,2.6,0,0,1,1.74.38,5.08,5.08,0,0,1,.49.87c.15.32.28.63.42,1a12.18,12.18,0,0,1,.3,4.07c0,.32,0,.62,0,.89l-.42.68-.59,2-.43.89Zm-22.85-29.54c0-.12,0-.26,0-.4,0-2.12,5-2.65,5.65-2.65a4.25,4.25,0,0,1,1.93.59,4.31,4.31,0,0,0,2,.61,12.6,12.6,0,0,0,2.87-.6,11.9,11.9,0,0,1,2.83-.6c1.15,0,3,1.88,5.58,5.74h-.67c-2.56,0-3.9-.5-5.61-3.47l0,0h0a6,6,0,0,0-2.56,1.52,15.44,15.44,0,0,1-1.4,1.05c-1.58.2-3.25.54-5,.9-2.31.46-4.7.94-7.21,1.19C174.64,260,174.63,259.29,174.61,258.13Zm20.56-.91-.11-.15a13.84,13.84,0,0,0,2-.41,15.35,15.35,0,0,1,3.18,1.72,2.61,2.61,0,0,0-.67.34,2.41,2.41,0,0,1-1.61.46C196.59,259.18,195.8,258.09,195.17,257.22Zm.73-8.1c1,1.86,4.7,4.55,7.44,6.52l.46.34h-.14c-1.44,0-5.65-.94-7.89-2.89a3.46,3.46,0,0,1-1.37-2.54Zm-24.05,18h0l0,0h0a4.69,4.69,0,0,1,3.57-1.25,2,2,0,0,1,1.77.61,2,2,0,0,0,.3.27,7.49,7.49,0,0,1,.53,1.06c0,.11.09.23.13.34v0a3.87,3.87,0,0,1-.54,3.73c-2.49-.48-5-.89-7.52-1.24A8.52,8.52,0,0,1,171.85,267.16Zm-3.77-3.54h0v0a3.15,3.15,0,0,0,.34,2.28,2.25,2.25,0,0,1,.12.71l0,.19v.09a15.79,15.79,0,0,1-.67,2.6,7.26,7.26,0,0,1-.67,1.47,8.49,8.49,0,0,1-.49.76,3.66,3.66,0,0,0-1.11,1.59c-.13.25-.33.72-.61,1.36l-.23.55c-.22.51-.47,1.07-.76,1.72a15.87,15.87,0,0,1-1.1,2.15h0l.34,1.09a4.45,4.45,0,0,0-.33,1h0a3.24,3.24,0,0,1-.58,2.51c-.34.49-.78,1-1.09,1.36a8.24,8.24,0,0,1-.9.57,1.12,1.12,0,0,1-.87-1c0-.62-.06-1.28,0-2a28,28,0,0,1,.72-5.76h0a6.76,6.76,0,0,0,.33-1.86.28.28,0,0,0,0-.09.13.13,0,0,0,0-.06,2.17,2.17,0,0,0,0-.84V274l-.66.22h0a5.57,5.57,0,0,0-.43.56,8,8,0,0,0-1.26,2.6c-.06.21-.11.42-.16.63-.12.44-.23.89-.35,1.42a6.28,6.28,0,0,1-.33,1.17.78.78,0,0,0-.05.14,1,1,0,0,0,0,.1,13.89,13.89,0,0,0-.93,4.18,1.23,1.23,0,0,1-.36.81.26.26,0,0,1-.24,0l-.83-.38a11.29,11.29,0,0,1-1.17-4.85,8,8,0,0,0,.42-1.85.71.71,0,0,0,.09-.3,1.38,1.38,0,0,1,.08-.29h0c.14-.9.26-1.82.37-2.71l.12-.9,0-.31c.05-.35.09-.72.15-1.08a7.65,7.65,0,0,1,.5-1.75,7.19,7.19,0,0,1,.73-1.28l.05-.07.14-.21a15.78,15.78,0,0,0,1.61-2.94l.18-.3,0-.05a7.29,7.29,0,0,1,.54-.8l0-.06,0-.06a19,19,0,0,1,2.69-2.44h0a4.33,4.33,0,0,1,.83-1.65c.25-.29.53-.59.8-.88s.55-.59.81-.89l.57-.95a12.82,12.82,0,0,1,5.74,1.54,7.63,7.63,0,0,0,.25,3.1l-.95,1.37-.39-.9A.69.69,0,0,0,168.08,263.62Zm40.67,13.79c0-.07.05-.13.08-.19l0-.06c.06-.14.11-.29.17-.43l1,1.26c1.28,1.66,2.64,3.41,4,5-.13,0-.27,0-.41.06a4.89,4.89,0,0,0-.89.19c-1.66-.77-3.34-1.52-5-2.23A19.26,19.26,0,0,1,208.75,277.41Zm14.12-22.07a11.26,11.26,0,0,0-.83,2.43,4.72,4.72,0,0,1-1.42,2.17,5.54,5.54,0,0,0-1,1.28c-.09.15-.86-.08-1.37-.29l-.08,0V261a37.83,37.83,0,0,1,.07,4.68c-3.5,1.68-6.85,2.26-9.68,1.67h0a1.75,1.75,0,0,1-1.53-.6,6.21,6.21,0,0,1,2.64-1.49,6.9,6.9,0,0,0,1.65-.74c.94-.65,1.48-2.53,1.74-3.44a3,3,0,0,1,.16-.49,13.45,13.45,0,0,1,2.69-2.15,6.6,6.6,0,0,0,2.3-2c.12-.25.26-.5.41-.77a6.74,6.74,0,0,0,1-2.72,16.6,16.6,0,0,1,4-.17A6.58,6.58,0,0,1,222.87,255.34Zm-7.28-7.64c-.56,1.2-.94,2-1.54,2-.77,0-1.92-.94-3-1.84a8.33,8.33,0,0,0-2.69-1.73c.72-.84,3.44-1.25,5-1.16H217A23.27,23.27,0,0,0,215.59,247.7ZM219.15,282l-.28.07-1.3.3-.79.18a3.6,3.6,0,0,1-.7-1.19c-.12-.27-.26-.57-.44-.9,0-.09-.1-.18-.16-.29a7.55,7.55,0,0,0-.65-.89c3.61-2,5.37-3.56,5.37-4.76a1.61,1.61,0,0,0-.46-1.37c-.51-.36-1.36-.06-2.26.25-1.08.37-2.2.75-3,.18s-1-1.82-.9-3.93a12.53,12.53,0,0,0,4.41-2.18l.61-.39c1.56.91,2.7,4.27,3.54,6.72.32,1,.61,1.8.87,2.37l1.81,1.87v2a26.26,26.26,0,0,1-5.55,1.9Zm13.5-21.72a15.69,15.69,0,0,0,1.23,1.65,41.35,41.35,0,0,1-3.74,2.7,37.73,37.73,0,0,0-6,4.72,5.8,5.8,0,0,1-2.06-2.2,16.55,16.55,0,0,0-1.21-1.65c1.07-.85,2.34-1.78,3.69-2.77,1.86-1.36,4-2.9,6.11-4.65A5.81,5.81,0,0,1,232.65,260.29Zm-1.58-71.42a6.91,6.91,0,0,1-1.92,2.57h0a16.57,16.57,0,0,1-3.4,6.27,2.51,2.51,0,0,0-.54.38c-1.21.59-2.28,1.06-3.28,1.45a4.93,4.93,0,0,0-1.19.5,36.18,36.18,0,0,1-4.6,2.23,5.09,5.09,0,0,0-1.66-.57,7.13,7.13,0,0,0-1.4-2.21,1.31,1.31,0,0,0,.24-.37c.09-.18.17-.38.26-.58a5.64,5.64,0,0,1,.41-.86,6.07,6.07,0,0,0,.16.65v0a1.29,1.29,0,0,0,.17.15l.14.11a1.31,1.31,0,0,0-.24.37v.31l.17.61h0l.52.31h0a3.49,3.49,0,0,0,2.64-.68,2.51,2.51,0,0,0,1.86-.89,1.59,1.59,0,0,0,1.36-1h0c.24-.09.49-.18.81-.28,1.24-.35,3-2.22,5.07-5.27a.87.87,0,0,1,.1-.14,4.54,4.54,0,0,1,.41-.68h0a8.43,8.43,0,0,1,.64-2.46l0-.06h0a11.45,11.45,0,0,1,.75-1.48h0v0a1.93,1.93,0,0,1,.08-.67l.09-.4c.08-1,.08-1.85.08-2.85a2.69,2.69,0,0,0-.76-2.07.57.57,0,0,0-.17-.3.82.82,0,0,0-.53-.41h0a.54.54,0,0,0-.33.13l-.09.06-.23-.19c-.55-.49-1.69-1.47-2.4-1.47h0a3.36,3.36,0,0,1,.39-1.08,1.11,1.11,0,0,0,.25-.09l.24-.1c.09,0,.11,0,.26-.21a2,2,0,0,0,1.61-.48,25.2,25.2,0,0,0,1.35,2.57c1.26,2.25,3,5.33,3.05,7.16a6.06,6.06,0,0,1-.41,2l0,.07Zm-19.54,3.06a.56.56,0,0,1,.25.17h0a5.59,5.59,0,0,0,4.59.49h0l.16-.08a.44.44,0,0,0,.18-.12,5.09,5.09,0,0,0,1.57-.64l.28-.14a2.41,2.41,0,0,0,1-1.1,14.09,14.09,0,0,0,1-1.27v0l.07-.41v0h0a.6.6,0,0,0,0-.12,6,6,0,0,0,.5-1.58,2.18,2.18,0,0,0-.17-.51l-.08-.69h0a.85.85,0,0,0-.65-.11c-.09,0-.39.07-.45.23s-.16.65-.26,1.19c0,.17-.07.68-.08.76a9.38,9.38,0,0,1-.52.83l0,0a4.75,4.75,0,0,1-.49.6,3.82,3.82,0,0,1-.64.58.31.31,0,0,1-.12.09.5.5,0,0,0-.13.1,4.68,4.68,0,0,1-4.49.29l-.34-.19a9.55,9.55,0,0,1-1.55-1,1.91,1.91,0,0,0-.16-.36h0l0-.08a1,1,0,0,0-.32-.37l.12-.42c.24-.15.46-.32.89-.65a.93.93,0,0,0,.32.45,4.35,4.35,0,0,0,.88,1.06l0,0a2.25,2.25,0,0,0,.39.3,3.57,3.57,0,0,0,3.58-.32l.1-.08h0a5.06,5.06,0,0,0,1.36-2.67c0-.09.31-2-.15-2.73a2.62,2.62,0,0,0,1-.68,7.41,7.41,0,0,1,1.3-.37,2.15,2.15,0,0,0,1.54,0c.05,0,.12-.09.28-.31a3.18,3.18,0,0,1,.4-.47.6.6,0,0,1,.19.08,1.33,1.33,0,0,0,.28.1,2.92,2.92,0,0,0-.18.39l0,.09,0,0a2.26,2.26,0,0,1,1.56,1.22,1.19,1.19,0,0,1-.08.16.75.75,0,0,0-.08.2L224,184a4.51,4.51,0,0,0-.63.29l0,0,0,0a1,1,0,0,0,1,.62l.44.69a1.24,1.24,0,0,0-.52.1h0v0a.52.52,0,0,1-.16.27l0,.08a1.28,1.28,0,0,0,0,.94v0h0a3.21,3.21,0,0,0,1.35.3,4.55,4.55,0,0,1,.38.69,4.07,4.07,0,0,0-.47,0,4.62,4.62,0,0,1-.65.05h-.05v.05c0,.09-.09.18-.16.26v0a.84.84,0,0,0-.07.24v.05c0,.1,0,.21,0,.31v0l0,0a3.71,3.71,0,0,0,1,.57,5.47,5.47,0,0,0-.54,1.16,4.83,4.83,0,0,0-1.47-.84h0a1.1,1.1,0,0,0-.53.21.77.77,0,0,0-.36.41v0a.66.66,0,0,0,.1.42,3.44,3.44,0,0,0,1.08,1.37c0,.05,0,.09,0,.13a2.21,2.21,0,0,0-.11.58,2.29,2.29,0,0,1-.78-.09,10.5,10.5,0,0,1-1.91-1.84l0,0h-.28a.32.32,0,0,0-.15.06.26.26,0,0,1-.1,0h0l-.29.33v0c.09.29.17.49.25.69a4.76,4.76,0,0,0,1.34,1.85.74.74,0,0,0,0,.55,11.08,11.08,0,0,0-1.55,1,2.17,2.17,0,0,0,0-.87v0h0a5.53,5.53,0,0,0-.6-.3h0a.77.77,0,0,0-.45.31.58.58,0,0,0-.27.51,3.39,3.39,0,0,0-.25,1.28.71.71,0,0,1-.32.36h0v0a1.85,1.85,0,0,1-.23.37h0a11.1,11.1,0,0,1-1.36.72.8.8,0,0,0,.1-.38s.08-2.26.08-2.75v0h0a4.13,4.13,0,0,0-2.95-1.3,4.55,4.55,0,0,0-1.29.2.61.61,0,0,1,0-.12l-.09-.15a3.27,3.27,0,0,0-.42-.69l-.49-.28A4.79,4.79,0,0,0,211.53,191.93Zm-11.73,9.86a2.78,2.78,0,0,1,.18-1.6v0a18.19,18.19,0,0,1-.71-3.13h0l-.56-2.54a8.42,8.42,0,0,1,2.34-.34,9.8,9.8,0,0,0,1.39-.15,5.26,5.26,0,0,0,.57.85,9.7,9.7,0,0,1,.49,1v0c-.15.37-.32.75-.4,1h0c-.05.27-.52,1.41-.94,2.43a16.3,16.3,0,0,0-.66,1.68l-.33.37-.34.35a6.1,6.1,0,0,1-1,.87A6.14,6.14,0,0,0,199.8,201.79Zm25.31,8.33h0l1.22-1.17h2.08l0,.29a3,3,0,0,1-.57,2.37l-.25.26c-.43.47-.48.52-1.09.52h-.7a5.6,5.6,0,0,1-3.79-2.13A15.42,15.42,0,0,1,225.11,210.12Zm-1.26,61.35c2.76-.69,4.41-2.1,6.32-3.72a30.76,30.76,0,0,1,4-3h2a2.79,2.79,0,0,0,.85,1.56c.12.14.25.29.38.46-.7.36-1.5.73-2.34,1.11-2.8,1.29-6.29,2.9-8.64,5.22C225.57,273.54,224.37,272.16,223.85,271.47Zm16.47-21.12a.84.84,0,0,0,.37.52c.21.16.4.3.4,1.16s-1.14,2.34-2,3.41c-.46.59-1,1.19-1.44,1.76-.61.72-1.18,1.41-1.58,2l-.52-.38c-.77-.53-1.55-1.08-1.55-2.25,0-.84,1.39-1.95,3-3.23l.2-.16A24.05,24.05,0,0,0,240.32,250.35Zm-3.6-.78c-.12,0-.59.21-1.21.36a7.9,7.9,0,0,1-1.86.25,3.35,3.35,0,0,0-1.94.87,3.15,3.15,0,0,1-1.76.81h-.08c.14-.41.28-.8.41-1.19a21.12,21.12,0,0,1,1.95-4.53,11.62,11.62,0,0,1,1.92-2.34C235.13,245.44,236.84,248.73,236.72,249.57Zm23-89c-1.27.89-3.61,2.25-5.16,1.43.67-1.35,1.15-2.46,1.53-3.36l.26-.6c.88-2,1.36-2.77,3-2.77.56,0,1.16,0,1.73-.09a13,13,0,0,1,2.92,0h0a.27.27,0,0,1,.21.23C264.3,156.15,262.26,158.7,259.68,160.52Zm73.12,1.13c.09.27-.14.63-.62,1-1.08.78-3.41,1.49-6.74,1.16a26.12,26.12,0,0,0-3.73.12c-.88.06-1.72.13-2.31.13a4.24,4.24,0,0,1-3.12-1.68.34.34,0,0,1,.05-.39c1-1,3.64-1.09,5.34-1.09h.86c1,0,3.13.1,5.23.2,1.43.06,2.91.13,4,.16h0C332.33,161.25,332.72,161.4,332.8,161.65ZM312.27,160a15.6,15.6,0,0,1-4.12,1.45c-.85,0-1.79-.25-1.89-.72s.33-1,2.71-2.05a4.77,4.77,0,0,0,1.22-.55c1.15-.67,2.35-1.35,5.21.65A20.22,20.22,0,0,0,312.27,160Zm-14.58,1.51a17.57,17.57,0,0,1-2.63.44,18.65,18.65,0,0,0-2.69.44c.63-.63,1.24-1.31,1.83-2,2.28-2.51,4.43-4.9,7.5-4.9l.49,0C302.74,157.67,298.5,161.23,297.69,161.52Zm-2.08-8.37v0a.64.64,0,0,0,0,.07c-.33,1.77-2.6,2.82-4.8,3.83-.85.39-1.73.8-2.48,1.24h-2.65c.51-2.22,1.86-2.85,3.43-3.59a11.48,11.48,0,0,0,2.66-1.58Zm-12.55.7a7.55,7.55,0,0,1-5.72,4.45h0l-3.63,1.19c-.26-2.64.36-4.5,1.82-5.54a5.89,5.89,0,0,1,3.43-.93A11,11,0,0,1,283.06,153.85Zm-14.94,0a19.29,19.29,0,0,1,4.09,0,7,7,0,0,0-1.29,2c-.91,1.71-1.94,3.65-3.68,3.21Zm140.56,1.18c-3.78,3.29-13.53,7.37-16.07,8.13a15.58,15.58,0,0,1-4.75.6h-.63a2.91,2.91,0,0,1-2.62-1.49h0a84.73,84.73,0,0,1,12.23-4.54l2.05-.62a86.8,86.8,0,0,0,11.25-3.94A4.43,4.43,0,0,1,408.68,155.06Zm-52.2,16.46a2.5,2.5,0,0,1,.53-2.14c1.88-2.23,8-2.63,17.94-2.55,1-.06,1.68.09,2,.48s.11,1.35-.23,2.24l0,0c-2.95,2.15-5.28,3.44-6.94,3.83-.25,0-5.72-.51-7.19-.51a14.64,14.64,0,0,1-3.29-.73A15.52,15.52,0,0,0,356.48,171.52Zm1.63-11.07a3.12,3.12,0,0,1,.07-.51c.13-.62,2.13-.72,5.49-.27l.16,0c1.09-.06,2.79-.33,4.77-.65,5.2-.85,12.32-2,16.11-.49.13.06.16.1.17.12a.08.08,0,0,1,0,0c-.26.48-4.87,1.07-7.34,1.4-.76.1-1.36.17-1.7.23l-11.46,1c-2.57.59-4.95,1.05-5.85.29A1.39,1.39,0,0,1,358.11,160.45Zm-2,6.7-1.74,2.06c-.92.61-5.48.41-9.1-.64-1.54-.45-3.48-1.23-4-2.4l5.94-.44.9.32C350.2,166.83,353.36,168,356.13,167.15Zm.88,9a7.66,7.66,0,0,1,2-.29c.13,0,.38,0,.73.05a16,16,0,0,1,3.31.41,4.83,4.83,0,0,1,3.33,2.28,40.72,40.72,0,0,1-13.58,0A8.73,8.73,0,0,1,357,176.18Zm17.93-1.33c1.47-.64,3.3-1.43,4.72-1.95a8.1,8.1,0,0,1,2.17-.61,10.35,10.35,0,0,1,3.69.56,12.67,12.67,0,0,1,1.74.82,14.78,14.78,0,0,0,7.44,1.89.07.07,0,0,1,0,.06c-.44.89-16.06.56-22.44.34C372.78,175.78,373.76,175.36,374.94,174.85Zm19.72-6.25a16.12,16.12,0,0,0,1.51-1.1,34.42,34.42,0,0,0,3.52,1l.36.09c3.3.82,7,1.74,9.54,4-.82.08-1.82.22-2.79.36a36.92,36.92,0,0,1-4,.43,18.23,18.23,0,0,1-3.47-.87c-1.18-.36-2.52-.77-3.86-1.1a19.82,19.82,0,0,0-3.65-.61A17.51,17.51,0,0,1,394.66,168.6Zm8.57-4.38a11.71,11.71,0,0,1,1.61-1.72,3.64,3.64,0,0,1,.91-.63c1.09-.17,2.35-.5,3.57-.82a27.55,27.55,0,0,1,3.2-.72,5,5,0,0,1,.5,0,66.5,66.5,0,0,1,10.29,1.44A145.28,145.28,0,0,1,405.83,165a3.54,3.54,0,0,1-1.84-.46A3.27,3.27,0,0,0,403.23,164.22Zm-160.81-1.46h0c1-1.66,3.34-2.45,5.26-2.95a1,1,0,0,1,.48,1.11c-.14,1.48-1.82,3.87-2.92,4.87h0v0c-.27.92-.69,1.44-1.23,1.53-.81.14-1.65-.69-2-1.15A4.52,4.52,0,0,1,242.42,162.76ZM166.1,147.32l-1.46,1.45-.34-.27a3,3,0,0,1-1.37-2h0c.1,0,.2-.14.41-.39s.75-.95,1.23-.95h.12C165.21,145.23,165.68,146,166.1,147.32Zm19.09,46.9c-.09.1-.26.1-.42.19-.26-.19-.51-.39-.85-.68,0-.2-.08-.49-.08-.69a2.3,2.3,0,0,0,.08-.39,1.69,1.69,0,0,0,.42-.29c.17-.1.34-.1.43-.2l.5.3.25.29v.78c0,.2-.08.39-.08.59A.28.28,0,0,1,185.19,194.22Zm-1.35-3.63c0,.2-.09.4-.09.59a.28.28,0,0,1-.25.1c-.08.1-.25.1-.42.2-.25-.2-.51-.4-.84-.69v-.69a1.62,1.62,0,0,1,.25-.58.92.92,0,0,1,.59-.2l.5.2.26.29Zm10.28,14.11a1.46,1.46,0,0,0-.25-.39,3.43,3.43,0,0,1,2.53-3,4.4,4.4,0,0,1-.85,2.94,1.46,1.46,0,0,0-.25.39,1.35,1.35,0,0,0-.42.2C194.63,204.8,194.37,204.7,194.12,204.7Zm-8.15,312q-.89-3.52-.88-13.15t.88-13.16q.89-3.55,3.09-3.55t3,3.5q.87,3.51.87,13.21t-.87,13.19q-.87,3.48-3,3.48C187.59,520.17,186.56,519,186,516.65Zm79.34,19.12A10.74,10.74,0,1,0,276,546.5,10.73,10.73,0,0,0,265.31,535.77Zm0,19.75a9,9,0,1,1,9-9A9,9,0,0,1,265.31,555.52Z"/></g></g></svg>