<svg xmlns="http://www.w3.org/2000/svg" viewBox="0 0 442.36 574.71"><defs><style>.cls-1{fill:#fff;}</style></defs><title>wilson-logo-base--white</title><g id="Layer_2" data-name="Layer 2"><g id="Layer_1-2" data-name="Layer 1"><path class="cls-1" d="M390.71,167.16a17.22,17.22,0,0,0,5.4-.6c2.42-.72,12.27-4.82,16.09-8.14a4.23,4.23,0,0,0,1.49-2A104.58,104.58,0,0,1,400.3,161,85,85,0,0,0,388,165.61,3,3,0,0,0,390.71,167.16Z"/><path class="cls-1" d="M367.86,164.75l11.45-1c1.59-.25,8.74-1,9.09-1.65,0-.08,0-.16-.19-.23-5.27-2.11-17,.94-20.9,1.13-.06,0-5.47-.84-5.7.29a3.56,3.56,0,0,0-.07.52C361.4,166,364,165.63,367.86,164.75Z"/><path class="cls-1" d="M218.45,160.93a6,6,0,0,0,2.64,2.58,3.05,3.05,0,0,1,.17-.61,4.1,4.1,0,0,1,.54-1,18.08,18.08,0,0,1-4.05-2.52A7.8,7.8,0,0,0,218.45,160.93Z"/><path class="cls-1" d="M205.94,197.25c-.76.19-3,.12-3.81.51l.57,2.58a17.61,17.61,0,0,0,.71,3.15c-.42.78-.08,1.69-.16,2.57a8.53,8.53,0,0,0,1.43-1.27l.34-.39c0-.2,1.51-3.63,1.6-4.12a9.27,9.27,0,0,1,.42-1.07,10.09,10.09,0,0,0-.51-1.08A6.15,6.15,0,0,1,205.94,197.25Z"/><path class="cls-1" d="M221.89,166.09v2.16c1.22.29,2.59-1,3.4-2.16a5.34,5.34,0,0,0,.65-1.24,18.36,18.36,0,0,1-2,.54A7.65,7.65,0,0,0,221.89,166.09Z"/><path class="cls-1" d="M211.33,172a2.26,2.26,0,0,0-.13,3h2.64c.7-.66.19-1.47.1-2.28A4.29,4.29,0,0,1,211.33,172Z"/><path class="cls-1" d="M201.44,168.6a29.91,29.91,0,0,0,1.83,2.39c.6.6,2.3-.36,2.3-.36C204.64,169.35,204.46,167.18,201.44,168.6Z"/><path class="cls-1" d="M213.25,159.42h-3.34v2.23c1.93.69,3.82.11,5.23,0C215.23,160.86,213.94,160.05,213.25,159.42Z"/><path class="cls-1" d="M217.33,171.36a3.77,3.77,0,0,1,2.09-.83,22.66,22.66,0,0,0-3.29-1.87C216.52,169.47,216.52,170.67,217.33,171.36Z"/><path class="cls-1" d="M200.43,161.18c.2.47,1.22,3,3.4,3,1.5,0,1.71-.09,2.39-1-2-.82-3.08-1.94-5.09-3.83A1.88,1.88,0,0,0,200.43,161.18Z"/><path class="cls-1" d="M248.75,169.15c1.05-1,2.79-3.37,2.94-4.9a1.09,1.09,0,0,0-.53-1.17c-2.31.6-4.35,1.42-5.31,3a4.56,4.56,0,0,0-.41,3.48C246.07,170.42,247.92,171.9,248.75,169.15Z"/><path class="cls-1" d="M234.62,192.14h0a6.18,6.18,0,0,0,.41-2c-.08-2.73-3.77-8-4.43-9.8a2,2,0,0,1-1.65.49c-.17.22-.17.22-.25.22a3,3,0,0,1-.51.2,3.45,3.45,0,0,0-.42,1.17c.84-.09,2.53,1.57,2.69,1.67.17-.1.26-.2.43-.2a.79.79,0,0,1,.5.39.52.52,0,0,1,.17.3,2.7,2.7,0,0,1,.76,2.06c0,1,0,1.86-.08,2.84l-.09.39a2,2,0,0,0-.08.69,11.81,11.81,0,0,0-.79,1.54h0a9.38,9.38,0,0,0-.65,2.46,5,5,0,0,0-.42.69c-.08.1-3,4.8-5.14,5.39a7.38,7.38,0,0,0-.84.29,1.56,1.56,0,0,1-1.35,1,2.42,2.42,0,0,1-1.85.88,3.51,3.51,0,0,1-2.62.69l-.5-.3-.17-.58v-.3A1.46,1.46,0,0,1,218,202c-.08-.1-.25-.2-.33-.29a3.23,3.23,0,0,1-.17-.79,12.53,12.53,0,0,0-.76,1.57,1.31,1.31,0,0,1-.25.39,7.31,7.31,0,0,1,1.43,2.25,5.23,5.23,0,0,1,1.69.59,34.79,34.79,0,0,0,4.63-2.25,4.49,4.49,0,0,1,1.18-.49c1.11-.43,2.23-.94,3.28-1.46a2.71,2.71,0,0,1,.56-.38,16.77,16.77,0,0,0,3.41-6.29A7,7,0,0,0,234.62,192.14Z"/><path class="cls-1" d="M220.1,198.32c0,.49-.08,2.75-.08,2.75a.87.87,0,0,1-.17.49,11.64,11.64,0,0,0,1.52-.79,1.38,1.38,0,0,0,.25-.39A.73.73,0,0,0,222,200a3.38,3.38,0,0,1,.25-1.27.54.54,0,0,1,.25-.49.77.77,0,0,1,.42-.3,4,4,0,0,1,.59.3,2,2,0,0,1,0,1,9.9,9.9,0,0,1,1.69-1.08.67.67,0,0,1,0-.59,4.79,4.79,0,0,1-1.35-1.86,5.1,5.1,0,0,1-.26-.69l.26-.29c.08,0,.17-.1.25-.1h.25a9.86,9.86,0,0,0,1.94,1.86,2.23,2.23,0,0,0,.85.1,2.71,2.71,0,0,1,.16-.78,3.39,3.39,0,0,1-1.09-1.37.65.65,0,0,1-.09-.4.77.77,0,0,1,.34-.39,1.07,1.07,0,0,1,.51-.19,4.82,4.82,0,0,1,1.51.88A6,6,0,0,1,229,193a3.77,3.77,0,0,1-1.09-.58c0-.11,0-.21,0-.32h0a.9.9,0,0,1,.07-.27.52.52,0,0,0,.17-.3c.42,0,.84-.09,1.18-.09a3.79,3.79,0,0,0-.42-.79,3.29,3.29,0,0,1-1.35-.29,1.3,1.3,0,0,1,0-1,.53.53,0,0,0,.17-.29,1.4,1.4,0,0,1,.59-.1l-.5-.79a1,1,0,0,1-1-.58,11.58,11.58,0,0,1,1.1-.49c0-.1.08-.2.17-.4a2.29,2.29,0,0,0-1.61-1.27,2.41,2.41,0,0,1,.26-.49c-.26,0-.42-.19-.59-.19-.25.2-.59.78-.68.78a2.07,2.07,0,0,1-1.51,0,6.08,6.08,0,0,0-1.35.39,2.56,2.56,0,0,1-1,.69c.5.68.17,2.74.17,2.74a4.83,4.83,0,0,1-1.45,2.73h0a3.53,3.53,0,0,1-3.53.31,3.26,3.26,0,0,1-.38-.31h0a4.24,4.24,0,0,1-.87-1.06,1,1,0,0,1-.34-.49,10.3,10.3,0,0,1-1,.69l-.14.48c.09,0,.22.18.33.37h0a1.25,1.25,0,0,1,.2.43,11.55,11.55,0,0,0,1.91,1.25,4.72,4.72,0,0,0,4.55-.3c.09-.09.17-.09.26-.19a4.36,4.36,0,0,0,.64-.58,5.94,5.94,0,0,0,.49-.61h0c.19-.27.37-.56.55-.87,0,0,.08-.59.08-.78a11.15,11.15,0,0,1,.26-1.18,1,1,0,0,1,1-.1l.08.69a3,3,0,0,1,.17.49,5.61,5.61,0,0,1-.5,1.57s0,.1,0,.17h0l-.07.4a14.3,14.3,0,0,1-1,1.28,2.38,2.38,0,0,1-1,1.07,6.42,6.42,0,0,1-1.85.79c-.09.1-.17.1-.34.2a5.53,5.53,0,0,1-4.55-.49.65.65,0,0,0-.34-.2,3.71,3.71,0,0,1-.17.78l.51.3a3.14,3.14,0,0,1,.42.68c.08.1.08.2.17.3A4,4,0,0,1,220.1,198.32Z"/><path class="cls-1" d="M275.81,157.19a19.59,19.59,0,0,0-4.25,0l-.9,5.28C273.4,163.18,274.46,158.13,275.81,157.19Z"/><path class="cls-1" d="M204,155.19c-1.06-.92-2.09-1.65-3-2.41v2.27c1.6.48,2.32,2.28,5.24,2.34A21.75,21.75,0,0,0,204,155.19Z"/><path class="cls-1" d="M299.12,156.58a.8.8,0,0,0,0-.15h-3.94c-2.49,2.1-5.36,1.73-6.14,5.26h2.73C294.52,160.1,298.66,159.07,299.12,156.58Z"/><path class="cls-1" d="M311.63,164.84c1.5,0,5.89-2.48,7.37-2.7-3.95-2.81-4.83-.6-6.57-.17C307.76,164,310.13,164.84,311.63,164.84Z"/><path class="cls-1" d="M280.8,161.67a7.53,7.53,0,0,0,5.8-4.52c-2.26-1.07-10.35-2.65-9.48,5.73Z"/><path class="cls-1" d="M301.19,164.89c.83-.3,5.14-3.88,4.52-6.06-4.3-.37-6.84,3.83-10,7C297.25,165.33,299.6,165.35,301.19,164.89Z"/><path class="cls-1" d="M322.88,167.41c1.5,0,4.54-.4,6-.25,3.35.34,5.69-.39,6.77-1.17s.91-1.47-.49-1.47c-2.57-.08-7.59-.35-9.19-.36h-.1c-1.5,0-4.94-.1-6.14,1.1C319.17,165.86,321.38,167.41,322.88,167.41Z"/><path class="cls-1" d="M267.44,158.39h0a33,33,0,0,0-4.66.12c-1.64,0-2.14.81-3,2.79-.44,1-1,2.32-1.82,4C261.33,167.2,269.23,158.89,267.44,158.39Z"/><path class="cls-1" d="M120,100.56c-1.47-.18-5.52-2.1-5.73-3-.94,1-.39,2.08-.2,3C124.26,109.29,121.82,102.57,120,100.56Z"/><path class="cls-1" d="M90.26,108.39l-1.61,1.45c1.84,3.18,3.58,6.5,6.13,8.22,2.1,1.43,4.45.71,6.28,2.28a3.78,3.78,0,0,1,.77-1.55C97.82,115.84,90.44,109.26,90.26,108.39Z"/><path class="cls-1" d="M93.45,95.42c.63,1.38,16.81,10.35,17,10.85A14,14,0,0,0,115,107c-6.49-8.12-11.57-9.45-17.88-13.85C96.59,93.41,93.45,95.42,93.45,95.42Z"/><path class="cls-1" d="M106,107.35c-1.48-.19-2.68-1.39-4-1.36-.7.66-.79,0-.79,1.47,0,.23,5.4,7.2,5.59,12.28.92-.67,1.61-1.78,3.11-1.78s14.32,2.39,21.21,4.15v-2.82c-1.92-.71-3.52-2.31-3.78-3.2-7.47-7.49-15.54-2-23.13-6.86A7.59,7.59,0,0,0,106,107.35Z"/><path class="cls-1" d="M102.66,89.53c1.11.78,3.47,3.15,5.6,5,.18-1.48.09-2.89-.72-3.58-.81.69-20.18-16.71-21.1-17.38-.49,4,6.88,10.08,7.27,10.87C96.09,85,100.64,89.54,102.66,89.53Z"/><path class="cls-1" d="M159.4,140.61c-1.13-2.25-3-8.3-4.57-8.83a7.53,7.53,0,0,0-1.39,3.88c0,1.5,1.2,3.06,1.41,3.94A10,10,0,0,0,159.4,140.61Z"/><path class="cls-1" d="M179.12,155.94v-.57a10.15,10.15,0,0,0-2.81-3.17,6.06,6.06,0,0,0-1.11-.61l-.73,3.41a27.1,27.1,0,0,1,4.65,2.54Z"/><path class="cls-1" d="M168.12,152.16l1.51-1.5c-1.49-4.88-3.11-.25-3.28-1C166.43,151,167.36,151.5,168.12,152.16Z"/><path class="cls-1" d="M143,130.77a28.66,28.66,0,0,1-1-7.41c0-1.5.57-1,.3-1.54-1-.8-2.1-1.53-2.1-3a36.19,36.19,0,0,0-.12-3.68h-1a7.49,7.49,0,0,0-1.29,3.75v4.8C137.84,126.59,143.45,132.12,143,130.77Z"/><path class="cls-1" d="M55.66,57.57c2.51,2.14,5.88,5,8.05,6.71,3.6,2.85,8.54,2.82,10.42,6.59,2.73.88,4.48,2.66,7.17,3.85a12.51,12.51,0,0,0,.75-3.25c0-4.35-13.82-8.49-14.54-10.68C65.89,60.89,62.1,58,62,58,60.45,58,58.35,57.37,55.66,57.57Z"/><path class="cls-1" d="M88.92,104.16l1.22-1.2c1,1.12,1.51,1.2,3,1.2s2-.08,2.7-.94a35.06,35.06,0,0,1-3.7-2.21,64.84,64.84,0,0,1-9.26-10.45,34.5,34.5,0,0,0-9.81-1.21c1.26,1.53,2.38,1,2.38,2.51,0,2.33-.1,3,1.8,4.2l-1,.92c-3.84-.39-6.42-9.62-10.17-9.57H62.34A3.37,3.37,0,0,1,61.67,89c1.91,1.34,1.89,1.7,3.58,3.49,1.31,1.39,7.81,4.25,13.69,6.84C83.69,101.4,88,103.32,88.92,104.16Z"/><path class="cls-1" d="M64.66,55.41c.6.22,1.19.43,1.72.65-1.69-2.5-7-7.19-13.11-11.37-5.23-3.6-11-6.83-15.4-7.93l-.8,1.2a11.84,11.84,0,0,1,5,4.48c4.69,2.88,9.93,6.17,14.43,9.25A33.65,33.65,0,0,0,64.66,55.41Z"/><path class="cls-1" d="M104.54,130.56c1.5,0,4.2-1.2,6.29-1.4-3.1-2.73-6.06-6.4-7.56-6.39l-3.81,0c-.69.68-1.34.89-1.34,2.39S103,130.56,104.54,130.56Z"/><path class="cls-1" d="M154.64,169.86c0-1.5-5.4-5.1-6.9-5.1-2.93,0-16,7.39-17,8a29.76,29.76,0,0,1-3.24,2c-.32.16-.68.32-1.1.5,3.11,2.68,6.6,5.75,8.1,5.75a3.36,3.36,0,0,0,1.63-.63,11.08,11.08,0,0,0,2.87-2.69c-.69-.79-3-4.18-3.11-5.72h1.53c1,.67,7,4.24,9.08,4.24C148,176.16,154.64,171.36,154.64,169.86Z"/><path class="cls-1" d="M170.23,166.86c0-1.5-11.7-16.5-11.7-16.5-1.41,1.29-1.19,2.4-2.69,2.4-1.2,0-9-4.57-9-6s1.2-2.4,1.2-3.9-1.83-4.93-3.17-7.47c-.79,1.05-2.6-.17-4.51-.57-.12,1.44-1.32,1.14-1.32,2.64s2.41,7.37,3.16,9.7c1.5,4.35,4.64,7.7,4.64,8.9,0,1.5,6.67,8,8.82,10.36.2.54,5,3.38,5,4.88s-1.55,1.26-1.55,1.26l-1.17-1.2c-2.62,2.49-7.5,4.8-7.5,6.3,0,1.25-2.46,3.62-4.34,5.92-.38.46-.74.92-1,1.36,1.22.5,2.51,1,3.82,1.49,3.14,1.13,6.35,2,8.76,1.5-2.51-2.11-5.68-3.44-5.4-4.32l1-.86a44.14,44.14,0,0,0,9.06,3c1.41-2.45,4.51-3.28,7.06-6l1.27,1.19c1.42-3.18,4.44-7.49,4.44-9C175,169.86,170.23,167.61,170.23,166.86Z"/><path class="cls-1" d="M163.19,190.82a2.06,2.06,0,0,0-.15.64,1.16,1.16,0,0,0,.27.68h0c1,1.44,4.74,3.22,5.52,3.8a26.91,26.91,0,0,0,.36-3.08l.06-.72a73.52,73.52,0,0,1,.83-10.55C167.62,183.78,164,188.71,163.19,190.82Z"/><path class="cls-1" d="M119.84,165.06c0-1.5.42-.92.42-.92,3.39,1.2,9.18,4.82,10.68,4.82s10.36-4.85,15.3-8.07c-.69-.84-1.8-.33-1.8-1.83s-3-8.1-4.5-8.1c-.53,0-.9.23-.9-.3,0-6.45-6.44-6.86-10.22-11.48v-1.6a18.29,18.29,0,0,1,5.4-3c-2.43-4.16-5.08-5.2-7.48-5.2-1.5,0-4.2,1.2-5.7,1.2s0-2.56.58-4c-3.64-1.21-3.4-6.85-13-6.37-.71,1,1.67,5.36,1.67,5.36,2.59,1,1.35,3.23,6.6,4.2l-1.21,1.13-3.82.32c-1.5,0-4.88,2-6.76,2.54a40.14,40.14,0,0,1-6,1.12l-.78.08a10.85,10.85,0,0,0,1.71,2.16,3.29,3.29,0,0,1,1.25,2.18c0,1,0,1.74,0,2.37,0,.3,0,.58.06.84l.83,0c1.54.06,2.59.05,3.83,0v-2.7a10,10,0,0,0-2.35-3.52l1.48-1.51c.84,1.24,6.4,7.8,9.62,7.8,1.5,0,5.38-3.09,7.23-2.94.65-.15,4.08-.67,5.7-.24-1.67,3.73-14.7,5.88-20.36,8.72a12.22,12.22,0,0,0-1.27.73c1.29,1.44,4,10.06,6.36,10.06a5.16,5.16,0,0,0,1.85-.53,19.28,19.28,0,0,1,3.77-1.59c-1.87-2.12-3-2.81-3-4.31s-.09-2.61-1.2-3.58l.88-.92a7.08,7.08,0,0,0,4.68,2.74c.58.82,1.65,3.71,4.78,3.59a4.62,4.62,0,0,0,3.76,2.67c1.5,0,8.1-4.2,9.6-4.2s1.6,1.88,1.6,1.88c-6.5,2.34-12.49,5.33-17.83,7-.22.3,0,.78-.68.94a13.38,13.38,0,0,1-3.23,1.29,15.9,15.9,0,0,1-2.93.5c1.83,2.72,4.22,5.11,5.64,7a5.15,5.15,0,0,1,2.7-.76,47.66,47.66,0,0,1-2.72-4.47A3,3,0,0,1,119.84,165.06Z"/><path class="cls-1" d="M97,123.66c0-1.13-2.36-1.79-3.71-2a5.35,5.35,0,0,0-.79-.09,6.39,6.39,0,0,0-3.89.87c1.88,1.69,3.47,8.83,7.31,8.46a4.1,4.1,0,0,0,1.68-.59c-1.28-1.45-1.8-1.54-1.8-3S97,125.16,97,123.66Z"/><path class="cls-1" d="M175.33,160l-1.5,1.52c1.29,1.39,2.4,3.28,2.4,4.78s-1.2.3-1.2,1.8.79,1.48.79,1.48c.43-.07,4.61-4.48,4.61-6s-.6-1.5-.7-2.33C177.16,161.54,176.89,161.32,175.33,160Z"/><path class="cls-1" d="M76.69,85.58c3.73,1.76,9.56,4.18,11.06,4.18s1.41-.08,2.1-.9C85.56,84.45,78.45,76,77,76s-1,.08-2-.56c.47,2.15,1.66,4.46,1.66,6s-.3.6-2,.62c-4.1-4.72-8.22-13.22-9.72-13.22s-2-.52-2.7.27l1.22,1.34c0,2.29,1.21,4.82,2.38,7-.51.43-3.66-.73-4.08-1.28a13.85,13.85,0,0,0-.4-2.29c-2.19-2.58-3.32-6.7-5.42-9.18-1.51-1.8-4.4-3-6.47-4.15l-.24-.13-.79,2.69c.61,2.46,4.81,12,6.9,13.22,1.67.89,3.53,1.87,5.42,2.72a30.3,30.3,0,0,0,5.31,1.89C68.48,81.51,76.69,85.58,76.69,85.58Z"/><path class="cls-1" d="M86.24,109.31l1.2-1.28a28.29,28.29,0,0,0-7-3.31,18.89,18.89,0,0,0-1.9-.48,11,11,0,0,0,5.25,8.82,52.74,52.74,0,0,0,5.33,3A17.3,17.3,0,0,0,86.24,109.31Z"/><path class="cls-1" d="M218.23,282.6a6.22,6.22,0,0,1,.68.93c.06.1.12.19.17.29a8.47,8.47,0,0,0,1.17,2.12l2.11-.49.44-.11a26,26,0,0,0,5.59-1.91v-2.08l-1.82-1.87c-.95-2.06-2.26-7.89-4.45-9.13-2,1.25-3.59,2.4-5.07,2.59-.46,9.11,6.58.19,6.58,4.91C223.63,279.35,220.79,281.18,218.23,282.6Z"/><path class="cls-1" d="M256.36,194.16C253.17,196,249,196.52,249,198s-.47,12.91-.47,12.91.75,4.46.37,5.82c-.07.28-.19.44-.37.4-.17,1.08-.18,1.8.26,2.28h0c.57.61,1.87.81,4.52.81a2,2,0,0,0,1.33-.81h0a6.08,6.08,0,0,0,1-1.79,6.44,6.44,0,0,0,.4-2.19c0-1.51.6-6,.6-7.5s-1.2-3.61-1.2-5.1S257.13,194.84,256.36,194.16Z"/><path class="cls-1" d="M237.13,253.55a8.37,8.37,0,0,0,1.87-.25,10.62,10.62,0,0,0,1.24-.37c.19-.88-1.78-4.53-2.6-5.89a11.33,11.33,0,0,0-2,2.39,28.3,28.3,0,0,0-2.39,5.79C234.73,255.35,235.63,253.55,237.13,253.55Z"/><path class="cls-1" d="M229.55,239.74c0,.79-.07,1.5-.15,2.15.25.67.83-.34.83,1.16a11.19,11.19,0,0,1-1.34,3.68,16.07,16.07,0,0,0-1,2.5c1.44,0,3.34-1.1,4.82-2.5h0a11.27,11.27,0,0,0,1.23-1.38,4.72,4.72,0,0,0,1.09-2.6c0-1.5-3.66-5.88-5.82-8.37A37.45,37.45,0,0,1,229.55,239.74Z"/><path class="cls-1" d="M245.79,200.31c-4-.53-9,1.27-9,3.75,0,2.32-.6,3.6-.6,5.1,0,1.19-1.51,4.8-2.4,8.79-.11.49-.22,1-.3,1.49h0c-.1.55-.18,1.11-.24,1.66h3.16a4.61,4.61,0,0,0,3-1.39l.15-.12a.77.77,0,0,0,0-.15h0a28.54,28.54,0,0,1,1.58-7.47c.75-1.87,3.47-4,3.47-5.51A11.93,11.93,0,0,1,245.79,200.31Z"/><path class="cls-1" d="M243.55,269.69c1.69-.45,3.59-.94,5.3-1.48.39-.12.77-.24,1.13-.37v-2.1c-1.24-1.3-1.15-2-2.65-2a4.28,4.28,0,0,0-1.21.21,10.1,10.1,0,0,0-3.87,2.38C242.22,267.65,243.43,268.25,243.55,269.69Z"/><path class="cls-1" d="M237.43,259.85c0,1.5,1.28,2,2.12,2.7.71-1,2-2.38,3.06-3.75s2-2.7,2-3.45c0-1.5-.59-.9-.8-1.78a23,23,0,0,1-3.16,2.85C239,257.76,237.43,259,237.43,259.85Z"/><path class="cls-1" d="M247.36,273.58c-.11.22-.22.45-.33.72l2.72,2.65c1.12-1.4,5.67-2.4,5.63-5.26a3.37,3.37,0,0,1-1.91-2.5c-1.23.74-2.19,1.24-3,1.67C248.88,271.72,248,272.24,247.36,273.58Z"/><path class="cls-1" d="M241.6,332.2c-51.93-11.43-69.26-11.22-85.77-.75V437.64c17.74-9.87,37.71-9,85.77,1.54Z"/><path class="cls-1" d="M203.4,291.12l-.38.65c-1.18,2.43-1.9,8.54-6.15,7.54-.62.43-1.71,1.07-2.36.3a4.85,4.85,0,0,0,.42-3.14,3.24,3.24,0,0,1-1.94.88c0,3.95-3.15-3.1-3.29-3.33,0-2.29.38-4.95.4-7.27-1.09-.29-2.19-.57-3.29-.84a138.55,138.55,0,0,0-14.06-2.72c-1.18-.17-2.37-.34-3.56-.48-.1.19-.2.36-.27.51l.11,4.25c-2.48,2.59-5.39,6.28-6.89,6.28s0-1.2-1.51-1.2c-.17.1-.17.2-.26.3s-.41-.07-.62-.09c-.57.35-.62,1.08-1.23,1.59-3-3.72-3.28-5.25-3.28-8.4v-.33a.8.8,0,0,1-.34-.41v-1.08l.4-2.33-2.33,0h-1.09A140.29,140.29,0,0,0,12.68,422.08h25.6V354.72c3-.67,6.4-1.42,10.17-2.21V341.16c3.13-.7,6.53-1.47,10.16-2.27V327.6c28.79-6.39,65.63-17.86,94.36-1,28.73-16.84,65.57-5.37,94.35,1v11.29c3.63.8,7,1.57,10.17,2.27v11.35c3.77.79,7.19,1.54,10.16,2.21v67.36h25.61a140.33,140.33,0,0,0-86.72-129.69C205.49,292,204.45,291.53,203.4,291.12Z"/><path class="cls-1" d="M239.75,268h-2.11c-4.27,2.61-5.9,5.65-10.4,6.76.68.89,1.85,2.14,2.74,1.68,3.07-3,8-4.78,11-6.35C240.34,269.24,239.83,268.85,239.75,268Z"/><path class="cls-1" d="M155.83,448.1v.5c19.09-9.74,47.49-7.14,95.93,3.46V345.76l-4.44-1V446.32l-3.48-.78c-31.37-7-59.8-16.25-88-.9Z"/><path class="cls-1" d="M241.94,272.15c-1.5,3.81-5.11,8.4-5.11,9.9a4.83,4.83,0,0,0,1.24,2.49,10.33,10.33,0,0,0,2.06,2c3.93-3,5.1-3.53,5.1-7.5,0-2.13-1-2.6-2-4.09A9.26,9.26,0,0,1,241.94,272.15Z"/><path class="cls-1" d="M389,176.12a10.51,10.51,0,0,0-3.71-.56,8.74,8.74,0,0,0-2.19.61c-2.79,1-7,3-7.68,3.15,0,0,23.86.83,22.77-.49C392.36,178.58,391.39,177,389,176.12Z"/><path class="cls-1" d="M399.64,170.76c-.75.69-3.75,2.49-4.41,3.41a20.87,20.87,0,0,1,3.74.63c3.12.76,6.28,2,7.33,2,1.5,0,4.8-.6,6.88-.8-2.6-2.4-6.61-3.33-10-4.18A32.08,32.08,0,0,1,399.64,170.76Z"/><path class="cls-1" d="M442.36,145.26a6,6,0,0,0-.27-1.83,4.51,4.51,0,0,0-1.24-2,6.1,6.1,0,0,0-1-.75,4.47,4.47,0,0,0-4-.49c-3.65,1.28-7.33,2.69-10.89,4.06-6.63,2.55-12.9,5-19,6.61a23.59,23.59,0,0,1-2.93.48,26.69,26.69,0,0,0-4.77.91c-1.91.25-11.88.94-29.64,2.05-15,.94-29.25,1.79-30.27,1.84h-.15a14.77,14.77,0,0,0-3.19.7,9.41,9.41,0,0,1-1.15.32c-2.23-.47-11.25-3.74-14.71-5-1.57-.56-2.8-1-3.43-1.22l-.43-.13a15.12,15.12,0,0,0-3.48-.23,42.62,42.62,0,0,1-5.88-1.46c-.71-.22-1.33-.4-1.8-.53l-1.56-.42c-2-.54-4-1.09-6.13-1.55l-.63-.13-.17,0a5.56,5.56,0,0,0-.93-.08,34,34,0,0,0-4.12.36c-1-.13-2.2-.35-3.49-.59a46.71,46.71,0,0,0-7.39-1c-1.5,0-3.11.56-6.32,1.74a39.15,39.15,0,0,1-5.1,1.65,4.63,4.63,0,0,0-.89.22c-.93.32-3,1.1-5.62,2.09-4.19,1.59-12.1,4.59-15.86,5.81a16.39,16.39,0,0,0-1.75-3,4.49,4.49,0,0,0-4.44-1.63,29.27,29.27,0,0,0-7.21,2.84,33,33,0,0,1-4.44,2c-5.78-5.3-13.69-7.83-20.75-10.09-1.88-.61-3.66-1.18-5.33-1.78a5.09,5.09,0,0,0-1-.23,7.54,7.54,0,0,0-1.07-2.28,29.43,29.43,0,0,0-3.12-3.49c-.55-.55-1.07-1.07-1.52-1.57a5,5,0,0,0-7.68.81c-1.51,2.44-2.92,4.94-4.27,7.42-2.05-3.22-6.64-9.06-16.9-20.63l-2.49-2.8-1-1.17a13.48,13.48,0,0,0-4.2-3.15,8.86,8.86,0,0,1-1.54-1,4.13,4.13,0,0,0-.78-.66l-1.88-1.2a21.79,21.79,0,0,1-3.92-2.82,4.54,4.54,0,0,0-.41-.93c-1.32-2.25-11.08-10.51-13.94-12.16v0a42.56,42.56,0,0,1-5.81-3.91A59.07,59.07,0,0,0,125,91.48a15.11,15.11,0,0,0-4-1.41c-.6-.15-1.56-.39-2.23-.61-.73-1.56-3.25-3.91-12-11.53C100.08,72.11,92.9,66.06,88,62.17a26.56,26.56,0,0,0-4-2.53,21,21,0,0,1-2.55-1.55,51.89,51.89,0,0,1-7.58-6.57,4.49,4.49,0,0,0-.83-.74c-1.94-1.35-13.17-12.1-16.16-15.08a4.31,4.31,0,0,0-.62-.51c-.61-.42-1.32-.82-2.14-1.29a24.58,24.58,0,0,1-3.2-2,4.27,4.27,0,0,0-.45-.94l-.16-.25-.07-.11c-.44-.65-1.16-1.58-2.06-2.75A65.24,65.24,0,0,1,43.38,21c-.16-1.37-.79-3.16-2.17-6.7-.25-.64-.47-1.18-.58-1.51a7.7,7.7,0,0,1-.1-1.23,12.53,12.53,0,0,0-.48-3.5l-.12-.33C37.65,2,35.74,1,35,.56A6,6,0,0,0,29.7.69a4.52,4.52,0,0,0-2.6,3.72,9.26,9.26,0,0,1-.21,1.2,15.24,15.24,0,0,0-.4,3.16,17.21,17.21,0,0,0,.26,2.91c-.41-.35-.84-.69-1.28-1a4.45,4.45,0,0,0-2.8-1H20.85a4.5,4.5,0,0,0-4.5,4.5v.73a4.45,4.45,0,0,0,.47,2c.3.61.78,1.45,1.46,2.61.55.95,1.53,2.63,2.31,4.1a6.35,6.35,0,0,0-4.87,6.54A4.63,4.63,0,0,0,16.11,32c1.11,2.5,4.07,4.94,8.8,8.71a57.59,57.59,0,0,1,4.63,3.92,4.38,4.38,0,0,0,1.29,1c2.64,1.33,8.86,6.67,8.86,9.72,0,1.07.18,2.64.39,4.46.12,1,.25,2.07.33,3a4.51,4.51,0,0,0,1.11,2.58,15.38,15.38,0,0,0,4.14,9.91,31.79,31.79,0,0,0,3,3c.82.78,2.13,2,3,3a4.43,4.43,0,0,0-.46,1.84c-.1,3,2,5.82,8,12.38.62.68,1.27,1.39,1.49,1.66a3.94,3.94,0,0,0,.49.51c.32.29.74.7,1.21,1.16,2.75,2.67,4.87,4.61,7,5.32a17.84,17.84,0,0,1,2,.81c1.21,7.56,3.87,13.88,11,19.13,0,.1,0,.2,0,.3v.22a4.39,4.39,0,0,0,.18,1.25,19.69,19.69,0,0,0,3.11,5.5A21.12,21.12,0,0,1,88,135.2a4.48,4.48,0,0,0,1.69,2.19c1.38,1,1.69,2,2.3,4.4a25.14,25.14,0,0,0,1.51,4.58,4.59,4.59,0,0,0,1.4,1.72,20.63,20.63,0,0,1,3.19,3.26c.65.75,1.31,1.52,2,2.28a30.07,30.07,0,0,0,2.76,7.66A4.48,4.48,0,0,0,104.4,163a16.51,16.51,0,0,0,2.58,1.34l.7.31a4.41,4.41,0,0,0,.8,2.72l.14.21.11.15a37.87,37.87,0,0,0,5.45,5.17c1,.84,2.4,2,3.2,2.8a4.46,4.46,0,0,0,.13.73c.61,2.27,2.68,4.11,8.19,8.16.52.38.93.68,1.09.81a20.85,20.85,0,0,0,12.9,4.47l.93,1c2.11,2.23,4.51,4.75,7.55,5.95l.1,0a34.24,34.24,0,0,0,8.07,1.94,7.79,7.79,0,0,0,3.39.54H160a11.31,11.31,0,0,1,2.19.63c-4.47.62-12.3,1.64-13.86,1.64h-5.4a8.06,8.06,0,0,1-1.52-.39,13.36,13.36,0,0,0-4.18-.81,32,32,0,0,0-5,.47,13.64,13.64,0,0,1-5.38.12,4.51,4.51,0,0,0-5.56,4.38v6a4.41,4.41,0,0,0,.21,1.34c.61,2,2.07,3.72,3.61,5.6.57.68,1.43,1.73,1.9,2.44-.22.34-.53.78-.78,1.14a17,17,0,0,0-3.81,10.4c0,6.49,4.5,8.34,6.67,9.23.35.14.84.34,1.1.48a4.31,4.31,0,0,1,0,.49,30.4,30.4,0,0,1-1.1,5.23,30.6,30.6,0,0,0-1.3,7,4.56,4.56,0,0,0,.27,1.55,15.26,15.26,0,0,0,3.8,5.08,24.43,24.43,0,0,1,2,2.16,7.17,7.17,0,0,0,.57,2.13,13.48,13.48,0,0,0,.85,4.2C59.26,278.57,0,343.36,0,421.75c0,84.34,68.62,153,153,153s153-68.62,153-153a153,153,0,0,0-69.7-128.25H237a12.63,12.63,0,0,0,10.66-3.93,13.09,13.09,0,0,0,3.26-7.46c2.88-.51,4.19-1,5.24-1.95l.4-.2a7,7,0,0,0,3.63-3.18,4.48,4.48,0,0,0,.42-1.46,4.71,4.71,0,0,0,.57-1.64,7.66,7.66,0,0,0,.06-.94c0-2-1.15-3.73-2.88-6.37a30.91,30.91,0,0,1-1.9-3.12,4.6,4.6,0,0,0-.77-1.45c-1.09-1.38-2.07-2.87-3.1-4.45a57.73,57.73,0,0,0-4.5-6.2,4.49,4.49,0,0,0-1.58-3.38c-.24-.21-.52-.44-.83-.68a17.23,17.23,0,0,1-1.86-1.66,8.49,8.49,0,0,0-1.38-4A4.29,4.29,0,0,0,242,241c-2.5-2.89-7.4-9.3-8.4-11.52a8.57,8.57,0,0,1,.49-1.65,18,18,0,0,0,5.41.91,18.68,18.68,0,0,0,5-.84,12,12,0,0,1,2.64-.53,4.46,4.46,0,0,0,3.27-1.46l.6.2a12.36,12.36,0,0,0,4.09.83,15.26,15.26,0,0,0,7.36-2.79c2.86-.23,8.47-1,11.89-3.37a6.32,6.32,0,0,0,1.27.11c1.65,0,3.56-.71,8.55-3.18l.69-.35a21.76,21.76,0,0,1,6-1.58c3.79-.61,8.32-1.34,12.16-5.91a6.64,6.64,0,0,0,1.86.27c.77,0,2.59,0,11.24-4.21a9.15,9.15,0,0,0,3-2.55,5.69,5.69,0,0,0,2.72.68c1.52,0,3.84-.68,10.33-3l1-.34a9.19,9.19,0,0,0,4-3,4.49,4.49,0,0,0,3.77-2.06c.66-.25,1.39-.48,2.14-.72a23.91,23.91,0,0,0,5.57-2.34,17.14,17.14,0,0,0,3-2.52,19.53,19.53,0,0,1,1.53-1.42,82.5,82.5,0,0,1,10.11-.07c1.37.05,2.7.09,4,.11h.15c4.34.07,9-.12,11.14-3,1-.25,3.53-.59,9.47-.55h1c.88,0,1.78,0,2.69,0a56.35,56.35,0,0,0,9-.54l.11,0,.29-.06a4.51,4.51,0,0,0,3.1-2.28,6,6,0,0,1,1.95-.31c1.06-.06,2.39,0,3.79,0,1.55,0,3.29,0,5.11,0l.25,0a10.3,10.3,0,0,0,3.4-.8,4.5,4.5,0,0,0,1.66-6.81c-.18-.23-.36-.45-.56-.67a20.1,20.1,0,0,0,2.38-.35c1.1-.25,2.09-.43,3-.61a28.24,28.24,0,0,0,9.38-3,4.49,4.49,0,0,0-.51-8.16l-.58-.23c-1.58-.58-3.12-1.12-4.64-1.6,1.87-1.32,3.36-2.43,3.5-2.54C440.72,150.69,442.36,147.91,442.36,145.26Zm-8.93,19.62c.37.67.15.88-.13,1.58-4.58,2.54-7.28,2.42-11.93,3.47-3.45.75-10.54-.14-11.79,1.62,2.2.42,13.84,6.17,5.31,6.94-6.79.26-12.61-.93-13.8,2.32.08,1.45-24.4.34-25,2.22-1.27,4-14.45,1.23-23.75,2.28-1.5.15-3.32,3-5.49,4.38a31.71,31.71,0,0,1-6.31,2.46h0a16.22,16.22,0,0,0-1.83.75c-.57.57-2.24,1.69-2.62.65-.95,1.12-2.18,3.29-4.05,4-2.56.9-8.66,3.17-10.16,3.17s-1.65-1.12-3.14-1.12-2.27,2.44-4.07,3.34c-2.93,1.42-8.23,3.86-9.73,3.86a5.05,5.05,0,0,1-2.87-1.22c-4,7.8-13.05,6.14-18.6,8.76-2.17,1-6.31,3.21-7.81,3.21s-1.53-.64-1.84-1.16c-.32,1.32-2.26,2.35-4.59,3.1h0a32.92,32.92,0,0,1-7.88,1.4c-.5.74-4.69,2.7-6.19,2.7s-3.9-1.2-5.4-1.2-1.5.3-1.62,1.75c-2.14-.56-5.73,1.25-8.57,1.25a18.53,18.53,0,0,1-7.13-1.81,16.5,16.5,0,0,0-2.17,6.31c0,1.5,5.92,9.48,9.3,13.38a5.16,5.16,0,0,1,.9,2.82,1.59,1.59,0,0,0,.17.68h0c.64,1.36,2.93,2.89,4.16,4a4,4,0,0,0,0,1.75c3.4,3.53,5.82,8.35,8.4,11.56.63,2.46,4.68,6.73,4.68,8.68,0,1.5-.6.6-.6,2.1s-2.85,2.23-3.3,2.75c-.9,1-3.23,1.07-6.35,1.62,1.32,7-4.77,11.45-10.44,10.93a53.05,53.05,0,0,0-5.95.19.94.94,0,0,0-.35.11c.51.39.51,1.59,1.2,2.4l-1.2,1.21,1.1,1.11,1.54,1a149.44,149.44,0,1,1-96.28-22.7q1.94-.21,3.9-.36a17.05,17.05,0,0,1-2.27-3.66,10.38,10.38,0,0,1-1-4.19c0-1.5-.6-.9-.6-2.4s-6-6.6-6-8.1c0-.92.91-4.82,1.61-8h4c-.36,1.32-1.37,2.45-1.37,3.82a9,9,0,0,0,1.58,3l.06.09c1.78,2.67,4.36,6.11,4.36,7.09,0,1.5-1.2,1.8-1.2,3.3s1.2,3,1.38,4.48c.62-.53,1.42-1.09,2.21-1.71,1.53-1.2,3-2.64,3-4.57,0-3.37-7.8-10-7.8-10.2a8.22,8.22,0,0,0-.9-3.05c-.33-.75-.72-1.52-1.07-2.27H139c1.2,1.48,3,3.24,4,4.56.64-.15,4.53,5.16,6.65,7.5.2,1.12-.68,2.53-.23,3.58,1.13,2.64,3.23,4.33,5.64,6.44l.37.33c.82.73,1.68,1.51,2.54,2.41.65-.88,1.38-1.73,2.09-2.6l0-.05,0-.06a4.66,4.66,0,0,1,1-1.56l1.18-1.57c-3.26-.79-10.07-6.11-10.07-8.56a2.45,2.45,0,0,1,2.7-2.4c1.5,0,5.78,5.31,9.08,8.39l.8-4c-3.1-2.52-6.7-5.52-9.58-7.7,1.33-1.2,5.77-1.82,5.92-3.79a5,5,0,0,1-2.83-.92h13.48a6.52,6.52,0,0,0-.83,2.67c-.91-.62-2-1.16-3-1.82-.18.87-.78,1.47-.74,2.23,2.52,1.31,4.16,3.14,5.66,3.14a4.25,4.25,0,0,0,2.79-.95c1.41-1.86,3.43-3.81,4-5.27h0a2.2,2.2,0,0,0,.13-.68c0-1.27,1-2.91-4.31-1.43.11-1.57-.52-2.63,0-3.71a14.69,14.69,0,0,0,3.63-.24c.76-1.46,5.39-3.07,7.27-4.52.7,1.08.42,1.48.42,1.48a74.26,74.26,0,0,0-4.66,9.1h0a26.06,26.06,0,0,0-2.22,8.53c1.41.09,2.91,1.29,4.41,1.29s4.24-.6,6.1-.84c.94-.54,5.5-6.82,5.6-9h0v-.07c0-1.48-1.47-1.2-1.5-2.65.6-.2,1.51-.27,1.67.35a14.53,14.53,0,0,0,1.5,2.38h0a50.13,50.13,0,0,0,7.62,7.53,11.39,11.39,0,0,0,4.41.41v-2.83c-1.41-.09-1.8-2.58-1.11-3.39a3.4,3.4,0,0,0-2.42-.88l-1.21-.84-1.77-1.23c1-.38,3.6-1.55,5.1-1.55s2.7,1.2,4.2,1.2,2-1.29,2.63-2V238a51,51,0,0,0-6.76,1.74c-.46-.52-3.37-1.51-3.37-3s-.09-.68.35-1.2a6.86,6.86,0,0,0,3.55,1.2c3.45,0,6.31-2.89,7.47-4.63-2.68-.09-4.85.08-7.17-2.24l1-.95c1.69,0,6,0,6,0,.23-3.3-3.37-7.27-3.37-7.5a3.07,3.07,0,0,1,.95-2h0a7.74,7.74,0,0,1,1.64-1.3,3.5,3.5,0,0,0,1.16,1.3h0a5.23,5.23,0,0,0,2.83,1.12,30.11,30.11,0,0,0,5.4-1.12h0c1.21-.32,2.46-.67,3.59-1a76.79,76.79,0,0,0-15-2.5c.53-.29,1.22-1.1,1.12-1.49,4.95.46,11.18-4.37,15.67-6.94a12.25,12.25,0,0,0-1.39-4l-8.72,4.51a6.54,6.54,0,0,1-2.43.35L216.31,207c-.84.52-3.37,4.13-4.64,1.67a2.64,2.64,0,0,0-2.1.78l-1.52-.1c-.38-.44-.35-.74-.59-1.07-1.93-.84-3.44,2.5-5.23,1.47-.71-.42-.37-1.4-1-1.77l-.25.49a.83.83,0,0,1-1,0,3.89,3.89,0,0,1-.25-1.47l1.51-2.25.34-.1c0-.48.32-1.65.25-2l-.92,1c-.28.06-1,0-1-.49a9.46,9.46,0,0,1,.76-2.48l-1.43,1c-.42.22-1.11-.31-1-.88.82-1.49,2.05-2.51,2.95-3.92.2-.57,1.18-.91,1-1.27l1.69-2.55.42.3a21,21,0,0,0,1.37,2.47,10.42,10.42,0,0,1,2.17.17c.84-.21,2.87,0,2.78-3.43a1.78,1.78,0,0,1,.48-.51h0a1.78,1.78,0,0,1,.27-.17,12.79,12.79,0,0,1,3.36-2.46c2.42-1.62,5.05-3.12,7.55-4.56a24,24,0,0,1,2.63-1.53l.61-.37.26-.29c1.82-4.95,2.68-5.17,4.39-6.36a23.7,23.7,0,0,0,4.14-7,1.81,1.81,0,0,0-1.71.95,13.52,13.52,0,0,1-.67,2.05,31.85,31.85,0,0,0-2.78,2.16v.29c-1.5,1.47-5.26,3.13-5.73,5.19l-1.52.89c0,.78-2.32,2.41-2.86,2.64l-.09.3c-2.07,1.14-3,1.5-4.55,3.82a4,4,0,0,0-2.15.47,4.77,4.77,0,0,0-1,.65,2.72,2.72,0,0,0-.49.54l-1.1,1.08a4,4,0,0,1-2.61.69,2.93,2.93,0,0,1-.34-1.48c-.5-.76-1.91-4.44-2.53-4.6-.31-.72-.58-1.46-.83-2.2-1.16-2.11-2.34-4.22-3.46-6.31a5.07,5.07,0,0,1-1.1-1.58,14.21,14.21,0,0,1-2.7-4.21,12,12,0,0,0-.05-2.51c-1-2.79-1.16-5.69-1.64-8.77a3.44,3.44,0,0,0-.84-1.26c-.48.32-.61,1.23-.6,2l.6,4.07c.75,1.52.9,10.49.42,12,.23.29.69.69.76,1.08,2.93,1.6,5.59,4,6.32,7.84-3.28,3.75-6.17.32-5.39-2.94,0,0,.51-1,.88-1.84a9.82,9.82,0,0,1-1.39-1.3c-5,9.87,3.54,9.24,4.59,10.49l.5,2a2.92,2.92,0,0,0-.24.67h0c-.19.72-.31,1.56-.85,1.88l-1.77.29-.68.88c-.56.35-.95-.39-.92-1l2-1.57a4.24,4.24,0,0,0-.17-.5h0c-.16-.44-.34-1-.17-1.26-5.71-.95-4.93-4.44-5.43-9.65.22-.43,2-2.34,2.11-2.79-1.86-1-2-4.36-2.61-4.8a4.76,4.76,0,0,0-2.36.29l-.84-.39-.59.88a9,9,0,0,0,3,2.06c-1.29,2.43-2.7.23-3.28.19l-.85.79-.16,1.56a4.54,4.54,0,0,1,3.37.69c.22.33-.07.58-.17.88l-1.43.1c-.9,1.13-.51,1-.51,2.25l2.11,1.37.2.74a2.3,2.3,0,0,1-1,.34l-.17,1.47c.76,1.08,3.28,3.35,2.61,4.7l-1.43-.19c.13-.93-1.55-2.36-2.11-2.84v-.39s-1.2-1.21-1.25-1.33c-5-6.19-.42-12,2.77-17.29a8.44,8.44,0,0,0,3.12-1.37c.05-.79-.08-2.28-.93-2.45a5.1,5.1,0,0,1-2.61.69c-1.35,2.36-3.12,3.36-4.81,5.19l-.08,2c-1.53.15-1.57,4.35-1.18,5.68-.66,1.23-.57,1.78-.34,3.33l.85.69c-.12,2.41.33,5.91,1.85,7.64,0,.31-.23,1,0,1.25h0c-1-.62-3.87-5.53-3.68-6.84l-1.26-2.16L180.3,182l-.58-9.95c1-.45.61-1.67.57-2.52l.7-1.15c-.23-.49-.5-.59-.81,0-.93,2-2.15,5.1-2.15,6.6a124.11,124.11,0,0,0,2.18,13c.31,1.35,1.42,1.44,1.42,2.94a12.65,12.65,0,0,0,.06,1.28h0c.43,4.36,3.21,4.33,6.55,10.05l-1,1H185c-3.83-1.61-5.7-6.27-7.28-11h0c-1.14-3.45-2.14-6.95-3.62-9.38a27.34,27.34,0,0,0-1.46,6.9,15.38,15.38,0,0,0,.34,2.48h0c.34,1.75.87,3.85,1.25,5.17a7.45,7.45,0,0,0,3.81,4.35c0,1.5,3.09,4.41,4.2,5.38l-1.5,1.52c-2.15-2.28-4.51-4.64-7.83-7.63l-.17-.16v4c-.1,1.5,4.7,8.32,4.7,9.83,0,1.27-5.49-.49-8.15-6.6a8.3,8.3,0,0,0,1.15,4.8c.75,1.2,2.54,3.28,3.21,4.63a6.35,6.35,0,0,1,.42,2.05h0a3.52,3.52,0,0,0,.38,1.34l-.95,1a35.2,35.2,0,0,0-5.58-2.32h0a22.71,22.71,0,0,0-2.38-.63v2.73c1.18,1.88,1.13,4.18,1.52,5.8.84,1.46,3,1.92,4.23,3.87.59,1,3.19,2.33,2,3.91-5.09-1-8-5.51-10.67-7.33-.16,1.46-.76,1.76-.76,3.26,0,3.6,3.5,7.38,6,10.78-1.12,1-1.21,1.52-2.7,1.52s-1.8-1.2-2.68-1c.66.93,1.18,1.31,1.26,2.12,3.81.09,6.74-.52,9-.05a20.63,20.63,0,0,1-.87,2.31H158.33c-3-1.93-5.49-6.44-5.49-9.08v-1.5c0-1.5,1.4.14,1.4.14,1.69,1.58,3.48,4,5.07,5.21a14.71,14.71,0,0,1-1.07-4.45,4.83,4.83,0,0,0-.3-2.44c-1-.79-3.9-2.06-3.9-3.56s-1.8-3.9-1.8-5.4-.63-3.46-.19-4.52c1.59.61,2.89,0,3.89,0a88.65,88.65,0,0,0,2.59,10.27A90.94,90.94,0,0,0,161,219.44h0a24.85,24.85,0,0,0,.26-2.48c0-1.5-1.2-4.5-1.2-6a3.22,3.22,0,0,1,.37-1.68,13.61,13.61,0,0,1,.8-1.14,10.39,10.39,0,0,0-4.93,1.13c0,.18-.07.37-.1.56a32.2,32.2,0,0,1-1.91,7.13c-2.64-2.18-2.63-4.33-3.13-6.56a9.06,9.06,0,0,0-.84-2.38h-4.57a8.64,8.64,0,0,1-.52,2.57,4.48,4.48,0,0,0-.17,1.27c0,1.49,1.8,3.29,1.8,4.79s.09,1.59-.44,2.14c0,0-.46.56-2,.56s-3.37-5.64-5.17-9.4c-.12-.25-.24-.49-.37-.73h-3.41v3.91c-.05,1.5,1.15.15,1.21,1.65v4a6,6,0,0,1-.78-.42A5.63,5.63,0,0,1,133,214c0-.1,0-.19,0-.29-.07-1.18-.47-2.22-.66-3.72,0-.24-.05-.48-.07-.74a10,10,0,0,1-3.4.63v2.72c1.68,2.33,2.35,5.51,4.46,6.89h0a4,4,0,0,0,.45.26,12.43,12.43,0,0,0,2.47.86c3.43.87,7.43.73,10.72,1.31,2.17,2.2,4,8.73,4,12.48,0,1.5-1.5.62-1.93,1.14-4-2.37-3.56-9.63-4.88-13.12-2.06,1.23-3.79,1.2-5.76,1.95.58,2,.43,3.9,1,5.63s2,3.2,2,4.7.09,1-.3,1.5c-.39-.51-1.1-.58-1.61-.75-1.13-2.09-2.89-4.65-2.89-6.15a21.66,21.66,0,0,0-1.06-5.46l-.27-.78a13.24,13.24,0,0,0-3.43.69c.59,1.49-.64,2.25-.64,3.75a19.88,19.88,0,0,0,.41,3.3c.15.72.33,1.49.56,2.25a12.87,12.87,0,0,0,1.63,3.63c1.13,1.65,3.1,3.72,4.6,3.72a2.86,2.86,0,0,0,.64-.09c1.93-.43,5.83-2.31,7.16-2.31a5,5,0,0,1,3.6,1.5c-.52.39-1.2-.3-1.2,1.2,0,.81,1.38,3.51,2.66,6.07h-5.08c-1.07-2.4-2.26-4.58-4.18-4.58a6.67,6.67,0,0,0-2.78.7c-.8.41-1.42,1-1.42,1.7a3.79,3.79,0,0,0,.92,1.85c.09.1.16.21.25.32h-1.94l-.18-.37c0,.12,0,.24-.08.36h-4a33.48,33.48,0,0,0,.79-4.28c0-6.07-7.8-2.25-7.8-10.2,0-6.52,4.8-9.15,4.8-11.69a2.67,2.67,0,0,0-.45-1.12h0c-1.39-2.34-5.54-6.86-5.48-8.11V203.8c4.47,1.78,8.85,0,12.53,0,1.5,0,4.2,1.2,5.7,1.2h5.4c1.5,0,11.35-1.2,16.69-2,.55-.35,1.09-1.51,2.24-2.61v-2.11c-2.21-.48-5.73-2.27-7.23-2.27s-2.28-.06-2.81-.47a31.27,31.27,0,0,1-7.8-1.8,9.86,9.86,0,0,1-2.66-1.55c-1.64-1.34-2.92-3.17-5.72-5.65a17.72,17.72,0,0,1-12.1-3.65c-3.07-2.48-9.14-6.24-8.12-8,.47-.84-10-8.43-9.81-9.92.48-3.83-4.57-3.83-5.17-5.11a25.71,25.71,0,0,1-2.62-7.79c-1.89-1.72-3.66-4.7-6.56-6.77-1.62-3.13-1.28-8.26-5.42-10.81-.79-2.88-5.6-8.36-5.6-9.86s.68-1.11,1.2-1.46c-8.4-4.58-11.4-12.15-12.42-20.29a17.65,17.65,0,0,0-4-1.89c-2-.67-5.05-4-7.09-5.85-1.67-2.12-11.14-11.2-8.26-12.8,2.57-1.44-4.11-5.55-6.88-9.3a12.25,12.25,0,0,1-3.32-8.7c0-1.5-.54-.42-1-1.1-.17-2.48-.77-6.4-.77-7.9,0-5.48-8.74-11.88-10.91-12.81-1.47-1.86-13.09-10-13.09-12.39,0-5.1,6-2.55,6-4.5,0-1.5-3.57-6.77-5.34-10.43V13h3.35c3.08,2.42,5.48,4.82,8.23,7.16,0,0,.36.59.36-.91s-1.8-9-1.8-10.5.6-2.7.65-4.66a3.76,3.76,0,0,1,2.35-.74c1.5,0,3.21,3.72,4,5.59.37,1,.08,3.09.6,4.82s2.64,6.39,2.64,7.89,7.8,10.8,7.8,11.4c0,1.5,5.28,4,6.64,5,2,2,14.82,14.37,16.8,15.59a51.71,51.71,0,0,0,8.24,7.19c2.17,1.65,4.43,2.41,6.38,4,10,8,29.73,25,29.73,26.48s5.48,1.85,7.65,3.12c3.75,2.25,7.19,5.62,11.37,7.78.58.22,12.78,9.8,12.78,11.3s6.48,5.17,7.26,5.79c.48.63,4.52,2.65,5.65,4,.6.83,21.28,23.36,21.28,26.81,0,1.5,1.12,1,2.06,2.1,2.18-4,4-7.66,7-12.52a2.43,2.43,0,0,0,1.42-.68c2,2.52,5.62,5.4,5.68,6.9.16,3.94,2.17,2.11,2.79,2.26C208.51,151,221,153.76,227,160.58c3.76-.47,11.82-5.42,13.7-5.42.82,0,2.91,4,2.68,5,.53.48-.29.39,1.21.39s16.4-6,24-8.62c3.26-.38,9.59-3.38,11.09-3.38s7.23,1.2,10.9,1.59a36.89,36.89,0,0,1,4.1-.39c1.5,0,15.6,4.2,17.1,4.2a12.19,12.19,0,0,1,2.78.16c6.61,2.26,17.61,6.44,19.11,6.44s3-.9,4.78-1.05c1.58-.07,59.17-3.51,60.52-4,2.25-.75,5-.68,7.82-1.43,10-2.7,20.37-7.34,30.74-11,.74.68,1.43.59,1.43,2.09,0,4.05-17.28,15.2-18.6,15.57C425,161.77,434,164.75,433.43,164.88ZM146.22,246.73h5.08c1.1,2.21,2.14,4.33,2.14,5,0,1.5-1.2,1.2-2.7,1.2C148.67,253,147.54,249.67,146.22,246.73ZM187.4,196a1.46,1.46,0,0,0,.42-.29c.17-.1.34-.1.43-.2l.5.3.25.29v.78c0,.2-.08.4-.08.59a.28.28,0,0,1-.25.1c-.09.1-.26.1-.42.2-.26-.2-.51-.4-.85-.69,0-.2-.08-.49-.08-.68A2.74,2.74,0,0,0,187.4,196Zm-.17-1.47a.28.28,0,0,1-.25.1c-.08.1-.25.1-.42.2-.25-.2-.51-.39-.84-.69v-.68a1.59,1.59,0,0,1,.25-.59.92.92,0,0,1,.59-.2l.5.2.26.29v.79C187.32,194.11,187.23,194.31,187.23,194.5Zm10.12,13.13a3.42,3.42,0,0,1,2.52-3,4.33,4.33,0,0,1-.84,2.93,1.38,1.38,0,0,0-.25.4,1.27,1.27,0,0,0-.42.19c-.25,0-.51-.1-.76-.1A1.46,1.46,0,0,0,197.35,207.63Z"/><path class="cls-1" d="M378.42,170.1c-11.61-.09-19.28.41-18.5,4.79,1.39.07,4.57,1.38,6.07,1.38s7.19.52,7.19.52c2.56-.6,6.17-3.26,7-3.88C380.8,171.31,381.14,169.94,378.42,170.1Z"/><path class="cls-1" d="M295.77,192.14c-.56-2.07-1.09-4.09-1.48-5.73-5.32.7-9.46,2-11.4,2a35.3,35.3,0,0,1-6.47-.59c.12-.93-.18-1.08,0-2.25,5.14-.41,10.63-.71,15.36-1.46,2.4-.37,5-2.35,7.06-3.4,1.5-.75,3.39-3.94,4.89-3.94s1.8-.6,3.3-.6a19.4,19.4,0,0,1,2.26.1,36.65,36.65,0,0,0,6.51-.56c.6-.15,4.82-.91,5.79-1.21a52.07,52.07,0,0,0,8.23-4c-.68-.86-1.19-.95-2.69-.95s-1.5,1.2-3,1.2-7.93-.45-11.45.15c-3.08.53-7.75,2.85-9.25,2.85s-1.93.05-3.14-.78c-.6-.38.14-1.62-1.36-1.62s-6.3,1.8-7.8,1.8-3.6-1.2-5.1-1.2-7.5,5.4-9,5.4-1.29.09-1.82-.42c-.05-4,4.82-6.39,4-9.77a9.33,9.33,0,0,1-2.58,1.35,11.3,11.3,0,0,1-3,.22,25.63,25.63,0,0,0-7.76,3.41c-4,2.48-7.31,8.76-11.58,8.76-1.5,0,.49-1.75.49-3.25s-.77-1.47-.77-1.47c-5,1.18-8.52,2.37-11.75,2.47a67,67,0,0,1,.12,13.48h0c0,.26,0,.51-.07.76.58-.27,1.17-.52,1.77-.77h0c7.53-3.1,16-4.59,22.92-8.18l1,.91a3.9,3.9,0,0,1-1.56,3.38,18.26,18.26,0,0,1-6.17,3.9h0l-1,.38c-.06,1-.86,1.64-.86,3.14,0,2.17,2.52,6.5,2.52,6.5a9.1,9.1,0,0,0-1.32,4.3c0,.71-.54.3-.1,2.56,1.08.47,1.53,4.54,1.67,6.18,0,.41.05.67.05.67a26.54,26.54,0,0,1,.26,2.83h2.09c2.47-1.18,5.48-1.78,7.74-3.06a48.77,48.77,0,0,0,1.34-6.71,16,16,0,0,0,.15-1.87c0-1.5-2.4-9.6-2.4-11.1v-5.1c0-1.5,1.29-1,1.84-.45.19.63.36,1.2.51,1.73a105.3,105.3,0,0,0,3.48,10.9,20.37,20.37,0,0,1,2.78,7.15,9.51,9.51,0,0,1-.13,3.12l4.16-1c2.55,0,3.56-2.18,3.56-4.65,0-.07,0-.17,0-.27-.23-1.85-2.48-9.21-3.36-15.25h.93c.85,1.68,1.77,3.29,1.77,3.29-.08,1.5,1,4.13,3,5.93,2.4,2.2,3,3.85,2.83,5.11-.16,1.63-1.47,2.6-1.46,3.21l5.43-.8c2.91-1.37,2.91-2.38,2.91-5.31a16.27,16.27,0,0,0-.51-2.57c-.56-2.28-1.49-5.63-2.36-8.85h0Zm-12.53,0c-.15-1-.26-2-.31-2.89a19,19,0,0,0,1.24,2.88Z"/><path class="cls-1" d="M366.58,179.62a25.07,25.07,0,0,0-4-.46,8.06,8.06,0,0,0-2.06.29,8.68,8.68,0,0,0-4.25,2.5A40.69,40.69,0,0,0,370,182,5,5,0,0,0,366.58,179.62Z"/><path class="cls-1" d="M333.3,190.67c-.14-.08-.62-.45-1.31-1-.52-.42-1.15-.93-1.88-1.5,0,0-4.7-3.14-5.37-4.18-3.3-2.47-4-2.53-6.12-2.53-1.13,0-7.56-1-7.56-1-.3,4.5,7.65,6,8.85,10.52.12.21.32.64.58,1.16a24.49,24.49,0,0,0,1.28,2.39,2.25,2.25,0,0,0,.73.82c.86.3,6.07-1.1,9.15-3.21h0A7.07,7.07,0,0,0,333.3,190.67Z"/><path class="cls-1" d="M315.93,194.51a31.23,31.23,0,0,1-2.48-2.37h0c-4.38-4.73-6.64-9.92-7.31-10.62-2.63,2.48-7.41,4.71-7.41,6.21,0,.42,1.15,2.1,2.36,4.41h0a23.09,23.09,0,0,1,2.62,7.57,11.4,11.4,0,0,1,0,2.61,2.82,2.82,0,0,0,2.37,1.44c.07,0,13.06-6.59,10.54-8.61Z"/><path class="cls-1" d="M359.76,170.37c-3.22,1.09-7.05-.68-9.07-1.37l-6,.45c1.28,3,11.8,4.11,13.24,3.12Z"/><path class="cls-1" d="M348.56,176.56c-1.36.05-4.95,3.86-4.95,3.86l-6.79,1,5.39-5.92c-1.28-.34-3.47-.81-3.47-.81-1.75-.48-3.81-1-6.36-1.5-1.34,2.53-9.07,5.13-9,5.87,3.18,2.06,7.55,2.42,8.95,5l.66.37s3.78,0,5.65,2.48a2.15,2.15,0,0,1,.18.24,6.6,6.6,0,0,0,1.82.45c1.5,0,3.47-1.25,5-2.3s6.05-4.32,8.24-5.72a6,6,0,0,1,1.12-.63C355.43,178.22,351.31,176.59,348.56,176.56Z"/><path class="cls-1" d="M54.17,345.76v106.3c48.45-10.6,76.85-13.2,95.93-3.46v-4c-28.21-15.35-56.63-6.07-88,.9l-3.49.78V344.8Z"/><path class="cls-1" d="M202,288.14l.42-.68c0-.32,0-.62,0-.91a12,12,0,0,0-.31-4.09c-.15-.39-.29-.7-.42-1a5.71,5.71,0,0,0-.5-.89,2.71,2.71,0,0,0-1.77-.39h-.08c-.52,0-.67-.22-.43-.87a4.12,4.12,0,0,1,1.59-1,2.14,2.14,0,0,1,.27-.09l-.06-.1-.45-.88a2.5,2.5,0,0,0-1.6-.88c-1.26.1-1.85-.1-1.69-.59l.49-.4a3.33,3.33,0,0,1,1.62-.77l.34-1.18a28.64,28.64,0,0,0-2.87-1.86l-2.7-.1a1.73,1.73,0,0,0-.84,1.08v.29l-.09.59c0,.21-.07.41-.1.62-.11.72-.24,1.44-.4,2.12s-.18,1.57-.26,2.34-.12,1.22-.16,1.78c0,1,0,2,.06,2.88,0,.46,0,.91.11,1.33a5.33,5.33,0,0,0-.17,1,18.61,18.61,0,0,1-.08,2,7.56,7.56,0,0,1-.09,1.66,2.2,2.2,0,0,1-.08.49,1.83,1.83,0,0,0-.51,1.18,10.31,10.31,0,0,0,.09,2.74c.16,1.08.5,1.57,1.26,1.77l1.1-.49c.25-.3.5-.69.76-1.08a11.13,11.13,0,0,0,1.43-3.43l.13-.59.12-.59a6.16,6.16,0,0,1,1.07-4.36l0,0,.05.06a3.8,3.8,0,0,1,.71,2.39.89.89,0,0,1-.08.49c-.16.85-.25,1.61-.33,2.38v.06a9.53,9.53,0,0,1-.42,2.75,3,3,0,0,1-.17.88,6.68,6.68,0,0,0-.25,1.76,2.83,2.83,0,0,1-.42,1.47c-.17.39,0,.59.42.69.34-.2.68-.3.93-.49A5.46,5.46,0,0,0,200.4,294a6,6,0,0,0,.59-3l.43-.89Z"/><path class="cls-1" d="M200.53,259.93a14.5,14.5,0,0,1-2.08.42c.67.91,1.48,2.2,3,2.2s1.5-.6,2.39-.83A14.93,14.93,0,0,0,200.53,259.93Z"/><path class="cls-1" d="M257.49,459.19l-3.49-.77c-27.78-6.17-68.68-17.73-98.17-2.81v4.62c20.34-9.61,57.25-5.3,106.1,5.39V359.31l-4.44-.95Z"/><path class="cls-1" d="M181.15,275.29a3.89,3.89,0,0,0,.56-3.79c0-.13-.08-.25-.13-.38a7.78,7.78,0,0,0-.55-1.07,2.34,2.34,0,0,0-2.1-.9,4.71,4.71,0,0,0-3.61,1.27l0,0a8.55,8.55,0,0,0-1.74,3.59C176.1,274.4,178.64,274.81,181.15,275.29Z"/><path class="cls-1" d="M159,289.22c.33.1.59-.29.67-.88a13.93,13.93,0,0,1,.93-4.17l.08-.24a6.45,6.45,0,0,0,.34-1.17c.17-.79.33-1.37.5-2.06a8,8,0,0,1,1.26-2.58c.13-.18.27-.37.43-.56l.59-.19a1.91,1.91,0,0,1,0,.82c0,.05,0,.11,0,.16a6.53,6.53,0,0,1-.34,1.86,27.61,27.61,0,0,0-.72,5.77c0,.66,0,1.32,0,2a1.17,1.17,0,0,0,.93,1.08,9.21,9.21,0,0,0,.92-.59,16.43,16.43,0,0,0,1.1-1.37,3.31,3.31,0,0,0,.59-2.55,4.71,4.71,0,0,1,.33-1l-.33-1.08a15.45,15.45,0,0,0,1.09-2.15c.3-.65.55-1.22.76-1.72.41-.93.68-1.59.84-1.91a3.57,3.57,0,0,1,1.1-1.56c.18-.25.35-.52.51-.79a7.75,7.75,0,0,0,.67-1.47,15,15,0,0,0,.67-2.64.13.13,0,0,0,0-.06,1.37,1.37,0,0,0,0-.19,2.08,2.08,0,0,0-.11-.73,3.09,3.09,0,0,1-.34-2.26.66.66,0,0,1,.93.3l.42,1,1-1.47a7.83,7.83,0,0,1-.25-3.14,13,13,0,0,0-5.82-1.56l-.59,1c-.5.58-1.09,1.17-1.6,1.76a4.42,4.42,0,0,0-.84,1.66,18.91,18.91,0,0,0-2.7,2.45l-.08.12a7.13,7.13,0,0,0-.54.81l-.22.35a16.26,16.26,0,0,1-1.6,2.94l-.19.27a7.6,7.6,0,0,0-.74,1.29,8.36,8.36,0,0,0-.5,1.77c-.07.46-.13.93-.19,1.39-.16,1.2-.3,2.4-.49,3.6-.08.2-.08.49-.17.59a7.79,7.79,0,0,1-.42,1.86,11.25,11.25,0,0,0,1.18,4.9Z"/><path class="cls-1" d="M188.63,263.28c1.26-.77,2.9-2.53,4-2.57,1.84,3.19,3.22,3.57,6.42,3.48-1.83-2.72-4.17-5.84-5.67-5.84s-4.2,1.2-5.7,1.2-2.4-1.2-3.9-1.2c-.75,0-5.7.53-5.7,2.7,0,1.43.24,2-1.76,4.34C180.78,265,185,263.75,188.63,263.28Z"/><path class="cls-1" d="M207.42,259.34c-2.75-2-7.06-5-8-7l-1.56,1.49C197.83,257.68,205.86,259.55,207.42,259.34Z"/><path class="cls-1" d="M212,270.7a15.62,15.62,0,0,0,9.74-1.69,39.22,39.22,0,0,0-.07-4.72s1.27.53,1.43.28c.46-1,2.21-2.12,2.43-3.47.3-1.8,1.66-3.65,1.57-5.06a15.65,15.65,0,0,0-4,.18c-.06,1.23-.93,2.45-1.46,3.5-.67,1.35-3.41,2.34-5,4.14-.15.22-.69,3.09-1.89,3.92s-3,.86-4.33,2.27A1.83,1.83,0,0,0,212,270.7Z"/><path class="cls-1" d="M220.6,248.24h-3.8c-1.5-.09-4.43.32-5.09,1.24,1.47.19,4.32,3.59,5.82,3.59C218.58,253.07,218.92,250.88,220.6,248.24Z"/><path class="cls-1" d="M213.23,280.91l-.74-1-.21.53a2.18,2.18,0,0,0-.09.23,18.36,18.36,0,0,0-1,3.67q2.55,1.1,5.06,2.26a9.38,9.38,0,0,1,1.4-.28c-1.46-1.66-2.85-3.45-4.1-5.08C213.41,281.16,213.32,281,213.23,280.91Z"/><path class="cls-1" d="M237.43,265.27c-1.29-1.43-2-3.29-3.34-3.92-3.75,3.07-7.34,5.46-9.86,7.48,1.29,1.43,2,3.29,3.35,3.92C231.34,269.06,234.31,267.89,237.43,265.27Z"/><path class="cls-1" d="M153,272.63c1.15,0,2.3,0,3.44.06a26.83,26.83,0,0,0-3.33-2.7,19.84,19.84,0,0,0-2-1.19c-2-1-4-1.36-5,0L146,269a6.43,6.43,0,0,0-.58,3.87C147.9,272.7,150.43,272.63,153,272.63Z"/><polygon class="cls-1" points="232.14 508.8 225.54 476.37 213.63 476.37 213.63 538.02 224.57 538.02 224.57 507.15 231.24 538.02 237.76 538.02 243.03 538.02 243.03 533.98 243.03 476.37 232.14 476.37 232.14 508.8"/><path class="cls-1" d="M192.55,475.16q-7.63,0-11.85,8.4t-4.22,23.67q0,15.24,4.2,23.62t11.87,8.38q7.63,0,11.81-8.36t4.17-23.64q0-15.32-4.18-23.7T192.55,475.16Zm3,44.85q-.87,3.48-3,3.48T189.45,520q-.88-3.53-.88-13.15t.88-13.16c.59-2.36,1.62-3.55,3.09-3.55s2.46,1.17,3,3.51.87,6.73.87,13.2S196.16,517.69,195.58,520Z"/><path class="cls-1" d="M150.1,437.64V331.45c-16.51-10.47-33.83-10.68-85.76.75v107C112.4,428.66,132.36,427.77,150.1,437.64Z"/><path class="cls-1" d="M164.7,499.72l-.36-.42c-2.06-2.31-3.08-4.25-3.08-5.82a4.16,4.16,0,0,1,.82-2.68,2.63,2.63,0,0,1,2.17-1,6.36,6.36,0,0,1,3.44,1.24,20.86,20.86,0,0,1,4,3.69v-16a22.88,22.88,0,0,0-5-2.66,13.64,13.64,0,0,0-4.68-.88,11.28,11.28,0,0,0-9.48,5q-3.68,5-3.68,12.85a23.14,23.14,0,0,0,1.53,8.48c1,2.62,3.32,6.3,7,11.23,2.08,2.81,3.11,5,3.11,6.42a5,5,0,0,1-.92,3.09,2.85,2.85,0,0,1-2.36,1.22,6.93,6.93,0,0,1-3.78-1.52,28,28,0,0,1-4.71-4.45v17a19.83,19.83,0,0,0,5,3.55,11.62,11.62,0,0,0,5,1.14,12.4,12.4,0,0,0,10.52-5.47q4-5.46,4-14.5a25.29,25.29,0,0,0-1.59-9.39C170.58,507.21,168.26,503.83,164.7,499.72Z"/><polygon class="cls-1" points="136.51 476.37 124.49 476.37 124.49 538.02 145.29 538.02 145.29 522.71 136.51 522.71 136.51 476.37"/><path class="cls-1" d="M231.4,215a3.31,3.31,0,0,0,.55-2.75h-2.14l-1.22,1.17a13.84,13.84,0,0,0-3.14.15,5.68,5.68,0,0,0,3.88,2.22C230.83,215.76,230.54,215.87,231.4,215Z"/><rect class="cls-1" x="105.77" y="476.37" width="11.97" height="61.65"/><polygon class="cls-1" points="87.17 512.85 83.33 476.37 73.7 476.37 69.79 512.85 66.97 476.37 55.07 476.37 62.87 533.95 63.42 538.02 68.17 538.02 74.37 538.02 78.51 499.46 82.62 538.02 93.6 538.02 101.97 476.37 90.08 476.37 87.17 512.85"/><path class="cls-1" d="M150.1,458.94v-3.33c-29.49-14.92-70.4-3.36-98.17,2.81l-3.48.77V358.36l-4.44.95V465.62c48.85-10.69,85.75-15,106.09-5.39Z"/><path class="cls-1" d="M268.79,560.56a10.74,10.74,0,1,0-10.74-10.74A10.73,10.73,0,0,0,268.79,560.56Zm0-19.75a9,9,0,1,1-9,9A9,9,0,0,1,268.79,540.81Z"/><path class="cls-1" d="M266,550.61h3.36l2.15,5.08H273l-2.3-5.44a2.83,2.83,0,0,0,1.67-1.22,3.51,3.51,0,0,0,.51-1.8A3.33,3.33,0,0,0,272,545a3.52,3.52,0,0,0-2.78-1h-4.61v11.73H266Zm0-5.37h3.23a2.4,2.4,0,0,1,1.59.52,1.75,1.75,0,0,1,.63,1.44,2.22,2.22,0,0,1-.6,1.57,2.31,2.31,0,0,1-1.8.64H266Z"/></g></g></svg>