<svg xmlns="http://www.w3.org/2000/svg" viewBox="0 0 681.09 192.66"><defs><style>.cls-1{fill:#fff;}</style></defs><title>wilson-cursive--white</title><g id="Layer_2" data-name="Layer 2"><g id="Layer_1-2" data-name="Layer 1"><path class="cls-1" d="M204.09,32.9c5.46,2.7,10,8.54,12.42,8.54A2.62,2.62,0,0,0,218,41.1,5,5,0,0,0,220.51,38a15.32,15.32,0,0,0,.5-4.42,40.62,40.62,0,0,1,3.89-7.08c1.62-1,3-1.51,3-3.91,0-.29-2.26-7.84-5.89-7.84-3.13,0-24.69,6.57-24.69,13.32,0,2,1.59,3.49,3.35,4.38A8.63,8.63,0,0,0,204.09,32.9Z"/><path class="cls-1" d="M674.18,66.9c-1,3.45-2.64,7.92-2.64,9.92a67.08,67.08,0,0,1-2.42,16.91,225.09,225.09,0,0,1-10.53,26,146.32,146.32,0,0,1-20.3,28.81c-4.22,4.16-9,8.68-14,13a67.62,67.62,0,0,1-13.69,8.28c-2.88,3.86-10.68,8.93-16.67,9.27a10.11,10.11,0,0,1-8.44-3.56c.28,0-.78-1.36-.77-1-4.27-5.94-3.93-16.2-3.93-21.32,0-15.34,12.74-58.32,12.74-67.67,0-4.2-4.19-5.18-8-5.18-2.43,0-5.77,1.95-9.41,4.8a60.5,60.5,0,0,0-7.06,6.25c-5.09,4.88-10,10.27-13.14,13.61a5.66,5.66,0,0,1-3,.82c-2,0-2.16-1.8-2.18-4.38,0,0,2.18-12.33,2.18-14.33,0-3.08-.4-15.53-6.77-15.53-8.56,0-26.77,21.29-26.94,25.73-5.91,7-11.13,14.22-16.22,21.35.28-.71-1.49,2.11-1.49,2.11-3.14,4.4-6.25,8.79-9.43,13.06-1.56,1.23-2.87,2.71-3,3.9a133.93,133.93,0,0,1-21.86,22.9c.43-.42-2.44.54-3.72,1.72,4-8.84,18.53-40.47,18.53-49.77,0-2,2.39-25.47,2.39-27.45,0-8-2.29-27.07-19.9-27.07-9.89,0-18.59,6.18-26,15A97.19,97.19,0,0,0,421,98.93a39.19,39.19,0,0,0-2.09,6.07l-1.07,1.87a23.28,23.28,0,0,0-2.58,8.44c-2.19,5.39-3.88,10-5.11,13.11l-.52,1.22c-1.6,3.51-19.2,18.1-27.5,23.48-4.08,2.68-17.21,14-25.06,14-2,0-1.7.13-2.39-.44,4.28-6.4,7.37-17.07,12.92-21.71,1.3-.33-.18-.92-.18-2.91a18.31,18.31,0,0,1,.63-4.45c1.65-4.36,3.47-9.26,5.11-14,3.05-7.43,6.2-15.13,6.2-21,0-2,4-35,4-37s1-8.35-4.38-8.35c-12.32,0-43.46,50-49.33,59.23a6.06,6.06,0,0,0-.83,1.26c-1.78-2.71-1.79-6.36-6.37-6.36-3.58,0-11.54,5.48-11.54,10.74,0,2,2.38,14.72,2.38,16.72,0,3.39-25.78,26.67-29.06,26.67-7.36,0-9.95-18.1-9.95-20.69a50.38,50.38,0,0,1,2-15.1c2.53-6.51,6.38-11.84,9.79-16.53,1.78-1.29,3.33-3.05,3.05-4.19,0,0,3.51-5.46,4.09-8.44l1.41-2.08c2.81-4.16,6.45-11.35,10.1-19.17,1.54-3.08,3-6.31,4.42-9.55.74-1.76,1.45-3.48,2.14-5.19,4.75-11.09,8.38-20.5,8.38-21.26,0-2-1.58.41-1.58-1.59,0-1,7.16-15.94,7.16-21.1,0-5-2.84-17.32-5-20.65-1,0-2.19,0-3.13,0a41.71,41.71,0,0,0-4.86,2.74C307,5,302.2,10.33,297.86,17.57a93.35,93.35,0,0,0-6.65,12.27,152.8,152.8,0,0,0-9.78,26.32c-.74,2.15-1.47,4.21-2.21,6.19-3.68,9.76-9,28.8-9,30.8,0,1.81-.06,3.58-.18,5.36-.83,4.49-1.47,9-2.22,13.59-4.66,17.36-16.34,33.24-37.29,52.18-2.19,2-14,11.64-15.64,11.64-8.17,0-10-20.6-10-25.47,0-10,19.1-48.76,19.1-71.24,0,0,.6-6.78-3.18-6.78-11.93,0-20.22,25.83-24.79,45.14a87,87,0,0,0-2.93,13.79c-.69,3.55-1.09,6-1.24,6.67-1.09,5.09-7,14.69-10.29,19.76-6.38,9.76-17.13,21-23.64,32.19l1.54,1a7.88,7.88,0,0,0,4,1.69c9.26,0,17.61-17.36,25.11-25.54h1.41c3.14,13.78,4.74,22.35,17.67,22.35,18.42,0,40.81-28.3,51.63-40.63.23,8.89,3.31,29.47,18.05,29.47,12,0,26.45-12.59,37.82-24a8.34,8.34,0,0,0,3.64,3.87c7.55,18.42,11.59,20.9,29.4,20.9,10.88,0,20.69-4.31,29.1-9.76A97.35,97.35,0,0,0,393,157.41c4.08-3.11,7.89-6.31,11.21-9.4a4.9,4.9,0,0,1,2.21-.73c.3,0,5.56,34.22,22.69,34.22h1.29a3.4,3.4,0,0,0,3.49-.13,77.61,77.61,0,0,0,20.47-3.88,68.34,68.34,0,0,0,27.57-15.74c13.49-11.32,23.49-25.74,31.27-38.22,5.54-7.76,11.54-16.28,18.34-25.51,6.31-5.55,3.56,5.39,2.8,7.73-.92,3.52-2.12,7.67-2.12,8.88,0,16.81-24.68,73.35-24.68,73.62,0,4.29,8.16,3.59,9.16,3.59a25.57,25.57,0,0,0,5.5-.36c5.73-9.49,13.73-26.62,21.78-42.94,8.73-15.29,18.33-31.2,26.11-41a3.21,3.21,0,0,1,.74-.1c2,0,1.24.57,1.24.57l-.79,3.81c.07-1.23-8.81,47.58-8.81,49.36,0,9.64,6,29.84,23.49,29.84,12.08,0,25.51-6.35,38.39-16.11,20.88-14.88,39.91-38.33,49.21-59.85,4.67-9.62,7.43-18.55,7.52-25.67-.87-.94-.77-1.42,0-13.42C680.79,73.7,677.72,68.92,674.18,66.9ZM288.33,77.83c2.08-7.08,4.26-14.24,6.14-20.51,1.42-4.21,2.68-7.94,3.59-10.91A126.16,126.16,0,0,1,313,19.93c.27,1.16,1.07.76,1.07,2.76,0,.27-5.76,22.66-6.95,29.11-1.54,4.51-3,8.76-4.22,12.3-1.64,4-3.15,7.82-3.15,8.73,0,2-5.52,6.1-7.18,12-.62,2.17-2.51,4.54-3.61,8.89l-2.5,3.81a7.49,7.49,0,0,1-2.56.28C285.37,90.91,286.8,84.29,288.33,77.83Zm54.1,83.75c-3.31-.79-12.48-19.78-12.48-24.26,0-1.46,4.37-8.4,10.17-17l2.65-4c8.52-12.44,19-27,23.54-33.58-.53,10-2.12,20.28-2.12,22.25C364.19,117.32,346.31,155.85,342.43,161.58Zm98.19,4c-8.65,0-12.73-25-12.73-28.26,0-14.51,3.34-18.69,18.28-34.83.9-.43-.76-2.58-.76-4.57a11.78,11.78,0,0,1,.37-2.63c1.82-3.79,3.48-7.6,4.94-11.44l1-2.61c3.76-6.76,8.42-12.79,11.65-12.79,2.58,0,9.27,5.33,11.54,8.4l-.79,2.72c.17-.65.16,8.58.16,8.58-.61,5-1.47,13-2,18.7C468.3,124.16,454.17,165.58,440.62,165.58Z"/><path class="cls-1" d="M173.34,74.22c0-2,3-4,4.2-6.8a32.58,32.58,0,0,0,1.93-9.71c0-2-.8-1.19-.8-3.18V51.44c.75,0,1.6-.81,1.6-2.47,0-2,2.36-16.88,2.36-16.88-1.17-.24.43-3.41,1.5-3.53v-3c.56-1.81.92-7.48.92-9.68,0-1.58-1.36-14.31-5.92-14.31-3.19,0-12.39,2.78-12.28,8.55.43,1.11,1.92,2.18,3.32,3.32a14.22,14.22,0,0,1,2.16,3.81V30.74c0,.68,0,1.42-.11,2.22-.69,5.21-1.77,11.53-3,18.36-5.05,23.77-14.4,56.75-14.4,59.73,0,5.48-18.31,41.11-18.31,41.4,0,3.19-14.92,17.89-17.12,17.89-1,0-8.37-1.58-8.37-6.37,0-.28-5.55-10.72-5.55-13.52a17.57,17.57,0,0,0-.08-2c-.19-4.76-.73-15.41-.73-17.07,0-33.33,19.92-84.67,19.92-91.15,0-2-1.62-1.61-1.74-2.68-3.46-.12-7.44-.89-9.42-.89-5.48,0-12.13,33.1-14.91,41.66s-3.25,17.49-5,26.3c-1.13,4.09-2.42,8.13-3.94,12.16-7,12.77-38.19,58.38-54.94,58.38-18,0-19.91-22.39-19.91-33,0-14.65,23.09-94,23.09-94.35a7.58,7.58,0,0,1,.1-1.21c1.74-4.11,3.56-8.22,5.26-11.94,3.78-6.48,8.18-13.07,8.18-16.69,0-2-3.18-4.38-5.17-4.38a4.31,4.31,0,0,0-2.74,1.34c-8.65,4-17.66,29.33-25.14,57.29C9.6,98.37,2.7,124.11,2.7,127.37c0,2-2.39,19.1-2.39,21.09s-1.09,3.44.8,16c2.38,15.73,12.73,22.64,24.28,22.64,22.29,0,38.35-19,49.16-33.05,4.47-4.9,8.49-9.72,11.86-14a3.62,3.62,0,0,1,1.88-.71c.72,0,1.09.08,1.26.58-.85,8.84,1.62,44.79,23.83,44.79,36.12,0,60.51-85.17,60.51-102.69C173.89,80,173.34,76.21,173.34,74.22Z"/></g></g></svg>