<svg xmlns="http://www.w3.org/2000/svg" viewBox="0 0 600.16 204.58"><defs><style>.cls-1{fill:#fff;}</style></defs><title>WILSON--white</title><g id="Layer_2" data-name="Layer 2"><g id="Layer_1-2" data-name="Layer 1"><polygon class="cls-1" points="565.4 107.42 544.31 3.87 506.28 3.87 506.28 200.71 541.22 200.71 541.22 102.15 562.5 200.71 583.34 200.71 600.16 200.71 600.16 187.81 600.16 3.87 565.4 3.87 565.4 107.42"/><path class="cls-1" d="M439,0q-24.37,0-37.84,26.82t-13.46,75.61q0,48.65,13.41,75.4T439,204.58q24.39,0,37.7-26.69T490,102.43q0-48.93-13.36-75.68T439,0Zm9.66,143.21q-2.76,11.11-9.71,11.12t-9.85-11.25q-2.82-11.25-2.81-42t2.81-42.05q2.82-11.31,9.85-11.31t9.71,11.18q2.78,11.19,2.77,42.18T448.64,143.21Z"/><path class="cls-1" d="M350,78.42a17.08,17.08,0,0,1-1.12-1.35q-9.86-11-9.86-18.57A13.27,13.27,0,0,1,341.68,50a8.43,8.43,0,0,1,6.94-3.31q5,0,11,4A67.19,67.19,0,0,1,372.45,62.4V11.32a72.84,72.84,0,0,0-16-8.49,43.41,43.41,0,0,0-15-2.83Q323,0,311.27,16.1t-11.77,41a74.12,74.12,0,0,0,4.88,27.09c3.25,8.35,10.6,20.12,22.42,35.84q9.94,13.5,9.94,20.51a15.87,15.87,0,0,1-2.94,9.85,9.09,9.09,0,0,1-7.55,3.91q-5.16,0-12.05-4.86a89,89,0,0,1-15-14.19v54.35a63.61,63.61,0,0,0,16,11.31A37,37,0,0,0,331,204.58q20.91,0,33.57-17.46t12.66-46.29q0-17.25-5.07-30T350,78.42Z"/><polygon class="cls-1" points="260.06 3.87 221.66 3.87 221.66 200.71 288.08 200.71 288.08 151.85 260.06 151.85 260.06 3.87"/><rect class="cls-1" x="161.87" y="3.87" width="38.21" height="196.85"/><polygon class="cls-1" points="102.5 120.36 90.22 3.87 59.47 3.87 47 120.36 38 3.87 0 3.87 24.9 187.71 26.66 200.71 41.84 200.71 61.63 200.71 74.84 77.62 87.97 200.71 123.03 200.71 149.75 3.87 111.78 3.87 102.5 120.36"/></g></g></svg>