<svg xmlns="http://www.w3.org/2000/svg" viewBox="0 0 649.43 93.88"><defs><style>.cls-1{fill:#fff;}</style></defs><title>wilson-works--white</title><g id="Layer_2" data-name="Layer 2"><g id="Layer_1-2" data-name="Layer 1"><path class="cls-1" d="M97.05,17.92C99.65,19.2,101.83,22,103,22a1.25,1.25,0,0,0,.73-.16,2.39,2.39,0,0,0,1.18-1.46,7.09,7.09,0,0,0,.23-2.1,19.55,19.55,0,0,1,1.85-3.36c.78-.47,1.42-.72,1.42-1.87,0-.13-1.07-3.72-2.8-3.72-1.49,0-11.74,3.12-11.74,6.33a2.52,2.52,0,0,0,1.59,2.08A4.1,4.1,0,0,0,97.05,17.92Z"/><path class="cls-1" d="M320.58,34.08a26.63,26.63,0,0,0-1.25,4.72,32.2,32.2,0,0,1-1.15,8,107,107,0,0,1-5,12.38,69.4,69.4,0,0,1-9.65,13.7c-2,2-4.31,4.13-6.67,6.18A32.49,32.49,0,0,1,290.34,83c-1.37,1.83-5.08,4.24-7.93,4.4a4.79,4.79,0,0,1-4-1.69c.14,0-.37-.65-.36-.46-2-2.83-1.87-7.71-1.87-10.14,0-7.3,6.05-27.73,6.05-32.18,0-2-2-2.47-3.78-2.47-1.16,0-2.74.93-4.47,2.29a28.31,28.31,0,0,0-3.36,3c-2.42,2.32-4.75,4.88-6.25,6.47a2.63,2.63,0,0,1-1.45.39c-.94,0-1-.86-1-2.08,0,0,1-5.87,1-6.82,0-1.46-.19-7.38-3.22-7.38-4.06,0-12.72,10.12-12.81,12.23-2.8,3.33-5.29,6.77-7.71,10.16.13-.34-.71,1-.71,1-1.49,2.09-3,4.18-4.48,6.21a3.44,3.44,0,0,0-1.42,1.86,63.54,63.54,0,0,1-10.39,10.88c.2-.19-1.16.26-1.77.82,1.89-4.2,8.82-19.24,8.82-23.67,0-.94,1.13-12.11,1.13-13,0-3.8-1.09-12.87-9.46-12.87-4.71,0-8.84,2.94-12.38,7.13a46.35,46.35,0,0,0-8.33,12.28,17.22,17.22,0,0,0-1,2.88l-.51.89a11.09,11.09,0,0,0-1.22,4c-1,2.57-1.85,4.75-2.43,6.24l-.25.58c-.76,1.67-9.13,8.6-13.08,11.16-1.94,1.28-8.18,6.69-11.92,6.69-.94,0-.81.06-1.13-.21,2-3,3.5-8.12,6.14-10.33.62-.15-.09-.43-.09-1.38a9,9,0,0,1,.3-2.12c.79-2.07,1.65-4.4,2.43-6.66,1.46-3.53,3-7.2,3-10,0-1,1.9-16.66,1.9-17.61s.47-4-2.09-4c-5.85,0-20.66,23.77-23.45,28.16a2.67,2.67,0,0,0-.4.61c-.84-1.29-.85-3-3-3-1.7,0-5.49,2.61-5.49,5.11,0,.94,1.14,7,1.14,7.95C149,69.94,136.69,81,135.13,81c-3.5,0-4.74-8.61-4.74-9.84a24,24,0,0,1,1-7.18A35,35,0,0,1,136,56.13c.84-.61,1.58-1.45,1.45-2a16.86,16.86,0,0,0,1.94-4l.67-1A75.22,75.22,0,0,0,144.87,40c.73-1.46,1.43-3,2.1-4.54.35-.84.69-1.66,1-2.47,2.26-5.27,4-9.75,4-10.11,0-.94-.75.2-.75-.75,0-.47,3.41-7.58,3.41-10s-1.36-8.23-2.37-9.82c-.47,0-1,0-1.49,0a20.79,20.79,0,0,0-2.31,1.3c-2.48,1-4.76,3.61-6.82,7.05a43,43,0,0,0-3.16,5.83A73.09,73.09,0,0,0,133.82,29c-.35,1-.69,2-1,2.94-1.75,4.64-4.27,13.7-4.27,14.65s0,1.7-.08,2.55c-.4,2.13-.7,4.3-1.06,6.46-2.21,8.26-7.77,15.81-17.73,24.81-1,1-6.64,5.54-7.44,5.54-3.88,0-4.73-9.8-4.73-12.12,0-4.73,9.08-23.18,9.08-33.87,0,0,.28-3.22-1.51-3.22-5.67,0-9.62,12.28-11.79,21.46a42.17,42.17,0,0,0-1.4,6.56c-.32,1.68-.51,2.85-.58,3.17-.52,2.42-3.34,7-4.9,9.4-3,4.64-8.14,10-11.24,15.3l.73.47a3.75,3.75,0,0,0,1.91.8c4.41,0,8.38-8.25,11.95-12.14h.67c1.49,6.55,2.25,10.63,8.4,10.63,8.76,0,19.4-13.46,24.55-19.32.11,4.23,1.57,14,8.58,14,5.71,0,12.58-6,18-11.4a4,4,0,0,0,1.73,1.84c3.59,8.75,5.51,9.93,14,9.93,5.17,0,9.84-2,13.84-4.64a46.19,46.19,0,0,0,7.42-5.68c1.94-1.48,3.75-3,5.33-4.47a2.32,2.32,0,0,1,1.05-.34c.14,0,2.65,16.27,10.79,16.27h.61a1.61,1.61,0,0,0,1.66-.06A36.68,36.68,0,0,0,216,86.67a32.49,32.49,0,0,0,13.12-7.48C235.57,73.81,240.33,67,244,61c2.63-3.7,5.48-7.75,8.72-12.14,3-2.64,1.69,2.57,1.33,3.68a35.05,35.05,0,0,0-1,4.22c0,8-11.74,34.88-11.74,35,0,2,3.88,1.71,4.36,1.71a11.49,11.49,0,0,0,2.61-.18c2.73-4.51,6.53-12.65,10.36-20.41,4.15-7.28,8.72-14.84,12.42-19.49a1.45,1.45,0,0,1,.35,0c.95,0,.59.27.59.27l-.37,1.81c0-.58-4.19,22.62-4.19,23.47,0,4.59,2.84,14.19,11.17,14.19,5.74,0,12.13-3,18.25-7.66,9.93-7.08,19-18.23,23.4-28.46,2.22-4.57,3.53-8.82,3.58-12.21-.42-.44-.37-.67,0-6.38A7.69,7.69,0,0,0,320.58,34.08Zm-183.47,5.2c1-3.36,2-6.77,2.92-9.75.67-2,1.27-3.77,1.7-5.19a60.19,60.19,0,0,1,7.09-12.59c.13.55.51.36.51,1.31,0,.13-2.74,10.78-3.31,13.85-.73,2.14-1.44,4.16-2,5.84a24.62,24.62,0,0,0-1.5,4.16c0,.94-2.63,2.9-3.42,5.68-.29,1-1.19,2.16-1.71,4.23l-1.19,1.81a4,4,0,0,1-1.22.14C135.7,45.5,136.38,42.36,137.11,39.28Zm25.72,39.83c-1.57-.38-5.93-9.41-5.93-11.54,0-.69,2.08-4,4.83-8.06L163,57.63c4-5.92,9-12.83,11.2-16-.25,4.74-1,9.65-1,10.59C173.18,58.06,164.68,76.38,162.83,79.11ZM209.52,81c-4.11,0-6.05-11.88-6.05-13.44,0-6.9,1.59-8.89,8.69-16.56.43-.2-.36-1.23-.36-2.17a5.94,5.94,0,0,1,.17-1.26c.87-1.79,1.66-3.61,2.35-5.44l.46-1.23c1.79-3.22,4-6.09,5.54-6.09,1.23,0,4.41,2.54,5.49,4l-.38,1.29c.09-.31.08,4.08.08,4.08-.29,2.36-.7,6.18-1,8.89C222.68,61.32,216,81,209.52,81Z"/><path class="cls-1" d="M82.43,37.57c0-1,1.43-1.91,2-3.24a15.18,15.18,0,0,0,.92-4.61c0-.95-.38-.57-.38-1.52V26.74c.35,0,.76-.39.76-1.18,0-.95,1.12-8,1.12-8-.56-.11.2-1.62.71-1.68V14.44A24.85,24.85,0,0,0,88,9.84C88,9.09,87.35,3,85.17,3c-1.51,0-5.89,1.33-5.84,4.07.21.53.92,1,1.58,1.58a6.77,6.77,0,0,1,1,1.81v6.4c0,.33,0,.68,0,1.05-.33,2.49-.84,5.49-1.44,8.74-2.4,11.3-6.85,27-6.85,28.4,0,2.6-8.71,19.55-8.71,19.69,0,1.51-7.09,8.5-8.13,8.5-.48,0-4-.75-4-3,0-.14-2.64-5.1-2.64-6.44,0-.15,0-.49,0-1-.09-2.26-.35-7.33-.35-8.12,0-15.85,9.47-40.26,9.47-43.34,0-.95-.77-.77-.83-1.28-1.64-.05-3.53-.42-4.48-.42-2.6,0-5.76,15.74-7.09,19.81S45.28,47.82,44.43,52c-.54,1.94-1.15,3.87-1.88,5.78C39.2,63.86,24.39,85.55,16.43,85.55,7.86,85.55,7,74.9,7,69.85c0-7,11-44.72,11-44.86a3,3,0,0,1,0-.58c.83-2,1.69-3.91,2.5-5.68,1.8-3.08,3.89-6.21,3.89-7.94,0-.95-1.51-2.08-2.46-2.08a2.06,2.06,0,0,0-1.3.64c-4.11,1.91-8.4,14-12,27.24C4.57,49.05,1.28,61.29,1.28,62.84c0,.94-1.13,9.08-1.13,10s-.52,1.64.38,7.6C1.66,88,6.58,91.23,12.07,91.23c10.6,0,18.24-9,23.38-15.71,2.12-2.33,4-4.63,5.64-6.66a1.69,1.69,0,0,1,.89-.34c.35,0,.52,0,.6.27-.4,4.21.77,21.3,11.33,21.3,17.18,0,28.78-40.5,28.78-48.83C82.69,40.32,82.43,38.51,82.43,37.57Z"/><path class="cls-1" d="M643.74,79.67a12.75,12.75,0,0,0-4.4,1l-.37-.08c-.31-.08-.83.89-.83.89a1.58,1.58,0,0,0-.5,1.14l0,.59c.21,2.23,1.69,2.91,3.61,3.12a2.24,2.24,0,0,0,.57.08l.37,0,.81,0h.5c.56,0,3,.19,4.54-.8l.49-.38a2.86,2.86,0,0,0,.87-2.19c0-1-.42-1-.48-1.62C647.11,81.35,644.8,79.67,643.74,79.67Z"/><path class="cls-1" d="M629,24a5,5,0,0,0,.71-2.53,4.67,4.67,0,0,0-1.27-3.16,5,5,0,0,0-3.91-1.44h-6.49v16.5H620V26.23h4.73l3,7.15h2.17l-3.24-7.65A4,4,0,0,0,629,24Zm-4.73.54H620V18.68h4.55a3.42,3.42,0,0,1,2.23.73,2.49,2.49,0,0,1,.89,2,3.1,3.1,0,0,1-.84,2.2A3.3,3.3,0,0,1,624.31,24.55Z"/><path class="cls-1" d="M624,10a15.1,15.1,0,1,0,15.09,15.09A15.1,15.1,0,0,0,624,10Zm0,27.78a12.68,12.68,0,1,1,12.68-12.69A12.68,12.68,0,0,1,624,37.81Z"/><path class="cls-1" d="M625.23,73.49a.86.86,0,0,0-.47,0h-.53c-.2.26-.42.53-.66.79a103.63,103.63,0,0,1-11.43,7.32c-9.23,4.12-21,7-27.77,7-1.78,0-2.82.21-4.35-.53.21,0-.89-.45-.93-1.48,1-.94,2.35-3.48,3.78-6.68a19.78,19.78,0,0,0,1-2c.25-.68.51-1.38.75-2.1,2.49-6.33,4.7-13.6,4.7-16.71a31.31,31.31,0,0,1,.57-5.86c.57-2.07,1.21-4.33,1.8-6.44,1.25-3.55,2.55-6.18,2.55-7.58,0-2-1.75-3.21-3.78-3.21-.95,0-4.21.54-4.82,2-1.56,3.62-7.41,13.45-13.09,20.91a3.18,3.18,0,0,0-1.21,1.5s-6.8,7.76-8.91,7.76c-3.45,0,1.67-8-4.35-8-3.5,0-5.87,2-5.87,5.68,0,.94.76,6,.76,7,0,4.08-17.23,9.65-20.25,9.65a9.41,9.41,0,0,1-1.9-.19c-.75-.19-1.38-.5-1.79-.61-4.48-2.23-5.21-8.56-5.21-11.87a9.49,9.49,0,0,1,.42-2.74,28.8,28.8,0,0,1,3.63-6c4-4.59,10.4-8.65,15.55-11.65,2.35-.78,4.55-1.64,6-3.46.66-.38,1.2-.71,1.61-1V43.24A17.6,17.6,0,0,0,546.88,42c-2.43,0-7.78,2.91-12.91,6.25L532.6,49c-2.35,1.17-9.41,7.12-10.77,8.42,1.08-2.13,2.71-5,2.27-5,2.15-4.39,5-10.1,5-12.24,0-.07,1.8-5.32,3.7-11.84A45.09,45.09,0,0,0,535.49,18,52.44,52.44,0,0,0,537,7.57c0-.75,0-7.57-3.6-7.57a5.43,5.43,0,0,0-3.06,1,9.29,9.29,0,0,0-3.7,4.1c-3.73,5.8-6.54,15.36-8.36,22.45-1.44,4.69-2.86,9.53-4.06,13.8a39.12,39.12,0,0,0-1.82,5.19c0,1.41-3.84,13.78-6.89,20a2,2,0,0,0-1,1.87,9.71,9.71,0,0,1-.69,1c-4.6,5.6-15.12,12.86-22.89,15a4.49,4.49,0,0,1-.62.17,7.68,7.68,0,0,0-1.43.33,13,13,0,0,1-2.09.19c-1.22,0-2.26.47-2.26-1.71,0-5.82,9.46-9.75,9.46-24.42,0-5.52-3-12.78-5.46-19.71L477.74,37c.17-.26,0-.61-.2-.62a39.45,39.45,0,0,1-2-8.17c0-1.27-2.41-1.31-2.7-1.31-1,0-5.49,1.37-5.49,3.59,0,1,1.9,9.09,1.9,10,0,5.81-2.9,11.39-6,16.94-1.62,2.84-3.29,5.67-4.68,8.54l-.34.6c-.51.75-1,1.48-1.59,2.21A33.72,33.72,0,0,1,452,73.12c-.39,0-.82,0-1,.8-2.15,1.62-4.37,3.06-6.17,4.18s-5.59,4-8.05,4a2,2,0,0,1-1.31-.37l.63-.66a4.59,4.59,0,0,1,1-.45,5.24,5.24,0,0,0,.49-.71c2.73-2.48,5.15-6.52,7.1-11a2.76,2.76,0,0,0,.36-.85c3.12-7.52,5-16.12,5-20.92,0-3-2.89-14.57-9.47-14.57-10.74,0-12.45,14.76-26.31,14.76-1.52,0-8.52-1-8.52-4.35,0-.95-.38-1.52-.38-2.47s.76-4.73.76-5.68c0-.75-.29-3-2.09-3-.23,0-.64.3-1.14.79h-.47L401.52,34c-1.49,1.83-3,4.26-3,5.1v7.3c.42.45.49,1.34.26,1.07l-.65.74V50a1.37,1.37,0,0,0,.17.7l-.1.34-.41,1.52a.75.75,0,0,0-.42.2V54c-2.56,9-8.93,29.29-12.68,29.29-.95,0-2.09-.75-2.09-1.69,0-.62-.79-1.32-1.35-2-.19-.39-.38-.81-.55-1.22-.17-1.4-1.89-7.64-1.89-8.53,0-7.76,7.58-19.46,7.58-25a2.8,2.8,0,0,0-.61-2.06,2.33,2.33,0,0,0-1.48-.41,3.81,3.81,0,0,0-1.87.55,6.12,6.12,0,0,0-2.61,2.61c-4.23,5.94-7,18.2-7.18,18.52-.62,1.05-1.13,2.08-1.64,3-.68,1-1.42,2-2.22,3.11a6.23,6.23,0,0,1-2.68,1.49c-1,2.82-10.33,12.73-13.41,12.73-4,0-3.79-2-3.79-5.31,0-3.78,4.55-20.67,4.55-20.81,0-1.73,2.42-8.78,4.6-14.79a39.12,39.12,0,0,0,2.81-7.59l.54-1.47c0-1.28-1.09-3.4-2.84-3.4a2.08,2.08,0,0,0-1.19.42c-1.77.17-1.27.91-3.43,3.08-.17.86-.67,2.56-1.37,4.76a154.34,154.34,0,0,0-5.72,17.42c-1.81,5.58-3.25,10.32-3.25,11.6,0,.29-.17,1.48-.41,3A93.73,93.73,0,0,0,341.29,81c0,6.29,2.74,9.46,9.65,9.46,5.87,0,19.14-12.82,20.79-15.52.19,1.79,4.44,14.76,10.64,14.76.32,0,1,0,1.75-.07,0,.42,1.75-.07,1.41-.17a7.46,7.46,0,0,0,3.25-1.07,22.48,22.48,0,0,0,3.12-4,28.89,28.89,0,0,0,3.46-5.55c.38-.74.74-1.51,1.08-2.3a22.69,22.69,0,0,0,2.39-6.49,132.53,132.53,0,0,0,3.79-17,21.75,21.75,0,0,1,.7-2.21c2.51.3,7.45,1.06,8.4,1.06s7.38-1.52,8.33-1.52,1.19-.06,1.51.23c-1.84,5.53-4.54,11.51-4.54,16.8,0,2.36-1,6-1.71,8.9a2.82,2.82,0,0,0-.21,1.53,16.68,16.68,0,0,0-.36,3A8,8,0,0,0,423.08,89c.94,0,3.59-1.89,4.54-1.89s4,.76,4.92.76c17,0,36.57-23.7,38.81-39.72l.09-.37c.29.55,1.8,3.87,2.61,6l.52,1.88c0,.38.13,1.09.27,1.94-.17-.43-.07.38.1.56l.17,1c-.09-.31.15,1.19.12.74.25,1.5.47,2.89.47,3.31,0,8-10.22,17.08-10.22,21.38,0,2.18,3.08,6.63,6.63,6.63,5.48,0,11.53-2.26,16.76-4.87a74.35,74.35,0,0,0,9.79-5.59,20.11,20.11,0,0,1,3.54-2c1,0,.83.32,1.15.6a17.31,17.31,0,0,0-1.15,5.26c0,1,.39,2.27.44,3.17,2,.06,4.49.81,5.44.81,1.56,0,5.43-9.14,7.17-11a62.23,62.23,0,0,0,4.2,6.12c3.61,4.36,6.66,5.24,12.67,5.24,2.64,0,7.21-2.19,11.53-4.32,2.9-1.23,5.72-2.6,8.38-3.74a5.63,5.63,0,0,1,1.48-.27c.67,0,1.49.81,2.57,2,3.58,5.42,10.73,10.76,16.43,10.86a25.11,25.11,0,0,0,4.28.36c11.75,0,42.2-4.54,49.79-17.28a11.7,11.7,0,0,0,1.29-3.11h-2.64ZM529.8,15.16c.24.1.55.93-.15,2.53-.53,2.23-1.08,4.52-1.66,6.84,0-.3-2.09,8.44-2.09,8.44-.7,2-1.37,3.94-2,5.65-1,1.08-1.92.89-1.92.25C522,36.47,527.48,21.32,529.8,15.16ZM429.25,79.39a3.72,3.72,0,0,1-.88.11c-1.79,0-3.78-8.43-3.78-8.7,0-1,1.13-1.91,1.13-2.09,0-.95-.75-.19-.75-1.14a2.92,2.92,0,0,1,0-.45l.24-1a24.61,24.61,0,0,0,.85-3.22l.69-2.51C429,54,436,37.85,439.16,37.85a4.44,4.44,0,0,1,3.65,1.86,11.76,11.76,0,0,1,.89,1.74c0-.2,1.17,2.19,1.33,7.2.05,1.39-2.42,10.41-6,18.35-.92,1.49-1.88,3-2.86,4.36.18-.31-.93.3-.84,1.18A35.74,35.74,0,0,1,429.25,79.39Zm149.07-7.26c-1.71,4.32-6,11.53-8.52,11.53s-6.64-7.71-6.64-8,11.65-10.78,16.93-15.88L580,61.24a5.41,5.41,0,0,0-.35,3.15c-.27,2.33-.55,4.51-.55,5.29C578.83,70.48,578.58,71.31,578.32,72.13Z"/></g></g></svg>