<svg xmlns="http://www.w3.org/2000/svg" viewBox="0 0 2079.17 211.96"><defs><style>.cls-1{fill:#fff;}</style></defs><title>wilson-academy--white</title><g id="Layer_2" data-name="Layer 2"><g id="Layer_1-2" data-name="Layer 1"><path class="cls-1" d="M932.34,136.24l-24.77,70.45H892.94L965.77,5.5H979.5L1052,206.69h-14.63L1012,136.24Zm75.22-11.94L983.09,57.14c-4.78-14-7.47-24.18-10.45-35.52H972c-3,11.64-6.27,22.09-10.44,34.93L936.82,124.3Z"/><path class="cls-1" d="M1210.54,199.52c-10.15,5.38-29.55,10.15-54,10.15-48.66,0-95.22-31-95.22-102.38,0-59.7,38.5-105.07,101.78-105.07,25.67,0,40.6,5.67,46.87,9l-4.78,11.94c-10.15-5.07-24.77-8.65-41.79-8.65-54.32,0-87.46,35.22-87.46,93.13,0,54.62,31.34,89.84,85.07,89.84,17.32,0,34-3.58,45.37-9.25Z"/><path class="cls-1" d="M1262.48,136.24l-24.77,70.45h-14.63L1295.91,5.5h13.73l72.54,201.19h-14.63l-25.37-70.45Zm75.22-11.94-24.47-67.16c-4.78-14-7.47-24.18-10.45-35.52h-.6c-3,11.64-6.27,22.09-10.44,34.93L1267,124.3Z"/><path class="cls-1" d="M1407.25,8.19A330.73,330.73,0,0,1,1458.59,4c36.72,0,64.48,9.85,81.19,27.46,16.12,16.72,25.08,39.11,25.08,69.55,0,29.55-8.06,56.42-26.27,76.42-17.91,19.4-48.06,30.74-86.86,30.74-15.52,0-30.15-.3-44.48-1.79Zm14,186.56c8.36,1.19,20,1.49,32.54,1.49,64.47,0,96.41-36.12,96.41-94.32.3-51.05-28.06-86-92.53-86a212.76,212.76,0,0,0-36.42,3Z"/><path class="cls-1" d="M1689,106.69h-80.59v88.06h90.14v11.94H1594.41V5.5h99.4V17.44h-85.37V94.75H1689Z"/><path class="cls-1" d="M1897.08,111.17C1895,81,1892.6,44,1892.9,22.22H1892c-7.17,21.79-15.53,45.07-26.87,74.92l-42.38,109.55h-9.85l-39.7-106.86c-11.35-31.34-20-55.52-26-77.61h-.9c-.3,23.58-1.79,58.5-4.18,91.94l-6.27,92.53h-14L1736.49,5.5h16.42l43.28,115.82c9.25,25.67,16.42,46,22.09,65.37h.6c5.37-18.51,12.53-38.21,22.68-65.07L1886.33,5.5h17l13.73,201.19h-14Z"/><path class="cls-1" d="M1997.08,206.69V119.53l-64.17-114H1949l33.13,60c8.36,15.82,15.82,28.66,22.68,43.28h.6c6.27-13.73,14.33-27.76,23.28-43.58l34.33-59.7h16.12l-68.06,114.33v86.86Z"/><path class="cls-1" d="M0,5.57H43.84L69.75,126.84h.6L93.85,5.57h39.77l23.81,119.92h.6L182.73,5.57h45.05L179.57,206.69H138.29l-19.13-89.94Q116,102,113.89,88.28h-.6q-3.78,23.35-5.43,31.18l-19,87.23H48.21Z"/><path class="cls-1" d="M238.56,5.57h45.65V206.69H238.56Z"/><path class="cls-1" d="M313.38,5.57H359V160.14h36.16v46.55h-81.8Z"/><path class="cls-1" d="M410.63,202.92V156.07q21.69,12.66,36.46,12.65,8.58,0,13.56-4.74t5-12.58a18.39,18.39,0,0,0-4-11.3q-4-5.26-13.79-12.8-23.65-18.08-34.27-33.67A60.33,60.33,0,0,1,403,58.9q0-26.05,16.42-42.48T461.85,0a94.82,94.82,0,0,1,38.27,8.29v45q-20.34-11.14-33-11.15-8.44,0-13.34,4.14T448.9,57.7q0,12.64,22.74,28.47,13.56,9.35,27.5,26.29a60,60,0,0,1,13.93,39.24q0,26.07-18.23,43.16T448.6,212A87,87,0,0,1,410.63,202.92Z"/><path class="cls-1" d="M595.87,211.66q-36.47,0-55.59-27.95T521.15,103q0-48.66,19.2-75.85T593.91,0q36.6,0,56,27.27t19.36,77.88q0,50.63-19.05,78.56T595.87,211.66Zm-1.66-166q-24.71,0-24.71,58,0,37.35,6.26,49.86T593.91,166q12.8,0,19.66-12.5t6.85-49Q620.42,45.65,594.21,45.65Z"/><path class="cls-1" d="M687.7,5.57h46.1l58,116-1.66-21.69V5.57h45.65V206.69H788.94L732.14,92.5l1.21,25v89.19H687.7Z"/></g></g></svg>